# This file uses centimeters as units for non-parametric coordinates.

mtllib Bench.mtl
g default
v 3.068895 1.016780 0.190175
v 3.068615 0.961882 0.245072
v 3.068512 0.886889 0.265166
v 3.131295 0.886889 0.245393
v 3.177462 0.886889 0.190730
v 3.194640 0.886889 0.115824
v 3.177845 0.961882 0.115738
v 3.131959 1.016780 0.115503
v 3.069279 1.036874 0.115183
v 3.073523 0.961882 -0.714726
v 3.073242 1.016780 -0.659829
v 3.072859 1.036874 -0.584837
v 3.135538 1.016780 -0.584517
v 3.181424 0.961882 -0.584282
v 3.198219 0.886889 -0.584196
v 3.181808 0.886889 -0.659274
v 3.136203 0.886889 -0.714406
v 3.073625 0.886889 -0.734820
v -3.181807 0.886889 0.158216
v -3.136203 0.886889 0.213347
v -3.073625 0.886889 0.233763
v -3.073522 0.961882 0.213668
v -3.073241 1.016780 0.158771
v -3.072858 1.036874 0.083778
v -3.135539 1.016780 0.083458
v -3.181424 0.961882 0.083223
v -3.198219 0.886889 0.083138
v -3.131295 0.886889 -0.746451
v -3.177462 0.886889 -0.691789
v -3.194640 0.886889 -0.616882
v -3.177845 0.961882 -0.616796
v -3.131960 1.016780 -0.616562
v -3.069279 1.036874 -0.616241
v -3.068895 1.016780 -0.691234
v -3.068614 0.961882 -0.746131
v -3.068512 0.886889 -0.766225
v 3.068512 0.036874 0.265166
v 3.194640 0.036874 0.115824
v 3.177462 0.036874 0.190730
v 3.131295 0.036874 0.245393
v 3.073625 0.036874 -0.734820
v 3.136203 0.036874 -0.714406
v 3.181808 0.036874 -0.659274
v 3.198219 0.036874 -0.584196
v -3.073625 0.036874 0.233763
v -3.136203 0.036874 0.213347
v -3.181807 0.036874 0.158216
v -3.198219 0.036874 0.083138
v -3.068512 0.036874 -0.766225
v -3.194640 0.036874 -0.616882
v -3.177462 0.036874 -0.691789
v -3.131295 0.036874 -0.746451
v 3.123115 1.005501 0.180265
v 3.122839 0.951695 0.234071
v 3.168086 0.951695 0.180495
v 3.127631 0.951695 -0.703171
v 3.127357 1.005501 -0.649365
v 3.172328 0.951695 -0.649136
v -3.172328 0.951695 0.148077
v -3.127631 0.951695 0.202112
v -3.127356 1.005501 0.148308
v -3.122839 0.951695 -0.735129
v -3.168086 0.951695 -0.681554
v -3.123114 1.005501 -0.681323
v 2.951915 0.886889 -0.735443
v 2.951813 0.961882 -0.715349
v 2.951531 1.016780 -0.660452
v 2.951148 1.036874 -0.585460
v 2.947570 1.036874 0.114561
v 2.947186 1.016780 0.189552
v 2.946905 0.961882 0.244450
v 2.946803 0.886889 0.264544
v 2.946803 0.036874 0.264544
v 2.951915 0.036874 -0.735443
v -2.929456 0.886889 -0.765514
v -2.929559 0.961882 -0.745420
v -2.929839 1.016780 -0.690523
v -2.930223 1.036874 -0.615531
v -2.933802 1.036874 0.084490
v -2.934185 1.016780 0.159481
v -2.934466 0.961882 0.214379
v -2.934568 0.886889 0.234473
v -2.934568 0.036874 0.234473
v -2.929456 0.036874 -0.765514
v -2.819130 0.886889 0.235409
v 2.834999 0.886889 0.263676
v 2.849261 0.961882 0.243581
v -2.834599 0.961882 0.215316
v 2.849542 1.016780 0.188684
v -2.834319 1.016780 0.160418
v 2.849925 1.036874 0.113692
v -2.833935 1.036874 0.085426
v -2.832215 1.036874 -0.414017
v 2.851642 1.036874 -0.384956
v 2.851614 1.063718 -0.379413
v 2.849941 1.063718 0.110439
v -2.832244 1.063718 -0.408473
v -2.833919 1.063718 0.082159
v 2.849565 1.029238 0.151018
v -2.834295 1.029238 0.122738
v 2.849290 0.935037 0.204947
v -2.834571 0.935037 0.176667
v 2.834803 0.886889 -0.476280
v -2.819034 0.886889 -0.476264
vt 0.267263 0.225548
vt 0.256206 0.225548
vt 0.256206 0.076567
vt 0.267263 0.076567
vt 0.267263 0.237799
vt 0.256206 0.237799
vt 0.245287 0.225548
vt 0.245287 0.076567
vt 0.393830 0.076567
vt 0.393830 0.225548
vt 0.393846 0.237799
vt 0.267263 0.248361
vt 0.256206 0.248361
vt 0.245287 0.237799
vt 0.407077 0.225548
vt 0.407077 0.076567
vt 0.407077 0.237799
vt 0.393753 0.248361
vt 0.417405 0.225548
vt 0.417405 0.076567
vt 0.417405 0.237799
vt 0.406823 0.248361
vt 0.253516 0.792604
vt 0.263470 0.792604
vt 0.263470 0.941583
vt 0.253516 0.941583
vt 0.263470 0.780394
vt 0.253516 0.780397
vt 0.393615 0.792604
vt 0.393615 0.941583
vt 0.240120 0.792604
vt 0.240119 0.941583
vt 0.393615 0.780395
vt 0.240121 0.780397
vt 0.253516 0.769528
vt 0.263470 0.769528
vt 0.406542 0.792604
vt 0.406542 0.941583
vt 0.393615 0.769528
vt 0.406542 0.780399
vt 0.416475 0.792604
vt 0.416475 0.941583
vt 0.406555 0.769528
vt 0.416475 0.780399
vt 0.041146 0.266193
vt 0.205671 0.266193
vt 0.205671 0.467160
vt 0.041146 0.467160
vt 0.205671 0.751965
vt 0.041146 0.751965
vt 0.041146 0.560677
vt 0.205671 0.560677
vt 0.784656 0.067294
vt 0.943763 0.067295
vt 0.943763 0.096977
vt 0.784656 0.096977
vt 0.735483 0.067294
vt 0.735483 0.096977
vt 0.943763 0.962098
vt 0.784626 0.962100
vt 0.784658 0.936559
vt 0.943763 0.936559
vt 0.735498 0.962093
vt 0.735489 0.936559
vt 0.245405 0.300658
vt 0.256206 0.283676
vt 0.267263 0.283675
vt 0.258325 0.300659
vt 0.253516 0.737334
vt 0.245405 0.719894
vt 0.260303 0.719894
vt 0.263476 0.742181
vt 0.256206 0.257868
vt 0.267263 0.257868
vt 0.267263 0.266193
vt 0.256206 0.266193
vt 0.393615 0.257868
vt 0.393615 0.266193
vt 0.267263 0.283675
vt 0.245405 0.257867
vt 0.245405 0.266193
vt 0.245405 0.248361
vt 0.406568 0.257868
vt 0.406568 0.266193
vt 0.355883 0.283675
vt 0.420689 0.257841
vt 0.420689 0.266193
vt 0.406568 0.751965
vt 0.393615 0.751965
vt 0.355882 0.741874
vt 0.420689 0.248386
vt 0.420689 0.751965
vt 0.406568 0.760609
vt 0.393615 0.760609
vt 0.263470 0.751965
vt 0.263470 0.741875
vt 0.420689 0.760606
vt 0.263470 0.760609
vt 0.253516 0.751965
vt 0.420689 0.769277
vt 0.253516 0.760609
vt 0.245405 0.751965
vt 0.245405 0.760609
vt 0.245405 0.769528
vt 0.441218 0.751965
vt 0.441218 0.266193
vt 0.617453 0.266193
vt 0.617453 0.306002
vt 0.617453 0.722532
vt 0.617453 0.751965
vt 0.205671 0.257868
vt 0.205671 0.248361
vt 0.205671 0.300659
vt 0.041146 0.257868
vt 0.041146 0.248361
vt 0.205671 0.719894
vt 0.205671 0.760609
vt 0.205671 0.769528
vt 0.041146 0.760609
vt 0.041146 0.769528
vt 0.441218 0.257806
vt 0.441218 0.248411
vt 0.617453 0.257806
vt 0.617453 0.266193
vt 0.617453 0.248411
vt 0.441218 0.760604
vt 0.617453 0.751965
vt 0.617453 0.760604
vt 0.441218 0.769027
vt 0.617453 0.769027
vt 0.699688 0.096977
vt 0.699688 0.936559
vt 0.967885 0.096977
vt 0.967885 0.936559
vt 0.505063 0.306002
vt 0.505064 0.722532
vn 0.101578 0.019737 0.994632
vn 0.077396 0.500839 0.862073
vn -0.005323 0.037644 0.999277
vn -0.005889 0.499878 0.866076
vn 0.081158 0.704561 0.704987
vn -0.004809 0.707104 0.707093
vn 0.071139 0.963387 0.258504
vn 0.106212 0.994051 0.024122
vn -0.001759 0.965926 0.258814
vn -0.000196 0.999583 0.028873
vn 0.999495 0.017747 0.026374
vn 0.974631 0.011604 0.223516
vn 0.999642 0.000000 0.026777
vn 0.974697 0.000000 0.223531
vn 0.763896 0.015137 0.645162
vn 0.564182 0.014895 0.825516
vn 0.763983 0.000000 0.645236
vn 0.564125 0.000000 0.825690
vn 0.103248 0.000000 0.994656
vn 0.568293 0.822565 0.020730
vn 0.106453 0.994051 -0.023034
vn 0.568480 0.822562 -0.014918
vn 0.767042 0.641218 0.022025
vn 0.767232 0.641213 -0.014180
vn 0.975648 0.218528 0.018882
vn 0.975790 0.218530 -0.008905
vn 0.999712 0.017747 -0.016152
vn 0.073779 0.963387 -0.257762
vn 0.000449 0.996132 -0.087873
vn 0.001323 0.965926 -0.258813
vn 0.089067 0.704518 -0.704075
vn 0.088367 0.704561 -0.704120
vn 0.003615 0.707105 -0.707099
vn 0.003615 0.707105 -0.707099
vn 0.077387 0.258138 -0.963004
vn 0.111747 0.019737 -0.993541
vn 0.004939 0.258819 -0.965913
vn 0.004997 0.212885 -0.977065
vn 0.310105 0.013971 -0.950600
vn 0.113417 0.000000 -0.993548
vn 0.310137 0.000000 -0.950692
vn 0.770461 0.014617 -0.637320
vn 0.770455 0.015137 -0.637314
vn 0.770543 0.000000 -0.637388
vn 0.770543 0.000000 -0.637388
vn 0.976866 0.011604 -0.213539
vn 0.976931 0.000000 -0.213554
vn 0.999863 0.000000 -0.016554
vn -0.102631 0.019917 0.994520
vn -0.572600 0.014896 0.819700
vn -0.104202 0.000000 0.994556
vn -0.572544 0.000000 0.819874
vn -0.770458 0.015137 0.637311
vn -0.770547 0.000000 0.637384
vn -0.976864 0.011603 0.213545
vn -0.999712 0.017746 0.016153
vn -0.976930 0.000000 0.213560
vn -0.999863 0.000000 0.016555
vn -0.975790 0.218528 0.008905
vn -0.999495 0.017747 -0.026374
vn -0.975648 0.218528 -0.018882
vn -0.767231 0.641214 0.014180
vn -0.568476 0.822565 0.014919
vn -0.767052 0.641207 -0.022026
vn -0.568295 0.822564 -0.020731
vn -0.097352 0.994977 0.023292
vn -0.097109 0.994977 -0.024287
vn -0.974631 0.011604 -0.223515
vn -0.999641 0.000000 -0.026777
vn -0.974697 0.000000 -0.223531
vn -0.763896 0.015137 -0.645162
vn -0.763901 0.014616 -0.645168
vn -0.763984 0.000000 -0.645236
vn -0.763984 0.000000 -0.645236
vn -0.300371 0.013971 -0.953720
vn -0.092456 0.019916 -0.995518
vn -0.300402 0.000000 -0.953813
vn -0.094028 0.000000 -0.995570
vn 0.005116 0.000000 -0.999987
vn -0.005117 0.000000 0.999987
vn 0.266538 0.935823 0.230635
vn 0.578354 0.657571 0.482811
vn 0.576196 0.480923 0.660841
vn 0.262926 0.229270 0.937180
vn 0.748340 0.467113 0.470948
vn 0.960413 0.194518 0.199426
vn 0.272495 0.229270 -0.934442
vn 0.584167 0.479852 -0.654592
vn 0.582022 0.657885 -0.477951
vn 0.268887 0.935822 -0.227898
vn 0.753116 0.467115 -0.463271
vn 0.962402 0.194516 -0.189594
vn -0.962403 0.194510 0.189598
vn -0.753115 0.467119 0.463269
vn -0.584169 0.479849 0.654593
vn -0.272501 0.229278 0.934438
vn -0.078468 0.500540 0.862150
vn -0.582017 0.657885 0.477959
vn -0.081420 0.704962 0.704556
vn -0.067158 0.963831 0.257916
vn -0.268881 0.935824 0.227898
vn -0.060911 0.258257 -0.964154
vn -0.262924 0.229270 -0.937180
vn -0.576196 0.480928 -0.660837
vn -0.748335 0.467123 -0.470946
vn -0.960413 0.194521 -0.199422
vn -0.578355 0.657573 -0.482808
vn -0.266540 0.935822 -0.230638
vn -0.064518 0.963831 -0.258589
vn -0.073558 0.705000 -0.705383
vn -0.074215 0.704961 -0.705352
vn 0.004939 0.258819 -0.965913
vn 0.005001 0.207723 -0.978175
vn 0.003615 0.707105 -0.707099
vn 0.003615 0.707105 -0.707099
vn 0.000438 0.996323 -0.085681
vn 0.001323 0.965926 -0.258814
vn -0.000197 0.999591 0.028588
vn 0.000000 1.000000 0.000000
vn -0.000330 0.999382 0.035153
vn -0.002427 0.965925 0.258811
vn -0.001785 0.965925 0.258815
vn -0.004934 0.267182 0.963634
vn -0.006631 0.707107 0.707075
vn -0.005972 0.500130 0.865930
vn -0.004875 0.707110 0.707087
vn -0.004852 0.257881 0.966164
vn -0.005321 0.036045 0.999336
vn -0.005109 0.000000 0.999987
vn 0.005109 0.000000 -0.999987
vn -0.999987 0.000000 -0.005112
vn -0.999987 0.000000 -0.005112
vn -0.999987 0.000000 -0.005112
vn -0.999987 0.000000 -0.005112
vn 0.999987 0.000000 0.005113
vn 0.999987 0.000000 0.005113
vn 0.999987 0.000000 0.005113
vn 0.999987 0.000000 0.005113
vn 0.000000 -1.000000 0.000000
vn 0.000000 -1.000000 0.000000
vn 0.000000 -1.000000 0.000000
vn 0.000000 -1.000000 0.000000
vn -0.004936 0.268703 0.963210
vn -0.004869 0.259688 0.965680
vn -0.006291 0.707101 0.707084
vn -0.002303 0.965925 0.258811
vn -0.000310 0.999393 0.034831
vn -0.000322 0.997898 0.064800
vn 0.000000 1.000000 -0.000000
vn -0.000323 0.997896 0.064841
vn 0.000000 1.000000 -0.000000
vn -0.003222 0.762064 0.647494
vn -0.003222 0.762063 0.647496
vn -0.004318 0.496840 0.867832
vn -0.004318 0.496840 0.867832
vn -0.004318 0.496839 0.867832
vn -0.004318 0.496839 0.867832
vn 0.000000 1.000000 -0.000001
vn 0.999994 0.000338 0.003443
vn 0.999994 0.000322 0.003442
vn 0.999994 -0.000179 0.003416
vn 0.999994 -0.000199 0.003415
vn 0.005007 0.202249 -0.979321
vn 0.005007 0.202248 -0.979322
vn 0.005007 0.202249 -0.979321
vn 0.005007 0.202248 -0.979321
vn -0.999994 -0.000356 -0.003444
vn -0.999994 0.000195 -0.003414
vn -0.999994 -0.000338 -0.003443
vn -0.999994 0.000217 -0.003413
vn 0.997144 0.071517 0.024258
vn 0.999951 0.001003 0.009860
vn 0.999138 0.037698 0.017359
vn 0.999952 0.000595 0.009776
vn -0.997149 -0.071466 -0.024223
vn -0.999141 -0.037646 -0.017332
vn -0.999951 -0.000983 -0.009848
vn -0.999952 -0.000576 -0.009764
vn -0.999994 0.002578 -0.002531
vn -0.999995 0.003009 -0.000335
vn -0.999995 0.002685 -0.001989
vn -0.999995 0.003160 0.000440
vn 0.999994 -0.002570 0.002530
vn 0.999994 -0.002678 0.001993
vn 0.999995 -0.003009 0.000355
vn 0.999995 -0.003164 -0.000413
vn 0.002837 0.821319 -0.570462
vn 0.002839 0.821213 -0.570615
vn 0.002837 0.821319 -0.570462
vn 0.002839 0.821212 -0.570616
vn 0.000000 -1.000000 -0.000000
vn 0.000000 -1.000000 -0.000000
vn 0.000000 -1.000000 -0.000000
vn 0.000000 -1.000000 -0.000000
s 1
g pCube1
usemtl BenchLambert
f 3/111/1 2/80/2 72/46/3
f 72/46/3 2/80/2 71/81/4
f 2/80/2 1/73/5 71/81/4
f 71/81/4 1/73/5 70/76/6
f 1/73/7 9/74/8 70/76/9
f 70/76/9 9/74/8 69/75/10
s 3
f 6/1/11 5/2/12 38/4/13
f 38/4/13 5/2/12 39/3/14
s 1
f 5/2/15 4/7/16 39/3/17
f 39/3/17 4/7/16 40/8/18
f 4/112/16 3/111/1 40/115/18
f 40/115/18 3/111/1 37/114/19
f 9/74/8 8/12/20 12/77/21
f 12/77/21 8/12/20 13/18/22
f 8/12/20 7/5/23 13/18/22
f 13/18/22 7/5/23 14/11/24
s 3
f 7/5/25 6/1/11 14/11/26
f 14/11/26 6/1/11 15/10/27
s 1
f 12/77/21 11/83/28 68/78/29
f 68/78/29 11/83/28 67/84/30
f 11/83/31 10/86/32 67/84/33
f 67/84/33 10/86/32 66/87/34
s 9
f 10/86/35 18/121/36 66/87/37
f 66/87/37 18/121/36 65/106/38
f 18/121/36 17/122/39 41/123/40
f 41/123/40 17/122/39 42/125/41
s 1
f 17/19/42 16/15/43 42/20/44
f 42/20/44 16/15/43 43/16/45
s 3
f 16/15/46 15/10/27 43/16/47
f 43/16/47 15/10/27 44/9/48
s 1
f 21/117/49 20/118/50 45/119/51
f 45/119/51 20/118/50 46/120/52
f 20/31/50 19/23/53 46/32/52
f 46/32/52 19/23/53 47/26/54
s 14
f 19/23/55 27/24/56 47/26/57
f 47/26/57 27/24/56 48/25/58
f 27/24/56 26/27/59 30/29/60
f 30/29/60 26/27/59 31/33/61
s 1
f 26/27/62 25/36/63 31/33/64
f 31/33/64 25/36/63 32/39/65
f 25/36/63 24/98/66 32/39/65
f 32/39/65 24/98/66 33/94/67
s 14
f 30/29/60 29/37/68 50/30/69
f 50/30/69 29/37/68 51/38/70
s 1
f 29/37/71 28/41/72 51/38/73
f 51/38/73 28/41/72 52/42/74
s 9
f 28/129/75 36/126/76 52/130/77
f 52/130/77 36/126/76 49/128/78
s 3
f 6/1/11 38/4/13 15/10/27
f 15/10/27 38/4/13 44/9/48
s 1
f 9/74/8 12/77/21 69/75/10
f 69/75/10 12/77/21 68/78/29
s 14
f 27/24/56 30/29/60 48/25/58
f 48/25/58 30/29/60 50/30/69
s 9
f 18/121/36 41/123/40 65/106/38
f 65/106/38 41/123/40 74/124/79
s 1
f 72/46/3 73/45/80 3/111/1
f 3/111/1 73/45/80 37/114/19
f 8/12/20 9/74/8 53/13/81
f 53/13/81 9/74/8 1/73/7
f 53/13/82 1/73/5 54/82/83
f 54/82/83 1/73/5 2/80/2
f 2/80/2 3/111/1 54/82/84
f 54/82/84 3/111/1 4/112/16
f 4/7/16 5/2/15 54/14/83
f 54/14/83 5/2/15 55/6/85
s 3
f 5/2/12 6/1/11 55/6/86
f 55/6/86 6/1/11 7/5/25
s 1
f 55/6/85 7/5/23 53/13/82
f 53/13/82 7/5/23 8/12/20
f 53/13/82 54/14/83 55/6/85
s 9
f 17/122/39 18/121/36 56/91/87
f 56/91/87 18/121/36 10/86/35
s 1
f 56/91/88 10/86/32 57/22/89
f 57/22/89 10/86/32 11/83/31
f 11/83/28 12/77/21 57/22/90
f 57/22/90 12/77/21 13/18/22
f 13/18/22 14/11/24 57/22/89
f 57/22/89 14/11/24 58/17/91
s 3
f 14/11/26 15/10/27 58/17/92
f 58/17/92 15/10/27 16/15/46
s 1
f 58/17/91 16/15/43 56/21/88
f 56/21/88 16/15/43 17/19/42
f 56/21/88 57/22/89 58/17/91
s 14
f 26/27/59 27/24/56 59/28/93
f 59/28/93 27/24/56 19/23/55
s 1
f 59/28/94 19/23/53 60/34/95
f 60/34/95 19/23/53 20/31/50
f 20/118/50 21/117/49 60/104/96
f 60/104/96 21/117/49 22/103/97
f 60/104/95 22/103/97 61/35/98
f 61/35/98 22/103/97 23/101/99
f 23/101/100 24/98/66 61/35/101
f 61/35/101 24/98/66 25/36/63
f 25/36/63 26/27/62 61/35/98
f 61/35/98 26/27/62 59/28/94
f 59/28/94 60/34/95 61/35/98
s 9
f 35/97/102 36/126/76 62/100/103
f 62/100/103 36/126/76 28/129/75
s 1
f 28/41/72 29/37/71 62/44/104
f 62/44/104 29/37/71 63/40/105
s 14
f 29/37/68 30/29/60 63/40/106
f 63/40/106 30/29/60 31/33/61
s 1
f 63/40/105 31/33/64 64/43/107
f 64/43/107 31/33/64 32/39/65
f 32/39/65 33/94/67 64/43/108
f 64/43/108 33/94/67 34/93/109
f 64/43/107 34/93/110 62/100/104
f 62/100/104 34/93/110 35/97/111
f 62/44/104 63/40/105 64/43/107
s 9
f 66/87/37 65/106/38 76/92/112
f 76/92/112 65/106/38 75/105/113
s 1
f 67/84/33 66/87/34 77/88/114
f 77/88/114 66/87/34 76/92/115
f 68/78/29 67/84/30 78/89/116
f 78/89/116 67/84/30 77/88/117
f 78/89/116 79/95/118 93/90/119
f 93/90/119 79/95/118 92/96/120
f 90/69/121 92/96/120 80/99/122
f 80/99/122 92/96/120 79/95/118
f 88/70/123 90/69/124 81/102/125
f 81/102/125 90/69/124 80/99/126
f 85/116/127 88/70/123 82/49/128
f 82/49/128 88/70/123 81/102/125
s 9
f 76/92/112 75/105/113 35/97/102
f 35/97/102 75/105/113 36/126/76
s 1
f 77/88/114 76/92/115 34/93/110
f 34/93/110 76/92/115 35/97/111
f 78/89/116 77/88/117 33/94/67
f 33/94/67 77/88/117 34/93/109
f 79/95/118 78/89/116 24/98/66
f 24/98/66 78/89/116 33/94/67
f 80/99/122 79/95/118 23/101/100
f 23/101/100 79/95/118 24/98/66
f 81/102/125 80/99/126 22/103/97
f 22/103/97 80/99/126 23/101/99
f 82/49/128 81/102/125 21/117/49
f 21/117/49 81/102/125 22/103/97
f 21/117/49 45/119/51 82/49/128
f 82/49/128 45/119/51 83/50/129
s 9
f 75/105/113 84/127/130 36/126/76
f 36/126/76 84/127/130 49/128/78
s 27
f 73/45/131 72/46/132 74/48/133
f 74/48/133 72/46/132 65/47/134
s 28
f 82/49/135 83/50/136 75/52/137
f 75/52/137 83/50/136 84/51/138
s 29
f 65/106/139 72/107/140 103/135/141
f 103/135/141 72/107/140 86/108/142
s 1
f 71/81/4 87/65/143 72/46/3
f 72/46/3 87/65/143 86/113/144
f 71/81/4 70/76/6 87/65/143
f 87/65/143 70/76/6 89/66/145
f 70/76/9 69/75/10 89/66/146
f 89/66/146 69/75/10 91/79/147
s 30
f 96/56/148 95/55/149 98/61/150
f 98/61/150 95/55/149 97/62/151
f 99/58/152 96/56/148 100/64/153
f 100/64/153 96/56/148 98/61/150
s 31
f 101/131/154 99/58/155 102/132/156
f 102/132/156 99/58/155 100/64/157
s 1
f 86/113/144 87/65/143 85/116/127
f 85/116/127 87/65/143 88/70/123
f 68/78/29 94/85/158 69/75/10
f 69/75/10 94/85/158 91/79/147
f 94/85/158 68/78/29 93/90/119
f 93/90/119 68/78/29 78/89/116
s 32
f 94/54/159 95/55/160 91/53/161
f 91/53/161 95/55/160 96/56/162
s 33
f 94/133/163 93/134/164 95/55/165
f 95/55/165 93/134/164 97/62/166
s 34
f 93/59/167 92/60/168 97/62/169
f 97/62/169 92/60/168 98/61/170
s 35
f 89/57/171 91/53/172 99/58/173
f 99/58/173 91/53/172 96/56/174
s 36
f 90/63/175 100/64/176 92/60/177
f 92/60/177 100/64/176 98/61/178
s 37
f 87/65/179 89/66/180 101/68/181
f 101/68/181 89/66/180 99/67/182
s 38
f 88/70/183 102/71/184 90/69/185
f 90/69/185 102/71/184 100/72/186
s 39
f 88/70/187 87/65/188 102/71/189
f 102/71/189 87/65/188 101/68/190
s 29
f 104/136/191 103/135/141 85/109/192
f 85/109/192 103/135/141 86/108/142
f 75/105/193 104/136/191 82/110/194
f 82/110/194 104/136/191 85/109/192
f 65/106/139 103/135/141 75/105/193
f 75/105/193 103/135/141 104/136/191
