# This file uses meters as units for non-parametric coordinates.

mtllib EvoManPiece5.mtl
g default
v -120.000000 -40.000031 0.000000
v -40.000015 -80.000031 0.000000
v -40.000015 -40.000031 0.000000
v 40.000015 -80.000031 0.000000
v 40.000015 -40.000031 0.000000
v 120.000008 -80.000031 0.000000
v 120.000008 -40.000031 0.000000
v 200.000000 -80.000031 0.000000
v 200.000000 -40.000031 0.000000
v -120.000000 -0.000031 0.000000
v -40.000015 -0.000031 0.000000
v 40.000015 -0.000031 0.000000
v 120.000008 -0.000031 0.000000
v 200.000000 -0.000031 0.000000
v -200.000000 39.999969 0.000000
v -120.000000 39.999969 0.000000
v -40.000015 39.999969 0.000000
v 40.000015 39.999969 0.000000
v 120.000008 39.999969 0.000000
v 200.000000 39.999969 0.000000
v -200.000000 80.000000 0.000000
v -40.000015 80.000000 0.000000
v 40.000015 80.000000 0.000000
v 120.000008 80.000000 0.000000
vt 0.100000 0.560520
vt 0.200000 0.500000
vt 0.200000 0.560520
vt 0.300000 0.500000
vt 0.300000 0.560520
vt 0.400000 0.500000
vt 0.400000 0.560520
vt 0.500000 0.500000
vt 0.500000 0.560520
vt 0.100000 0.621041
vt 0.200000 0.621041
vt 0.300000 0.621041
vt 0.400000 0.621041
vt 0.500000 0.621041
vt 0.000000 0.681561
vt 0.100000 0.681561
vt 0.200000 0.681561
vt 0.300000 0.681561
vt 0.400000 0.681561
vt 0.500000 0.681561
vt 0.000000 0.742082
vt 0.200000 0.742082
vt 0.300000 0.742082
vt 0.400000 0.742082
vn 0.000000 0.000000 1.000000
vn 0.000000 0.000000 1.000000
vn 0.000000 0.000000 1.000000
vn 0.000000 0.000000 1.000000
vn 0.000000 0.000000 1.000000
vn 0.000000 0.000000 1.000000
vn 0.000000 0.000000 1.000000
vn 0.000000 0.000000 1.000000
vn 0.000000 0.000000 1.000000
vn 0.000000 0.000000 1.000000
vn 0.000000 0.000000 1.000000
vn 0.000000 0.000000 1.000000
vn 0.000000 0.000000 1.000000
vn 0.000000 0.000000 1.000000
vn 0.000000 0.000000 1.000000
vn 0.000000 0.000000 1.000000
vn 0.000000 0.000000 1.000000
vn 0.000000 0.000000 1.000000
vn 0.000000 0.000000 1.000000
vn 0.000000 0.000000 1.000000
vn 0.000000 0.000000 1.000000
vn 0.000000 0.000000 1.000000
vn 0.000000 0.000000 1.000000
vn 0.000000 0.000000 1.000000
vn 0.000000 0.000000 1.000000
vn 0.000000 0.000000 1.000000
vn 0.000000 0.000000 1.000000
vn 0.000000 0.000000 1.000000
vn 0.000000 0.000000 1.000000
vn 0.000000 0.000000 1.000000
vn 0.000000 0.000000 1.000000
vn 0.000000 0.000000 1.000000
vn 0.000000 0.000000 1.000000
vn 0.000000 0.000000 1.000000
vn 0.000000 0.000000 1.000000
vn 0.000000 0.000000 1.000000
vn 0.000000 0.000000 1.000000
vn 0.000000 0.000000 1.000000
vn 0.000000 0.000000 1.000000
vn 0.000000 0.000000 1.000000
vn 0.000000 0.000000 1.000000
vn 0.000000 0.000000 1.000000
vn 0.000000 0.000000 1.000000
vn 0.000000 0.000000 1.000000
vn 0.000000 0.000000 1.000000
vn 0.000000 0.000000 1.000000
vn 0.000000 0.000000 1.000000
vn 0.000000 0.000000 1.000000
vn 0.000000 0.000000 1.000000
vn 0.000000 0.000000 1.000000
vn 0.000000 0.000000 1.000000
vn 0.000000 0.000000 1.000000
vn 0.000000 0.000000 1.000000
vn 0.000000 0.000000 1.000000
vn 0.000000 0.000000 1.000000
vn 0.000000 0.000000 1.000000
vn 0.000000 0.000000 1.000000
vn 0.000000 0.000000 1.000000
vn 0.000000 0.000000 1.000000
vn 0.000000 0.000000 1.000000
vn 0.000000 0.000000 1.000000
vn 0.000000 0.000000 1.000000
vn 0.000000 0.000000 1.000000
vn 0.000000 0.000000 1.000000
vn 0.000000 0.000000 1.000000
vn 0.000000 0.000000 1.000000
vn 0.000000 0.000000 1.000000
vn 0.000000 0.000000 1.000000
vn 0.000000 0.000000 1.000000
vn 0.000000 0.000000 1.000000
vn 0.000000 0.000000 1.000000
vn 0.000000 0.000000 1.000000
vn 0.000000 0.000000 1.000000
vn 0.000000 0.000000 1.000000
vn 0.000000 0.000000 1.000000
vn 0.000000 0.000000 1.000000
vn 0.000000 0.000000 1.000000
vn 0.000000 0.000000 1.000000
vn 0.000000 0.000000 1.000000
vn 0.000000 0.000000 1.000000
vn 0.000000 0.000000 1.000000
vn 0.000000 0.000000 1.000000
vn 0.000000 0.000000 1.000000
vn 0.000000 0.000000 1.000000
vn 0.000000 0.000000 1.000000
vn 0.000000 0.000000 1.000000
vn 0.000000 0.000000 1.000000
vn 0.000000 0.000000 1.000000
vn 0.000000 0.000000 1.000000
vn 0.000000 0.000000 1.000000
s off
g EvoManPiece5:polySurface1 group4
usemtl initialShadingGroup
f 1/1/1 2/2/2 3/3/3
f 2/2/4 4/4/5 3/3/6
f 3/3/7 4/4/8 5/5/9
f 4/4/10 6/6/11 5/5/12
f 5/5/13 6/6/14 7/7/15
f 6/6/16 8/8/17 7/7/18
f 7/7/19 8/8/20 9/9/21
f 1/1/22 3/3/23 10/10/24
f 10/10/25 3/3/26 11/11/27
f 3/3/28 5/5/29 11/11/30
f 11/11/31 5/5/32 12/12/33
f 5/5/34 7/7/35 12/12/36
f 12/12/37 7/7/38 13/13/39
f 7/7/40 9/9/41 13/13/42
f 13/13/43 9/9/44 14/14/45
f 15/15/46 10/10/47 16/16/48
f 10/10/49 11/11/50 16/16/51
f 16/16/52 11/11/53 17/17/54
f 11/11/55 12/12/56 17/17/57
f 17/17/58 12/12/59 18/18/60
f 12/12/61 13/13/62 18/18/63
f 18/18/64 13/13/65 19/19/66
f 13/13/67 14/14/68 19/19/69
f 19/19/70 14/14/71 20/20/72
f 15/15/73 16/16/74 21/21/75
f 17/17/76 18/18/77 22/22/78
f 22/22/79 18/18/80 23/23/81
f 18/18/82 19/19/83 23/23/84
f 23/23/85 19/19/86 24/24/87
f 19/19/88 20/20/89 24/24/90
