# This file uses meters as units for non-parametric coordinates.

mtllib EvoManPiece3.mtl
g default
v -79.999985 -59.999985 0.000000
v 0.000031 -59.999985 0.000000
v -79.999985 -19.999985 0.000000
v 0.000031 -19.999985 0.000000
v 80.000000 -59.999985 0.000000
v 80.000000 -19.999985 0.000000
v -79.999985 20.000015 0.000000
v 0.000031 20.000015 0.000000
v 80.000000 20.000015 0.000000
v 0.000031 60.000000 0.000000
v 80.000000 60.000000 0.000000
vt 0.800000 0.197398
vt 0.900000 0.197398
vt 0.800000 0.257918
vt 0.900000 0.257918
vt 1.000000 0.197398
vt 1.000000 0.257918
vt 0.800000 0.318439
vt 0.900000 0.318439
vt 1.000000 0.318439
vt 0.900000 0.378959
vt 1.000000 0.378959
vn 0.000000 0.000000 1.000000
vn 0.000000 0.000000 1.000000
vn 0.000000 0.000000 1.000000
vn 0.000000 0.000000 1.000000
vn 0.000000 0.000000 1.000000
vn 0.000000 0.000000 1.000000
vn 0.000000 0.000000 1.000000
vn 0.000000 0.000000 1.000000
vn 0.000000 0.000000 1.000000
vn 0.000000 0.000000 1.000000
vn 0.000000 0.000000 1.000000
vn 0.000000 0.000000 1.000000
vn 0.000000 0.000000 1.000000
vn 0.000000 0.000000 1.000000
vn 0.000000 0.000000 1.000000
vn 0.000000 0.000000 1.000000
vn 0.000000 0.000000 1.000000
vn 0.000000 0.000000 1.000000
vn 0.000000 0.000000 1.000000
vn 0.000000 0.000000 1.000000
vn 0.000000 0.000000 1.000000
vn 0.000000 0.000000 1.000000
vn 0.000000 0.000000 1.000000
vn 0.000000 0.000000 1.000000
vn 0.000000 0.000000 1.000000
vn 0.000000 0.000000 1.000000
vn 0.000000 0.000000 1.000000
vn 0.000000 0.000000 1.000000
vn 0.000000 0.000000 1.000000
vn 0.000000 0.000000 1.000000
s off
g EvoManPiece3:polySurface1 group2
usemtl initialShadingGroup
f 1/1/1 2/2/2 3/3/3
f 3/3/4 2/2/5 4/4/6
f 2/2/7 5/5/8 4/4/9
f 4/4/10 5/5/11 6/6/12
f 3/3/13 4/4/14 7/7/15
f 7/7/16 4/4/17 8/8/18
f 4/4/19 6/6/20 8/8/21
f 8/8/22 6/6/23 9/9/24
f 8/8/25 9/9/26 10/10/27
f 10/10/28 9/9/29 11/11/30
