# This file uses meters as units for non-parametric coordinates.

mtllib EvoManPiece7.mtl
g default
v -160.000000 -159.999985 0.000000
v -80.000000 -159.999985 0.000000
v -160.000000 -119.999985 0.000000
v -80.000000 -119.999985 0.000000
v -0.000015 -159.999985 0.000000
v -0.000015 -119.999985 0.000000
v -160.000000 -79.999985 0.000000
v -80.000000 -79.999985 0.000000
v -160.000000 -40.000000 0.000000
v -80.000000 -40.000000 0.000000
v -160.000000 0.000000 0.000000
v -80.000000 0.000000 0.000000
v -0.000015 -40.000000 0.000000
v -0.000015 0.000000 0.000000
v 80.000015 -40.000000 0.000000
v 80.000015 0.000000 0.000000
v 160.000000 -40.000000 0.000000
v 160.000000 0.000000 0.000000
v -160.000000 40.000000 0.000000
v -80.000000 40.000000 0.000000
v -0.000015 40.000000 0.000000
v 80.000015 40.000000 0.000000
v -160.000000 80.000000 0.000000
v -80.000000 80.000000 0.000000
v -160.000000 120.000000 0.000000
v -80.000000 120.000000 0.000000
v -160.000000 160.000000 0.000000
vt 0.000000 0.197398
vt 0.100000 0.197398
vt 0.000000 0.257918
vt 0.100000 0.257918
vt 0.200000 0.197398
vt 0.200000 0.257918
vt 0.000000 0.318439
vt 0.100000 0.318439
vt 0.000000 0.378959
vt 0.100000 0.378959
vt 0.000000 0.439480
vt 0.100000 0.439480
vt 0.200000 0.378959
vt 0.200000 0.439480
vt 0.300000 0.378959
vt 0.300000 0.439480
vt 0.400000 0.378959
vt 0.400000 0.439480
vt 0.000000 0.500000
vt 0.100000 0.500000
vt 0.200000 0.500000
vt 0.300000 0.500000
vt 0.000000 0.560520
vt 0.100000 0.560520
vt 0.000000 0.621041
vt 0.100000 0.621041
vt 0.000000 0.681561
vn 0.000000 0.000000 1.000000
vn 0.000000 0.000000 1.000000
vn 0.000000 0.000000 1.000000
vn 0.000000 0.000000 1.000000
vn 0.000000 0.000000 1.000000
vn 0.000000 0.000000 1.000000
vn 0.000000 0.000000 1.000000
vn 0.000000 0.000000 1.000000
vn 0.000000 0.000000 1.000000
vn 0.000000 0.000000 1.000000
vn 0.000000 0.000000 1.000000
vn 0.000000 0.000000 1.000000
vn 0.000000 0.000000 1.000000
vn 0.000000 0.000000 1.000000
vn 0.000000 0.000000 1.000000
vn 0.000000 0.000000 1.000000
vn 0.000000 0.000000 1.000000
vn 0.000000 0.000000 1.000000
vn 0.000000 0.000000 1.000000
vn 0.000000 0.000000 1.000000
vn 0.000000 0.000000 1.000000
vn 0.000000 0.000000 1.000000
vn 0.000000 0.000000 1.000000
vn 0.000000 0.000000 1.000000
vn 0.000000 0.000000 1.000000
vn 0.000000 0.000000 1.000000
vn 0.000000 0.000000 1.000000
vn 0.000000 0.000000 1.000000
vn 0.000000 0.000000 1.000000
vn 0.000000 0.000000 1.000000
vn 0.000000 0.000000 1.000000
vn 0.000000 0.000000 1.000000
vn 0.000000 0.000000 1.000000
vn 0.000000 0.000000 1.000000
vn 0.000000 0.000000 1.000000
vn 0.000000 0.000000 1.000000
vn 0.000000 0.000000 1.000000
vn 0.000000 0.000000 1.000000
vn 0.000000 0.000000 1.000000
vn 0.000000 0.000000 1.000000
vn 0.000000 0.000000 1.000000
vn 0.000000 0.000000 1.000000
vn 0.000000 0.000000 1.000000
vn 0.000000 0.000000 1.000000
vn 0.000000 0.000000 1.000000
vn 0.000000 0.000000 1.000000
vn 0.000000 0.000000 1.000000
vn 0.000000 0.000000 1.000000
vn 0.000000 0.000000 1.000000
vn 0.000000 0.000000 1.000000
vn 0.000000 0.000000 1.000000
vn 0.000000 0.000000 1.000000
vn 0.000000 0.000000 1.000000
vn 0.000000 0.000000 1.000000
vn 0.000000 0.000000 1.000000
vn 0.000000 0.000000 1.000000
vn 0.000000 0.000000 1.000000
vn 0.000000 0.000000 1.000000
vn 0.000000 0.000000 1.000000
vn 0.000000 0.000000 1.000000
vn 0.000000 0.000000 1.000000
vn 0.000000 0.000000 1.000000
vn 0.000000 0.000000 1.000000
vn 0.000000 0.000000 1.000000
vn 0.000000 0.000000 1.000000
vn 0.000000 0.000000 1.000000
vn 0.000000 0.000000 1.000000
vn 0.000000 0.000000 1.000000
vn 0.000000 0.000000 1.000000
vn 0.000000 0.000000 1.000000
vn 0.000000 0.000000 1.000000
vn 0.000000 0.000000 1.000000
vn 0.000000 0.000000 1.000000
vn 0.000000 0.000000 1.000000
vn 0.000000 0.000000 1.000000
vn 0.000000 0.000000 1.000000
vn 0.000000 0.000000 1.000000
vn 0.000000 0.000000 1.000000
vn 0.000000 0.000000 1.000000
vn 0.000000 0.000000 1.000000
vn 0.000000 0.000000 1.000000
vn 0.000000 0.000000 1.000000
vn 0.000000 0.000000 1.000000
vn 0.000000 0.000000 1.000000
vn 0.000000 0.000000 1.000000
vn 0.000000 0.000000 1.000000
vn 0.000000 0.000000 1.000000
vn 0.000000 0.000000 1.000000
vn 0.000000 0.000000 1.000000
vn 0.000000 0.000000 1.000000
s off
g EvoManPiece7:polySurface1 group6
usemtl initialShadingGroup
f 1/1/1 2/2/2 3/3/3
f 3/3/4 2/2/5 4/4/6
f 2/2/7 5/5/8 4/4/9
f 4/4/10 5/5/11 6/6/12
f 3/3/13 4/4/14 7/7/15
f 7/7/16 4/4/17 8/8/18
f 4/4/19 6/6/20 8/8/21
f 7/7/22 8/8/23 9/9/24
f 9/9/25 8/8/26 10/10/27
f 9/9/28 10/10/29 11/11/30
f 11/11/31 10/10/32 12/12/33
f 10/10/34 13/13/35 12/12/36
f 12/12/37 13/13/38 14/14/39
f 13/13/40 15/15/41 14/14/42
f 14/14/43 15/15/44 16/16/45
f 15/15/46 17/17/47 16/16/48
f 16/16/49 17/17/50 18/18/51
f 11/11/52 12/12/53 19/19/54
f 19/19/55 12/12/56 20/20/57
f 12/12/58 14/14/59 20/20/60
f 20/20/61 14/14/62 21/21/63
f 14/14/64 16/16/65 21/21/66
f 21/21/67 16/16/68 22/22/69
f 16/16/70 18/18/71 22/22/72
f 19/19/73 20/20/74 23/23/75
f 23/23/76 20/20/77 24/24/78
f 20/20/79 21/21/80 24/24/81
f 23/23/82 24/24/83 25/25/84
f 25/25/85 24/24/86 26/26/87
f 25/25/88 26/26/89 27/27/90
