# This file uses centimeters as units for non-parametric coordinates.

mtllib Framehuge.mtl
g Framehuge:default1
v -2.292391 0.035172 0.058109
v 2.286837 3.730397 0.058109
v 2.244623 3.696332 0.119267
v -2.250177 0.069236 0.119267
v 2.115893 3.592454 0.119267
v -2.121449 0.173113 0.119267
v 2.026089 3.519987 0.020908
v -2.031646 0.245580 0.020908
v 2.115893 0.173113 0.119267
v 2.026089 0.245580 0.020908
v 2.286837 0.035172 0.058109
v 2.244623 0.069236 0.119267
v 0.919433 3.519987 0.020908
v 0.960255 3.592454 0.119267
v 1.018766 3.696332 0.119267
v 1.037956 3.730397 0.058109
v 0.960255 0.173113 0.119267
v 0.919433 0.245580 0.020908
v 1.037956 0.035172 0.058109
v 1.018766 0.069236 0.119267
v -0.924991 3.519987 0.020908
v -0.965811 3.592454 0.119267
v -1.024323 3.696332 0.119267
v -1.043510 3.730397 0.058109
v -0.965811 0.173113 0.119267
v -0.924991 0.245580 0.020908
v -1.043510 0.035172 0.058109
v -1.024323 0.069236 0.119267
v -2.031646 3.519987 0.020908
v -2.121449 3.592454 0.119267
v -2.250177 3.696332 0.119267
v -2.292391 3.730397 0.058109
v -2.121449 2.970756 0.119267
v -2.250177 3.036859 0.119267
v -2.292391 3.058537 0.058109
v 2.286837 3.058537 0.058109
v 2.244623 3.036859 0.119267
v 2.115893 2.970756 0.119267
v 2.026089 2.924640 0.020908
v 0.919433 2.924640 0.020908
v -0.924991 2.924640 0.020908
v -2.031646 2.924640 0.020908
v -2.121449 1.105660 0.119267
v -2.250177 1.058444 0.119267
v -2.292391 1.042960 0.058109
v 2.286837 1.042960 0.058109
v 2.244623 1.058444 0.119267
v 2.115893 1.105660 0.119267
v 2.026089 1.138600 0.020908
v 0.919433 1.138600 0.020908
v -0.924991 1.138600 0.020908
v -2.031646 1.138600 0.020908
v 2.286837 0.371101 0.058109
v 2.244623 0.398972 0.119267
v 2.115893 0.483962 0.119267
v 2.026089 0.543254 0.020908
v 0.919433 0.543254 0.020908
v -0.924991 0.543254 0.020908
v -2.031646 0.543254 0.020908
v -2.121449 0.483962 0.119267
v -2.250177 0.398972 0.119267
v -2.292391 0.371101 0.058109
v 2.286837 1.042960 -0.036266
v 2.286837 0.371101 -0.036266
v 2.286837 0.035172 -0.036266
v 1.037956 0.035172 -0.036266
v -1.043510 0.035172 -0.036266
v -2.292391 0.035172 -0.036266
v -2.292391 0.371101 -0.036266
v -2.292391 1.042960 -0.036266
v -2.292391 3.058537 -0.036266
v -2.292391 3.730397 -0.036266
v -1.043510 3.730397 -0.036266
v 1.037956 3.730397 -0.036266
v 2.286837 3.730397 -0.036266
v 2.286837 3.058537 -0.036266
vt 0.748482 0.868033
vt 0.729784 0.945303
vt 0.717456 0.930057
vt 0.731082 0.857968
vt 0.063568 0.947594
vt 0.040209 0.870504
vt 0.057717 0.860074
vt 0.074622 0.932027
vt 0.701927 0.908146
vt 0.714335 0.835085
vt 0.073934 0.836585
vt 0.089669 0.910020
vt 0.679241 0.882941
vt 0.685499 0.817138
vt 0.103709 0.818558
vt 0.109612 0.882573
vt 0.253966 0.927828
vt 0.261261 0.894813
vt 0.262146 0.821906
vt 0.089837 0.091982
vt 0.255244 0.071967
vt 0.263034 0.105698
vt 0.111868 0.117352
vt 0.074207 0.069449
vt 0.244968 0.047025
vt 0.060671 0.055045
vt 0.240627 0.027608
vt 0.244078 0.952657
vt 0.239928 0.972008
vt 0.535547 0.927653
vt 0.528028 0.894013
vt 0.527351 0.821589
vt 0.536264 0.073470
vt 0.528101 0.106475
vt 0.546854 0.048571
vt 0.551460 0.029376
vt 0.545842 0.952642
vt 0.550139 0.971890
vt 0.698825 0.095374
vt 0.676713 0.121906
vt 0.714590 0.073271
vt 0.727492 0.058247
vt 0.033363 0.212557
vt 0.051549 0.219645
vt 0.069611 0.237658
vt 0.100441 0.251471
vt 0.261110 0.250218
vt 0.526623 0.252074
vt 0.688558 0.252392
vt 0.719440 0.239368
vt 0.737572 0.222107
vt 0.755892 0.215150
vt 0.027765 0.704917
vt 0.046235 0.700666
vt 0.064988 0.688570
vt 0.096233 0.679780
vt 0.259449 0.678984
vt 0.529007 0.678619
vt 0.691733 0.677571
vt 0.722876 0.686341
vt 0.741603 0.698295
vt 0.760051 0.702571
vt 0.014453 0.876531
vt 0.000977 0.705543
vt 0.048379 0.967456
vt 0.237837 0.999023
vt 0.552368 0.998527
vt 0.744936 0.965256
vt 0.775074 0.873156
vt 0.786844 0.703218
vt 0.782439 0.212442
vt 0.745151 0.040440
vt 0.554153 0.002427
vt 0.238322 0.000977
vt 0.043580 0.036748
vt 0.006529 0.209780
vn -0.822980 0.000000 0.568071
vn -0.822980 0.000000 0.568070
vn -0.822995 0.000000 0.568049
vn -0.822995 0.000000 0.568049
vn -0.822980 0.000000 0.568070
vn -0.822998 0.000000 0.568045
vn 0.822980 0.000000 0.568071
vn 0.822996 0.000000 0.568047
vn 0.822982 0.000000 0.568068
vn 0.822982 0.000000 0.568068
vn 0.822996 0.000000 0.568047
vn 0.822996 0.000000 0.568047
vn 0.000045 0.000000 1.000000
vn 0.000030 0.000000 1.000000
vn -0.000003 0.000000 1.000000
vn -0.000003 0.000000 1.000000
vn 0.000030 0.000000 1.000000
vn -0.000005 0.000000 1.000000
vn -0.000022 0.000000 1.000000
vn 0.000021 0.000000 1.000000
vn -0.000007 0.000000 1.000000
vn -0.000007 0.000000 1.000000
vn 0.000021 0.000000 1.000000
vn 0.000017 0.000000 1.000000
vn 0.738498 0.000000 0.674256
vn 0.738496 0.000000 0.674258
vn 0.738496 0.000000 0.674258
vn 0.738496 0.000000 0.674258
vn 0.738496 0.000000 0.674258
vn 0.738495 0.000000 0.674259
vn -0.738485 0.000000 0.674270
vn -0.738490 0.000000 0.674264
vn -0.738484 0.000000 0.674271
vn -0.738484 0.000000 0.674271
vn -0.738490 0.000000 0.674264
vn -0.738492 0.000000 0.674262
vn 0.000000 0.805082 0.593164
vn 0.000000 0.805082 0.593164
vn 0.000000 0.805082 0.593164
vn 0.000000 0.805082 0.593164
vn 0.000000 0.805082 0.593164
vn 0.000000 0.805082 0.593164
vn 0.000000 0.000000 1.000000
vn 0.000000 0.000000 1.000000
vn 0.000000 0.000000 1.000000
vn 0.000000 0.000000 1.000000
vn 0.000000 0.000000 1.000000
vn 0.000000 0.000000 1.000000
vn 0.000000 -0.805081 0.593165
vn 0.000000 -0.805082 0.593163
vn 0.000000 -0.805081 0.593165
vn 0.000000 -0.805081 0.593165
vn 0.000000 -0.805082 0.593163
vn 0.000000 -0.805082 0.593164
vn 0.000000 0.000000 1.000000
vn 0.000000 0.000000 1.000000
vn 0.000000 0.000000 1.000000
vn 0.000000 0.000000 1.000000
vn 0.000000 0.000000 1.000000
vn 0.000000 0.000000 1.000000
vn 0.000000 0.873620 0.486609
vn 0.000000 0.873614 0.486619
vn 0.000000 0.873620 0.486610
vn 0.000000 0.873620 0.486610
vn 0.000000 0.873614 0.486619
vn 0.000000 0.873615 0.486618
vn 0.000000 -0.873620 0.486609
vn 0.000000 -0.873620 0.486609
vn 0.000000 -0.873620 0.486608
vn 0.000000 -0.873620 0.486608
vn 0.000000 -0.873620 0.486609
vn 0.000000 -0.873620 0.486608
vn 0.000000 0.000000 1.000000
vn 0.000000 0.000000 1.000000
vn 0.000000 0.000000 1.000000
vn 0.000000 0.000000 1.000000
vn 0.000000 0.000000 1.000000
vn 0.000000 0.000000 1.000000
vn 0.000000 0.805081 0.593164
vn 0.000000 0.805082 0.593164
vn 0.000000 0.805081 0.593165
vn 0.000000 0.805081 0.593165
vn 0.000000 0.805082 0.593164
vn 0.000000 0.805082 0.593164
vn 0.000000 0.000000 1.000000
vn 0.000000 0.000000 1.000000
vn 0.000000 0.000000 1.000000
vn 0.000000 0.000000 1.000000
vn 0.000000 0.000000 1.000000
vn 0.000000 0.000000 1.000000
vn 0.000000 -0.805082 0.593163
vn 0.000000 -0.805085 0.593160
vn 0.000000 -0.805082 0.593164
vn 0.000000 -0.805082 0.593164
vn 0.000000 -0.805085 0.593160
vn 0.000000 -0.805085 0.593159
vn 0.000000 0.000000 1.000000
vn 0.000000 0.000000 1.000000
vn 0.000000 0.000000 1.000000
vn 0.000000 0.000000 1.000000
vn 0.000000 0.000000 1.000000
vn 0.000000 0.000000 1.000000
vn 0.000000 0.873614 0.486619
vn 0.000000 0.873608 0.486630
vn 0.000000 0.873615 0.486618
vn 0.000000 0.873615 0.486618
vn 0.000000 0.873608 0.486630
vn 0.000000 0.873608 0.486630
vn 0.000000 -0.873620 0.486609
vn 0.000000 -0.873620 0.486609
vn 0.000000 -0.873620 0.486609
vn 0.000000 -0.873620 0.486609
vn 0.000000 -0.873620 0.486609
vn 0.000000 -0.873620 0.486609
vn 0.000000 0.000000 1.000000
vn 0.000000 0.000000 1.000000
vn 0.000000 0.000000 1.000000
vn 0.000000 0.000000 1.000000
vn 0.000000 0.000000 1.000000
vn 0.000000 0.000000 1.000000
vn 0.000000 0.805083 0.593163
vn 0.000000 0.805081 0.593164
vn 0.000000 0.805083 0.593163
vn 0.000000 0.805083 0.593163
vn 0.000000 0.805081 0.593164
vn 0.000000 0.805081 0.593165
vn 0.000000 0.000000 1.000000
vn 0.000000 0.000000 1.000000
vn 0.000000 0.000000 1.000000
vn 0.000000 0.000000 1.000000
vn 0.000000 0.000000 1.000000
vn 0.000000 0.000000 1.000000
vn 0.000000 -0.805084 0.593160
vn 0.000000 -0.805084 0.593160
vn 0.000000 -0.805085 0.593160
vn 0.000000 -0.805085 0.593160
vn 0.000000 -0.805084 0.593160
vn 0.000000 -0.805085 0.593159
vn 0.000000 0.000000 1.000000
vn 0.000000 0.000000 1.000000
vn 0.000000 0.000000 1.000000
vn 0.000000 0.000000 1.000000
vn 0.000000 0.000000 1.000000
vn 0.000000 0.000000 1.000000
vn 0.000000 0.873622 0.486606
vn 0.000000 0.873621 0.486607
vn 0.000000 0.873608 0.486630
vn 0.000000 0.873608 0.486630
vn 0.000000 0.873621 0.486607
vn 0.000000 0.873608 0.486630
vn 0.000000 -0.873620 0.486609
vn 0.000000 -0.873620 0.486609
vn 0.000000 -0.873620 0.486609
vn 0.000000 -0.873620 0.486609
vn 0.000000 -0.873620 0.486609
vn 0.000000 -0.873620 0.486609
vn 0.000000 0.000000 1.000000
vn 0.000000 0.000000 1.000000
vn 0.000000 0.000000 1.000000
vn 0.000000 0.000000 1.000000
vn 0.000000 0.000000 1.000000
vn 0.000000 0.000000 1.000000
vn 0.822979 0.000000 0.568071
vn 0.822981 0.000000 0.568070
vn 0.822980 0.000000 0.568070
vn 0.822980 0.000000 0.568070
vn 0.822981 0.000000 0.568070
vn 0.822977 0.000000 0.568075
vn 0.000025 0.000000 1.000000
vn 0.000019 0.000000 1.000000
vn 0.000000 0.000000 1.000000
vn 0.000000 0.000000 1.000000
vn 0.000019 0.000000 1.000000
vn 0.000000 0.000000 1.000000
vn -0.738493 0.000000 0.674261
vn -0.738491 0.000000 0.674263
vn -0.738492 0.000000 0.674262
vn -0.738492 0.000000 0.674262
vn -0.738491 0.000000 0.674263
vn -0.738494 0.000000 0.674260
vn 0.000000 0.000000 1.000000
vn 0.000000 0.000000 1.000000
vn 0.000000 0.000000 1.000000
vn 0.000000 0.000000 1.000000
vn 0.000000 0.000000 1.000000
vn 0.000000 0.000000 1.000000
vn 0.000000 0.000000 1.000000
vn 0.000000 0.000000 1.000000
vn 0.000000 0.000000 1.000000
vn 0.000000 0.000000 1.000000
vn 0.000000 0.000000 1.000000
vn 0.000000 0.000000 1.000000
vn 0.000000 0.000000 1.000000
vn 0.000000 0.000000 1.000000
vn 0.000000 0.000000 1.000000
vn 0.000000 0.000000 1.000000
vn 0.000000 0.000000 1.000000
vn 0.000000 0.000000 1.000000
vn 0.738500 0.000000 0.674253
vn 0.738498 0.000000 0.674256
vn 0.738499 0.000000 0.674255
vn 0.738499 0.000000 0.674255
vn 0.738498 0.000000 0.674256
vn 0.738500 0.000000 0.674253
vn 0.000000 0.000000 1.000000
vn -0.000019 0.000000 1.000000
vn 0.000000 0.000000 1.000000
vn 0.000000 0.000000 1.000000
vn -0.000019 0.000000 1.000000
vn -0.000025 0.000000 1.000000
vn -0.822981 0.000000 0.568069
vn -0.822978 0.000000 0.568073
vn -0.822982 0.000000 0.568068
vn -0.822982 0.000000 0.568068
vn -0.822978 0.000000 0.568073
vn -0.822975 0.000000 0.568078
vn 0.822980 0.000000 0.568070
vn 0.822977 0.000000 0.568075
vn 0.822976 0.000000 0.568076
vn 0.822976 0.000000 0.568076
vn 0.822977 0.000000 0.568075
vn 0.822977 0.000000 0.568075
vn 0.000000 0.000000 1.000000
vn 0.000002 0.000000 1.000000
vn 0.000025 0.000000 1.000000
vn 0.000025 0.000000 1.000000
vn 0.000002 0.000000 1.000000
vn 0.000019 0.000000 1.000000
vn -0.738490 0.000000 0.674264
vn -0.738490 0.000000 0.674265
vn -0.738493 0.000000 0.674261
vn -0.738493 0.000000 0.674261
vn -0.738490 0.000000 0.674265
vn -0.738491 0.000000 0.674263
vn 0.000000 0.000000 1.000000
vn 0.000000 0.000000 1.000000
vn 0.000000 0.000000 1.000000
vn 0.000000 0.000000 1.000000
vn 0.000000 0.000000 1.000000
vn 0.000000 0.000000 1.000000
vn 0.000000 0.000000 1.000000
vn 0.000000 0.000000 1.000000
vn 0.000000 0.000000 1.000000
vn 0.000000 0.000000 1.000000
vn 0.000000 0.000000 1.000000
vn 0.000000 0.000000 1.000000
vn 0.000000 0.000000 1.000000
vn 0.000000 0.000000 1.000000
vn 0.000000 0.000000 1.000000
vn 0.000000 0.000000 1.000000
vn 0.000000 0.000000 1.000000
vn 0.000000 0.000000 1.000000
vn 0.738498 0.000000 0.674256
vn 0.738496 0.000000 0.674258
vn 0.738500 0.000000 0.674253
vn 0.738500 0.000000 0.674253
vn 0.738496 0.000000 0.674258
vn 0.738497 0.000000 0.674256
vn -0.000019 0.000000 1.000000
vn -0.000004 0.000000 1.000000
vn -0.000025 0.000000 1.000000
vn -0.000025 0.000000 1.000000
vn -0.000004 0.000000 1.000000
vn -0.000002 0.000000 1.000000
vn -0.822978 0.000000 0.568073
vn -0.822970 0.000000 0.568085
vn -0.822975 0.000000 0.568078
vn -0.822975 0.000000 0.568078
vn -0.822970 0.000000 0.568085
vn -0.822969 0.000000 0.568086
vn 0.822996 0.000000 0.568047
vn 0.822976 0.000000 0.568076
vn 0.822996 0.000000 0.568047
vn 0.822996 0.000000 0.568047
vn 0.822976 0.000000 0.568076
vn 0.822977 0.000000 0.568075
vn 0.000021 0.000000 1.000000
vn 0.000002 0.000000 1.000000
vn 0.000017 0.000000 1.000000
vn 0.000017 0.000000 1.000000
vn 0.000002 0.000000 1.000000
vn 0.000000 0.000000 1.000000
vn -0.738490 0.000000 0.674264
vn -0.738490 0.000000 0.674265
vn -0.738492 0.000000 0.674262
vn -0.738492 0.000000 0.674262
vn -0.738490 0.000000 0.674265
vn -0.738490 0.000000 0.674264
vn 0.000000 0.000000 1.000000
vn 0.000000 0.000000 1.000000
vn 0.000000 0.000000 1.000000
vn 0.000000 0.000000 1.000000
vn 0.000000 0.000000 1.000000
vn 0.000000 0.000000 1.000000
vn 0.000000 0.000000 1.000000
vn 0.000000 0.000000 1.000000
vn 0.000000 0.000000 1.000000
vn 0.000000 0.000000 1.000000
vn 0.000000 0.000000 1.000000
vn 0.000000 0.000000 1.000000
vn 0.000000 0.000000 1.000000
vn 0.000000 0.000000 1.000000
vn 0.000000 0.000000 1.000000
vn 0.000000 0.000000 1.000000
vn 0.000000 0.000000 1.000000
vn 0.000000 0.000000 1.000000
vn 0.738496 0.000000 0.674258
vn 0.738495 0.000000 0.674259
vn 0.738496 0.000000 0.674258
vn 0.738496 0.000000 0.674258
vn 0.738495 0.000000 0.674259
vn 0.738497 0.000000 0.674256
vn -0.000003 0.000000 1.000000
vn -0.000005 0.000000 1.000000
vn -0.000004 0.000000 1.000000
vn -0.000004 0.000000 1.000000
vn -0.000005 0.000000 1.000000
vn -0.000002 0.000000 1.000000
vn -0.822995 0.000000 0.568049
vn -0.822998 0.000000 0.568045
vn -0.822970 0.000000 0.568085
vn -0.822970 0.000000 0.568085
vn -0.822998 0.000000 0.568045
vn -0.822969 0.000000 0.568086
vn 1.000000 0.000000 0.000000
vn 1.000000 0.000000 0.000000
vn 1.000000 0.000000 0.000000
vn 1.000000 0.000000 0.000000
vn 1.000000 0.000000 0.000000
vn 1.000000 0.000000 0.000000
vn 1.000000 0.000000 0.000000
vn 1.000000 0.000000 0.000000
vn 1.000000 0.000000 0.000000
vn 1.000000 0.000000 0.000000
vn 1.000000 0.000000 0.000000
vn 1.000000 0.000000 0.000000
vn 0.000000 -1.000000 0.000000
vn 0.000000 -1.000000 0.000000
vn 0.000000 -1.000000 0.000000
vn 0.000000 -1.000000 0.000000
vn 0.000000 -1.000000 0.000000
vn 0.000000 -1.000000 0.000000
vn 0.000000 -1.000000 0.000000
vn 0.000000 -1.000000 0.000000
vn 0.000000 -1.000000 0.000000
vn 0.000000 -1.000000 0.000000
vn 0.000000 -1.000000 0.000000
vn 0.000000 -1.000000 0.000000
vn 0.000000 -1.000000 0.000000
vn 0.000000 -1.000000 0.000000
vn 0.000000 -1.000000 0.000000
vn 0.000000 -1.000000 0.000000
vn 0.000000 -1.000000 0.000000
vn 0.000000 -1.000000 0.000000
vn -1.000000 0.000000 0.000000
vn -1.000000 0.000000 0.000000
vn -1.000000 0.000000 0.000000
vn -1.000000 0.000000 0.000000
vn -1.000000 0.000000 0.000000
vn -1.000000 0.000000 0.000000
vn -1.000000 0.000000 0.000000
vn -1.000000 0.000000 0.000000
vn -1.000000 0.000000 0.000000
vn -1.000000 0.000000 0.000000
vn -1.000000 0.000000 0.000000
vn -1.000000 0.000000 0.000000
vn -1.000000 0.000000 0.000000
vn -1.000000 0.000000 0.000000
vn -1.000000 0.000000 0.000000
vn -1.000000 0.000000 0.000000
vn -1.000000 0.000000 0.000000
vn -1.000000 0.000000 0.000000
vn -1.000000 0.000000 0.000000
vn -1.000000 0.000000 0.000000
vn -1.000000 0.000000 0.000000
vn -1.000000 0.000000 0.000000
vn -1.000000 0.000000 0.000000
vn -1.000000 0.000000 0.000000
vn 0.000000 1.000000 0.000000
vn 0.000000 1.000000 0.000000
vn 0.000000 1.000000 0.000000
vn 0.000000 1.000000 0.000000
vn 0.000000 1.000000 0.000000
vn 0.000000 1.000000 0.000000
vn 0.000000 1.000000 0.000000
vn 0.000000 1.000000 0.000000
vn 0.000000 1.000000 0.000000
vn 0.000000 1.000000 0.000000
vn 0.000000 1.000000 0.000000
vn 0.000000 1.000000 0.000000
vn 0.000000 1.000000 0.000000
vn 0.000000 1.000000 0.000000
vn 0.000000 1.000000 0.000000
vn 0.000000 1.000000 0.000000
vn 0.000000 1.000000 0.000000
vn 0.000000 1.000000 0.000000
vn 1.000000 0.000000 0.000000
vn 1.000000 0.000000 0.000000
vn 1.000000 0.000000 0.000000
vn 1.000000 0.000000 0.000000
vn 1.000000 0.000000 0.000000
vn 1.000000 0.000000 0.000000
vn 1.000000 0.000000 0.000000
vn 1.000000 0.000000 0.000000
vn 1.000000 0.000000 0.000000
vn 1.000000 0.000000 0.000000
vn 1.000000 0.000000 0.000000
vn 1.000000 0.000000 0.000000
s off
g Framehuge:pCube6 Framehuge:polySurface43 Framehuge1
usemtl Frame1
f 1/2/1 4/3/2 62/1/3
f 62/1/4 4/3/5 61/4/6
f 11/5/7 53/6/8 12/8/9
f 12/8/10 53/6/11 54/7/12
f 4/3/13 6/9/14 61/4/15
f 61/4/16 6/9/17 60/10/18
f 12/8/19 54/7/20 9/12/21
f 9/12/22 54/7/23 55/11/24
f 6/9/25 8/13/26 60/10/27
f 60/10/28 8/13/29 59/14/30
f 9/12/31 55/11/32 10/16/33
f 10/16/34 55/11/35 56/15/36
f 9/12/37 10/16/38 17/17/39
f 17/17/40 10/16/41 18/18/42
f 56/15/43 57/19/44 10/16/45
f 10/16/46 57/19/47 18/18/48
f 5/20/49 14/21/50 7/23/51
f 7/23/52 14/21/53 13/22/54
f 3/24/55 15/25/56 5/20/57
f 5/20/58 15/25/59 14/21/60
f 2/26/61 16/27/62 3/24/63
f 3/24/64 16/27/65 15/25/66
f 20/28/67 19/29/68 12/8/69
f 12/8/70 19/29/71 11/5/72
f 17/17/73 20/28/74 9/12/75
f 9/12/76 20/28/77 12/8/78
f 25/30/79 17/17/80 26/31/81
f 26/31/82 17/17/83 18/18/84
f 57/19/85 58/32/86 18/18/87
f 18/18/88 58/32/89 26/31/90
f 14/21/91 22/33/92 13/22/93
f 13/22/94 22/33/95 21/34/96
f 15/25/97 23/35/98 14/21/99
f 14/21/100 23/35/101 22/33/102
f 16/27/103 24/36/104 15/25/105
f 15/25/106 24/36/107 23/35/108
f 28/37/109 27/38/110 20/28/111
f 20/28/112 27/38/113 19/29/114
f 25/30/115 28/37/116 17/17/117
f 17/17/118 28/37/119 20/28/120
f 6/9/121 25/30/122 8/13/123
f 8/13/124 25/30/125 26/31/126
f 58/32/127 59/14/128 26/31/129
f 26/31/130 59/14/131 8/13/132
f 30/39/133 29/40/134 22/33/135
f 22/33/136 29/40/137 21/34/138
f 31/41/139 30/39/140 23/35/141
f 23/35/142 30/39/143 22/33/144
f 32/42/145 31/41/146 24/36/147
f 24/36/148 31/41/149 23/35/150
f 1/2/151 27/38/152 4/3/153
f 4/3/154 27/38/155 28/37/156
f 4/3/157 28/37/158 6/9/159
f 6/9/160 28/37/161 25/30/162
f 2/26/163 3/24/164 36/43/165
f 36/43/166 3/24/167 37/44/168
f 38/45/169 37/44/170 5/20/171
f 5/20/172 37/44/173 3/24/174
f 39/46/175 38/45/176 7/23/177
f 7/23/178 38/45/179 5/20/180
f 7/23/181 13/22/182 39/46/183
f 39/46/184 13/22/185 40/47/186
f 13/22/187 21/34/188 40/47/189
f 40/47/190 21/34/191 41/48/192
f 21/34/193 29/40/194 41/48/195
f 41/48/196 29/40/197 42/49/198
f 30/39/199 33/50/200 29/40/201
f 29/40/202 33/50/203 42/49/204
f 31/41/205 34/51/206 30/39/207
f 30/39/208 34/51/209 33/50/210
f 32/42/211 35/52/212 31/41/213
f 31/41/214 35/52/215 34/51/216
f 36/43/217 37/44/218 46/53/219
f 46/53/220 37/44/221 47/54/222
f 48/55/223 47/54/224 38/45/225
f 38/45/226 47/54/227 37/44/228
f 49/56/229 48/55/230 39/46/231
f 39/46/232 48/55/233 38/45/234
f 39/46/235 40/47/236 49/56/237
f 49/56/238 40/47/239 50/57/240
f 40/47/241 41/48/242 50/57/243
f 50/57/244 41/48/245 51/58/246
f 41/48/247 42/49/248 51/58/249
f 51/58/250 42/49/251 52/59/252
f 33/50/253 43/60/254 42/49/255
f 42/49/256 43/60/257 52/59/258
f 34/51/259 44/61/260 33/50/261
f 33/50/262 44/61/263 43/60/264
f 35/52/265 45/62/266 34/51/267
f 34/51/268 45/62/269 44/61/270
f 53/6/271 46/53/272 54/7/273
f 54/7/274 46/53/275 47/54/276
f 54/7/277 47/54/278 55/11/279
f 55/11/280 47/54/281 48/55/282
f 55/11/283 48/55/284 56/15/285
f 56/15/286 48/55/287 49/56/288
f 49/56/289 50/57/290 56/15/291
f 56/15/292 50/57/293 57/19/294
f 50/57/295 51/58/296 57/19/297
f 57/19/298 51/58/299 58/32/300
f 51/58/301 52/59/302 58/32/303
f 58/32/304 52/59/305 59/14/306
f 60/10/307 59/14/308 43/60/309
f 43/60/310 59/14/311 52/59/312
f 61/4/313 60/10/314 44/61/315
f 44/61/316 60/10/317 43/60/318
f 62/1/319 61/4/320 45/62/321
f 45/62/322 61/4/323 44/61/324
f 53/6/325 64/63/326 46/53/327
f 46/53/328 64/63/329 63/64/330
f 11/5/331 65/65/332 53/6/333
f 53/6/334 65/65/335 64/63/336
f 19/29/337 66/66/338 11/5/339
f 11/5/340 66/66/341 65/65/342
f 27/38/343 67/67/344 19/29/345
f 19/29/346 67/67/347 66/66/348
f 1/2/349 68/68/350 27/38/351
f 27/38/352 68/68/353 67/67/354
f 62/1/355 69/69/356 1/2/357
f 1/2/358 69/69/359 68/68/360
f 45/62/361 70/70/362 62/1/363
f 62/1/364 70/70/365 69/69/366
f 35/52/367 71/71/368 45/62/369
f 45/62/370 71/71/371 70/70/372
f 32/42/373 72/72/374 35/52/375
f 35/52/376 72/72/377 71/71/378
f 24/36/379 73/73/380 32/42/381
f 32/42/382 73/73/383 72/72/384
f 16/27/385 74/74/386 24/36/387
f 24/36/388 74/74/389 73/73/390
f 2/26/391 75/75/392 16/27/393
f 16/27/394 75/75/395 74/74/396
f 36/43/397 76/76/398 2/26/399
f 2/26/400 76/76/401 75/75/402
f 46/53/403 63/64/404 36/43/405
f 36/43/406 63/64/407 76/76/408
