# This file uses meters as units for non-parametric coordinates.

mtllib Ice Age Piece 1.mtl
g default
v 240.000015 334.407501 0.000000
v 320.000031 294.407501 0.000000
v 320.000031 334.407501 0.000000
v 400.000000 294.407501 0.000000
v 400.000000 334.407501 0.000000
v 159.999985 374.407501 0.000000
v 240.000015 374.407501 0.000000
v 320.000031 374.407501 0.000000
v 400.000000 374.407501 0.000000
v 80.000015 414.407501 0.000000
v 159.999985 414.407501 0.000000
v 240.000015 414.407501 0.000000
v 320.000031 414.407501 0.000000
v 400.000000 414.407501 0.000000
v 159.999985 454.407501 0.000000
v 240.000015 454.407501 0.000000
v 320.000031 454.407501 0.000000
v 400.000000 454.407501 0.000000
v 159.999985 494.407501 0.000000
v 240.000015 494.407501 0.000000
v 320.000031 494.407501 0.000000
v 400.000000 494.407501 0.000000
v 159.999985 534.407532 0.000000
v 240.000015 534.407532 0.000000
v 320.000031 534.407532 0.000000
v 400.000000 534.407532 0.000000
v 159.999985 574.407532 0.000000
v 240.000015 574.407532 0.000000
v 320.000031 574.407532 0.000000
v 400.000000 574.407532 0.000000
vt 0.800000 0.439480
vt 0.900000 0.378959
vt 0.900000 0.439480
vt 1.000000 0.378959
vt 1.000000 0.439480
vt 0.700000 0.500000
vt 0.800000 0.500000
vt 0.900000 0.500000
vt 1.000000 0.500000
vt 0.600000 0.560520
vt 0.700000 0.560520
vt 0.800000 0.560520
vt 0.900000 0.560520
vt 1.000000 0.560520
vt 0.700000 0.621041
vt 0.800000 0.621041
vt 0.900000 0.621041
vt 1.000000 0.621041
vt 0.700000 0.681561
vt 0.800000 0.681561
vt 0.900000 0.681561
vt 1.000000 0.681561
vt 0.700000 0.742082
vt 0.800000 0.742082
vt 0.900000 0.742082
vt 1.000000 0.742082
vt 0.700000 0.802602
vt 0.800000 0.802602
vt 0.900000 0.802602
vt 1.000000 0.802602
vn 0.000000 0.000000 1.000000
vn 0.000000 0.000000 1.000000
vn 0.000000 0.000000 1.000000
vn 0.000000 0.000000 1.000000
vn 0.000000 0.000000 1.000000
vn 0.000000 0.000000 1.000000
vn 0.000000 0.000000 1.000000
vn 0.000000 0.000000 1.000000
vn 0.000000 0.000000 1.000000
vn 0.000000 0.000000 1.000000
vn 0.000000 0.000000 1.000000
vn 0.000000 0.000000 1.000000
vn 0.000000 0.000000 1.000000
vn 0.000000 0.000000 1.000000
vn 0.000000 0.000000 1.000000
vn 0.000000 0.000000 1.000000
vn 0.000000 0.000000 1.000000
vn 0.000000 0.000000 1.000000
vn 0.000000 0.000000 1.000000
vn 0.000000 0.000000 1.000000
vn 0.000000 0.000000 1.000000
vn 0.000000 0.000000 1.000000
vn 0.000000 0.000000 1.000000
vn 0.000000 0.000000 1.000000
vn 0.000000 0.000000 1.000000
vn 0.000000 0.000000 1.000000
vn 0.000000 0.000000 1.000000
vn 0.000000 0.000000 1.000000
vn 0.000000 0.000000 1.000000
vn 0.000000 0.000000 1.000000
s 1
g Ice_Age_Piece_1 Ice_Age_Piece
usemtl lambert2SG
f 1/1/1 2/2/2 3/3/3
f 2/2/2 4/4/4 3/3/3
f 3/3/3 4/4/4 5/5/5
f 6/6/6 1/1/1 7/7/7
f 1/1/1 3/3/3 7/7/7
f 7/7/7 3/3/3 8/8/8
f 3/3/3 5/5/5 8/8/8
f 8/8/8 5/5/5 9/9/9
f 10/10/10 6/6/6 11/11/11
f 6/6/6 7/7/7 11/11/11
f 11/11/11 7/7/7 12/12/12
f 7/7/7 8/8/8 12/12/12
f 12/12/12 8/8/8 13/13/13
f 8/8/8 9/9/9 13/13/13
f 13/13/13 9/9/9 14/14/14
f 11/11/11 12/12/12 15/15/15
f 15/15/15 12/12/12 16/16/16
f 12/12/12 13/13/13 16/16/16
f 16/16/16 13/13/13 17/17/17
f 13/13/13 14/14/14 17/17/17
f 17/17/17 14/14/14 18/18/18
f 15/15/15 16/16/16 19/19/19
f 19/19/19 16/16/16 20/20/20
f 16/16/16 17/17/17 20/20/20
f 20/20/20 17/17/17 21/21/21
f 17/17/17 18/18/18 21/21/21
f 21/21/21 18/18/18 22/22/22
f 19/19/19 20/20/20 23/23/23
f 23/23/23 20/20/20 24/24/24
f 20/20/20 21/21/21 24/24/24
f 24/24/24 21/21/21 25/25/25
f 21/21/21 22/22/22 25/25/25
f 25/25/25 22/22/22 26/26/26
f 23/23/23 24/24/24 27/27/27
f 27/27/27 24/24/24 28/28/28
f 24/24/24 25/25/25 28/28/28
f 28/28/28 25/25/25 29/29/29
f 25/25/25 26/26/26 29/29/29
f 29/29/29 26/26/26 30/30/30
