# This file uses meters as units for non-parametric coordinates.

mtllib Ice Age Piece 3.mtl
g default
v -79.999992 -59.999992 0.000000
v 0.000023 -59.999992 0.000000
v -79.999992 -19.999992 0.000000
v 0.000023 -19.999992 0.000000
v 79.999992 -59.999992 0.000000
v 79.999992 -19.999992 0.000000
v -79.999992 20.000008 0.000000
v 0.000023 20.000008 0.000000
v 79.999992 20.000008 0.000000
v 0.000023 59.999992 0.000000
v 79.999992 59.999992 0.000000
vt 0.800000 0.197398
vt 0.900000 0.197398
vt 0.800000 0.257918
vt 0.900000 0.257918
vt 1.000000 0.197398
vt 1.000000 0.257918
vt 0.800000 0.318439
vt 0.900000 0.318439
vt 1.000000 0.318439
vt 0.900000 0.378959
vt 1.000000 0.378959
vn 0.000000 0.000000 1.000000
vn 0.000000 0.000000 1.000000
vn 0.000000 0.000000 1.000000
vn 0.000000 0.000000 1.000000
vn 0.000000 0.000000 1.000000
vn 0.000000 0.000000 1.000000
vn 0.000000 0.000000 1.000000
vn 0.000000 0.000000 1.000000
vn 0.000000 0.000000 1.000000
vn 0.000000 0.000000 1.000000
vn 0.000000 0.000000 1.000000
s 1
g Ice_Age_Piece_3
usemtl lambert2SG
f 1/1/1 2/2/2 3/3/3
f 3/3/3 2/2/2 4/4/4
f 2/2/2 5/5/5 4/4/4
f 4/4/4 5/5/5 6/6/6
f 3/3/3 4/4/4 7/7/7
f 7/7/7 4/4/4 8/8/8
f 4/4/4 6/6/6 8/8/8
f 8/8/8 6/6/6 9/9/9
f 8/8/8 9/9/9 10/10/10
f 10/10/10 9/9/9 11/11/11
