# This file uses meters as units for non-parametric coordinates.

mtllib Ice Age Piece 5.mtl
g default
v -120.000000 -40.000015 0.000000
v -40.000015 -80.000015 0.000000
v -40.000015 -40.000015 0.000000
v 40.000015 -80.000015 0.000000
v 40.000015 -40.000015 0.000000
v 120.000008 -80.000015 0.000000
v 120.000008 -40.000015 0.000000
v 200.000000 -80.000015 0.000000
v 200.000000 -40.000015 0.000000
v -120.000000 -0.000015 0.000000
v -40.000015 -0.000015 0.000000
v 40.000015 -0.000015 0.000000
v 120.000008 -0.000015 0.000000
v 200.000000 -0.000015 0.000000
v -200.000000 39.999985 0.000000
v -120.000000 39.999985 0.000000
v -40.000015 39.999985 0.000000
v 40.000015 39.999985 0.000000
v 120.000008 39.999985 0.000000
v 200.000000 39.999985 0.000000
v -200.000000 80.000015 0.000000
v -40.000015 80.000015 0.000000
v 40.000015 80.000015 0.000000
v 120.000008 80.000015 0.000000
vt 0.100000 0.560520
vt 0.200000 0.500000
vt 0.200000 0.560520
vt 0.300000 0.500000
vt 0.300000 0.560520
vt 0.400000 0.500000
vt 0.400000 0.560520
vt 0.500000 0.500000
vt 0.500000 0.560520
vt 0.100000 0.621041
vt 0.200000 0.621041
vt 0.300000 0.621041
vt 0.400000 0.621041
vt 0.500000 0.621041
vt 0.000000 0.681561
vt 0.100000 0.681561
vt 0.200000 0.681561
vt 0.300000 0.681561
vt 0.400000 0.681561
vt 0.500000 0.681561
vt 0.000000 0.742082
vt 0.200000 0.742082
vt 0.300000 0.742082
vt 0.400000 0.742082
vn 0.000000 0.000000 1.000000
vn 0.000000 0.000000 1.000000
vn 0.000000 0.000000 1.000000
vn 0.000000 0.000000 1.000000
vn 0.000000 0.000000 1.000000
vn 0.000000 0.000000 1.000000
vn 0.000000 0.000000 1.000000
vn 0.000000 0.000000 1.000000
vn 0.000000 0.000000 1.000000
vn 0.000000 0.000000 1.000000
vn 0.000000 0.000000 1.000000
vn 0.000000 0.000000 1.000000
vn 0.000000 0.000000 1.000000
vn 0.000000 0.000000 1.000000
vn 0.000000 0.000000 1.000000
vn 0.000000 0.000000 1.000000
vn 0.000000 0.000000 1.000000
vn 0.000000 0.000000 1.000000
vn 0.000000 0.000000 1.000000
vn 0.000000 0.000000 1.000000
vn 0.000000 0.000000 1.000000
vn 0.000000 0.000000 1.000000
vn 0.000000 0.000000 1.000000
vn 0.000000 0.000000 1.000000
s 1
g Ice_Age_Piece_5
usemtl lambert2SG
f 1/1/1 2/2/2 3/3/3
f 2/2/2 4/4/4 3/3/3
f 3/3/3 4/4/4 5/5/5
f 4/4/4 6/6/6 5/5/5
f 5/5/5 6/6/6 7/7/7
f 6/6/6 8/8/8 7/7/7
f 7/7/7 8/8/8 9/9/9
f 1/1/1 3/3/3 10/10/10
f 10/10/10 3/3/3 11/11/11
f 3/3/3 5/5/5 11/11/11
f 11/11/11 5/5/5 12/12/12
f 5/5/5 7/7/7 12/12/12
f 12/12/12 7/7/7 13/13/13
f 7/7/7 9/9/9 13/13/13
f 13/13/13 9/9/9 14/14/14
f 15/15/15 10/10/10 16/16/16
f 10/10/10 11/11/11 16/16/16
f 16/16/16 11/11/11 17/17/17
f 11/11/11 12/12/12 17/17/17
f 17/17/17 12/12/12 18/18/18
f 12/12/12 13/13/13 18/18/18
f 18/18/18 13/13/13 19/19/19
f 13/13/13 14/14/14 19/19/19
f 19/19/19 14/14/14 20/20/20
f 15/15/15 16/16/16 21/21/21
f 17/17/17 18/18/18 22/22/22
f 22/22/22 18/18/18 23/23/23
f 18/18/18 19/19/19 23/23/23
f 23/23/23 19/19/19 24/24/24
f 19/19/19 20/20/20 24/24/24
