# This file uses meters as units for non-parametric coordinates.

mtllib Last_Supper_3.mtl
g default
v -240.000000 -19.999985 0.000000
v -160.000000 -59.999985 0.000000
v -160.000000 -19.999985 0.000000
v -79.999985 -59.999985 0.000000
v -79.999985 -19.999985 0.000000
v -0.000015 -59.999985 0.000000
v -0.000015 -19.999985 0.000000
v 80.000015 -59.999985 0.000000
v 80.000015 -19.999985 0.000000
v 160.000031 -59.999985 0.000000
v 160.000031 -19.999985 0.000000
v 240.000000 -59.999985 0.000000
v 240.000000 -19.999985 0.000000
v -240.000000 20.000015 0.000000
v -160.000000 20.000015 0.000000
v -79.999985 20.000015 0.000000
v -0.000015 20.000015 0.000000
v 80.000015 20.000015 0.000000
v 160.000031 20.000015 0.000000
v -240.000000 60.000000 0.000000
v -160.000000 60.000000 0.000000
v -79.999985 60.000000 0.000000
v -0.000015 60.000000 0.000000
vt 0.400000 0.257918
vt 0.500000 0.197398
vt 0.500000 0.257918
vt 0.600000 0.197398
vt 0.600000 0.257918
vt 0.700000 0.197398
vt 0.700000 0.257918
vt 0.800000 0.197398
vt 0.800000 0.257918
vt 0.900000 0.197398
vt 0.900000 0.257918
vt 1.000000 0.197398
vt 1.000000 0.257918
vt 0.400000 0.318439
vt 0.500000 0.318439
vt 0.600000 0.318439
vt 0.700000 0.318439
vt 0.800000 0.318439
vt 0.900000 0.318439
vt 0.400000 0.378959
vt 0.500000 0.378959
vt 0.600000 0.378959
vt 0.700000 0.378959
vn 0.000000 0.000000 1.000000
vn 0.000000 0.000000 1.000000
vn 0.000000 0.000000 1.000000
vn 0.000000 0.000000 1.000000
vn 0.000000 0.000000 1.000000
vn 0.000000 0.000000 1.000000
vn 0.000000 0.000000 1.000000
vn 0.000000 0.000000 1.000000
vn 0.000000 0.000000 1.000000
vn 0.000000 0.000000 1.000000
vn 0.000000 0.000000 1.000000
vn 0.000000 0.000000 1.000000
vn 0.000000 0.000000 1.000000
vn 0.000000 0.000000 1.000000
vn 0.000000 0.000000 1.000000
vn 0.000000 0.000000 1.000000
vn 0.000000 0.000000 1.000000
vn 0.000000 0.000000 1.000000
vn 0.000000 0.000000 1.000000
vn 0.000000 0.000000 1.000000
vn 0.000000 0.000000 1.000000
vn 0.000000 0.000000 1.000000
vn 0.000000 0.000000 1.000000
s 1
g L_Supper_Piece_3
usemtl lambert23SG
f 1/1/1 2/2/2 3/3/3
f 2/2/2 4/4/4 3/3/3
f 3/3/3 4/4/4 5/5/5
f 4/4/4 6/6/6 5/5/5
f 5/5/5 6/6/6 7/7/7
f 6/6/6 8/8/8 7/7/7
f 7/7/7 8/8/8 9/9/9
f 8/8/8 10/10/10 9/9/9
f 9/9/9 10/10/10 11/11/11
f 10/10/10 12/12/12 11/11/11
f 11/11/11 12/12/12 13/13/13
f 1/1/1 3/3/3 14/14/14
f 14/14/14 3/3/3 15/15/15
f 3/3/3 5/5/5 15/15/15
f 15/15/15 5/5/5 16/16/16
f 5/5/5 7/7/7 16/16/16
f 16/16/16 7/7/7 17/17/17
f 7/7/7 9/9/9 17/17/17
f 17/17/17 9/9/9 18/18/18
f 9/9/9 11/11/11 18/18/18
f 18/18/18 11/11/11 19/19/19
f 11/11/11 13/13/13 19/19/19
f 14/14/14 15/15/15 20/20/20
f 20/20/20 15/15/15 21/21/21
f 15/15/15 16/16/16 21/21/21
f 21/21/21 16/16/16 22/22/22
f 16/16/16 17/17/17 22/22/22
f 22/22/22 17/17/17 23/23/23
f 17/17/17 18/18/18 23/23/23
