# This file uses meters as units for non-parametric coordinates.

mtllib Last_Supper_1.mtl
g default
v -200.000000 -79.999985 0.000000
v -120.000000 -79.999985 0.000000
v -200.000000 -39.999985 0.000000
v -120.000000 -39.999985 0.000000
v -40.000015 -79.999985 0.000000
v -40.000015 -39.999985 0.000000
v 40.000015 -79.999985 0.000000
v 40.000015 -39.999985 0.000000
v 120.000008 -79.999985 0.000000
v 120.000008 -39.999985 0.000000
v 200.000000 -79.999985 0.000000
v -200.000000 0.000015 0.000000
v -120.000000 0.000015 0.000000
v -40.000015 0.000015 0.000000
v 40.000015 0.000015 0.000000
v 120.000008 0.000015 0.000000
v -200.000000 40.000000 0.000000
v -120.000000 40.000000 0.000000
v -40.000015 40.000000 0.000000
v -200.000000 80.000000 0.000000
vt 0.000000 0.197398
vt 0.100000 0.197398
vt 0.000000 0.257918
vt 0.100000 0.257918
vt 0.200000 0.197398
vt 0.200000 0.257918
vt 0.300000 0.197398
vt 0.300000 0.257918
vt 0.400000 0.197398
vt 0.400000 0.257918
vt 0.500000 0.197398
vt 0.000000 0.318439
vt 0.100000 0.318439
vt 0.200000 0.318439
vt 0.300000 0.318439
vt 0.400000 0.318439
vt 0.000000 0.378959
vt 0.100000 0.378959
vt 0.200000 0.378959
vt 0.000000 0.439480
vn 0.000000 0.000000 1.000000
vn 0.000000 0.000000 1.000000
vn 0.000000 0.000000 1.000000
vn 0.000000 0.000000 1.000000
vn 0.000000 0.000000 1.000000
vn 0.000000 0.000000 1.000000
vn 0.000000 0.000000 1.000000
vn 0.000000 0.000000 1.000000
vn 0.000000 0.000000 1.000000
vn 0.000000 0.000000 1.000000
vn 0.000000 0.000000 1.000000
vn 0.000000 0.000000 1.000000
vn 0.000000 0.000000 1.000000
vn 0.000000 0.000000 1.000000
vn 0.000000 0.000000 1.000000
vn 0.000000 0.000000 1.000000
vn 0.000000 0.000000 1.000000
vn 0.000000 0.000000 1.000000
vn 0.000000 0.000000 1.000000
vn 0.000000 0.000000 1.000000
s 1
g L_Supper_Piece_1
usemtl lambert23SG
f 1/1/1 2/2/2 3/3/3
f 3/3/3 2/2/2 4/4/4
f 2/2/2 5/5/5 4/4/4
f 4/4/4 5/5/5 6/6/6
f 5/5/5 7/7/7 6/6/6
f 6/6/6 7/7/7 8/8/8
f 7/7/7 9/9/9 8/8/8
f 8/8/8 9/9/9 10/10/10
f 9/9/9 11/11/11 10/10/10
f 3/3/3 4/4/4 12/12/12
f 12/12/12 4/4/4 13/13/13
f 4/4/4 6/6/6 13/13/13
f 13/13/13 6/6/6 14/14/14
f 6/6/6 8/8/8 14/14/14
f 14/14/14 8/8/8 15/15/15
f 8/8/8 10/10/10 15/15/15
f 15/15/15 10/10/10 16/16/16
f 12/12/12 13/13/13 17/17/17
f 17/17/17 13/13/13 18/18/18
f 13/13/13 14/14/14 18/18/18
f 18/18/18 14/14/14 19/19/19
f 14/14/14 15/15/15 19/19/19
f 17/17/17 18/18/18 20/20/20
