# This file uses meters as units for non-parametric coordinates.

mtllib Last_Supper_9.mtl
g default
v 40.000031 -60.000031 0.000000
v 120.000000 -100.000031 0.000000
v 120.000000 -60.000031 0.000000
v -39.999985 -20.000031 0.000000
v 40.000031 -20.000031 0.000000
v 120.000000 -20.000031 0.000000
v -120.000015 19.999969 0.000000
v -39.999985 19.999969 0.000000
v 40.000031 19.999969 0.000000
v 120.000000 19.999969 0.000000
v -120.000015 60.000000 0.000000
v -39.999985 60.000000 0.000000
v 40.000031 60.000000 0.000000
v 120.000000 60.000000 0.000000
v -120.000015 100.000000 0.000000
v -39.999985 100.000000 0.000000
v 40.000031 100.000000 0.000000
v 120.000000 100.000000 0.000000
vt 0.900000 0.560520
vt 1.000000 0.500000
vt 1.000000 0.560520
vt 0.800000 0.621041
vt 0.900000 0.621041
vt 1.000000 0.621041
vt 0.700000 0.681561
vt 0.800000 0.681561
vt 0.900000 0.681561
vt 1.000000 0.681561
vt 0.700000 0.742082
vt 0.800000 0.742082
vt 0.900000 0.742082
vt 1.000000 0.742082
vt 0.700000 0.802602
vt 0.800000 0.802602
vt 0.900000 0.802602
vt 1.000000 0.802602
vn 0.000000 0.000000 1.000000
vn 0.000000 0.000000 1.000000
vn 0.000000 0.000000 1.000000
vn 0.000000 0.000000 1.000000
vn 0.000000 0.000000 1.000000
vn 0.000000 0.000000 1.000000
vn 0.000000 0.000000 1.000000
vn 0.000000 0.000000 1.000000
vn 0.000000 0.000000 1.000000
vn 0.000000 0.000000 1.000000
vn 0.000000 0.000000 1.000000
vn 0.000000 0.000000 1.000000
vn 0.000000 0.000000 1.000000
vn 0.000000 0.000000 1.000000
vn 0.000000 0.000000 1.000000
vn 0.000000 0.000000 1.000000
vn 0.000000 0.000000 1.000000
vn 0.000000 0.000000 1.000000
s 1
g L_Supper_Piece_9
usemtl lambert23SG
f 1/1/1 2/2/2 3/3/3
f 4/4/4 1/1/1 5/5/5
f 1/1/1 3/3/3 5/5/5
f 5/5/5 3/3/3 6/6/6
f 7/7/7 4/4/4 8/8/8
f 4/4/4 5/5/5 8/8/8
f 8/8/8 5/5/5 9/9/9
f 5/5/5 6/6/6 9/9/9
f 9/9/9 6/6/6 10/10/10
f 7/7/7 8/8/8 11/11/11
f 11/11/11 8/8/8 12/12/12
f 8/8/8 9/9/9 12/12/12
f 12/12/12 9/9/9 13/13/13
f 9/9/9 10/10/10 13/13/13
f 13/13/13 10/10/10 14/14/14
f 11/11/11 12/12/12 15/15/15
f 15/15/15 12/12/12 16/16/16
f 12/12/12 13/13/13 16/16/16
f 16/16/16 13/13/13 17/17/17
f 13/13/13 14/14/14 17/17/17
f 17/17/17 14/14/14 18/18/18
