# This file uses meters as units for non-parametric coordinates.

mtllib Tapestry_First_7.mtl
g default
v -40.000015 -20.000031 0.000000
v 40.000015 -60.000031 0.000000
v 40.000015 -20.000031 0.000000
v 120.000031 -60.000031 0.000000
v 120.000031 -20.000031 0.000000
v 200.000000 -60.000031 0.000000
v 200.000000 -20.000031 0.000000
v -200.000000 20.000000 0.000000
v -119.999985 -20.000031 0.000000
v -119.999985 20.000000 0.000000
v -40.000015 20.000000 0.000000
v 40.000015 20.000000 0.000000
v 120.000031 20.000000 0.000000
v 200.000000 20.000000 0.000000
v -200.000000 60.000000 0.000000
v -119.999985 60.000000 0.000000
v -40.000015 60.000000 0.000000
v 40.000015 60.000000 0.000000
v 120.000031 60.000000 0.000000
v 200.000000 60.000000 0.000000
vt 0.700000 0.681561
vt 0.800000 0.621041
vt 0.800000 0.681561
vt 0.900000 0.621041
vt 0.900000 0.681561
vt 1.000000 0.621041
vt 1.000000 0.681561
vt 0.500000 0.742082
vt 0.600000 0.681561
vt 0.600000 0.742082
vt 0.700000 0.742082
vt 0.800000 0.742082
vt 0.900000 0.742082
vt 1.000000 0.742082
vt 0.500000 0.802602
vt 0.600000 0.802602
vt 0.700000 0.802602
vt 0.800000 0.802602
vt 0.900000 0.802602
vt 1.000000 0.802602
vn 0.000000 0.000000 1.000000
vn 0.000000 0.000000 1.000000
vn 0.000000 0.000000 1.000000
vn 0.000000 0.000000 1.000000
vn 0.000000 0.000000 1.000000
vn 0.000000 0.000000 1.000000
vn 0.000000 0.000000 1.000000
vn 0.000000 0.000000 1.000000
vn 0.000000 0.000000 1.000000
vn 0.000000 0.000000 1.000000
vn 0.000000 0.000000 1.000000
vn 0.000000 0.000000 1.000000
vn 0.000000 0.000000 1.000000
vn 0.000000 0.000000 1.000000
vn 0.000000 0.000000 1.000000
vn 0.000000 0.000000 1.000000
vn 0.000000 0.000000 1.000000
vn 0.000000 0.000000 1.000000
vn 0.000000 0.000000 1.000000
vn 0.000000 0.000000 1.000000
s 1
g Tapestry_First_Piece_7
usemtl lambert12SG
f 1/1/1 2/2/2 3/3/3
f 2/2/2 4/4/4 3/3/3
f 3/3/3 4/4/4 5/5/5
f 4/4/4 6/6/6 5/5/5
f 5/5/5 6/6/6 7/7/7
f 8/8/8 9/9/9 10/10/10
f 9/9/9 1/1/1 10/10/10
f 10/10/10 1/1/1 11/11/11
f 1/1/1 3/3/3 11/11/11
f 11/11/11 3/3/3 12/12/12
f 3/3/3 5/5/5 12/12/12
f 12/12/12 5/5/5 13/13/13
f 5/5/5 7/7/7 13/13/13
f 13/13/13 7/7/7 14/14/14
f 8/8/8 10/10/10 15/15/15
f 15/15/15 10/10/10 16/16/16
f 10/10/10 11/11/11 16/16/16
f 16/16/16 11/11/11 17/17/17
f 11/11/11 12/12/12 17/17/17
f 17/17/17 12/12/12 18/18/18
f 12/12/12 13/13/13 18/18/18
f 18/18/18 13/13/13 19/19/19
f 13/13/13 14/14/14 19/19/19
f 19/19/19 14/14/14 20/20/20
