# This file uses meters as units for non-parametric coordinates.

mtllib Tapestry_First_5.mtl
g default
v 40.000015 -60.000000 0.000000
v 120.000031 -99.999985 0.000000
v 120.000031 -60.000000 0.000000
v 200.000000 -99.999985 0.000000
v 200.000000 -60.000000 0.000000
v -119.999985 -20.000000 0.000000
v -40.000015 -60.000000 0.000000
v -40.000015 -20.000000 0.000000
v 40.000015 -20.000000 0.000000
v 120.000031 -20.000000 0.000000
v 200.000000 -20.000000 0.000000
v -200.000000 20.000000 0.000000
v -119.999985 20.000000 0.000000
v -40.000015 20.000000 0.000000
v 40.000015 20.000000 0.000000
v 120.000031 20.000000 0.000000
v 200.000000 20.000000 0.000000
v -200.000000 60.000000 0.000000
v -119.999985 60.000000 0.000000
v 40.000015 60.000000 0.000000
v 120.000031 60.000000 0.000000
v 200.000000 60.000000 0.000000
v 40.000015 100.000000 0.000000
v 120.000031 100.000000 0.000000
v 200.000000 100.000000 0.000000
vt 0.800000 0.378959
vt 0.900000 0.318439
vt 0.900000 0.378959
vt 1.000000 0.318439
vt 1.000000 0.378959
vt 0.600000 0.439480
vt 0.700000 0.378959
vt 0.700000 0.439480
vt 0.800000 0.439480
vt 0.900000 0.439480
vt 1.000000 0.439480
vt 0.500000 0.500000
vt 0.600000 0.500000
vt 0.700000 0.500000
vt 0.800000 0.500000
vt 0.900000 0.500000
vt 1.000000 0.500000
vt 0.500000 0.560520
vt 0.600000 0.560520
vt 0.800000 0.560520
vt 0.900000 0.560520
vt 1.000000 0.560520
vt 0.800000 0.621041
vt 0.900000 0.621041
vt 1.000000 0.621041
vn 0.000000 0.000000 1.000000
vn 0.000000 0.000000 1.000000
vn 0.000000 0.000000 1.000000
vn 0.000000 0.000000 1.000000
vn 0.000000 0.000000 1.000000
vn 0.000000 0.000000 1.000000
vn 0.000000 0.000000 1.000000
vn 0.000000 0.000000 1.000000
vn 0.000000 0.000000 1.000000
vn 0.000000 0.000000 1.000000
vn 0.000000 0.000000 1.000000
vn 0.000000 0.000000 1.000000
vn 0.000000 0.000000 1.000000
vn 0.000000 0.000000 1.000000
vn 0.000000 0.000000 1.000000
vn 0.000000 0.000000 1.000000
vn 0.000000 0.000000 1.000000
vn 0.000000 0.000000 1.000000
vn 0.000000 0.000000 1.000000
vn 0.000000 0.000000 1.000000
vn 0.000000 0.000000 1.000000
vn 0.000000 0.000000 1.000000
vn 0.000000 0.000000 1.000000
vn 0.000000 0.000000 1.000000
vn 0.000000 0.000000 1.000000
s 1
g Tapestry_First_Piece_5
usemtl lambert12SG
f 1/1/1 2/2/2 3/3/3
f 2/2/2 4/4/4 3/3/3
f 3/3/3 4/4/4 5/5/5
f 6/6/6 7/7/7 8/8/8
f 7/7/7 1/1/1 8/8/8
f 8/8/8 1/1/1 9/9/9
f 1/1/1 3/3/3 9/9/9
f 9/9/9 3/3/3 10/10/10
f 3/3/3 5/5/5 10/10/10
f 10/10/10 5/5/5 11/11/11
f 12/12/12 6/6/6 13/13/13
f 6/6/6 8/8/8 13/13/13
f 13/13/13 8/8/8 14/14/14
f 8/8/8 9/9/9 14/14/14
f 14/14/14 9/9/9 15/15/15
f 9/9/9 10/10/10 15/15/15
f 15/15/15 10/10/10 16/16/16
f 10/10/10 11/11/11 16/16/16
f 16/16/16 11/11/11 17/17/17
f 12/12/12 13/13/13 18/18/18
f 18/18/18 13/13/13 19/19/19
f 13/13/13 14/14/14 19/19/19
f 15/15/15 16/16/16 20/20/20
f 20/20/20 16/16/16 21/21/21
f 16/16/16 17/17/17 21/21/21
f 21/21/21 17/17/17 22/22/22
f 20/20/20 21/21/21 23/23/23
f 23/23/23 21/21/21 24/24/24
f 21/21/21 22/22/22 24/24/24
f 24/24/24 22/22/22 25/25/25
