# This file uses meters as units for non-parametric coordinates.

mtllib Tapestry_First_2.mtl
g default
v -40.000000 -60.000031 0.000000
v 39.999992 -100.000031 0.000000
v 39.999992 -60.000031 0.000000
v 120.000008 -60.000031 0.000000
v 199.999969 -100.000031 0.000000
v 199.999969 -60.000031 0.000000
v 280.000000 -100.000031 0.000000
v 280.000000 -60.000031 0.000000
v -119.999992 -60.000031 0.000000
v -119.999992 -20.000031 0.000000
v -40.000000 -20.000031 0.000000
v 39.999992 -20.000031 0.000000
v 120.000008 -20.000031 0.000000
v 199.999969 -20.000031 0.000000
v 280.000000 -20.000031 0.000000
v -119.999992 19.999969 0.000000
v -40.000000 19.999969 0.000000
v 39.999992 19.999969 0.000000
v 120.000008 19.999969 0.000000
v 199.999969 19.999969 0.000000
v -200.000031 60.000000 0.000000
v -119.999992 60.000000 0.000000
v -40.000000 60.000000 0.000000
v 39.999992 60.000000 0.000000
v -280.000000 100.000000 0.000000
v -200.000031 100.000000 0.000000
v -119.999992 100.000000 0.000000
v -40.000000 100.000000 0.000000
v 39.999992 100.000000 0.000000
vt 0.400000 0.560520
vt 0.500000 0.500000
vt 0.500000 0.560520
vt 0.600000 0.560520
vt 0.700000 0.500000
vt 0.700000 0.560520
vt 0.800000 0.500000
vt 0.800000 0.560520
vt 0.300000 0.560520
vt 0.300000 0.621041
vt 0.400000 0.621041
vt 0.500000 0.621041
vt 0.600000 0.621041
vt 0.700000 0.621041
vt 0.800000 0.621041
vt 0.300000 0.681561
vt 0.400000 0.681561
vt 0.500000 0.681561
vt 0.600000 0.681561
vt 0.700000 0.681561
vt 0.200000 0.742082
vt 0.300000 0.742082
vt 0.400000 0.742082
vt 0.500000 0.742082
vt 0.100000 0.802602
vt 0.200000 0.802602
vt 0.300000 0.802602
vt 0.400000 0.802602
vt 0.500000 0.802602
vn 0.000000 0.000000 1.000000
vn 0.000000 0.000000 1.000000
vn 0.000000 0.000000 1.000000
vn 0.000000 0.000000 1.000000
vn 0.000000 0.000000 1.000000
vn 0.000000 0.000000 1.000000
vn 0.000000 0.000000 1.000000
vn 0.000000 0.000000 1.000000
vn 0.000000 0.000000 1.000000
vn 0.000000 0.000000 1.000000
vn 0.000000 0.000000 1.000000
vn 0.000000 0.000000 1.000000
vn 0.000000 0.000000 1.000000
vn 0.000000 0.000000 1.000000
vn 0.000000 0.000000 1.000000
vn 0.000000 0.000000 1.000000
vn 0.000000 0.000000 1.000000
vn 0.000000 0.000000 1.000000
vn 0.000000 0.000000 1.000000
vn 0.000000 0.000000 1.000000
vn 0.000000 0.000000 1.000000
vn 0.000000 0.000000 1.000000
vn 0.000000 0.000000 1.000000
vn 0.000000 0.000000 1.000000
vn 0.000000 0.000000 1.000000
vn 0.000000 0.000000 1.000000
vn 0.000000 0.000000 1.000000
vn 0.000000 0.000000 1.000000
vn 0.000000 0.000000 1.000000
s 1
g Tapestry_First_Piece_2
usemtl lambert12SG
f 1/1/1 2/2/2 3/3/3
f 4/4/4 5/5/5 6/6/6
f 5/5/5 7/7/7 6/6/6
f 6/6/6 7/7/7 8/8/8
f 9/9/9 1/1/1 10/10/10
f 10/10/10 1/1/1 11/11/11
f 1/1/1 3/3/3 11/11/11
f 11/11/11 3/3/3 12/12/12
f 3/3/3 4/4/4 12/12/12
f 12/12/12 4/4/4 13/13/13
f 4/4/4 6/6/6 13/13/13
f 13/13/13 6/6/6 14/14/14
f 6/6/6 8/8/8 14/14/14
f 14/14/14 8/8/8 15/15/15
f 10/10/10 11/11/11 16/16/16
f 16/16/16 11/11/11 17/17/17
f 11/11/11 12/12/12 17/17/17
f 17/17/17 12/12/12 18/18/18
f 12/12/12 13/13/13 18/18/18
f 18/18/18 13/13/13 19/19/19
f 13/13/13 14/14/14 19/19/19
f 19/19/19 14/14/14 20/20/20
f 14/14/14 15/15/15 20/20/20
f 21/21/21 16/16/16 22/22/22
f 16/16/16 17/17/17 22/22/22
f 22/22/22 17/17/17 23/23/23
f 17/17/17 18/18/18 23/23/23
f 23/23/23 18/18/18 24/24/24
f 18/18/18 19/19/19 24/24/24
f 25/25/25 21/21/21 26/26/26
f 21/21/21 22/22/22 26/26/26
f 26/26/26 22/22/22 27/27/27
f 22/22/22 23/23/23 27/27/27
f 27/27/27 23/23/23 28/28/28
f 23/23/23 24/24/24 28/28/28
f 28/28/28 24/24/24 29/29/29
