# This file uses centimeters as units for non-parametric coordinates.

mtllib Vitrine4.mtl
g default
v -0.510053 -0.811995 0.966107
v 0.704549 -0.811995 0.966107
v -0.510053 0.499605 0.966107
v 0.704549 0.499605 0.966107
v -0.510053 0.499605 -0.966108
v 0.704549 0.499605 -0.966108
v -0.510053 -0.811995 -0.966108
v 0.704549 -0.811995 -0.966108
v -0.510053 0.560249 0.966107
v 0.704549 0.560249 0.966107
v 0.704549 0.560249 -0.966108
v -0.510053 0.560249 -0.966108
v -0.388803 0.560249 0.773221
v 0.583299 0.560249 0.773221
v 0.583299 0.560249 -0.773221
v -0.388803 0.560249 -0.773221
v -0.388803 0.617192 0.773221
v 0.583299 0.617192 0.773221
v 0.583299 0.617192 -0.773221
v -0.388803 0.617192 -0.773221
v -0.519875 0.617192 0.981732
v 0.714371 0.617192 0.981732
v 0.714371 0.617192 -0.981733
v -0.519875 0.617192 -0.981733
v -0.519875 0.712099 0.981732
v 0.714371 0.712099 0.981732
v 0.714371 0.712099 -0.981733
v -0.519875 0.712099 -0.981733
v -0.149929 0.712099 0.393213
v 0.344425 0.712099 0.393213
v 0.344425 0.712099 -0.393214
v -0.149929 0.712099 -0.393214
v -0.149929 0.785707 0.393213
v 0.344425 0.785707 0.393213
v 0.344425 0.785707 -0.393214
v -0.149929 0.785707 -0.393214
v -0.061317 0.811995 0.252247
v 0.255813 0.811995 0.252247
v 0.255813 0.811995 -0.252248
v -0.061317 0.811995 -0.252248
vt 0.390170 0.000977
vt 0.232134 0.700841
vt 0.481752 0.757207
vt 0.429555 0.988365
vt 0.891471 0.501490
vt 0.954908 0.491854
vt 0.964694 0.556290
vt 0.901722 0.565419
vt 0.586869 0.291696
vt 0.534671 0.522854
vt 0.285053 0.466488
vt 0.053896 0.414290
vt 0.951158 0.357890
vt 0.998375 0.025739
vt 0.628313 0.323708
vt 0.659097 0.006979
vt 0.926785 0.322027
vt 0.966371 0.043367
vt 0.663218 0.297276
vt 0.688410 0.039185
vt 0.921055 0.311510
vt 0.956066 0.049461
vt 0.673187 0.290568
vt 0.696808 0.047956
vt 0.533381 0.587046
vt 0.796638 0.670333
vt 0.617159 0.322202
vt 0.879815 0.403751
vt 0.550110 0.578288
vt 0.787607 0.653784
vt 0.626213 0.338793
vt 0.863103 0.412530
vt 0.978427 0.457501
vt 0.857325 0.477789
vt 0.999023 0.579784
vt 0.877870 0.600317
vt 0.970537 0.469885
vt 0.869652 0.485752
vt 0.986513 0.572105
vt 0.885699 0.587946
vt 0.738824 0.559286
vt 0.769404 0.463253
vt 0.675153 0.433161
vt 0.644184 0.528714
vt 0.949107 0.052045
vt 0.710422 0.048045
vt 0.679145 0.285004
vt 0.916187 0.306087
vt 0.441096 0.990971
vt 0.651330 0.059949
vt 0.995999 0.014894
vt 0.598410 0.294302
vt 0.546213 0.525460
vt 0.493294 0.759814
vt 0.639788 0.057343
vt 0.337251 0.235330
vt 0.179937 0.931999
vt 0.000977 0.648644
vn 0.000000 0.000000 1.000000
vn 0.000000 0.000000 1.000000
vn 0.000000 0.000000 1.000000
vn 0.000000 0.000000 1.000000
vn 0.000000 1.000000 0.000000
vn 0.000000 1.000000 0.000000
vn 0.000000 1.000000 0.000000
vn 0.000000 1.000000 0.000000
vn 0.000000 0.000000 -1.000000
vn 0.000000 0.000000 -1.000000
vn 0.000000 0.000000 -1.000000
vn 0.000000 0.000000 -1.000000
vn 0.000000 -1.000000 0.000000
vn 0.000000 -1.000000 0.000000
vn 0.000000 -1.000000 0.000000
vn 0.000000 -1.000000 0.000000
vn 1.000000 0.000000 0.000000
vn 1.000000 0.000000 0.000000
vn 1.000000 0.000000 0.000000
vn 1.000000 0.000000 0.000000
vn 0.000000 0.000000 1.000000
vn 0.000000 0.000000 1.000000
vn 0.000000 0.000000 1.000000
vn 0.000000 0.000000 1.000000
vn 1.000000 0.000000 0.000000
vn 1.000000 0.000000 0.000000
vn 1.000000 0.000000 0.000000
vn 1.000000 0.000000 0.000000
vn 0.000000 0.000000 -1.000000
vn 0.000000 0.000000 -1.000000
vn 0.000000 0.000000 -1.000000
vn 0.000000 0.000000 -1.000000
vn -1.000000 0.000000 0.000000
vn -1.000000 0.000000 0.000000
vn -1.000000 0.000000 0.000000
vn -1.000000 0.000000 0.000000
vn 0.000000 1.000000 -0.000000
vn 0.000000 1.000000 -0.000001
vn 0.000000 1.000000 -0.000000
vn 0.000000 1.000000 -0.000001
vn 0.000000 1.000000 0.000000
vn 0.000000 1.000000 0.000000
vn 0.000000 1.000000 0.000000
vn 0.000000 1.000000 0.000000
vn 0.000000 1.000000 0.000000
vn 0.000000 1.000000 0.000000
vn 0.000000 1.000000 0.000000
vn 0.000000 1.000000 0.000000
vn 0.000000 1.000000 0.000000
vn 0.000000 1.000000 0.000000
vn 0.000000 1.000000 0.000000
vn 0.000000 1.000000 0.000000
vn 0.000000 0.000000 1.000000
vn 0.000000 0.000000 1.000000
vn 0.000000 0.000000 1.000000
vn 0.000000 0.000000 1.000000
vn 1.000000 0.000004 0.000000
vn 1.000000 0.000004 0.000000
vn 1.000000 0.000004 0.000000
vn 1.000000 0.000004 0.000000
vn 0.000000 0.000000 -1.000000
vn 0.000000 0.000000 -1.000000
vn 0.000000 0.000000 -1.000000
vn 0.000000 0.000000 -1.000000
vn -1.000000 0.000003 0.000000
vn -1.000000 0.000003 0.000000
vn -1.000000 0.000003 0.000000
vn -1.000000 0.000003 0.000000
vn 0.000000 -1.000000 -0.000000
vn 0.000000 -1.000000 -0.000000
vn 0.000000 -1.000000 -0.000000
vn 0.000000 -1.000000 0.000000
vn 0.000000 -1.000000 0.000000
vn 0.000000 -1.000000 0.000000
vn 0.000000 -1.000000 0.000000
vn 0.000000 -1.000000 0.000000
vn 0.000000 -1.000000 0.000001
vn 0.000000 -1.000000 -0.000000
vn 0.000000 -1.000000 0.000000
vn 0.000000 -1.000000 -0.000000
vn 0.000000 -1.000000 0.000000
vn 0.000000 -1.000000 0.000000
vn 0.000000 -1.000000 0.000000
vn 0.000000 -1.000000 0.000000
vn 0.000000 0.000000 1.000000
vn 0.000000 0.000000 1.000000
vn 0.000000 0.000000 1.000000
vn 0.000000 0.000000 1.000000
vn 1.000000 0.000000 0.000000
vn 1.000000 0.000000 0.000000
vn 1.000000 0.000000 0.000000
vn 1.000000 0.000000 0.000000
vn 0.000000 0.000000 -1.000000
vn 0.000000 0.000000 -1.000000
vn 0.000000 0.000000 -1.000000
vn 0.000000 0.000000 -1.000000
vn -1.000000 0.000000 0.000000
vn -1.000000 0.000000 0.000000
vn -1.000000 0.000000 0.000000
vn -1.000000 0.000000 0.000000
vn 0.000000 1.000000 0.000000
vn 0.000000 1.000000 0.000000
vn 0.000000 1.000000 0.000000
vn 0.000000 1.000000 0.000000
vn 0.000000 1.000000 0.000000
vn 0.000000 1.000000 0.000000
vn 0.000000 1.000000 0.000000
vn 0.000000 1.000000 0.000000
vn 0.000000 1.000000 -0.000000
vn 0.000000 1.000000 -0.000000
vn 0.000000 1.000000 -0.000000
vn 0.000000 1.000000 0.000000
vn 0.000000 1.000000 0.000000
vn 0.000000 1.000000 0.000000
vn 0.000000 1.000000 0.000000
vn 0.000000 1.000000 0.000000
vn 0.000000 0.000000 1.000000
vn 0.000000 0.000000 1.000000
vn 0.000000 0.000000 1.000000
vn 0.000000 0.000000 1.000000
vn 1.000000 0.000000 0.000000
vn 1.000000 0.000000 0.000000
vn 1.000000 0.000000 0.000000
vn 1.000000 0.000000 0.000000
vn 0.000000 0.000000 -1.000000
vn 0.000000 0.000000 -1.000000
vn 0.000000 0.000000 -1.000000
vn 0.000000 0.000000 -1.000000
vn -1.000000 0.000000 0.000000
vn -1.000000 0.000000 0.000000
vn -1.000000 0.000000 0.000000
vn -1.000000 0.000000 0.000000
vn 0.000000 0.983052 0.183328
vn 0.000000 0.983052 0.183327
vn 0.000000 0.983052 0.183328
vn 0.000000 0.983052 0.183327
vn 0.284418 0.958701 0.000000
vn 0.284418 0.958700 0.000000
vn 0.284418 0.958701 0.000000
vn 0.284418 0.958700 0.000000
vn 0.000000 0.983052 -0.183328
vn 0.000000 0.983052 -0.183327
vn 0.000000 0.983052 -0.183328
vn 0.000000 0.983052 -0.183327
vn -0.284418 0.958700 0.000000
vn -0.284418 0.958701 0.000000
vn -0.284418 0.958700 0.000000
vn -0.284418 0.958700 0.000000
vn -1.000000 0.000000 0.000000
vn -1.000000 0.000000 0.000000
vn -1.000000 0.000000 0.000000
vn -1.000000 0.000000 0.000000
s 1
g Vitrine_4
usemtl lambert6SG
f 1/57/1 2/2/2 3/4/3
f 3/4/3 2/2/2 4/3/4
s 2
f 37/5/5 38/6/6 40/8/7
f 40/8/7 38/6/6 39/7/8
s 3
f 5/9/9 6/10/10 7/56/11
f 7/56/11 6/10/10 8/11/12
s 4
f 7/12/13 8/11/14 1/58/15
f 1/58/15 8/11/14 2/2/16
s 5
f 2/2/17 8/11/18 4/3/19
f 4/3/19 8/11/18 6/10/20
s 6
f 3/4/21 4/3/22 9/49/23
f 9/49/23 4/3/22 10/54/24
s 7
f 4/3/25 6/10/26 10/54/27
f 10/54/27 6/10/26 11/53/28
s 8
f 6/10/29 5/9/30 11/53/31
f 11/53/31 5/9/30 12/52/32
s 9
f 5/9/33 3/55/34 12/52/35
f 12/52/35 3/55/34 9/50/36
s 10
f 9/14/37 10/13/38 13/18/39
f 13/18/39 10/13/38 14/17/40
s 11
f 10/13/41 11/15/42 14/17/43
f 14/17/43 11/15/42 15/19/44
s 12
f 11/15/45 12/16/46 15/19/47
f 15/19/47 12/16/46 16/20/48
s 13
f 12/16/49 9/51/50 16/20/51
f 16/20/51 9/51/50 13/18/52
s 14
f 13/18/53 14/17/54 17/22/55
f 17/22/55 14/17/54 18/21/56
s 15
f 14/17/57 15/19/58 18/21/59
f 18/21/59 15/19/58 19/23/60
s 16
f 15/19/61 16/20/62 19/23/63
f 19/23/63 16/20/62 20/24/64
s 17
f 16/20/65 13/18/66 20/24/67
f 20/24/67 13/18/66 17/22/68
s 18
f 17/22/69 18/21/70 21/45/71
f 21/45/71 18/21/70 22/48/72
s 19
f 18/21/73 19/23/74 22/48/75
f 22/48/75 19/23/74 23/47/76
s 20
f 19/23/77 20/24/78 23/47/79
f 23/47/79 20/24/78 24/46/80
s 21
f 20/24/81 17/22/82 24/46/83
f 24/46/83 17/22/82 21/45/84
s 22
f 21/26/85 22/25/86 25/30/87
f 25/30/87 22/25/86 26/29/88
s 23
f 22/25/89 23/27/90 26/29/91
f 26/29/91 23/27/90 27/31/92
s 24
f 23/27/93 24/28/94 27/31/95
f 27/31/95 24/28/94 28/32/96
s 25
f 24/28/97 21/26/98 28/32/99
f 28/32/99 21/26/98 25/30/100
s 26
f 25/30/101 26/29/102 29/41/103
f 29/41/103 26/29/102 30/44/104
s 27
f 26/29/105 27/31/106 30/44/107
f 30/44/107 27/31/106 31/43/108
s 28
f 27/31/109 28/32/110 31/43/111
f 31/43/111 28/32/110 32/42/112
s 29
f 28/32/113 25/30/114 32/42/115
f 32/42/115 25/30/114 29/41/116
s 30
f 29/34/117 30/33/118 33/38/119
f 33/38/119 30/33/118 34/37/120
s 31
f 30/33/121 31/35/122 34/37/123
f 34/37/123 31/35/122 35/39/124
s 32
f 31/35/125 32/36/126 35/39/127
f 35/39/127 32/36/126 36/40/128
s 33
f 32/36/129 29/34/130 36/40/131
f 36/40/131 29/34/130 33/38/132
s 34
f 33/38/133 34/37/134 37/5/135
f 37/5/135 34/37/134 38/6/136
s 35
f 34/37/137 35/39/138 38/6/139
f 38/6/139 35/39/138 39/7/140
s 36
f 35/39/141 36/40/142 39/7/143
f 39/7/143 36/40/142 40/8/144
s 37
f 36/40/145 33/38/146 40/8/147
f 40/8/147 33/38/146 37/5/148
s 38
f 1/1/149 3/55/150 7/56/151
f 7/56/151 3/55/150 5/9/152
