# This file uses centimeters as units for non-parametric coordinates.

mtllib Vitrine2.mtl
g default
v -0.520755 1.430269 0.615840
v 0.710924 1.430269 0.615840
v -0.520755 1.530935 0.615840
v 0.710924 1.530935 0.615840
v -0.520755 1.530935 -0.615840
v 0.710924 1.530935 -0.615840
v -0.520755 1.430269 -0.615840
v 0.710924 1.430269 -0.615840
v -0.520755 1.368563 -0.615840
v 0.710924 1.368563 -0.615840
v 0.710924 1.368563 0.615840
v -0.520755 1.368563 0.615840
v -0.520755 1.310040 -0.615840
v 0.710924 1.310040 -0.615840
v 0.710924 1.310040 0.615840
v -0.520755 1.310040 0.615840
v -0.397587 1.430269 -0.492672
v 0.587757 1.430269 -0.492672
v 0.587757 1.368563 -0.492672
v -0.397587 1.368563 -0.492672
v 0.587757 1.430269 0.492672
v 0.587757 1.368563 0.492672
v -0.397587 1.430269 0.492672
v -0.397587 1.368563 0.492672
v -0.520755 -0.000091 -0.615840
v 0.710924 -0.000091 -0.615840
v 0.710924 -0.000091 0.615840
v -0.520755 -0.000091 0.615840
v -0.154717 1.530935 0.249802
v 0.344887 1.530935 0.249802
v 0.344887 1.530935 -0.249802
v -0.154717 1.530935 -0.249802
v -0.154717 1.600054 0.249802
v 0.344887 1.600054 0.249802
v 0.344887 1.600054 -0.249802
v -0.154717 1.600054 -0.249802
v -0.057949 1.623872 0.153033
v 0.248118 1.623872 0.153033
v 0.248118 1.623872 -0.153033
v -0.057949 1.623872 -0.153033
v -0.520755 2.270666 0.615840
v 0.710924 2.270666 0.615840
v 0.658646 2.270666 0.563562
v -0.468477 2.270666 0.563562
v 0.710924 2.270666 -0.615840
v 0.658646 2.270666 -0.563562
v -0.520755 2.270666 -0.615840
v -0.468477 2.270666 -0.563562
v 0.658646 1.531886 0.563562
v 0.658646 1.531886 -0.563562
v -0.468477 1.531886 -0.563562
v -0.468477 1.531886 0.563562
v -0.520755 1.519072 0.615840
v -0.519808 1.525481 -0.614893
v 0.709978 1.525481 -0.614893
v 0.710924 1.519072 0.615840
v -0.520754 2.317010 0.615839
v 0.710924 2.317010 0.615839
v 0.658646 2.317010 0.563563
v -0.468477 2.317010 0.563563
v 0.710924 2.317010 -0.615840
v 0.658646 2.317010 -0.563562
v -0.520755 2.317010 -0.615840
v -0.468477 2.317010 -0.563562
v 0.095085 2.270666 0.000000
v 0.095085 2.317010 0.000000
v -0.731651 1.162845 -0.487171
v -0.731651 1.162845 0.487171
v -0.731651 -0.000091 -0.487171
v -0.731651 -0.000091 0.487171
vt 0.375000 0.000000
vt 0.625000 0.000000
vt 0.375000 0.250000
vt 0.625000 0.250000
vt 0.375000 0.500000
vt 0.625000 0.500000
vt 0.375000 0.750000
vt 0.625000 0.750000
vt 0.375000 1.000000
vt 0.625000 1.000000
vt 0.875000 0.000000
vt 0.875000 0.250000
vt 0.125000 0.000000
vt 0.125000 0.250000
vt 0.375000 0.750000
vt 0.625000 0.750000
vt 0.625000 1.000000
vt 0.375000 1.000000
vt 0.375000 0.750000
vt 0.625000 0.750000
vt 0.625000 1.000000
vt 0.375000 1.000000
vt 0.375000 0.750000
vt 0.625000 0.750000
vt 0.625000 0.750000
vt 0.375000 0.750000
vt 0.625000 1.000000
vt 0.625000 1.000000
vt 0.375000 1.000000
vt 0.375000 1.000000
vt 0.375000 0.750000
vt 0.625000 0.750000
vt 0.625000 1.000000
vt 0.375000 1.000000
vt 0.375000 0.250000
vt 0.625000 0.250000
vt 0.625000 0.500000
vt 0.375000 0.500000
vt 0.375000 0.250000
vt 0.625000 0.250000
vt 0.625000 0.500000
vt 0.375000 0.500000
vt 0.375000 0.250000
vt 0.625000 0.250000
vt 0.625000 0.500000
vt 0.375000 0.500000
vt 0.375000 0.250000
vt 0.625000 0.250000
vt 0.625000 0.500000
vt 0.375000 0.500000
vt 0.375000 0.250000
vt 0.625000 0.250000
vt 0.625000 0.250000
vt 0.375000 0.250000
vt 0.625000 0.500000
vt 0.625000 0.500000
vt 0.375000 0.500000
vt 0.375000 0.500000
vt 0.625000 0.500000
vt 0.625000 0.250000
vt 0.625000 0.250000
vt 0.625000 0.500000
vt 0.375000 0.500000
vt 0.375000 0.500000
vt 0.375000 0.250000
vt 0.375000 0.250000
vt 0.375000 0.500000
vt 0.375000 0.250000
vt 0.375000 0.250000
vt 0.375000 0.500000
vt 0.625000 0.500000
vt 0.625000 0.500000
vt 0.625000 0.250000
vt 0.625000 0.250000
vt 0.000000 0.000000
vt 1.000000 0.000000
vt 1.000000 1.000000
vt 0.000000 1.000000
vt 0.000000 0.000000
vt 1.000000 0.000000
vt 1.000000 1.000000
vt 0.000000 1.000000
vt 0.000000 0.000000
vt 1.000000 0.000000
vt 1.000000 1.000000
vt 0.000000 1.000000
vt 0.000000 0.000000
vt 1.000000 0.000000
vt 1.000000 1.000000
vt 0.000000 1.000000
vt 0.500000 0.375000
vt 0.500000 0.375000
vt 0.375000 1.000000
vt 0.375000 0.750000
vt 0.375000 0.750000
vt 0.375000 1.000000
vn 0.000000 0.000000 1.000000
vn 0.000000 0.000000 1.000000
vn 0.000000 0.000000 1.000000
vn 0.000000 0.000000 1.000000
vn 0.000000 1.000000 0.000000
vn 0.000000 1.000000 0.000000
vn 0.000000 1.000000 0.000000
vn 0.000000 1.000000 0.000000
vn 0.000000 0.000000 -1.000000
vn 0.000000 0.000000 -1.000000
vn 0.000000 0.000000 -1.000000
vn 0.000000 0.000000 -1.000000
vn 1.000000 0.000000 0.000000
vn 1.000000 0.000000 0.000000
vn 1.000000 0.000000 0.000000
vn 1.000000 0.000000 0.000000
vn -1.000000 0.000000 0.000000
vn -1.000000 0.000000 0.000000
vn -1.000000 0.000000 0.000000
vn -1.000000 0.000000 0.000000
vn 0.000000 0.000000 -1.000000
vn 0.000000 0.000000 -1.000000
vn 0.000000 0.000000 -1.000000
vn 0.000000 0.000000 -1.000000
vn 1.000000 0.000000 0.000000
vn 1.000000 0.000000 0.000000
vn 1.000000 0.000000 0.000000
vn 1.000000 0.000000 0.000000
vn 0.000000 0.000000 1.000000
vn 0.000000 0.000000 1.000000
vn 0.000000 0.000000 1.000000
vn 0.000000 0.000000 1.000000
vn -1.000000 0.000000 0.000000
vn -1.000000 0.000000 0.000000
vn -1.000000 0.000000 0.000000
vn -1.000000 0.000000 0.000000
vn 0.000000 0.000000 -1.000000
vn 0.000000 0.000000 -1.000000
vn 0.000000 0.000000 -1.000000
vn 0.000000 0.000000 -1.000000
vn 1.000000 0.000000 0.000000
vn 1.000000 0.000000 0.000000
vn 1.000000 0.000000 0.000000
vn 1.000000 0.000000 0.000000
vn 0.000000 0.000000 1.000000
vn 0.000000 0.000000 1.000000
vn 0.000000 0.000000 1.000000
vn 0.000000 0.000000 1.000000
vn -1.000000 0.000000 0.000000
vn -1.000000 0.000000 0.000000
vn -1.000000 0.000000 0.000000
vn -1.000000 0.000000 0.000000
vn 0.000000 -1.000000 -0.000001
vn 0.000000 -1.000000 -0.000000
vn 0.000000 -1.000000 -0.000001
vn 0.000000 -1.000000 0.000000
vn 0.000000 1.000000 -0.000001
vn 0.000000 1.000000 -0.000000
vn 0.000000 1.000000 -0.000001
vn 0.000000 1.000000 0.000000
vn 0.000000 -1.000000 -0.000000
vn 0.000000 -1.000000 -0.000000
vn 0.000000 1.000000 0.000001
vn 0.000000 1.000000 0.000001
vn 0.000000 -1.000000 0.000001
vn 0.000000 -1.000000 0.000001
vn 0.000000 1.000000 -0.000000
vn 0.000000 1.000000 -0.000000
vn 0.000000 0.000000 -1.000000
vn 0.000000 0.000000 -1.000000
vn 0.000000 0.000000 -1.000000
vn 0.000000 0.000000 -1.000000
vn 1.000000 0.000000 0.000000
vn 1.000000 0.000000 0.000000
vn 1.000000 0.000000 0.000000
vn 1.000000 0.000000 0.000000
vn 0.000000 0.000000 1.000000
vn 0.000000 0.000000 1.000000
vn 0.000000 0.000000 1.000000
vn 0.000000 0.000000 1.000000
vn -1.000000 0.000000 0.000000
vn -1.000000 0.000000 0.000000
vn -1.000000 0.000000 0.000000
vn -1.000000 0.000000 0.000000
vn 0.000000 1.000000 -0.000001
vn 0.000000 1.000000 -0.000000
vn 0.000000 1.000000 -0.000000
vn 0.000000 1.000000 0.000001
vn 0.000000 1.000000 0.000000
vn 0.000000 1.000000 0.000000
vn 0.000000 1.000000 0.000000
vn 0.000000 1.000000 0.000000
vn 0.000000 1.000000 0.000000
vn 0.000000 1.000000 0.000000
vn 0.000000 1.000000 0.000000
vn 0.000000 1.000000 0.000000
vn 0.000000 1.000000 0.000000
vn 0.000000 1.000000 0.000000
vn 0.000000 1.000000 0.000000
vn 0.000000 1.000000 0.000000
vn 0.000000 0.000000 1.000000
vn 0.000000 0.000000 1.000000
vn 0.000000 0.000000 1.000000
vn 0.000000 0.000000 1.000000
vn 1.000000 0.000000 0.000000
vn 1.000000 0.000000 0.000000
vn 1.000000 0.000000 0.000000
vn 1.000000 0.000000 0.000000
vn 0.000000 0.000000 -1.000000
vn 0.000000 0.000000 -1.000000
vn 0.000000 0.000000 -1.000000
vn 0.000000 0.000000 -1.000000
vn -1.000000 0.000000 0.000000
vn -1.000000 0.000000 0.000000
vn -1.000000 0.000000 0.000000
vn -1.000000 0.000000 0.000000
vn 0.000000 0.971021 0.238994
vn 0.000000 0.971020 0.238997
vn 0.000000 0.971021 0.238994
vn 0.000000 0.971020 0.239000
vn 0.238996 0.971021 0.000000
vn 0.238996 0.971021 0.000000
vn 0.238996 0.971020 0.000000
vn 0.238996 0.971021 0.000000
vn 0.000000 0.971021 -0.238996
vn 0.000000 0.971021 -0.238996
vn 0.000000 0.971021 -0.238996
vn 0.000000 0.971020 -0.238996
vn -0.238996 0.971021 0.000000
vn -0.238996 0.971021 0.000000
vn -0.238996 0.971021 0.000000
vn -0.238996 0.971021 0.000000
vn 0.000000 1.000000 -0.000003
vn 0.000000 1.000000 -0.000008
vn 0.000000 1.000000 -0.000003
vn 0.000000 1.000000 -0.000008
vn 0.000000 1.000000 0.000000
vn 0.000000 1.000000 0.000000
vn 0.000000 1.000000 0.000000
vn 0.000000 1.000000 0.000000
vn 0.000000 1.000000 0.000002
vn 0.000000 1.000000 0.000000
vn 0.000000 1.000000 0.000002
vn 0.000000 1.000000 0.000000
vn 0.000000 1.000000 -0.000000
vn 0.000000 1.000000 0.000000
vn 0.000000 1.000000 -0.000000
vn 0.000000 1.000000 0.000000
vn -1.000000 0.000000 0.000000
vn -1.000000 0.000000 0.000000
vn -1.000000 0.000000 0.000000
vn -1.000000 0.000000 0.000000
vn 0.000000 0.000000 1.000000
vn 0.000000 0.000000 1.000000
vn 0.000000 0.000000 1.000000
vn 0.000000 0.000000 1.000000
vn 1.000000 0.000000 0.000000
vn 1.000000 0.000000 0.000000
vn 1.000000 0.000000 0.000000
vn 1.000000 0.000000 0.000000
vn 0.000000 0.000000 -1.000000
vn 0.000000 0.000000 -1.000000
vn 0.000000 0.000000 -1.000000
vn 0.000000 0.000000 -1.000000
vn -1.000000 0.000000 -0.000769
vn -1.000000 -0.000438 -0.000504
vn -1.000000 -0.000825 -0.000269
vn -0.999999 -0.001270 0.000000
vn 0.000000 -0.001270 -0.999999
vn 0.000000 -0.001270 -0.999999
vn 0.000000 -0.001270 -0.999999
vn 0.000000 -0.001270 -0.999999
vn 1.000000 0.000000 -0.000769
vn 1.000000 -0.000826 -0.000269
vn 1.000000 -0.000438 -0.000504
vn 0.999999 -0.001271 0.000000
vn 0.000000 0.000000 1.000000
vn 0.000000 0.000000 1.000000
vn 0.000000 0.000000 1.000000
vn 0.000000 0.000000 1.000000
vn -0.123811 -0.992306 0.000000
vn -0.130967 -0.991387 -0.000317
vn -0.231655 -0.972786 -0.004804
vn -0.233446 -0.972358 -0.004884
vn 0.000000 -0.992306 0.123808
vn 0.000000 -0.992306 0.123808
vn 0.000000 -0.992306 0.123808
vn 0.000000 -0.992306 0.123808
vn 0.123812 -0.992306 0.000000
vn 0.231655 -0.972786 -0.004804
vn 0.130968 -0.991387 -0.000317
vn 0.233447 -0.972357 -0.004884
vn 0.000000 -0.971251 -0.238056
vn 0.000000 -0.971251 -0.238057
vn 0.000000 -0.971251 -0.238056
vn 0.000000 -0.971251 -0.238057
vn 0.000000 0.000018 1.000000
vn 0.000000 0.000018 1.000000
vn 0.000000 0.000018 1.000000
vn 0.000000 0.000018 1.000000
vn 1.000000 0.000013 0.000000
vn 1.000000 0.000000 0.000000
vn 1.000000 0.000012 0.000000
vn 1.000000 0.000000 0.000000
vn 0.000000 0.000000 -1.000000
vn 0.000000 0.000000 -1.000000
vn 0.000000 0.000000 -1.000000
vn 0.000000 0.000000 -1.000000
vn -1.000000 0.000000 0.000000
vn -1.000000 0.000020 0.000001
vn -1.000000 0.000001 0.000000
vn -1.000000 0.000021 0.000001
vn 0.000000 -1.000000 0.000000
vn 0.000000 -1.000000 0.000000
vn 0.000000 -1.000000 0.000000
vn 0.000000 1.000000 0.000000
vn 0.000000 1.000000 0.000000
vn 0.000000 1.000000 0.000000
vn 0.000000 -1.000000 0.000000
vn 0.000000 -1.000000 0.000000
vn 0.000000 -1.000000 0.000000
vn 0.000000 1.000000 0.000000
vn 0.000000 1.000000 0.000000
vn 0.000000 1.000000 0.000000
vn 0.000000 -1.000000 0.000000
vn 0.000000 -1.000000 0.000000
vn 0.000000 -1.000000 0.000000
vn 0.000000 1.000000 0.000000
vn 0.000000 1.000000 0.000000
vn 0.000000 1.000000 0.000000
vn 0.000000 -1.000000 0.000000
vn 0.000000 -1.000000 0.000000
vn 0.000000 -1.000000 0.000000
vn 0.000000 1.000000 0.000000
vn 0.000000 1.000000 0.000000
vn 0.000000 1.000000 0.000000
vn -0.572333 0.820021 0.000000
vn -0.572334 0.820021 0.000000
vn -0.572333 0.820021 0.000000
vn -0.572334 0.820021 0.000000
vn -0.520825 0.000000 -0.853664
vn -0.520825 0.000000 -0.853664
vn -0.520825 0.000000 -0.853664
vn -0.520825 0.000000 -0.853664
vn 0.000000 -1.000000 0.000000
vn 0.000000 -1.000000 0.000000
vn 0.000000 -1.000000 0.000000
vn 0.000000 -1.000000 0.000000
vn -0.520825 0.000000 0.853664
vn -0.520825 0.000000 0.853664
vn -0.520825 0.000000 0.853664
vn -0.520825 0.000000 0.853664
s 1
g ConceptEnvironment:Art_Vitrine2
usemtl initialShadingGroup
f 1/1/1 2/2/2 3/3/3
f 3/3/3 2/2/2 4/4/4
s 2
f 37/47/5 38/48/6 40/50/7
f 40/50/7 38/48/6 39/49/8
s 3
f 5/5/9 6/6/10 7/7/11
f 7/7/11 6/6/10 8/8/12
s 4
f 2/2/13 8/11/14 4/4/15
f 4/4/15 8/11/14 6/12/16
s 5
f 7/13/17 1/1/18 5/14/19
f 5/14/19 1/1/18 3/3/20
s 6
f 17/23/21 18/24/22 20/26/23
f 20/26/23 18/24/22 19/25/24
s 7
f 18/24/25 21/27/26 19/25/27
f 19/25/27 21/27/26 22/28/28
s 8
f 21/27/29 23/29/30 22/28/31
f 22/28/31 23/29/30 24/30/32
s 9
f 23/29/33 17/23/34 24/30/35
f 24/30/35 17/23/34 20/26/36
s 10
f 9/15/37 10/16/38 13/19/39
f 13/19/39 10/16/38 14/20/40
s 11
f 10/16/41 11/17/42 14/20/43
f 14/20/43 11/17/42 15/21/44
s 12
f 11/17/45 12/18/46 15/21/47
f 15/21/47 12/18/46 16/22/48
s 13
f 12/18/49 9/15/50 16/22/51
f 16/22/51 9/15/50 13/19/52
s 14
f 7/7/53 8/8/54 17/23/55
f 17/23/55 8/8/54 18/24/56
s 15
f 10/16/57 9/15/58 19/25/59
f 19/25/59 9/15/58 20/26/60
s 14
f 8/8/54 2/10/61 18/24/56
f 18/24/56 2/10/61 21/27/62
s 15
f 11/17/63 10/16/57 22/28/64
f 22/28/64 10/16/57 19/25/59
s 14
f 2/10/61 1/9/65 21/27/62
f 21/27/62 1/9/65 23/29/66
s 15
f 12/18/67 11/17/63 24/30/68
f 24/30/68 11/17/63 22/28/64
s 14
f 1/9/65 7/7/53 23/29/66
f 23/29/66 7/7/53 17/23/55
s 15
f 9/15/58 12/18/67 20/26/60
f 20/26/60 12/18/67 24/30/68
s 16
f 13/19/69 14/20/70 25/31/71
f 25/31/71 14/20/70 26/32/72
s 17
f 14/20/73 15/21/74 26/32/75
f 26/32/75 15/21/74 27/33/76
s 18
f 15/21/77 16/22/78 27/33/79
f 27/33/79 16/22/78 28/34/80
s 19
f 68/93/81 67/94/82 70/96/83
f 70/96/83 67/94/82 69/95/84
s 20
f 3/35/85 4/36/86 29/39/87
f 29/39/87 4/36/86 30/40/88
s 21
f 4/36/89 6/37/90 30/40/91
f 30/40/91 6/37/90 31/41/92
s 22
f 6/37/93 5/38/94 31/41/95
f 31/41/95 5/38/94 32/42/96
s 23
f 5/38/97 3/35/98 32/42/99
f 32/42/99 3/35/98 29/39/100
s 24
f 29/39/101 30/40/102 33/43/103
f 33/43/103 30/40/102 34/44/104
s 25
f 30/40/105 31/41/106 34/44/107
f 34/44/107 31/41/106 35/45/108
s 26
f 31/41/109 32/42/110 35/45/111
f 35/45/111 32/42/110 36/46/112
s 27
f 32/42/113 29/39/114 36/46/115
f 36/46/115 29/39/114 33/43/116
s 28
f 33/43/117 34/44/118 37/47/119
f 37/47/119 34/44/118 38/48/120
s 29
f 34/44/121 35/45/122 38/48/123
f 38/48/123 35/45/122 39/49/124
s 30
f 35/45/125 36/46/126 39/49/127
f 39/49/127 36/46/126 40/50/128
s 31
f 36/46/129 33/43/130 40/50/131
f 40/50/131 33/43/130 37/47/132
s 32
usemtl ConceptEnvironment:blinn2SG
f 57/51/133 58/52/134 60/54/135
f 60/54/135 58/52/134 59/53/136
s 33
f 58/52/137 61/55/138 59/53/139
f 59/53/139 61/55/138 62/56/140
s 34
f 61/55/141 63/57/142 62/56/143
f 62/56/143 63/57/142 64/58/144
s 35
f 63/57/145 57/51/146 64/58/147
f 64/58/147 57/51/146 60/54/148
s 36
f 50/59/149 49/60/150 46/62/151
f 46/62/151 49/60/150 43/61/152
s 37
f 51/63/153 50/59/154 48/64/155
f 48/64/155 50/59/154 46/62/156
s 38
f 52/65/157 51/63/158 44/66/159
f 44/66/159 51/63/158 48/64/160
s 39
f 49/60/161 52/65/162 43/61/163
f 43/61/163 52/65/162 44/66/164
s 40
f 53/68/165 41/69/166 54/67/167
f 54/67/167 41/69/166 47/70/168
s 41
f 55/71/169 54/67/170 45/72/171
f 45/72/171 54/67/170 47/70/172
s 42
f 56/73/173 55/71/174 42/74/175
f 42/74/175 55/71/174 45/72/176
s 43
f 53/68/177 56/73/178 41/69/179
f 41/69/179 56/73/178 42/74/180
s 44
f 50/76/181 55/77/182 49/75/183
f 49/75/183 55/77/182 56/78/184
s 45
f 50/79/185 51/80/186 55/82/187
f 55/82/187 51/80/186 54/81/188
s 46
f 51/83/189 52/84/190 54/86/191
f 54/86/191 52/84/190 53/85/192
s 47
f 52/87/193 49/88/194 53/90/195
f 53/90/195 49/88/194 56/89/196
s 48
f 41/69/197 42/74/198 57/51/199
f 57/51/199 42/74/198 58/52/200
s 49
f 42/74/201 45/72/202 58/52/203
f 58/52/203 45/72/202 61/55/204
s 50
f 45/72/205 47/70/206 61/55/207
f 61/55/207 47/70/206 63/57/208
s 51
f 47/70/209 41/69/210 63/57/211
f 63/57/211 41/69/210 57/51/212
s off
f 43/61/213 44/66/214 65/91/215
f 60/54/216 59/53/217 66/92/218
f 46/62/219 43/61/220 65/91/221
f 59/53/222 62/56/223 66/92/224
f 48/64/225 46/62/226 65/91/227
f 62/56/228 64/58/229 66/92/230
f 44/66/231 48/64/232 65/91/233
f 64/58/234 60/54/235 66/92/236
s 52
usemtl initialShadingGroup
f 16/22/237 13/19/238 68/93/239
f 68/93/239 13/19/238 67/94/240
s 53
f 13/19/241 25/31/242 67/94/243
f 67/94/243 25/31/242 69/95/244
s 54
f 25/31/245 28/34/246 69/95/247
f 69/95/247 28/34/246 70/96/248
s 55
f 16/22/249 68/93/250 28/34/251
f 28/34/251 68/93/250 70/96/252
