# This file uses meters as units for non-parametric coordinates.

mtllib Vitrine1.mtl
g default
v -0.520755 1.476922 0.615840
v 0.710924 1.476922 0.615840
v -0.520755 1.577588 0.615840
v 0.710924 1.577588 0.615840
v -0.520755 1.577588 -0.615840
v 0.710924 1.577588 -0.615840
v -0.520755 1.476922 -0.615840
v 0.710924 1.476922 -0.615840
v -0.520755 1.415217 -0.615840
v 0.710924 1.415217 -0.615840
v 0.710924 1.415217 0.615840
v -0.520755 1.415217 0.615840
v -0.520755 1.356694 -0.615840
v 0.710924 1.356694 -0.615840
v 0.710924 1.356694 0.615840
v -0.520755 1.356694 0.615840
v -0.397587 1.476922 -0.492672
v 0.587757 1.476922 -0.492672
v 0.587757 1.415217 -0.492672
v -0.397587 1.415217 -0.492672
v 0.587757 1.476922 0.492672
v 0.587757 1.415217 0.492672
v -0.397587 1.476922 0.492672
v -0.397587 1.415217 0.492672
v -0.520755 0.046563 -0.615840
v 0.710924 0.046563 -0.615840
v 0.710924 0.046563 0.615840
v -0.520755 0.046563 0.615840
v -0.154717 1.577588 0.249802
v 0.344887 1.577588 0.249802
v 0.344887 1.577588 -0.249802
v -0.154717 1.577588 -0.249802
v -0.154717 1.646708 0.249802
v 0.344887 1.646708 0.249802
v 0.344887 1.646708 -0.249802
v -0.154717 1.646708 -0.249802
v -0.057949 1.670527 0.153033
v 0.248118 1.670527 0.153033
v 0.248118 1.670527 -0.153033
v -0.057949 1.670527 -0.153033
v -0.520755 2.317319 0.615840
v 0.710924 2.317319 0.615840
v 0.658646 2.317319 0.563562
v -0.468477 2.317319 0.563562
v 0.710924 2.317319 -0.615840
v 0.658646 2.317319 -0.563562
v -0.520755 2.317319 -0.615840
v -0.468477 2.317319 -0.563562
v 0.658646 1.578540 0.563562
v 0.658646 1.578540 -0.563562
v -0.468477 1.578540 -0.563562
v -0.468477 1.578540 0.563562
v -0.520755 1.565726 0.615840
v -0.519808 1.572135 -0.614893
v 0.709978 1.572135 -0.614893
v 0.710924 1.565726 0.615840
v -0.520754 2.363664 0.615839
v 0.710924 2.363664 0.615839
v 0.658646 2.363664 0.563563
v -0.468477 2.363664 0.563563
v 0.710924 2.363664 -0.615840
v 0.658646 2.363664 -0.563562
v -0.520755 2.363664 -0.615840
v -0.468477 2.363664 -0.563562
v 0.095085 2.317319 0.000000
v 0.095085 2.363664 0.000000
v -0.731651 1.209499 -0.487171
v -0.731651 1.209499 0.487171
v -0.731651 0.046563 -0.487171
v -0.731651 0.046563 0.487171
vt 0.375000 0.000000
vt 0.625000 0.000000
vt 0.625000 0.250000
vt 0.375000 0.250000
vt 0.375000 0.250000
vt 0.625000 0.250000
vt 0.625000 0.500000
vt 0.375000 0.500000
vt 0.375000 0.500000
vt 0.625000 0.500000
vt 0.625000 0.750000
vt 0.375000 0.750000
vt 0.875000 0.000000
vt 0.875000 0.250000
vt 0.125000 0.000000
vt 0.125000 0.250000
vt 0.375000 0.750000
vt 0.625000 0.750000
vt 0.625000 0.750000
vt 0.375000 0.750000
vt 0.625000 1.000000
vt 0.625000 1.000000
vt 0.375000 1.000000
vt 0.375000 1.000000
vt 0.375000 0.750000
vt 0.625000 0.750000
vt 0.625000 0.750000
vt 0.375000 0.750000
vt 0.625000 1.000000
vt 0.625000 1.000000
vt 0.375000 1.000000
vt 0.375000 1.000000
vt 0.625000 1.000000
vt 0.375000 1.000000
vt 0.625000 0.750000
vt 0.375000 0.750000
vt 0.625000 1.000000
vt 0.375000 1.000000
vt 0.375000 1.000000
vt 0.375000 0.750000
vt 0.375000 0.750000
vt 0.375000 1.000000
vt 0.375000 0.250000
vt 0.625000 0.250000
vt 0.625000 0.250000
vt 0.375000 0.250000
vt 0.625000 0.500000
vt 0.625000 0.500000
vt 0.375000 0.500000
vt 0.375000 0.500000
vt 0.625000 0.250000
vt 0.375000 0.250000
vt 0.625000 0.500000
vt 0.375000 0.500000
vt 0.375000 0.250000
vt 0.625000 0.250000
vt 0.625000 0.250000
vt 0.375000 0.250000
vt 0.625000 0.500000
vt 0.625000 0.500000
vt 0.375000 0.500000
vt 0.375000 0.500000
vt 0.625000 0.500000
vt 0.625000 0.250000
vt 0.625000 0.250000
vt 0.625000 0.500000
vt 0.375000 0.500000
vt 0.375000 0.500000
vt 0.375000 0.250000
vt 0.375000 0.250000
vt 0.375000 0.500000
vt 0.375000 0.250000
vt 0.375000 0.250000
vt 0.375000 0.500000
vt 0.625000 0.500000
vt 0.625000 0.500000
vt 0.625000 0.250000
vt 0.625000 0.250000
vt 0.000000 0.000000
vt 1.000000 0.000000
vt 1.000000 1.000000
vt 0.000000 1.000000
vt 0.000000 0.000000
vt 1.000000 0.000000
vt 1.000000 1.000000
vt 0.000000 1.000000
vt 0.000000 0.000000
vt 1.000000 0.000000
vt 1.000000 1.000000
vt 0.000000 1.000000
vt 0.000000 0.000000
vt 1.000000 0.000000
vt 1.000000 1.000000
vt 0.000000 1.000000
vt 0.500000 0.375000
vt 0.500000 0.375000
vn 0.000000 0.000000 1.000000
vn 0.000000 0.000000 1.000000
vn 0.000000 0.000000 1.000000
vn 0.000000 0.000000 1.000000
vn 0.000000 1.000000 0.000000
vn 0.000000 1.000000 0.000000
vn 0.000000 1.000000 0.000000
vn 0.000000 1.000000 0.000000
vn 0.000000 0.000000 -1.000000
vn 0.000000 0.000000 -1.000000
vn 0.000000 0.000000 -1.000000
vn 0.000000 0.000000 -1.000000
vn 1.000000 0.000000 0.000000
vn 1.000000 0.000000 0.000000
vn 1.000000 0.000000 0.000000
vn 1.000000 0.000000 0.000000
vn -1.000000 0.000000 0.000000
vn -1.000000 0.000000 0.000000
vn -1.000000 0.000000 0.000000
vn -1.000000 0.000000 0.000000
vn 0.000000 0.000000 -1.000000
vn 0.000000 0.000000 -1.000000
vn 0.000000 0.000000 -1.000000
vn 0.000000 0.000000 -1.000000
vn 1.000000 0.000000 0.000000
vn 1.000000 0.000000 0.000000
vn 1.000000 0.000000 0.000000
vn 1.000000 0.000000 0.000000
vn 0.000000 0.000000 1.000000
vn 0.000000 0.000000 1.000000
vn 0.000000 0.000000 1.000000
vn 0.000000 0.000000 1.000000
vn -1.000000 0.000000 0.000000
vn -1.000000 0.000000 0.000000
vn -1.000000 0.000000 0.000000
vn -1.000000 0.000000 0.000000
vn 0.000000 0.000000 -1.000000
vn 0.000000 0.000000 -1.000000
vn 0.000000 0.000000 -1.000000
vn 0.000000 0.000000 -1.000000
vn 1.000000 0.000000 0.000000
vn 1.000000 0.000000 0.000000
vn 1.000000 0.000000 0.000000
vn 1.000000 0.000000 0.000000
vn 0.000000 0.000000 1.000000
vn 0.000000 0.000000 1.000000
vn 0.000000 0.000000 1.000000
vn 0.000000 0.000000 1.000000
vn -1.000000 0.000000 0.000000
vn -1.000000 0.000000 0.000000
vn -1.000000 0.000000 0.000000
vn -1.000000 0.000000 0.000000
vn 0.000000 -1.000000 -0.000002
vn 0.000000 -1.000000 -0.000002
vn 0.000000 -1.000000 -0.000002
vn 0.000000 -1.000000 -0.000002
vn 0.000000 1.000000 0.000003
vn 0.000000 1.000000 0.000003
vn 0.000000 1.000000 0.000003
vn 0.000000 1.000000 0.000003
vn 0.000000 -1.000000 -0.000002
vn 0.000000 -1.000000 0.000003
vn 0.000000 -1.000000 0.000003
vn 0.000000 -1.000000 -0.000002
vn 0.000000 1.000000 -0.000003
vn 0.000000 1.000000 0.000003
vn 0.000000 1.000000 0.000003
vn 0.000000 1.000000 -0.000003
vn 0.000000 -1.000000 0.000003
vn 0.000000 -1.000000 0.000003
vn 0.000000 -1.000000 0.000003
vn 0.000000 -1.000000 0.000003
vn 0.000000 1.000000 -0.000003
vn 0.000000 1.000000 -0.000003
vn 0.000000 1.000000 -0.000003
vn 0.000000 1.000000 -0.000003
vn 0.000000 -1.000000 0.000003
vn 0.000000 -1.000000 -0.000002
vn 0.000000 -1.000000 -0.000002
vn 0.000000 -1.000000 0.000003
vn 0.000000 1.000000 0.000003
vn 0.000000 1.000000 -0.000003
vn 0.000000 1.000000 -0.000003
vn 0.000000 1.000000 0.000003
vn 0.000000 0.000000 -1.000000
vn 0.000000 0.000000 -1.000000
vn 0.000000 0.000000 -1.000000
vn 0.000000 0.000000 -1.000000
vn 1.000000 0.000000 0.000000
vn 1.000000 0.000000 0.000000
vn 1.000000 0.000000 0.000000
vn 1.000000 0.000000 0.000000
vn 0.000000 0.000000 1.000000
vn 0.000000 0.000000 1.000000
vn 0.000000 0.000000 1.000000
vn 0.000000 0.000000 1.000000
vn -1.000000 0.000000 0.000000
vn -1.000000 0.000000 0.000000
vn -1.000000 0.000000 0.000000
vn -1.000000 0.000000 0.000000
vn 0.000000 1.000000 -0.000003
vn 0.000000 1.000000 -0.000003
vn 0.000000 1.000000 -0.000003
vn 0.000000 1.000000 -0.000003
vn 0.000000 1.000000 0.000000
vn 0.000000 1.000000 0.000000
vn 0.000000 1.000000 0.000000
vn 0.000000 1.000000 0.000000
vn 0.000000 1.000000 0.000002
vn 0.000000 1.000000 0.000002
vn 0.000000 1.000000 0.000002
vn 0.000000 1.000000 0.000002
vn 0.000000 1.000000 0.000000
vn 0.000000 1.000000 0.000000
vn 0.000000 1.000000 0.000000
vn 0.000000 1.000000 0.000000
vn 0.000000 0.000000 1.000000
vn 0.000000 0.000000 1.000000
vn 0.000000 0.000000 1.000000
vn 0.000000 0.000000 1.000000
vn 1.000000 0.000000 0.000000
vn 1.000000 0.000000 0.000000
vn 1.000000 0.000000 0.000000
vn 1.000000 0.000000 0.000000
vn 0.000000 0.000000 -1.000000
vn 0.000000 0.000000 -1.000000
vn 0.000000 0.000000 -1.000000
vn 0.000000 0.000000 -1.000000
vn -1.000000 0.000000 0.000000
vn -1.000000 0.000000 0.000000
vn -1.000000 0.000000 0.000000
vn -1.000000 0.000000 0.000000
vn 0.000000 0.971023 0.238985
vn 0.000000 0.971023 0.238985
vn 0.000000 0.971023 0.238985
vn 0.000000 0.971023 0.238985
vn 0.238992 0.971022 0.000000
vn 0.238992 0.971022 0.000000
vn 0.238992 0.971022 0.000000
vn 0.238992 0.971022 0.000000
vn 0.000000 0.971023 -0.238985
vn 0.000000 0.971023 -0.238985
vn 0.000000 0.971023 -0.238985
vn 0.000000 0.971023 -0.238985
vn -0.238991 0.971022 0.000000
vn -0.238991 0.971022 0.000000
vn -0.238991 0.971022 0.000000
vn -0.238991 0.971022 0.000000
vn 0.000000 1.000000 -0.000003
vn 0.000000 1.000000 -0.000003
vn 0.000000 1.000000 -0.000003
vn 0.000000 1.000000 -0.000003
vn 0.000000 1.000000 -0.000001
vn 0.000000 1.000000 -0.000001
vn 0.000000 1.000000 -0.000001
vn 0.000000 1.000000 -0.000001
vn 0.000000 1.000000 -0.000012
vn 0.000000 1.000000 -0.000012
vn 0.000000 1.000000 -0.000012
vn 0.000000 1.000000 -0.000012
vn 0.000000 1.000000 0.000001
vn 0.000000 1.000000 0.000001
vn 0.000000 1.000000 0.000001
vn 0.000000 1.000000 0.000001
vn -1.000000 0.000000 0.000000
vn -1.000000 0.000000 0.000000
vn -1.000000 0.000000 0.000000
vn -1.000000 0.000000 0.000000
vn 0.000000 0.000000 1.000000
vn 0.000000 0.000000 1.000000
vn 0.000000 0.000000 1.000000
vn 0.000000 0.000000 1.000000
vn 1.000000 0.000000 0.000000
vn 1.000000 0.000000 0.000000
vn 1.000000 0.000000 0.000000
vn 1.000000 0.000000 0.000000
vn 0.000000 0.000000 -1.000000
vn 0.000000 0.000000 -1.000000
vn 0.000000 0.000000 -1.000000
vn 0.000000 0.000000 -1.000000
vn -1.000000 -0.000633 -0.000386
vn -1.000000 -0.000633 -0.000386
vn -1.000000 -0.000633 -0.000386
vn -1.000000 -0.000633 -0.000386
vn 0.000000 -0.001270 -0.999999
vn 0.000000 -0.001270 -0.999999
vn 0.000000 -0.001270 -0.999999
vn 0.000000 -0.001270 -0.999999
vn 1.000000 -0.000633 -0.000386
vn 1.000000 -0.000633 -0.000386
vn 1.000000 -0.000633 -0.000386
vn 1.000000 -0.000633 -0.000386
vn 0.000000 0.000000 1.000000
vn 0.000000 0.000000 1.000000
vn 0.000000 0.000000 1.000000
vn 0.000000 0.000000 1.000000
vn -0.182355 -0.983229 -0.002600
vn -0.182355 -0.983229 -0.002600
vn -0.182355 -0.983229 -0.002600
vn -0.182355 -0.983229 -0.002600
vn 0.000000 -0.992308 0.123790
vn 0.000000 -0.992308 0.123790
vn 0.000000 -0.992308 0.123790
vn 0.000000 -0.992308 0.123790
vn 0.182356 -0.983229 -0.002600
vn 0.182356 -0.983229 -0.002600
vn 0.182356 -0.983229 -0.002600
vn 0.182356 -0.983229 -0.002600
vn 0.000000 -0.971251 -0.238059
vn 0.000000 -0.971251 -0.238059
vn 0.000000 -0.971251 -0.238059
vn 0.000000 -0.971251 -0.238059
vn 0.000000 0.000018 1.000000
vn 0.000000 0.000018 1.000000
vn 0.000000 0.000018 1.000000
vn 0.000000 0.000018 1.000000
vn 1.000000 0.000006 0.000000
vn 1.000000 0.000006 0.000000
vn 1.000000 0.000006 0.000000
vn 1.000000 0.000006 0.000000
vn 0.000000 0.000000 -1.000000
vn 0.000000 0.000000 -1.000000
vn 0.000000 0.000000 -1.000000
vn 0.000000 0.000000 -1.000000
vn -1.000000 0.000010 0.000000
vn -1.000000 0.000010 0.000000
vn -1.000000 0.000010 0.000000
vn -1.000000 0.000010 0.000000
vn 0.000000 -1.000000 -0.000003
vn 0.000000 -1.000000 -0.000003
vn 0.000000 -1.000000 -0.000003
vn 0.000000 1.000000 0.000003
vn 0.000000 1.000000 0.000003
vn 0.000000 1.000000 0.000003
vn 0.000000 -1.000000 0.000000
vn 0.000000 -1.000000 0.000000
vn 0.000000 -1.000000 0.000000
vn 0.000000 1.000000 0.000000
vn 0.000000 1.000000 0.000000
vn 0.000000 1.000000 0.000000
vn 0.000000 -1.000000 0.000003
vn 0.000000 -1.000000 0.000003
vn 0.000000 -1.000000 0.000003
vn 0.000000 1.000000 -0.000002
vn 0.000000 1.000000 -0.000002
vn 0.000000 1.000000 -0.000002
vn 0.000000 -1.000000 0.000000
vn 0.000000 -1.000000 0.000000
vn 0.000000 -1.000000 0.000000
vn 0.000000 1.000000 0.000000
vn 0.000000 1.000000 0.000000
vn 0.000000 1.000000 0.000000
vn -0.572334 0.820021 0.000000
vn -0.572334 0.820021 0.000000
vn -0.572334 0.820021 0.000000
vn -0.572334 0.820021 0.000000
vn -0.520825 0.000000 -0.853664
vn -0.520825 0.000000 -0.853664
vn -0.520825 0.000000 -0.853664
vn -0.520825 0.000000 -0.853664
vn 0.000000 -1.000000 0.000000
vn 0.000000 -1.000000 0.000000
vn 0.000000 -1.000000 0.000000
vn 0.000000 -1.000000 0.000000
vn -0.520825 0.000000 0.853664
vn -0.520825 0.000000 0.853664
vn -0.520825 0.000000 0.853664
vn -0.520825 0.000000 0.853664
s off
g Vitrine4
usemtl Frame1
f 1/1/1 2/2/2 4/3/3 3/4/4
f 37/5/5 38/6/6 39/7/7 40/8/8
f 5/9/9 6/10/10 8/11/11 7/12/12
f 2/2/13 8/13/14 6/14/15 4/3/16
f 7/15/17 1/1/18 3/4/19 5/16/20
f 17/17/21 18/18/22 19/19/23 20/20/24
f 18/18/25 21/21/26 22/22/27 19/19/28
f 21/21/29 23/23/30 24/24/31 22/22/32
f 23/23/33 17/17/34 20/20/35 24/24/36
f 9/25/37 10/26/38 14/27/39 13/28/40
f 10/26/41 11/29/42 15/30/43 14/27/44
f 11/29/45 12/31/46 16/32/47 15/30/48
f 12/31/49 9/25/50 13/28/51 16/32/52
f 7/12/53 8/11/54 18/18/55 17/17/56
f 10/26/57 9/25/58 20/20/59 19/19/60
f 8/11/61 2/33/62 21/21/63 18/18/64
f 11/29/65 10/26/66 19/19/67 22/22/68
f 2/33/69 1/34/70 23/23/71 21/21/72
f 12/31/73 11/29/74 22/22/75 24/24/76
f 1/34/77 7/12/78 17/17/79 23/23/80
f 9/25/81 12/31/82 24/24/83 20/20/84
f 13/28/85 14/27/86 26/35/87 25/36/88
f 14/27/89 15/30/90 27/37/91 26/35/92
f 15/30/93 16/32/94 28/38/95 27/37/96
f 68/39/97 67/40/98 69/41/99 70/42/100
f 3/43/101 4/44/102 30/45/103 29/46/104
f 4/44/105 6/47/106 31/48/107 30/45/108
f 6/47/109 5/49/110 32/50/111 31/48/112
f 5/49/113 3/43/114 29/46/115 32/50/116
f 29/46/117 30/45/118 34/51/119 33/52/120
f 30/45/121 31/48/122 35/53/123 34/51/124
f 31/48/125 32/50/126 36/54/127 35/53/128
f 32/50/129 29/46/130 33/52/131 36/54/132
f 33/52/133 34/51/134 38/6/135 37/5/136
f 34/51/137 35/53/138 39/7/139 38/6/140
f 35/53/141 36/54/142 40/8/143 39/7/144
f 36/54/145 33/52/146 37/5/147 40/8/148
f 57/55/149 58/56/150 59/57/151 60/58/152
f 58/56/153 61/59/154 62/60/155 59/57/156
f 61/59/157 63/61/158 64/62/159 62/60/160
f 63/61/161 57/55/162 60/58/163 64/62/164
f 50/63/165 49/64/166 43/65/167 46/66/168
f 51/67/169 50/63/170 46/66/171 48/68/172
f 52/69/173 51/67/174 48/68/175 44/70/176
f 49/64/177 52/69/178 44/70/179 43/65/180
f 54/71/181 53/72/182 41/73/183 47/74/184
f 55/75/185 54/71/186 47/74/187 45/76/188
f 56/77/189 55/75/190 45/76/191 42/78/192
f 53/72/193 56/77/194 42/78/195 41/73/196
f 49/79/197 50/80/198 55/81/199 56/82/200
f 50/83/201 51/84/202 54/85/203 55/86/204
f 51/87/205 52/88/206 53/89/207 54/90/208
f 52/91/209 49/92/210 56/93/211 53/94/212
f 41/73/213 42/78/214 58/56/215 57/55/216
f 42/78/217 45/76/218 61/59/219 58/56/220
f 45/76/221 47/74/222 63/61/223 61/59/224
f 47/74/225 41/73/226 57/55/227 63/61/228
f 43/65/229 44/70/230 65/95/231
f 60/58/232 59/57/233 66/96/234
f 46/66/235 43/65/236 65/95/237
f 59/57/238 62/60/239 66/96/240
f 48/68/241 46/66/242 65/95/243
f 62/60/244 64/62/245 66/96/246
f 44/70/247 48/68/248 65/95/249
f 64/62/250 60/58/251 66/96/252
f 16/32/253 13/28/254 67/40/255 68/39/256
f 13/28/257 25/36/258 69/41/259 67/40/260
f 25/36/261 28/38/262 70/42/263 69/41/264
f 28/38/265 16/32/266 68/39/267 70/42/268
