# This file uses centimeters as units for non-parametric coordinates.

mtllib Vitrine1.mtl
g default
v -0.510053 -0.811995 0.615697
v 0.704549 -0.811995 0.615697
v -0.510053 0.499605 0.615697
v 0.704549 0.499605 0.615697
v -0.510053 0.499605 -0.615697
v 0.704549 0.499605 -0.615697
v -0.510053 -0.811995 -0.615697
v 0.704549 -0.811995 -0.615697
v -0.510053 0.560249 0.615697
v 0.704549 0.560249 0.615697
v 0.704549 0.560249 -0.615697
v -0.510053 0.560249 -0.615697
v -0.388803 0.560249 0.492771
v 0.583299 0.560249 0.492771
v 0.583299 0.560249 -0.492771
v -0.388803 0.560249 -0.492771
v -0.388803 0.617192 0.492771
v 0.583299 0.617192 0.492771
v 0.583299 0.617192 -0.492771
v -0.388803 0.617192 -0.492771
v -0.519875 0.617192 0.625655
v 0.714371 0.617192 0.625655
v 0.714371 0.617192 -0.625655
v -0.519875 0.617192 -0.625655
v -0.519875 0.712099 0.625655
v 0.714371 0.712099 0.625655
v 0.714371 0.712099 -0.625655
v -0.519875 0.712099 -0.625655
v -0.149929 0.712099 0.250594
v 0.344425 0.712099 0.250594
v 0.344425 0.712099 -0.250594
v -0.149929 0.712099 -0.250594
v -0.149929 0.785707 0.250594
v 0.344425 0.785707 0.250594
v 0.344425 0.785707 -0.250594
v -0.149929 0.785707 -0.250594
v -0.061317 0.811995 0.160757
v 0.255813 0.811995 0.160757
v 0.255813 0.811995 -0.160757
v -0.061317 0.811995 -0.160757
vt 0.136784 0.660687
vt 0.256990 0.816082
vt 0.477459 0.128941
vt 0.632854 0.008735
vt 0.678005 0.742885
vt 0.682504 0.688959
vt 0.732999 0.689245
vt 0.731369 0.738074
vt 0.164521 0.371015
vt 0.319916 0.250809
vt 0.449722 0.418613
vt 0.294327 0.538819
vt 0.678021 0.477741
vt 0.510779 0.373517
vt 0.740343 0.612306
vt 0.803194 0.719656
vt 0.813255 0.867578
vt 0.968103 0.889804
vt 0.653777 0.867452
vt 0.496078 0.867315
vt 0.734964 0.416251
vt 0.672822 0.269927
vt 0.781882 0.541476
vt 0.812021 0.678345
vt 0.550372 0.729422
vt 0.729598 0.641481
vt 0.368668 0.818578
vt 0.189443 0.906519
vt 0.849842 0.233583
vt 0.661470 0.256772
vt 0.938509 0.328338
vt 0.999023 0.430582
vt 0.270481 0.890528
vt 0.343330 0.857561
vt 0.196624 0.923949
vt 0.123775 0.956916
vt 0.669531 0.673026
vt 0.661470 0.750000
vt 0.747633 0.673757
vt 0.748520 0.751031
vt 0.338421 0.846714
vt 0.045009 0.979490
vt 0.670116 0.758731
vt 0.118866 0.946069
vt 0.191715 0.913102
vt 0.265572 0.879680
vt 0.726786 0.319058
vt 0.901972 0.529936
vt 0.049918 0.990337
vt 0.921233 0.440495
vt 0.878868 0.366224
vt 0.812362 0.310286
vt 0.722836 0.627700
vt 0.000977 0.981894
vt 0.947836 0.594294
vt 0.182680 0.892738
vt 0.361906 0.804797
vt 0.543610 0.715640
vt 0.646792 0.268176
vt 0.900646 0.846168
vt 0.007739 0.995676
vt 0.784535 0.684545
vt 0.759550 0.546871
vt 0.713214 0.426265
vt 0.969985 0.880738
vt 0.339470 0.835552
vt 0.911617 0.817049
vt 0.496461 0.858120
vt 0.653760 0.858227
vt 0.813634 0.858383
vt 0.515361 0.404659
vt 0.873377 0.864889
vt 0.337583 0.844617
vt 0.787290 0.733630
vt 0.721170 0.621249
vt 0.657838 0.493596
vt 0.626852 0.000977
vt 0.000977 0.485124
vt 0.902188 0.867435
vt 0.158520 0.363256
vt 0.313914 0.243050
vt 0.471458 0.121182
vt 0.006978 0.492883
vt 0.762660 0.176540
vt 0.414533 0.694214
vt 0.607265 0.296746
vn 0.000000 0.000000 1.000000
vn 0.000000 0.000000 1.000000
vn 0.000000 0.000000 1.000000
vn 0.000000 0.000000 1.000000
vn 0.000000 1.000000 0.000000
vn 0.000000 1.000000 0.000000
vn 0.000000 1.000000 0.000000
vn 0.000000 1.000000 0.000000
vn 0.000000 0.000000 -1.000000
vn 0.000000 0.000000 -1.000000
vn 0.000000 0.000000 -1.000000
vn 0.000000 0.000000 -1.000000
vn 0.000000 -1.000000 0.000000
vn 0.000000 -1.000000 0.000000
vn 0.000000 -1.000000 0.000000
vn 0.000000 -1.000000 0.000000
vn 1.000000 0.000000 0.000000
vn 1.000000 0.000000 0.000000
vn 1.000000 0.000000 0.000000
vn 1.000000 0.000000 0.000000
vn 0.000000 0.000000 1.000000
vn 0.000000 0.000000 1.000000
vn 0.000000 0.000000 1.000000
vn 0.000000 0.000000 1.000000
vn 1.000000 0.000000 0.000000
vn 1.000000 0.000000 0.000000
vn 1.000000 0.000000 0.000000
vn 1.000000 0.000000 0.000000
vn 0.000000 0.000000 -1.000000
vn 0.000000 0.000000 -1.000000
vn 0.000000 0.000000 -1.000000
vn 0.000000 0.000000 -1.000000
vn -1.000000 0.000000 0.000000
vn -1.000000 0.000000 0.000000
vn -1.000000 0.000000 0.000000
vn -1.000000 0.000000 0.000000
vn 0.000000 1.000000 -0.000000
vn 0.000000 1.000000 -0.000001
vn 0.000000 1.000000 -0.000000
vn 0.000000 1.000000 -0.000001
vn 0.000000 1.000000 0.000000
vn 0.000000 1.000000 0.000000
vn 0.000000 1.000000 0.000000
vn 0.000000 1.000000 0.000000
vn 0.000000 1.000000 0.000000
vn 0.000000 1.000000 0.000000
vn 0.000000 1.000000 0.000000
vn 0.000000 1.000000 0.000000
vn 0.000000 1.000000 0.000000
vn 0.000000 1.000000 0.000000
vn 0.000000 1.000000 0.000000
vn 0.000000 1.000000 0.000000
vn 0.000000 0.000000 1.000000
vn 0.000000 0.000000 1.000000
vn 0.000000 0.000000 1.000000
vn 0.000000 0.000000 1.000000
vn 1.000000 0.000004 0.000000
vn 1.000000 0.000004 0.000000
vn 1.000000 0.000004 0.000000
vn 1.000000 0.000004 0.000000
vn 0.000000 0.000000 -1.000000
vn 0.000000 0.000000 -1.000000
vn 0.000000 0.000000 -1.000000
vn 0.000000 0.000000 -1.000000
vn -1.000000 0.000003 0.000000
vn -1.000000 0.000003 0.000000
vn -1.000000 0.000003 0.000000
vn -1.000000 0.000003 0.000000
vn 0.000000 -1.000000 -0.000000
vn 0.000000 -1.000000 -0.000000
vn 0.000000 -1.000000 -0.000000
vn 0.000000 -1.000000 0.000000
vn 0.000000 -1.000000 0.000000
vn 0.000000 -1.000000 0.000000
vn 0.000000 -1.000000 0.000000
vn 0.000000 -1.000000 0.000000
vn 0.000000 -1.000000 0.000001
vn 0.000000 -1.000000 -0.000001
vn 0.000000 -1.000000 0.000001
vn 0.000000 -1.000000 -0.000001
vn 0.000000 -1.000000 0.000000
vn 0.000000 -1.000000 0.000000
vn 0.000000 -1.000000 0.000000
vn 0.000000 -1.000000 0.000000
vn 0.000000 0.000000 1.000000
vn 0.000000 0.000000 1.000000
vn 0.000000 0.000000 1.000000
vn 0.000000 0.000000 1.000000
vn 1.000000 0.000000 0.000000
vn 1.000000 0.000000 0.000000
vn 1.000000 0.000000 0.000000
vn 1.000000 0.000000 0.000000
vn 0.000000 0.000000 -1.000000
vn 0.000000 0.000000 -1.000000
vn 0.000000 0.000000 -1.000000
vn 0.000000 0.000000 -1.000000
vn -1.000000 0.000000 0.000000
vn -1.000000 0.000000 0.000000
vn -1.000000 0.000000 0.000000
vn -1.000000 0.000000 0.000000
vn 0.000000 1.000000 0.000000
vn 0.000000 1.000000 0.000000
vn 0.000000 1.000000 0.000000
vn 0.000000 1.000000 0.000000
vn 0.000000 1.000000 0.000000
vn 0.000000 1.000000 0.000000
vn 0.000000 1.000000 0.000000
vn 0.000000 1.000000 0.000000
vn 0.000000 1.000000 -0.000000
vn 0.000000 1.000000 -0.000000
vn 0.000000 1.000000 -0.000000
vn 0.000000 1.000000 0.000000
vn 0.000000 1.000000 0.000000
vn 0.000000 1.000000 0.000000
vn 0.000000 1.000000 0.000000
vn 0.000000 1.000000 0.000000
vn 0.000000 0.000000 1.000000
vn 0.000000 0.000000 1.000000
vn 0.000000 0.000000 1.000000
vn 0.000000 0.000000 1.000000
vn 1.000000 0.000000 0.000000
vn 1.000000 0.000000 0.000000
vn 1.000000 0.000000 0.000000
vn 1.000000 0.000000 0.000000
vn 0.000000 0.000000 -1.000000
vn 0.000000 0.000000 -1.000000
vn 0.000000 0.000000 -1.000000
vn 0.000000 0.000000 -1.000000
vn -1.000000 0.000000 0.000000
vn -1.000000 0.000000 0.000000
vn -1.000000 0.000000 0.000000
vn -1.000000 0.000000 0.000000
vn 0.000000 0.959753 0.280847
vn 0.000000 0.959753 0.280847
vn 0.000000 0.959753 0.280847
vn 0.000000 0.959753 0.280846
vn 0.284418 0.958701 0.000000
vn 0.284418 0.958701 0.000000
vn 0.284418 0.958701 0.000000
vn 0.284418 0.958700 0.000000
vn 0.000000 0.959753 -0.280847
vn 0.000000 0.959753 -0.280847
vn 0.000000 0.959753 -0.280847
vn 0.000000 0.959753 -0.280846
vn -0.284418 0.958701 0.000000
vn -0.284418 0.958700 0.000000
vn -0.284418 0.958701 0.000000
vn -0.284418 0.958701 0.000000
vn -1.000000 0.000000 0.000000
vn -1.000000 0.000000 0.000000
vn -1.000000 0.000000 0.000000
vn -1.000000 0.000000 0.000000
s 1
g Vitrine_1
usemtl lambert3SG
f 1/84/1 2/86/2 3/4/3
f 3/4/3 2/86/2 4/3/4
s 2
f 37/5/5 38/6/6 40/8/7
f 40/8/7 38/6/6 39/7/8
s 3
f 5/9/9 6/10/10 7/12/11
f 7/12/11 6/10/10 8/11/12
s 4
f 7/12/13 8/85/14 1/1/15
f 1/1/15 8/85/14 2/2/16
s 5
f 2/86/17 8/11/18 4/3/19
f 4/3/19 8/11/18 6/10/20
s 6
f 3/4/21 4/3/22 9/77/23
f 9/77/23 4/3/22 10/82/24
s 7
f 4/3/25 6/10/26 10/82/27
f 10/82/27 6/10/26 11/81/28
s 8
f 6/10/29 5/9/30 11/81/31
f 11/81/31 5/9/30 12/80/32
s 9
f 5/9/33 3/83/34 12/80/35
f 12/80/35 3/83/34 9/78/36
s 10
f 9/14/37 10/13/38 13/71/39
f 13/71/39 10/13/38 14/76/40
s 11
f 10/13/41 11/15/42 14/76/43
f 14/76/43 11/15/42 15/75/44
s 12
f 11/15/45 12/16/46 15/75/47
f 15/75/47 12/16/46 16/74/48
s 13
f 12/16/49 9/79/50 16/74/51
f 16/74/51 9/79/50 13/72/52
s 14
f 13/18/53 14/17/54 17/65/55
f 17/65/55 14/17/54 18/70/56
s 15
f 14/17/57 15/19/58 18/70/59
f 18/70/59 15/19/58 19/69/60
s 16
f 15/19/61 16/20/62 19/69/63
f 19/69/63 16/20/62 20/68/64
s 17
f 16/20/65 13/73/66 20/68/67
f 20/68/67 13/73/66 17/66/68
s 18
f 17/22/69 18/21/70 21/59/71
f 21/59/71 18/21/70 22/64/72
s 19
f 18/21/73 19/23/74 22/64/75
f 22/64/75 19/23/74 23/63/76
s 20
f 19/23/77 20/24/78 23/63/79
f 23/63/79 20/24/78 24/62/80
s 21
f 20/24/81 17/67/82 24/62/83
f 24/62/83 17/67/82 21/60/84
s 22
f 21/26/85 22/25/86 25/53/87
f 25/53/87 22/25/86 26/58/88
s 23
f 22/25/89 23/27/90 26/58/91
f 26/58/91 23/27/90 27/57/92
s 24
f 23/27/93 24/28/94 27/57/95
f 27/57/95 24/28/94 28/56/96
s 25
f 24/28/97 21/61/98 28/56/99
f 28/56/99 21/61/98 25/54/100
s 26
f 25/30/101 26/29/102 29/47/103
f 29/47/103 26/29/102 30/52/104
s 27
f 26/29/105 27/31/106 30/52/107
f 30/52/107 27/31/106 31/51/108
s 28
f 27/31/109 28/32/110 31/51/111
f 31/51/111 28/32/110 32/50/112
s 29
f 28/32/113 25/55/114 32/50/115
f 32/50/115 25/55/114 29/48/116
s 30
f 29/34/117 30/33/118 33/41/119
f 33/41/119 30/33/118 34/46/120
s 31
f 30/33/121 31/35/122 34/46/123
f 34/46/123 31/35/122 35/45/124
s 32
f 31/35/125 32/36/126 35/45/127
f 35/45/127 32/36/126 36/44/128
s 33
f 32/36/129 29/49/130 36/44/131
f 36/44/131 29/49/130 33/42/132
s 34
f 33/38/133 34/37/134 37/5/135
f 37/5/135 34/37/134 38/6/136
s 35
f 34/37/137 35/39/138 38/6/139
f 38/6/139 35/39/138 39/7/140
s 36
f 35/39/141 36/40/142 39/7/143
f 39/7/143 36/40/142 40/8/144
s 37
f 36/40/145 33/43/146 40/8/147
f 40/8/147 33/43/146 37/5/148
s 38
f 1/1/149 3/83/150 7/12/151
f 7/12/151 3/83/150 5/9/152
