# This file uses meters as units for non-parametric coordinates.

mtllib WorldWonder_1.mtl
g default
v -120.000008 -79.999985 0.000000
v -39.999977 -79.999985 0.000000
v -120.000008 -39.999985 0.000000
v -39.999977 -39.999985 0.000000
v 40.000015 -79.999985 0.000000
v 40.000015 -39.999985 0.000000
v 120.000008 -79.999985 0.000000
v 120.000008 -39.999985 0.000000
v 200.000031 -79.999985 0.000000
v 200.000031 -39.999985 0.000000
v 280.000000 -79.999985 0.000000
v 280.000000 -39.999985 0.000000
v -200.000000 0.000015 0.000000
v -120.000008 0.000015 0.000000
v -39.999977 0.000015 0.000000
v 40.000015 0.000015 0.000000
v 120.000008 0.000015 0.000000
v 200.000031 0.000015 0.000000
v -280.000000 0.000015 0.000000
v -280.000000 40.000000 0.000000
v -200.000000 40.000000 0.000000
v -120.000008 40.000000 0.000000
v -39.999977 40.000000 0.000000
v 40.000015 40.000000 0.000000
v 120.000008 40.000000 0.000000
v 200.000031 40.000000 0.000000
v -39.999977 80.000000 0.000000
vt 0.200000 0.197398
vt 0.300000 0.197398
vt 0.200000 0.257918
vt 0.300000 0.257918
vt 0.400000 0.197398
vt 0.400000 0.257918
vt 0.500000 0.197398
vt 0.500000 0.257918
vt 0.600000 0.197398
vt 0.600000 0.257918
vt 0.700000 0.197398
vt 0.700000 0.257918
vt 0.100000 0.318439
vt 0.200000 0.318439
vt 0.300000 0.318439
vt 0.400000 0.318439
vt 0.500000 0.318439
vt 0.600000 0.318439
vt 0.000000 0.318439
vt 0.000000 0.378959
vt 0.100000 0.378959
vt 0.200000 0.378959
vt 0.300000 0.378959
vt 0.400000 0.378959
vt 0.500000 0.378959
vt 0.600000 0.378959
vt 0.300000 0.439480
vn 0.000000 0.000000 1.000000
vn 0.000000 0.000000 1.000000
vn 0.000000 0.000000 1.000000
vn 0.000000 0.000000 1.000000
vn 0.000000 0.000000 1.000000
vn 0.000000 0.000000 1.000000
vn 0.000000 0.000000 1.000000
vn 0.000000 0.000000 1.000000
vn 0.000000 0.000000 1.000000
vn 0.000000 0.000000 1.000000
vn 0.000000 0.000000 1.000000
vn 0.000000 0.000000 1.000000
vn 0.000000 0.000000 1.000000
vn 0.000000 0.000000 1.000000
vn 0.000000 0.000000 1.000000
vn 0.000000 0.000000 1.000000
vn 0.000000 0.000000 1.000000
vn 0.000000 0.000000 1.000000
vn 0.000000 0.000000 1.000000
vn 0.000000 0.000000 1.000000
vn 0.000000 0.000000 1.000000
vn 0.000000 0.000000 1.000000
vn 0.000000 0.000000 1.000000
vn 0.000000 0.000000 1.000000
vn 0.000000 0.000000 1.000000
vn 0.000000 0.000000 1.000000
vn 0.000000 0.000000 1.000000
s 1
g WonderPiece_1
usemtl lambert11SG
f 1/1/1 2/2/2 3/3/3
f 3/3/3 2/2/2 4/4/4
f 2/2/2 5/5/5 4/4/4
f 4/4/4 5/5/5 6/6/6
f 5/5/5 7/7/7 6/6/6
f 6/6/6 7/7/7 8/8/8
f 7/7/7 9/9/9 8/8/8
f 8/8/8 9/9/9 10/10/10
f 9/9/9 11/11/11 10/10/10
f 10/10/10 11/11/11 12/12/12
f 13/13/13 3/3/3 14/14/14
f 3/3/3 4/4/4 14/14/14
f 14/14/14 4/4/4 15/15/15
f 4/4/4 6/6/6 15/15/15
f 15/15/15 6/6/6 16/16/16
f 6/6/6 8/8/8 16/16/16
f 16/16/16 8/8/8 17/17/17
f 8/8/8 10/10/10 17/17/17
f 17/17/17 10/10/10 18/18/18
f 10/10/10 12/12/12 18/18/18
f 19/19/19 13/13/13 20/20/20
f 20/20/20 13/13/13 21/21/21
f 13/13/13 14/14/14 21/21/21
f 21/21/21 14/14/14 22/22/22
f 14/14/14 15/15/15 22/22/22
f 22/22/22 15/15/15 23/23/23
f 15/15/15 16/16/16 23/23/23
f 23/23/23 16/16/16 24/24/24
f 16/16/16 17/17/17 24/24/24
f 17/17/17 18/18/18 25/25/25
f 25/25/25 18/18/18 26/26/26
f 23/23/23 24/24/24 27/27/27
