# This file uses meters as units for non-parametric coordinates.

mtllib WorldWonder_3.mtl
g default
v -79.999992 -60.000000 0.000000
v 0.000000 -100.000000 0.000000
v -0.000000 -60.000000 0.000000
v 80.000015 -100.000000 0.000000
v 80.000015 -60.000000 0.000000
v 159.999985 -100.000000 0.000000
v 159.999985 -60.000000 0.000000
v -79.999992 -20.000000 0.000000
v -0.000000 -20.000000 0.000000
v 80.000015 -20.000000 0.000000
v 159.999985 -20.000000 0.000000
v -79.999992 20.000000 0.000000
v -0.000000 20.000000 0.000000
v 80.000015 20.000000 0.000000
v -159.999985 60.000000 0.000000
v -79.999992 60.000000 0.000000
v 0.000000 60.000000 0.000000
v 80.000015 60.000000 0.000000
v -159.999985 100.000000 0.000000
v 0.000000 100.000000 0.000000
vt 0.400000 0.439480
vt 0.500000 0.378959
vt 0.500000 0.439480
vt 0.600000 0.378959
vt 0.600000 0.439480
vt 0.700000 0.378959
vt 0.700000 0.439480
vt 0.400000 0.500000
vt 0.500000 0.500000
vt 0.600000 0.500000
vt 0.700000 0.500000
vt 0.400000 0.560520
vt 0.500000 0.560520
vt 0.600000 0.560520
vt 0.300000 0.621041
vt 0.400000 0.621041
vt 0.500000 0.621041
vt 0.600000 0.621041
vt 0.300000 0.681561
vt 0.500000 0.681561
vn 0.000000 0.000000 1.000000
vn 0.000000 0.000000 1.000000
vn 0.000000 0.000000 1.000000
vn 0.000000 0.000000 1.000000
vn 0.000000 0.000000 1.000000
vn 0.000000 0.000000 1.000000
vn 0.000000 0.000000 1.000000
vn 0.000000 0.000000 1.000000
vn 0.000000 0.000000 1.000000
vn 0.000000 0.000000 1.000000
vn 0.000000 0.000000 1.000000
vn 0.000000 0.000000 1.000000
vn 0.000000 0.000000 1.000000
vn 0.000000 0.000000 1.000000
vn 0.000000 0.000000 1.000000
vn 0.000000 0.000000 1.000000
vn 0.000000 0.000000 1.000000
vn 0.000000 0.000000 1.000000
vn 0.000000 0.000000 1.000000
vn 0.000000 0.000000 1.000000
s 1
g WonderPiece_3
usemtl lambert11SG
f 1/1/1 2/2/2 3/3/3
f 2/2/2 4/4/4 3/3/3
f 3/3/3 4/4/4 5/5/5
f 4/4/4 6/6/6 5/5/5
f 5/5/5 6/6/6 7/7/7
f 1/1/1 3/3/3 8/8/8
f 8/8/8 3/3/3 9/9/9
f 3/3/3 5/5/5 9/9/9
f 9/9/9 5/5/5 10/10/10
f 5/5/5 7/7/7 10/10/10
f 10/10/10 7/7/7 11/11/11
f 8/8/8 9/9/9 12/12/12
f 12/12/12 9/9/9 13/13/13
f 9/9/9 10/10/10 13/13/13
f 13/13/13 10/10/10 14/14/14
f 10/10/10 11/11/11 14/14/14
f 15/15/15 12/12/12 16/16/16
f 12/12/12 13/13/13 16/16/16
f 16/16/16 13/13/13 17/17/17
f 13/13/13 14/14/14 17/17/17
f 17/17/17 14/14/14 18/18/18
f 15/15/15 16/16/16 19/19/19
f 17/17/17 18/18/18 20/20/20
