# This file uses centimeters as units for non-parametric coordinates.

mtllib Crate2UV.mtl
g Crate2:default1
v -0.471832 0.001305 0.471829
v 0.471832 0.001305 0.471829
v -0.471832 0.944965 0.471829
v 0.471832 0.944965 0.471829
v -0.471832 0.944965 -0.471830
v 0.471832 0.944965 -0.471830
v -0.471832 0.001305 -0.471830
v 0.471832 0.001305 -0.471830
v -0.413297 0.059841 0.471829
v 0.413297 0.059841 0.471829
v 0.413297 0.886429 0.471829
v -0.413297 0.886429 0.471829
v -0.413297 0.944965 0.413293
v 0.413297 0.944965 0.413293
v 0.413297 0.944965 -0.413295
v -0.413297 0.944965 -0.413295
v -0.413297 0.886429 -0.471830
v 0.413297 0.886429 -0.471830
v 0.413297 0.059841 -0.471830
v -0.413297 0.059841 -0.471830
v -0.413297 0.001305 -0.413295
v 0.413297 0.001305 -0.413295
v 0.413297 0.001305 0.413293
v -0.413297 0.001305 0.413293
v 0.471832 0.059841 -0.413295
v 0.471832 0.059841 0.413293
v 0.471832 0.886429 -0.413295
v 0.471832 0.886429 0.413293
v -0.471832 0.059841 -0.413295
v -0.471832 0.059841 0.413293
v -0.471832 0.886429 0.413293
v -0.471832 0.886429 -0.413295
v -0.384701 0.088436 0.439184
v 0.384701 0.088436 0.439184
v 0.384701 0.857833 0.439184
v -0.384701 0.857833 0.439184
v -0.384701 0.912320 0.384698
v 0.384701 0.912320 0.384698
v 0.384701 0.912320 -0.384699
v -0.384701 0.912320 -0.384699
v -0.384701 0.857833 -0.439185
v 0.384701 0.857833 -0.439185
v 0.384701 0.088436 -0.439185
v -0.384701 0.088436 -0.439185
v -0.384701 0.033950 -0.384699
v 0.384701 0.033950 -0.384699
v 0.384701 0.033950 0.384698
v -0.384701 0.033950 0.384698
v 0.439181 0.088436 -0.384699
v 0.439181 0.088436 0.384698
v 0.439181 0.857833 -0.384699
v 0.439181 0.857833 0.384698
v -0.439181 0.088436 -0.384699
v -0.439181 0.088436 0.384698
v -0.439181 0.857833 0.384698
v -0.439181 0.857833 -0.384699
vt 0.691579 0.335154
vt 0.941558 0.336276
vt 0.940445 0.586257
vt 0.690466 0.585136
vt 0.620715 0.584938
vt 0.370747 0.582188
vt 0.373492 0.332215
vt 0.623456 0.334970
vt 0.939731 0.904390
vt 0.689753 0.903364
vt 0.690765 0.653383
vt 0.940746 0.654404
vt 0.373238 0.650935
vt 0.623217 0.650887
vt 0.623281 0.900870
vt 0.373297 0.900923
vt 0.055251 0.330696
vt 0.305222 0.332819
vt 0.303112 0.582794
vt 0.053138 0.580676
vt 0.052667 0.649687
vt 0.302651 0.649838
vt 0.302505 0.899826
vt 0.052525 0.899670
vt 0.659541 0.303089
vt 0.973628 0.304235
vt 0.954315 0.323379
vt 0.678682 0.322399
vt 0.972483 0.618323
vt 0.953342 0.599011
vt 0.658396 0.617176
vt 0.677710 0.598033
vt 0.652545 0.617210
vt 0.338469 0.614019
vt 0.357906 0.595002
vt 0.633528 0.597775
vt 0.341664 0.299942
vt 0.360680 0.319377
vt 0.655735 0.303140
vt 0.636296 0.322157
vt 0.971781 0.936442
vt 0.657696 0.935417
vt 0.677002 0.916266
vt 0.952632 0.917138
vt 0.658713 0.621333
vt 0.677864 0.640635
vt 0.972803 0.622351
vt 0.953498 0.641501
vt 0.341050 0.619022
vt 0.655138 0.618697
vt 0.635914 0.637930
vt 0.360282 0.638242
vt 0.655470 0.932783
vt 0.636237 0.913563
vt 0.341378 0.933114
vt 0.360602 0.913880
vt 0.023342 0.298504
vt 0.337420 0.300908
vt 0.318030 0.319973
vt 0.042406 0.317891
vt 0.335023 0.614985
vt 0.315958 0.595598
vt 0.020940 0.612587
vt 0.040330 0.593522
vt 0.020504 0.617749
vt 0.334597 0.617673
vt 0.315357 0.636892
vt 0.039722 0.636983
vt 0.334667 0.931766
vt 0.315450 0.912530
vt 0.020580 0.931834
vt 0.039819 0.912616
vn 0.000000 0.000000 1.000000
vn 0.000000 0.000000 1.000000
vn 0.000000 0.000000 1.000000
vn 0.000000 0.000000 1.000000
vn 0.000000 0.000000 1.000000
vn 0.000000 0.000000 1.000000
vn 0.000000 1.000000 0.000000
vn 0.000000 1.000000 0.000000
vn 0.000000 1.000000 0.000000
vn 0.000000 1.000000 0.000000
vn 0.000000 1.000000 0.000000
vn 0.000000 1.000000 0.000000
vn 0.000000 0.000000 -1.000000
vn 0.000000 0.000000 -1.000000
vn 0.000000 0.000000 -1.000000
vn 0.000000 0.000000 -1.000000
vn 0.000000 0.000000 -1.000000
vn 0.000000 0.000000 -1.000000
vn 0.000000 -1.000000 0.000000
vn 0.000000 -1.000000 0.000000
vn 0.000000 -1.000000 0.000000
vn 0.000000 -1.000000 0.000000
vn 0.000000 -1.000000 0.000000
vn 0.000000 -1.000000 0.000000
vn 1.000000 0.000000 0.000000
vn 1.000000 0.000000 0.000000
vn 1.000000 0.000000 0.000000
vn 1.000000 0.000000 0.000000
vn 1.000000 0.000000 0.000000
vn 1.000000 0.000000 0.000000
vn -1.000000 0.000000 0.000000
vn -1.000000 0.000000 0.000000
vn -1.000000 0.000000 0.000000
vn -1.000000 0.000000 0.000000
vn -1.000000 0.000000 0.000000
vn -1.000000 0.000000 0.000000
vn 0.000000 0.000000 1.000000
vn 0.000000 0.000000 1.000000
vn 0.000000 0.000000 1.000000
vn 0.000000 0.000000 1.000000
vn 0.000000 0.000000 1.000000
vn 0.000000 0.000000 1.000000
vn 0.000001 0.000000 1.000000
vn 0.000000 0.000000 1.000000
vn 0.000001 0.000000 1.000000
vn 0.000001 0.000000 1.000000
vn 0.000000 0.000000 1.000000
vn 0.000000 0.000000 1.000000
vn 0.000000 0.000000 1.000000
vn 0.000000 0.000000 1.000000
vn 0.000000 0.000000 1.000000
vn 0.000000 0.000000 1.000000
vn 0.000000 0.000000 1.000000
vn 0.000000 0.000000 1.000000
vn -0.000001 0.000000 1.000000
vn 0.000000 0.000000 1.000000
vn -0.000001 0.000000 1.000000
vn -0.000001 0.000000 1.000000
vn 0.000000 0.000000 1.000000
vn 0.000000 0.000000 1.000000
vn 0.000000 1.000000 0.000000
vn 0.000000 1.000000 0.000000
vn 0.000000 1.000000 0.000000
vn 0.000000 1.000000 0.000000
vn 0.000000 1.000000 0.000000
vn 0.000000 1.000000 0.000000
vn 0.000000 1.000000 0.000000
vn 0.000000 1.000000 0.000000
vn 0.000000 1.000000 0.000000
vn 0.000000 1.000000 0.000000
vn 0.000000 1.000000 0.000000
vn 0.000000 1.000000 0.000000
vn 0.000000 1.000000 0.000000
vn 0.000000 1.000000 0.000000
vn 0.000000 1.000000 0.000000
vn 0.000000 1.000000 0.000000
vn 0.000000 1.000000 0.000000
vn 0.000000 1.000000 0.000000
vn 0.000000 1.000000 0.000000
vn 0.000000 1.000000 0.000000
vn 0.000000 1.000000 0.000000
vn 0.000000 1.000000 0.000000
vn 0.000000 1.000000 0.000000
vn 0.000000 1.000000 0.000000
vn -0.000000 0.000000 -1.000000
vn 0.000000 0.000000 -1.000000
vn 0.000000 0.000000 -1.000000
vn 0.000000 0.000000 -1.000000
vn 0.000000 0.000000 -1.000000
vn 0.000000 0.000000 -1.000000
vn 0.000000 0.000000 -1.000000
vn 0.000000 0.000000 -1.000000
vn 0.000000 0.000000 -1.000000
vn 0.000000 0.000000 -1.000000
vn 0.000000 0.000000 -1.000000
vn 0.000000 0.000000 -1.000000
vn 0.000000 0.000000 -1.000000
vn -0.000000 0.000000 -1.000000
vn 0.000000 0.000000 -1.000000
vn 0.000000 0.000000 -1.000000
vn -0.000000 0.000000 -1.000000
vn -0.000000 0.000000 -1.000000
vn -0.000000 0.000000 -1.000000
vn -0.000000 0.000000 -1.000000
vn -0.000000 0.000000 -1.000000
vn -0.000000 0.000000 -1.000000
vn -0.000000 0.000000 -1.000000
vn 0.000000 0.000000 -1.000000
vn 0.000000 -1.000000 -0.000003
vn 0.000000 -1.000000 0.000005
vn 0.000000 -1.000000 -0.000003
vn 0.000000 -1.000000 -0.000003
vn 0.000000 -1.000000 0.000005
vn 0.000000 -1.000000 0.000006
vn 0.000000 -1.000000 0.000005
vn 0.000000 -1.000000 0.000003
vn 0.000000 -1.000000 0.000006
vn 0.000000 -1.000000 0.000006
vn 0.000000 -1.000000 0.000003
vn 0.000000 -1.000000 0.000003
vn 0.000000 -1.000000 0.000003
vn 0.000000 -1.000000 -0.000005
vn 0.000000 -1.000000 0.000003
vn 0.000000 -1.000000 0.000003
vn 0.000000 -1.000000 -0.000005
vn 0.000000 -1.000000 -0.000006
vn 0.000000 -1.000000 -0.000005
vn 0.000000 -1.000000 -0.000003
vn 0.000000 -1.000000 -0.000006
vn 0.000000 -1.000000 -0.000006
vn 0.000000 -1.000000 -0.000003
vn 0.000000 -1.000000 -0.000003
vn 1.000000 -0.000000 0.000000
vn 1.000000 0.000001 0.000000
vn 1.000000 -0.000000 0.000000
vn 1.000000 -0.000000 0.000000
vn 1.000000 0.000001 0.000000
vn 1.000000 0.000001 0.000000
vn 1.000000 0.000001 0.000000
vn 1.000000 0.000000 0.000000
vn 1.000000 0.000001 0.000000
vn 1.000000 0.000001 0.000000
vn 1.000000 0.000000 0.000000
vn 1.000000 0.000000 0.000000
vn 1.000000 0.000000 0.000000
vn 1.000000 -0.000001 0.000000
vn 1.000000 0.000000 0.000000
vn 1.000000 0.000000 0.000000
vn 1.000000 -0.000001 0.000000
vn 1.000000 -0.000001 0.000000
vn 1.000000 -0.000001 0.000000
vn 1.000000 -0.000000 0.000000
vn 1.000000 -0.000001 0.000000
vn 1.000000 -0.000001 0.000000
vn 1.000000 -0.000000 0.000000
vn 1.000000 -0.000000 0.000000
vn -1.000000 0.000000 0.000000
vn -1.000000 0.000001 0.000000
vn -1.000000 0.000000 0.000000
vn -1.000000 0.000000 0.000000
vn -1.000000 0.000001 0.000000
vn -1.000000 0.000001 0.000000
vn -1.000000 0.000001 0.000000
vn -1.000000 0.000000 0.000000
vn -1.000000 0.000001 0.000000
vn -1.000000 0.000001 0.000000
vn -1.000000 0.000000 0.000000
vn -1.000000 0.000000 0.000000
vn -1.000000 0.000000 0.000000
vn -1.000000 -0.000001 0.000000
vn -1.000000 0.000000 0.000000
vn -1.000000 0.000000 0.000000
vn -1.000000 -0.000001 0.000000
vn -1.000000 -0.000001 0.000000
vn -1.000000 -0.000001 0.000000
vn -1.000000 0.000000 0.000000
vn -1.000000 -0.000001 0.000000
vn -1.000000 -0.000001 0.000000
vn -1.000000 0.000000 0.000000
vn -1.000000 0.000000 0.000000
vn 0.000000 0.752226 0.658905
vn 0.000000 0.752222 0.658910
vn 0.000000 0.752226 0.658905
vn 0.000000 0.752226 0.658905
vn 0.000000 0.752222 0.658910
vn 0.000000 0.752221 0.658910
vn -0.752224 0.000000 0.658908
vn -0.752224 0.000000 0.658908
vn -0.752224 0.000000 0.658908
vn -0.752224 0.000000 0.658908
vn -0.752224 0.000000 0.658908
vn -0.752224 0.000000 0.658908
vn 0.000000 -0.752223 0.658909
vn 0.000000 -0.752221 0.658910
vn 0.000000 -0.752223 0.658909
vn 0.000000 -0.752223 0.658909
vn 0.000000 -0.752221 0.658910
vn 0.000000 -0.752221 0.658910
vn 0.752224 0.000000 0.658908
vn 0.752224 0.000000 0.658908
vn 0.752224 0.000000 0.658908
vn 0.752224 0.000000 0.658908
vn 0.752224 0.000000 0.658908
vn 0.752224 0.000000 0.658908
vn 0.000000 0.658906 -0.752225
vn 0.000000 0.658902 -0.752229
vn 0.000000 0.658906 -0.752225
vn 0.000000 0.658906 -0.752225
vn 0.000000 0.658902 -0.752229
vn 0.000000 0.658902 -0.752229
vn -0.752230 0.658901 0.000000
vn -0.752229 0.658902 0.000000
vn -0.752230 0.658901 0.000000
vn -0.752230 0.658901 0.000000
vn -0.752229 0.658902 0.000000
vn -0.752229 0.658902 0.000000
vn 0.000000 0.658906 0.752225
vn 0.000000 0.658902 0.752229
vn 0.000000 0.658906 0.752225
vn 0.000000 0.658906 0.752225
vn 0.000000 0.658902 0.752229
vn 0.000000 0.658902 0.752229
vn 0.752230 0.658901 0.000000
vn 0.752229 0.658902 0.000000
vn 0.752230 0.658901 0.000000
vn 0.752230 0.658901 0.000000
vn 0.752229 0.658902 0.000000
vn 0.752229 0.658902 0.000000
vn 0.000000 -0.752223 -0.658909
vn 0.000000 -0.752221 -0.658910
vn 0.000000 -0.752223 -0.658909
vn 0.000000 -0.752223 -0.658909
vn 0.000000 -0.752221 -0.658910
vn 0.000000 -0.752221 -0.658910
vn -0.752224 0.000000 -0.658907
vn -0.752223 0.000000 -0.658909
vn -0.752224 0.000000 -0.658907
vn -0.752224 0.000000 -0.658907
vn -0.752223 0.000000 -0.658909
vn -0.752223 0.000000 -0.658909
vn 0.000000 0.752226 -0.658905
vn 0.000000 0.752222 -0.658910
vn 0.000000 0.752226 -0.658905
vn 0.000000 0.752226 -0.658905
vn 0.000000 0.752222 -0.658910
vn 0.000000 0.752221 -0.658910
vn 0.752224 0.000000 -0.658907
vn 0.752223 0.000000 -0.658909
vn 0.752224 0.000000 -0.658907
vn 0.752224 0.000000 -0.658907
vn 0.752223 0.000000 -0.658909
vn 0.752223 0.000000 -0.658909
vn 0.000000 -0.658918 0.752214
vn 0.000000 -0.658912 0.752220
vn 0.000000 -0.658918 0.752215
vn 0.000000 -0.658918 0.752215
vn 0.000000 -0.658912 0.752220
vn 0.000000 -0.658911 0.752221
vn -0.752218 -0.658914 0.000000
vn -0.752218 -0.658915 0.000000
vn -0.752218 -0.658914 0.000000
vn -0.752218 -0.658914 0.000000
vn -0.752218 -0.658915 0.000000
vn -0.752218 -0.658915 0.000000
vn 0.000000 -0.658918 -0.752214
vn 0.000000 -0.658912 -0.752220
vn 0.000000 -0.658918 -0.752215
vn 0.000000 -0.658918 -0.752215
vn 0.000000 -0.658912 -0.752220
vn 0.000000 -0.658911 -0.752221
vn 0.752218 -0.658914 0.000000
vn 0.752218 -0.658915 0.000000
vn 0.752218 -0.658914 0.000000
vn 0.752218 -0.658914 0.000000
vn 0.752218 -0.658915 0.000000
vn 0.752218 -0.658915 0.000000
vn 0.658839 0.752284 0.000000
vn 0.658838 0.752285 0.000000
vn 0.658839 0.752284 0.000000
vn 0.658839 0.752284 0.000000
vn 0.658838 0.752285 0.000000
vn 0.658838 0.752285 0.000000
vn 0.658838 0.000000 0.752285
vn 0.658839 0.000000 0.752284
vn 0.658838 0.000000 0.752285
vn 0.658838 0.000000 0.752285
vn 0.658839 0.000000 0.752284
vn 0.658839 0.000000 0.752284
vn 0.658839 -0.752284 0.000000
vn 0.658838 -0.752285 0.000000
vn 0.658839 -0.752284 0.000000
vn 0.658839 -0.752284 0.000000
vn 0.658838 -0.752285 0.000000
vn 0.658838 -0.752285 0.000000
vn 0.658838 0.000000 -0.752285
vn 0.658837 0.000000 -0.752285
vn 0.658838 0.000000 -0.752285
vn 0.658838 0.000000 -0.752285
vn 0.658837 0.000000 -0.752285
vn 0.658837 0.000000 -0.752285
vn -0.658839 0.752284 0.000000
vn -0.658838 0.752285 0.000000
vn -0.658839 0.752284 0.000000
vn -0.658839 0.752284 0.000000
vn -0.658838 0.752285 0.000000
vn -0.658838 0.752285 0.000000
vn -0.658837 0.000000 -0.752285
vn -0.658838 0.000000 -0.752285
vn -0.658837 0.000000 -0.752285
vn -0.658837 0.000000 -0.752285
vn -0.658838 0.000000 -0.752285
vn -0.658838 0.000000 -0.752285
vn -0.658839 -0.752284 0.000000
vn -0.658838 -0.752285 0.000000
vn -0.658839 -0.752284 0.000000
vn -0.658839 -0.752284 0.000000
vn -0.658838 -0.752285 0.000000
vn -0.658838 -0.752285 0.000000
vn -0.658838 0.000000 0.752285
vn -0.658838 0.000000 0.752285
vn -0.658838 0.000000 0.752285
vn -0.658838 0.000000 0.752285
vn -0.658838 0.000000 0.752285
vn -0.658838 0.000000 0.752285
s off
g Crate2:Crate_4 Crate2:polySurface2 Crate2:polySurface1
usemtl lambert2SG
f 33/1/1 34/2/2 36/4/3
f 36/4/4 34/2/5 35/3/6
f 37/5/7 38/6/8 40/8/9
f 40/8/10 38/6/11 39/7/12
f 41/9/13 42/10/14 44/12/15
f 44/12/16 42/10/17 43/11/18
f 45/13/19 46/14/20 48/16/21
f 48/16/22 46/14/23 47/15/24
f 50/17/25 49/18/26 52/20/27
f 52/20/28 49/18/29 51/19/30
f 53/21/31 54/22/32 56/24/33
f 56/24/34 54/22/35 55/23/36
f 1/25/37 2/26/38 9/28/39
f 9/28/40 2/26/41 10/27/42
f 2/26/43 4/29/44 10/27/45
f 10/27/46 4/29/47 11/30/48
f 4/29/49 3/31/50 11/30/51
f 11/30/52 3/31/53 12/32/54
f 3/31/55 1/25/56 12/32/57
f 12/32/58 1/25/59 9/28/60
f 3/33/61 4/34/62 13/36/63
f 13/36/64 4/34/65 14/35/66
f 4/34/67 6/37/68 14/35/69
f 14/35/70 6/37/71 15/38/72
f 6/37/73 5/39/74 15/38/75
f 15/38/76 5/39/77 16/40/78
f 5/39/79 3/33/80 16/40/81
f 16/40/82 3/33/83 13/36/84
f 5/41/85 6/42/86 17/44/87
f 17/44/88 6/42/89 18/43/90
f 6/42/91 8/45/92 18/43/93
f 18/43/94 8/45/95 19/46/96
f 8/45/97 7/47/98 19/46/99
f 19/46/100 7/47/101 20/48/102
f 7/47/103 5/41/104 20/48/105
f 20/48/106 5/41/107 17/44/108
f 7/49/109 8/50/110 21/52/111
f 21/52/112 8/50/113 22/51/114
f 8/50/115 2/53/116 22/51/117
f 22/51/118 2/53/119 23/54/120
f 2/53/121 1/55/122 23/54/123
f 23/54/124 1/55/125 24/56/126
f 1/55/127 7/49/128 24/56/129
f 24/56/130 7/49/131 21/52/132
f 2/57/133 8/58/134 26/60/135
f 26/60/136 8/58/137 25/59/138
f 8/58/139 6/61/140 25/59/141
f 25/59/142 6/61/143 27/62/144
f 6/61/145 4/63/146 27/62/147
f 27/62/148 4/63/149 28/64/150
f 4/63/151 2/57/152 28/64/153
f 28/64/154 2/57/155 26/60/156
f 7/65/157 1/66/158 29/68/159
f 29/68/160 1/66/161 30/67/162
f 1/66/163 3/69/164 30/67/165
f 30/67/166 3/69/167 31/70/168
f 3/69/169 5/71/170 31/70/171
f 31/70/172 5/71/173 32/72/174
f 5/71/175 7/65/176 32/72/177
f 32/72/178 7/65/179 29/68/180
f 9/28/181 10/27/182 33/1/183
f 33/1/184 10/27/185 34/2/186
f 10/27/187 11/30/188 34/2/189
f 34/2/190 11/30/191 35/3/192
f 11/30/193 12/32/194 35/3/195
f 35/3/196 12/32/197 36/4/198
f 12/32/199 9/28/200 36/4/201
f 36/4/202 9/28/203 33/1/204
f 13/36/205 14/35/206 37/5/207
f 37/5/208 14/35/209 38/6/210
f 14/35/211 15/38/212 38/6/213
f 38/6/214 15/38/215 39/7/216
f 15/38/217 16/40/218 39/7/219
f 39/7/220 16/40/221 40/8/222
f 16/40/223 13/36/224 40/8/225
f 40/8/226 13/36/227 37/5/228
f 17/44/229 18/43/230 41/9/231
f 41/9/232 18/43/233 42/10/234
f 18/43/235 19/46/236 42/10/237
f 42/10/238 19/46/239 43/11/240
f 19/46/241 20/48/242 43/11/243
f 43/11/244 20/48/245 44/12/246
f 20/48/247 17/44/248 44/12/249
f 44/12/250 17/44/251 41/9/252
f 21/52/253 22/51/254 45/13/255
f 45/13/256 22/51/257 46/14/258
f 22/51/259 23/54/260 46/14/261
f 46/14/262 23/54/263 47/15/264
f 23/54/265 24/56/266 47/15/267
f 47/15/268 24/56/269 48/16/270
f 24/56/271 21/52/272 48/16/273
f 48/16/274 21/52/275 45/13/276
f 26/60/277 25/59/278 50/17/279
f 50/17/280 25/59/281 49/18/282
f 25/59/283 27/62/284 49/18/285
f 49/18/286 27/62/287 51/19/288
f 27/62/289 28/64/290 51/19/291
f 51/19/292 28/64/293 52/20/294
f 28/64/295 26/60/296 52/20/297
f 52/20/298 26/60/299 50/17/300
f 29/68/301 30/67/302 53/21/303
f 53/21/304 30/67/305 54/22/306
f 30/67/307 31/70/308 54/22/309
f 54/22/310 31/70/311 55/23/312
f 31/70/313 32/72/314 55/23/315
f 55/23/316 32/72/317 56/24/318
f 32/72/319 29/68/320 56/24/321
f 56/24/322 29/68/323 53/21/324
