# This file uses meters as units for non-parametric coordinates.

mtllib DinoMeteor Piece 4.mtl
g default
v -240.000000 -80.000031 0.000000
v -160.000000 -120.000031 0.000000
v -160.000000 -80.000031 0.000000
v -80.000015 -120.000031 0.000000
v -80.000015 -80.000031 0.000000
v 0.000015 -120.000031 0.000000
v 0.000015 -80.000031 0.000000
v 80.000008 -120.000031 0.000000
v 80.000008 -80.000031 0.000000
v 160.000000 -120.000031 0.000000
v 160.000000 -80.000031 0.000000
v 240.000015 -120.000031 0.000000
v 240.000015 -80.000031 0.000000
v -240.000000 -40.000031 0.000000
v -160.000000 -40.000031 0.000000
v -80.000015 -40.000031 0.000000
v 0.000015 -40.000031 0.000000
v 80.000008 -40.000031 0.000000
v 160.000000 -40.000031 0.000000
v -240.000000 -0.000031 0.000000
v -160.000000 -0.000031 0.000000
v -80.000015 -0.000031 0.000000
v 0.000015 -0.000031 0.000000
v 80.000008 -0.000031 0.000000
v -240.000000 39.999969 0.000000
v -160.000000 39.999969 0.000000
v -80.000015 39.999969 0.000000
v 0.000015 39.999969 0.000000
v -240.000000 79.999969 0.000000
v -160.000000 79.999969 0.000000
v -240.000000 120.000000 0.000000
vt 0.000000 0.439480
vt 0.100000 0.378959
vt 0.100000 0.439480
vt 0.200000 0.378959
vt 0.200000 0.439480
vt 0.300000 0.378959
vt 0.300000 0.439480
vt 0.400000 0.378959
vt 0.400000 0.439480
vt 0.500000 0.378959
vt 0.500000 0.439480
vt 0.600000 0.378959
vt 0.600000 0.439480
vt 0.000000 0.500000
vt 0.100000 0.500000
vt 0.200000 0.500000
vt 0.300000 0.500000
vt 0.400000 0.500000
vt 0.500000 0.500000
vt 0.000000 0.560520
vt 0.100000 0.560520
vt 0.200000 0.560520
vt 0.300000 0.560520
vt 0.400000 0.560520
vt 0.000000 0.621041
vt 0.100000 0.621041
vt 0.200000 0.621041
vt 0.300000 0.621041
vt 0.000000 0.681561
vt 0.100000 0.681561
vt 0.000000 0.742082
vn 0.000000 0.000000 1.000000
vn 0.000000 0.000000 1.000000
vn 0.000000 0.000000 1.000000
vn 0.000000 0.000000 1.000000
vn 0.000000 0.000000 1.000000
vn 0.000000 0.000000 1.000000
vn 0.000000 0.000000 1.000000
vn 0.000000 0.000000 1.000000
vn 0.000000 0.000000 1.000000
vn 0.000000 0.000000 1.000000
vn 0.000000 0.000000 1.000000
vn 0.000000 0.000000 1.000000
vn 0.000000 0.000000 1.000000
vn 0.000000 0.000000 1.000000
vn 0.000000 0.000000 1.000000
vn 0.000000 0.000000 1.000000
vn 0.000000 0.000000 1.000000
vn 0.000000 0.000000 1.000000
vn 0.000000 0.000000 1.000000
vn 0.000000 0.000000 1.000000
vn 0.000000 0.000000 1.000000
vn 0.000000 0.000000 1.000000
vn 0.000000 0.000000 1.000000
vn 0.000000 0.000000 1.000000
vn 0.000000 0.000000 1.000000
vn 0.000000 0.000000 1.000000
vn 0.000000 0.000000 1.000000
vn 0.000000 0.000000 1.000000
vn 0.000000 0.000000 1.000000
vn 0.000000 0.000000 1.000000
vn 0.000000 0.000000 1.000000
s 1
g DinoMeteor_Piece_4
usemtl lambert3SG
f 1/1/1 2/2/2 3/3/3
f 2/2/2 4/4/4 3/3/3
f 3/3/3 4/4/4 5/5/5
f 4/4/4 6/6/6 5/5/5
f 5/5/5 6/6/6 7/7/7
f 6/6/6 8/8/8 7/7/7
f 7/7/7 8/8/8 9/9/9
f 8/8/8 10/10/10 9/9/9
f 9/9/9 10/10/10 11/11/11
f 10/10/10 12/12/12 11/11/11
f 11/11/11 12/12/12 13/13/13
f 1/1/1 3/3/3 14/14/14
f 14/14/14 3/3/3 15/15/15
f 3/3/3 5/5/5 15/15/15
f 15/15/15 5/5/5 16/16/16
f 5/5/5 7/7/7 16/16/16
f 16/16/16 7/7/7 17/17/17
f 7/7/7 9/9/9 17/17/17
f 17/17/17 9/9/9 18/18/18
f 9/9/9 11/11/11 18/18/18
f 18/18/18 11/11/11 19/19/19
f 11/11/11 13/13/13 19/19/19
f 14/14/14 15/15/15 20/20/20
f 20/20/20 15/15/15 21/21/21
f 15/15/15 16/16/16 21/21/21
f 21/21/21 16/16/16 22/22/22
f 16/16/16 17/17/17 22/22/22
f 22/22/22 17/17/17 23/23/23
f 17/17/17 18/18/18 23/23/23
f 23/23/23 18/18/18 24/24/24
f 18/18/18 19/19/19 24/24/24
f 20/20/20 21/21/21 25/25/25
f 25/25/25 21/21/21 26/26/26
f 21/21/21 22/22/22 26/26/26
f 26/26/26 22/22/22 27/27/27
f 22/22/22 23/23/23 27/27/27
f 27/27/27 23/23/23 28/28/28
f 23/23/23 24/24/24 28/28/28
f 25/25/25 26/26/26 29/29/29
f 29/29/29 26/26/26 30/30/30
f 26/26/26 27/27/27 30/30/30
f 29/29/29 30/30/30 31/31/31
