# This file uses meters as units for non-parametric coordinates.

mtllib DinoMeteor Piece 6.mtl
g DinoMeteor_Piece_6:default1
v -119.999985 -59.999985 0.000000
v -40.000015 -99.999985 0.000000
v -40.000015 -59.999985 0.000000
v 40.000015 -99.999985 0.000000
v 40.000015 -59.999985 0.000000
v 120.000031 -99.999985 0.000000
v 120.000031 -59.999985 0.000000
v 200.000000 -99.999985 0.000000
v 200.000000 -59.999985 0.000000
v -119.999985 -19.999985 0.000000
v -40.000015 -19.999985 0.000000
v 40.000015 -19.999985 0.000000
v 120.000031 -19.999985 0.000000
v -119.999985 20.000000 0.000000
v -40.000015 20.000000 0.000000
v -119.999985 60.000000 0.000000
v -40.000015 60.000000 0.000000
v -200.000000 100.000000 0.000000
v -119.999985 100.000000 0.000000
vt 0.600000 0.257918
vt 0.700000 0.197398
vt 0.700000 0.257918
vt 0.800000 0.197398
vt 0.800000 0.257918
vt 0.900000 0.197398
vt 0.900000 0.257918
vt 1.000000 0.197398
vt 1.000000 0.257918
vt 0.600000 0.318439
vt 0.700000 0.318439
vt 0.800000 0.318439
vt 0.900000 0.318439
vt 0.600000 0.378959
vt 0.700000 0.378959
vt 0.600000 0.439480
vt 0.700000 0.439480
vt 0.500000 0.500000
vt 0.600000 0.500000
vn 0.000000 0.000000 1.000000
vn 0.000000 0.000000 1.000000
vn 0.000000 0.000000 1.000000
vn 0.000000 0.000000 1.000000
vn 0.000000 0.000000 1.000000
vn 0.000000 0.000000 1.000000
vn 0.000000 0.000000 1.000000
vn 0.000000 0.000000 1.000000
vn 0.000000 0.000000 1.000000
vn 0.000000 0.000000 1.000000
vn 0.000000 0.000000 1.000000
vn 0.000000 0.000000 1.000000
vn 0.000000 0.000000 1.000000
vn 0.000000 0.000000 1.000000
vn 0.000000 0.000000 1.000000
vn 0.000000 0.000000 1.000000
vn 0.000000 0.000000 1.000000
vn 0.000000 0.000000 1.000000
vn 0.000000 0.000000 1.000000
vn 0.000000 0.000000 1.000000
vn 0.000000 0.000000 1.000000
vn 0.000000 0.000000 1.000000
vn 0.000000 0.000000 1.000000
vn 0.000000 0.000000 1.000000
vn 0.000000 0.000000 1.000000
vn 0.000000 0.000000 1.000000
vn 0.000000 0.000000 1.000000
vn 0.000000 0.000000 1.000000
vn 0.000000 0.000000 1.000000
vn 0.000000 0.000000 1.000000
vn 0.000000 0.000000 1.000000
vn 0.000000 0.000000 1.000000
vn 0.000000 0.000000 1.000000
vn 0.000000 0.000000 1.000000
vn 0.000000 0.000000 1.000000
vn 0.000000 0.000000 1.000000
vn 0.000000 0.000000 1.000000
vn 0.000000 0.000000 1.000000
vn 0.000000 0.000000 1.000000
vn 0.000000 0.000000 1.000000
vn 0.000000 0.000000 1.000000
vn 0.000000 0.000000 1.000000
vn 0.000000 0.000000 1.000000
vn 0.000000 0.000000 1.000000
vn 0.000000 0.000000 1.000000
vn 0.000000 0.000000 1.000000
vn 0.000000 0.000000 1.000000
vn 0.000000 0.000000 1.000000
vn 0.000000 0.000000 1.000000
vn 0.000000 0.000000 1.000000
vn 0.000000 0.000000 1.000000
vn 0.000000 0.000000 1.000000
vn 0.000000 0.000000 1.000000
vn 0.000000 0.000000 1.000000
vn 0.000000 0.000000 1.000000
vn 0.000000 0.000000 1.000000
vn 0.000000 0.000000 1.000000
vn 0.000000 0.000000 1.000000
vn 0.000000 0.000000 1.000000
vn 0.000000 0.000000 1.000000
vn 0.000000 0.000000 1.000000
vn 0.000000 0.000000 1.000000
vn 0.000000 0.000000 1.000000
s off
g DinoMeteor_Piece_6:DinoMeteor_Piece DinoMeteor_Piece_6:DinoMeteor_Piece_6 DinoMeteor_Piece_7
usemtl Frame1
f 1/1/1 2/2/2 3/3/3
f 2/2/4 4/4/5 3/3/6
f 3/3/7 4/4/8 5/5/9
f 4/4/10 6/6/11 5/5/12
f 5/5/13 6/6/14 7/7/15
f 6/6/16 8/8/17 7/7/18
f 7/7/19 8/8/20 9/9/21
f 1/1/22 3/3/23 10/10/24
f 10/10/25 3/3/26 11/11/27
f 3/3/28 5/5/29 11/11/30
f 11/11/31 5/5/32 12/12/33
f 5/5/34 7/7/35 12/12/36
f 12/12/37 7/7/38 13/13/39
f 7/7/40 9/9/41 13/13/42
f 10/10/43 11/11/44 14/14/45
f 14/14/46 11/11/47 15/15/48
f 11/11/49 12/12/50 15/15/51
f 14/14/52 15/15/53 16/16/54
f 16/16/55 15/15/56 17/17/57
f 18/18/58 16/16/59 19/19/60
f 16/16/61 17/17/62 19/19/63
