# This file uses meters as units for non-parametric coordinates.

mtllib DinoMeteor Piece 5.mtl
g DinoMeteor_Piece_5:default1
v -120.000000 -20.000031 0.000000
v -40.000015 -60.000031 0.000000
v -40.000015 -20.000031 0.000000
v 40.000015 -60.000031 0.000000
v 40.000015 -20.000031 0.000000
v 120.000008 -60.000031 0.000000
v 120.000008 -20.000031 0.000000
v 200.000000 -60.000031 0.000000
v 200.000000 -20.000031 0.000000
v -200.000000 20.000000 0.000000
v -120.000000 20.000000 0.000000
v -40.000015 20.000000 0.000000
v 40.000015 20.000000 0.000000
v 120.000008 20.000000 0.000000
v 200.000000 20.000000 0.000000
v -200.000000 60.000000 0.000000
v -120.000000 60.000000 0.000000
v -40.000015 60.000000 0.000000
v 40.000015 60.000000 0.000000
v 120.000008 60.000000 0.000000
v 200.000000 60.000000 0.000000
vt 0.100000 0.681561
vt 0.200000 0.621041
vt 0.200000 0.681561
vt 0.300000 0.621041
vt 0.300000 0.681561
vt 0.400000 0.621041
vt 0.400000 0.681561
vt 0.500000 0.621041
vt 0.500000 0.681561
vt 0.000000 0.742082
vt 0.100000 0.742082
vt 0.200000 0.742082
vt 0.300000 0.742082
vt 0.400000 0.742082
vt 0.500000 0.742082
vt 0.000000 0.802602
vt 0.100000 0.802602
vt 0.200000 0.802602
vt 0.300000 0.802602
vt 0.400000 0.802602
vt 0.500000 0.802602
vn 0.000000 0.000000 1.000000
vn 0.000000 0.000000 1.000000
vn 0.000000 0.000000 1.000000
vn 0.000000 0.000000 1.000000
vn 0.000000 0.000000 1.000000
vn 0.000000 0.000000 1.000000
vn 0.000000 0.000000 1.000000
vn 0.000000 0.000000 1.000000
vn 0.000000 0.000000 1.000000
vn 0.000000 0.000000 1.000000
vn 0.000000 0.000000 1.000000
vn 0.000000 0.000000 1.000000
vn 0.000000 0.000000 1.000000
vn 0.000000 0.000000 1.000000
vn 0.000000 0.000000 1.000000
vn 0.000000 0.000000 1.000000
vn 0.000000 0.000000 1.000000
vn 0.000000 0.000000 1.000000
vn 0.000000 0.000000 1.000000
vn 0.000000 0.000000 1.000000
vn 0.000000 0.000000 1.000000
vn 0.000000 0.000000 1.000000
vn 0.000000 0.000000 1.000000
vn 0.000000 0.000000 1.000000
vn 0.000000 0.000000 1.000000
vn 0.000000 0.000000 1.000000
vn 0.000000 0.000000 1.000000
vn 0.000000 0.000000 1.000000
vn 0.000000 0.000000 1.000000
vn 0.000000 0.000000 1.000000
vn 0.000000 0.000000 1.000000
vn 0.000000 0.000000 1.000000
vn 0.000000 0.000000 1.000000
vn 0.000000 0.000000 1.000000
vn 0.000000 0.000000 1.000000
vn 0.000000 0.000000 1.000000
vn 0.000000 0.000000 1.000000
vn 0.000000 0.000000 1.000000
vn 0.000000 0.000000 1.000000
vn 0.000000 0.000000 1.000000
vn 0.000000 0.000000 1.000000
vn 0.000000 0.000000 1.000000
vn 0.000000 0.000000 1.000000
vn 0.000000 0.000000 1.000000
vn 0.000000 0.000000 1.000000
vn 0.000000 0.000000 1.000000
vn 0.000000 0.000000 1.000000
vn 0.000000 0.000000 1.000000
vn 0.000000 0.000000 1.000000
vn 0.000000 0.000000 1.000000
vn 0.000000 0.000000 1.000000
vn 0.000000 0.000000 1.000000
vn 0.000000 0.000000 1.000000
vn 0.000000 0.000000 1.000000
vn 0.000000 0.000000 1.000000
vn 0.000000 0.000000 1.000000
vn 0.000000 0.000000 1.000000
vn 0.000000 0.000000 1.000000
vn 0.000000 0.000000 1.000000
vn 0.000000 0.000000 1.000000
vn 0.000000 0.000000 1.000000
vn 0.000000 0.000000 1.000000
vn 0.000000 0.000000 1.000000
vn 0.000000 0.000000 1.000000
vn 0.000000 0.000000 1.000000
vn 0.000000 0.000000 1.000000
vn 0.000000 0.000000 1.000000
vn 0.000000 0.000000 1.000000
vn 0.000000 0.000000 1.000000
vn 0.000000 0.000000 1.000000
vn 0.000000 0.000000 1.000000
vn 0.000000 0.000000 1.000000
vn 0.000000 0.000000 1.000000
vn 0.000000 0.000000 1.000000
vn 0.000000 0.000000 1.000000
vn 0.000000 0.000000 1.000000
vn 0.000000 0.000000 1.000000
vn 0.000000 0.000000 1.000000
s off
g DinoMeteor_Piece_5:DinoMeteor_Piece DinoMeteor_Piece_5:DinoMeteor_Piece_5 DinoMeteor_Piece_6
usemtl Frame1
f 1/1/1 2/2/2 3/3/3
f 2/2/4 4/4/5 3/3/6
f 3/3/7 4/4/8 5/5/9
f 4/4/10 6/6/11 5/5/12
f 5/5/13 6/6/14 7/7/15
f 6/6/16 8/8/17 7/7/18
f 7/7/19 8/8/20 9/9/21
f 10/10/22 1/1/23 11/11/24
f 1/1/25 3/3/26 11/11/27
f 11/11/28 3/3/29 12/12/30
f 3/3/31 5/5/32 12/12/33
f 12/12/34 5/5/35 13/13/36
f 5/5/37 7/7/38 13/13/39
f 13/13/40 7/7/41 14/14/42
f 7/7/43 9/9/44 14/14/45
f 14/14/46 9/9/47 15/15/48
f 10/10/49 11/11/50 16/16/51
f 16/16/52 11/11/53 17/17/54
f 11/11/55 12/12/56 17/17/57
f 17/17/58 12/12/59 18/18/60
f 12/12/61 13/13/62 18/18/63
f 18/18/64 13/13/65 19/19/66
f 13/13/67 14/14/68 19/19/69
f 19/19/70 14/14/71 20/20/72
f 14/14/73 15/15/74 20/20/75
f 20/20/76 15/15/77 21/21/78
