# This file uses meters as units for non-parametric coordinates.

mtllib DinoMeteor Piece 2.mtl
g DinoMeteor_Piece_2:default1
v 40.000031 -140.000015 0.000000
v 120.000000 -180.000015 0.000000
v 120.000000 -140.000015 0.000000
v -120.000015 -100.000031 0.000000
v -39.999985 -140.000015 0.000000
v -39.999985 -100.000031 0.000000
v 40.000031 -100.000031 0.000000
v 120.000000 -100.000031 0.000000
v -120.000015 -60.000031 0.000000
v -39.999985 -60.000031 0.000000
v 40.000031 -60.000031 0.000000
v 120.000000 -60.000031 0.000000
v -120.000015 -20.000031 0.000000
v -39.999985 -20.000031 0.000000
v 40.000031 -20.000031 0.000000
v 120.000000 -20.000031 0.000000
v -39.999985 19.999969 0.000000
v 40.000031 19.999969 0.000000
v 120.000000 19.999969 0.000000
v 40.000031 59.999969 0.000000
v 120.000000 59.999969 0.000000
v 40.000031 99.999969 0.000000
v 120.000000 99.999969 0.000000
v -39.999985 140.000000 0.000000
v 40.000031 140.000000 0.000000
v 120.000000 140.000000 0.000000
v -39.999985 180.000000 0.000000
v 40.000031 180.000000 0.000000
v 120.000000 180.000000 0.000000
vt 0.900000 0.318439
vt 1.000000 0.257918
vt 1.000000 0.318439
vt 0.700000 0.378959
vt 0.800000 0.318439
vt 0.800000 0.378959
vt 0.900000 0.378959
vt 1.000000 0.378959
vt 0.700000 0.439480
vt 0.800000 0.439480
vt 0.900000 0.439480
vt 1.000000 0.439480
vt 0.700000 0.500000
vt 0.800000 0.500000
vt 0.900000 0.500000
vt 1.000000 0.500000
vt 0.800000 0.560520
vt 0.900000 0.560520
vt 1.000000 0.560520
vt 0.900000 0.621041
vt 1.000000 0.621041
vt 0.900000 0.681561
vt 1.000000 0.681561
vt 0.800000 0.742082
vt 0.900000 0.742082
vt 1.000000 0.742082
vt 0.800000 0.802602
vt 0.900000 0.802602
vt 1.000000 0.802602
vn 0.000000 0.000000 1.000000
vn 0.000000 0.000000 1.000000
vn 0.000000 0.000000 1.000000
vn 0.000000 0.000000 1.000000
vn 0.000000 0.000000 1.000000
vn 0.000000 0.000000 1.000000
vn 0.000000 0.000000 1.000000
vn 0.000000 0.000000 1.000000
vn 0.000000 0.000000 1.000000
vn 0.000000 0.000000 1.000000
vn 0.000000 0.000000 1.000000
vn 0.000000 0.000000 1.000000
vn 0.000000 0.000000 1.000000
vn 0.000000 0.000000 1.000000
vn 0.000000 0.000000 1.000000
vn 0.000000 0.000000 1.000000
vn 0.000000 0.000000 1.000000
vn 0.000000 0.000000 1.000000
vn 0.000000 0.000000 1.000000
vn 0.000000 0.000000 1.000000
vn 0.000000 0.000000 1.000000
vn 0.000000 0.000000 1.000000
vn 0.000000 0.000000 1.000000
vn 0.000000 0.000000 1.000000
vn 0.000000 0.000000 1.000000
vn 0.000000 0.000000 1.000000
vn 0.000000 0.000000 1.000000
vn 0.000000 0.000000 1.000000
vn 0.000000 0.000000 1.000000
vn 0.000000 0.000000 1.000000
vn 0.000000 0.000000 1.000000
vn 0.000000 0.000000 1.000000
vn 0.000000 0.000000 1.000000
vn 0.000000 0.000000 1.000000
vn 0.000000 0.000000 1.000000
vn 0.000000 0.000000 1.000000
vn 0.000000 0.000000 1.000000
vn 0.000000 0.000000 1.000000
vn 0.000000 0.000000 1.000000
vn 0.000000 0.000000 1.000000
vn 0.000000 0.000000 1.000000
vn 0.000000 0.000000 1.000000
vn 0.000000 0.000000 1.000000
vn 0.000000 0.000000 1.000000
vn 0.000000 0.000000 1.000000
vn 0.000000 0.000000 1.000000
vn 0.000000 0.000000 1.000000
vn 0.000000 0.000000 1.000000
vn 0.000000 0.000000 1.000000
vn 0.000000 0.000000 1.000000
vn 0.000000 0.000000 1.000000
vn 0.000000 0.000000 1.000000
vn 0.000000 0.000000 1.000000
vn 0.000000 0.000000 1.000000
vn 0.000000 0.000000 1.000000
vn 0.000000 0.000000 1.000000
vn 0.000000 0.000000 1.000000
vn 0.000000 0.000000 1.000000
vn 0.000000 0.000000 1.000000
vn 0.000000 0.000000 1.000000
vn 0.000000 0.000000 1.000000
vn 0.000000 0.000000 1.000000
vn 0.000000 0.000000 1.000000
vn 0.000000 0.000000 1.000000
vn 0.000000 0.000000 1.000000
vn 0.000000 0.000000 1.000000
vn 0.000000 0.000000 1.000000
vn 0.000000 0.000000 1.000000
vn 0.000000 0.000000 1.000000
vn 0.000000 0.000000 1.000000
vn 0.000000 0.000000 1.000000
vn 0.000000 0.000000 1.000000
vn 0.000000 0.000000 1.000000
vn 0.000000 0.000000 1.000000
vn 0.000000 0.000000 1.000000
vn 0.000000 0.000000 1.000000
vn 0.000000 0.000000 1.000000
vn 0.000000 0.000000 1.000000
vn 0.000000 0.000000 1.000000
vn 0.000000 0.000000 1.000000
vn 0.000000 0.000000 1.000000
vn 0.000000 0.000000 1.000000
vn 0.000000 0.000000 1.000000
vn 0.000000 0.000000 1.000000
vn 0.000000 0.000000 1.000000
vn 0.000000 0.000000 1.000000
vn 0.000000 0.000000 1.000000
vn 0.000000 0.000000 1.000000
vn 0.000000 0.000000 1.000000
vn 0.000000 0.000000 1.000000
vn 0.000000 0.000000 1.000000
vn 0.000000 0.000000 1.000000
vn 0.000000 0.000000 1.000000
vn 0.000000 0.000000 1.000000
vn 0.000000 0.000000 1.000000
vn 0.000000 0.000000 1.000000
vn 0.000000 0.000000 1.000000
vn 0.000000 0.000000 1.000000
vn 0.000000 0.000000 1.000000
s off
g DinoMeteor_Piece_2:DinoMeteor_Piece DinoMeteor_Piece_2:DinoMeteor_Piece_2 DinoMeteor_Piece_3
usemtl Frame1
f 1/1/1 2/2/2 3/3/3
f 4/4/4 5/5/5 6/6/6
f 5/5/7 1/1/8 6/6/9
f 6/6/10 1/1/11 7/7/12
f 1/1/13 3/3/14 7/7/15
f 7/7/16 3/3/17 8/8/18
f 4/4/19 6/6/20 9/9/21
f 9/9/22 6/6/23 10/10/24
f 6/6/25 7/7/26 10/10/27
f 10/10/28 7/7/29 11/11/30
f 7/7/31 8/8/32 11/11/33
f 11/11/34 8/8/35 12/12/36
f 9/9/37 10/10/38 13/13/39
f 13/13/40 10/10/41 14/14/42
f 10/10/43 11/11/44 14/14/45
f 14/14/46 11/11/47 15/15/48
f 11/11/49 12/12/50 15/15/51
f 15/15/52 12/12/53 16/16/54
f 14/14/55 15/15/56 17/17/57
f 17/17/58 15/15/59 18/18/60
f 15/15/61 16/16/62 18/18/63
f 18/18/64 16/16/65 19/19/66
f 18/18/67 19/19/68 20/20/69
f 20/20/70 19/19/71 21/21/72
f 20/20/73 21/21/74 22/22/75
f 22/22/76 21/21/77 23/23/78
f 24/24/79 22/22/80 25/25/81
f 22/22/82 23/23/83 25/25/84
f 25/25/85 23/23/86 26/26/87
f 24/24/88 25/25/89 27/27/90
f 27/27/91 25/25/92 28/28/93
f 25/25/94 26/26/95 28/28/96
f 28/28/97 26/26/98 29/29/99
