# This file uses meters as units for non-parametric coordinates.

mtllib EvoManPiece1.mtl
g default
v 0.000015 -100.000031 0.000000
v 80.000031 -140.000031 0.000000
v 80.000031 -100.000031 0.000000
v 160.000000 -140.000031 0.000000
v 160.000000 -100.000031 0.000000
v -80.000015 -60.000031 0.000000
v 0.000015 -60.000031 0.000000
v 80.000031 -60.000031 0.000000
v 160.000000 -60.000031 0.000000
v -159.999985 -20.000031 0.000000
v -80.000015 -20.000031 0.000000
v 0.000015 -20.000031 0.000000
v 80.000031 -20.000031 0.000000
v 160.000000 -20.000031 0.000000
v -80.000015 19.999969 0.000000
v 0.000015 19.999969 0.000000
v 80.000031 19.999969 0.000000
v 160.000000 19.999969 0.000000
v -80.000015 59.999969 0.000000
v 0.000015 59.999969 0.000000
v 80.000031 59.999969 0.000000
v 160.000000 59.999969 0.000000
v -80.000015 100.000000 0.000000
v 0.000015 100.000000 0.000000
v 80.000031 100.000000 0.000000
v 160.000000 100.000000 0.000000
v -80.000015 140.000000 0.000000
v 0.000015 140.000000 0.000000
v 80.000031 140.000000 0.000000
v 160.000000 140.000000 0.000000
vt 0.800000 0.439480
vt 0.900000 0.378959
vt 0.900000 0.439480
vt 1.000000 0.378959
vt 1.000000 0.439480
vt 0.700000 0.500000
vt 0.800000 0.500000
vt 0.900000 0.500000
vt 1.000000 0.500000
vt 0.600000 0.560520
vt 0.700000 0.560520
vt 0.800000 0.560520
vt 0.900000 0.560520
vt 1.000000 0.560520
vt 0.700000 0.621041
vt 0.800000 0.621041
vt 0.900000 0.621041
vt 1.000000 0.621041
vt 0.700000 0.681561
vt 0.800000 0.681561
vt 0.900000 0.681561
vt 1.000000 0.681561
vt 0.700000 0.742082
vt 0.800000 0.742082
vt 0.900000 0.742082
vt 1.000000 0.742082
vt 0.700000 0.802602
vt 0.800000 0.802602
vt 0.900000 0.802602
vt 1.000000 0.802602
vn 0.000000 0.000000 1.000000
vn 0.000000 0.000000 1.000000
vn 0.000000 0.000000 1.000000
vn 0.000000 0.000000 1.000000
vn 0.000000 0.000000 1.000000
vn 0.000000 0.000000 1.000000
vn 0.000000 0.000000 1.000000
vn 0.000000 0.000000 1.000000
vn 0.000000 0.000000 1.000000
vn 0.000000 0.000000 1.000000
vn 0.000000 0.000000 1.000000
vn 0.000000 0.000000 1.000000
vn 0.000000 0.000000 1.000000
vn 0.000000 0.000000 1.000000
vn 0.000000 0.000000 1.000000
vn 0.000000 0.000000 1.000000
vn 0.000000 0.000000 1.000000
vn 0.000000 0.000000 1.000000
vn 0.000000 0.000000 1.000000
vn 0.000000 0.000000 1.000000
vn 0.000000 0.000000 1.000000
vn 0.000000 0.000000 1.000000
vn 0.000000 0.000000 1.000000
vn 0.000000 0.000000 1.000000
vn 0.000000 0.000000 1.000000
vn 0.000000 0.000000 1.000000
vn 0.000000 0.000000 1.000000
vn 0.000000 0.000000 1.000000
vn 0.000000 0.000000 1.000000
vn 0.000000 0.000000 1.000000
vn 0.000000 0.000000 1.000000
vn 0.000000 0.000000 1.000000
vn 0.000000 0.000000 1.000000
vn 0.000000 0.000000 1.000000
vn 0.000000 0.000000 1.000000
vn 0.000000 0.000000 1.000000
vn 0.000000 0.000000 1.000000
vn 0.000000 0.000000 1.000000
vn 0.000000 0.000000 1.000000
vn 0.000000 0.000000 1.000000
vn 0.000000 0.000000 1.000000
vn 0.000000 0.000000 1.000000
vn 0.000000 0.000000 1.000000
vn 0.000000 0.000000 1.000000
vn 0.000000 0.000000 1.000000
vn 0.000000 0.000000 1.000000
vn 0.000000 0.000000 1.000000
vn 0.000000 0.000000 1.000000
vn 0.000000 0.000000 1.000000
vn 0.000000 0.000000 1.000000
vn 0.000000 0.000000 1.000000
vn 0.000000 0.000000 1.000000
vn 0.000000 0.000000 1.000000
vn 0.000000 0.000000 1.000000
vn 0.000000 0.000000 1.000000
vn 0.000000 0.000000 1.000000
vn 0.000000 0.000000 1.000000
vn 0.000000 0.000000 1.000000
vn 0.000000 0.000000 1.000000
vn 0.000000 0.000000 1.000000
vn 0.000000 0.000000 1.000000
vn 0.000000 0.000000 1.000000
vn 0.000000 0.000000 1.000000
vn 0.000000 0.000000 1.000000
vn 0.000000 0.000000 1.000000
vn 0.000000 0.000000 1.000000
vn 0.000000 0.000000 1.000000
vn 0.000000 0.000000 1.000000
vn 0.000000 0.000000 1.000000
vn 0.000000 0.000000 1.000000
vn 0.000000 0.000000 1.000000
vn 0.000000 0.000000 1.000000
vn 0.000000 0.000000 1.000000
vn 0.000000 0.000000 1.000000
vn 0.000000 0.000000 1.000000
vn 0.000000 0.000000 1.000000
vn 0.000000 0.000000 1.000000
vn 0.000000 0.000000 1.000000
vn 0.000000 0.000000 1.000000
vn 0.000000 0.000000 1.000000
vn 0.000000 0.000000 1.000000
vn 0.000000 0.000000 1.000000
vn 0.000000 0.000000 1.000000
vn 0.000000 0.000000 1.000000
vn 0.000000 0.000000 1.000000
vn 0.000000 0.000000 1.000000
vn 0.000000 0.000000 1.000000
vn 0.000000 0.000000 1.000000
vn 0.000000 0.000000 1.000000
vn 0.000000 0.000000 1.000000
vn 0.000000 0.000000 1.000000
vn 0.000000 0.000000 1.000000
vn 0.000000 0.000000 1.000000
vn 0.000000 0.000000 1.000000
vn 0.000000 0.000000 1.000000
vn 0.000000 0.000000 1.000000
vn 0.000000 0.000000 1.000000
vn 0.000000 0.000000 1.000000
vn 0.000000 0.000000 1.000000
vn 0.000000 0.000000 1.000000
vn 0.000000 0.000000 1.000000
vn 0.000000 0.000000 1.000000
vn 0.000000 0.000000 1.000000
vn 0.000000 0.000000 1.000000
vn 0.000000 0.000000 1.000000
vn 0.000000 0.000000 1.000000
vn 0.000000 0.000000 1.000000
vn 0.000000 0.000000 1.000000
vn 0.000000 0.000000 1.000000
vn 0.000000 0.000000 1.000000
vn 0.000000 0.000000 1.000000
vn 0.000000 0.000000 1.000000
vn 0.000000 0.000000 1.000000
vn 0.000000 0.000000 1.000000
vn 0.000000 0.000000 1.000000
vn 0.000000 0.000000 1.000000
vn 0.000000 0.000000 1.000000
s off
g EvoManPiece1:polySurface1 group
usemtl initialShadingGroup
f 1/1/1 2/2/2 3/3/3
f 2/2/4 4/4/5 3/3/6
f 3/3/7 4/4/8 5/5/9
f 6/6/10 1/1/11 7/7/12
f 1/1/13 3/3/14 7/7/15
f 7/7/16 3/3/17 8/8/18
f 3/3/19 5/5/20 8/8/21
f 8/8/22 5/5/23 9/9/24
f 10/10/25 6/6/26 11/11/27
f 6/6/28 7/7/29 11/11/30
f 11/11/31 7/7/32 12/12/33
f 7/7/34 8/8/35 12/12/36
f 12/12/37 8/8/38 13/13/39
f 8/8/40 9/9/41 13/13/42
f 13/13/43 9/9/44 14/14/45
f 11/11/46 12/12/47 15/15/48
f 15/15/49 12/12/50 16/16/51
f 12/12/52 13/13/53 16/16/54
f 16/16/55 13/13/56 17/17/57
f 13/13/58 14/14/59 17/17/60
f 17/17/61 14/14/62 18/18/63
f 15/15/64 16/16/65 19/19/66
f 19/19/67 16/16/68 20/20/69
f 16/16/70 17/17/71 20/20/72
f 20/20/73 17/17/74 21/21/75
f 17/17/76 18/18/77 21/21/78
f 21/21/79 18/18/80 22/22/81
f 19/19/82 20/20/83 23/23/84
f 23/23/85 20/20/86 24/24/87
f 20/20/88 21/21/89 24/24/90
f 24/24/91 21/21/92 25/25/93
f 21/21/94 22/22/95 25/25/96
f 25/25/97 22/22/98 26/26/99
f 23/23/100 24/24/101 27/27/102
f 27/27/103 24/24/104 28/28/105
f 24/24/106 25/25/107 28/28/108
f 28/28/109 25/25/110 29/29/111
f 25/25/112 26/26/113 29/29/114
f 29/29/115 26/26/116 30/30/117
