# This file uses meters as units for non-parametric coordinates.

mtllib EvoManPiece4.mtl
g default
v -200.000031 -59.999985 0.000000
v -119.999992 -59.999985 0.000000
v -200.000031 -19.999985 0.000000
v -119.999992 -19.999985 0.000000
v -40.000000 -59.999985 0.000000
v -40.000000 -19.999985 0.000000
v 39.999992 -59.999985 0.000000
v 39.999992 -19.999985 0.000000
v 120.000008 -59.999985 0.000000
v 120.000008 -19.999985 0.000000
v 199.999969 -59.999985 0.000000
v 199.999969 -19.999985 0.000000
v 280.000000 -59.999985 0.000000
v 280.000000 -19.999985 0.000000
v -280.000000 20.000015 0.000000
v -200.000031 20.000015 0.000000
v -119.999992 20.000015 0.000000
v -40.000000 20.000015 0.000000
v 39.999992 20.000015 0.000000
v -280.000000 60.000000 0.000000
v -200.000031 60.000000 0.000000
v -119.999992 60.000000 0.000000
v -40.000000 60.000000 0.000000
vt 0.200000 0.197398
vt 0.300000 0.197398
vt 0.200000 0.257918
vt 0.300000 0.257918
vt 0.400000 0.197398
vt 0.400000 0.257918
vt 0.500000 0.197398
vt 0.500000 0.257918
vt 0.600000 0.197398
vt 0.600000 0.257918
vt 0.700000 0.197398
vt 0.700000 0.257918
vt 0.800000 0.197398
vt 0.800000 0.257918
vt 0.100000 0.318439
vt 0.200000 0.318439
vt 0.300000 0.318439
vt 0.400000 0.318439
vt 0.500000 0.318439
vt 0.100000 0.378959
vt 0.200000 0.378959
vt 0.300000 0.378959
vt 0.400000 0.378959
vn 0.000000 0.000000 1.000000
vn 0.000000 0.000000 1.000000
vn 0.000000 0.000000 1.000000
vn 0.000000 0.000000 1.000000
vn 0.000000 0.000000 1.000000
vn 0.000000 0.000000 1.000000
vn 0.000000 0.000000 1.000000
vn 0.000000 0.000000 1.000000
vn 0.000000 0.000000 1.000000
vn 0.000000 0.000000 1.000000
vn 0.000000 0.000000 1.000000
vn 0.000000 0.000000 1.000000
vn 0.000000 0.000000 1.000000
vn 0.000000 0.000000 1.000000
vn 0.000000 0.000000 1.000000
vn 0.000000 0.000000 1.000000
vn 0.000000 0.000000 1.000000
vn 0.000000 0.000000 1.000000
vn 0.000000 0.000000 1.000000
vn 0.000000 0.000000 1.000000
vn 0.000000 0.000000 1.000000
vn 0.000000 0.000000 1.000000
vn 0.000000 0.000000 1.000000
vn 0.000000 0.000000 1.000000
vn 0.000000 0.000000 1.000000
vn 0.000000 0.000000 1.000000
vn 0.000000 0.000000 1.000000
vn 0.000000 0.000000 1.000000
vn 0.000000 0.000000 1.000000
vn 0.000000 0.000000 1.000000
vn 0.000000 0.000000 1.000000
vn 0.000000 0.000000 1.000000
vn 0.000000 0.000000 1.000000
vn 0.000000 0.000000 1.000000
vn 0.000000 0.000000 1.000000
vn 0.000000 0.000000 1.000000
vn 0.000000 0.000000 1.000000
vn 0.000000 0.000000 1.000000
vn 0.000000 0.000000 1.000000
vn 0.000000 0.000000 1.000000
vn 0.000000 0.000000 1.000000
vn 0.000000 0.000000 1.000000
vn 0.000000 0.000000 1.000000
vn 0.000000 0.000000 1.000000
vn 0.000000 0.000000 1.000000
vn 0.000000 0.000000 1.000000
vn 0.000000 0.000000 1.000000
vn 0.000000 0.000000 1.000000
vn 0.000000 0.000000 1.000000
vn 0.000000 0.000000 1.000000
vn 0.000000 0.000000 1.000000
vn 0.000000 0.000000 1.000000
vn 0.000000 0.000000 1.000000
vn 0.000000 0.000000 1.000000
vn 0.000000 0.000000 1.000000
vn 0.000000 0.000000 1.000000
vn 0.000000 0.000000 1.000000
vn 0.000000 0.000000 1.000000
vn 0.000000 0.000000 1.000000
vn 0.000000 0.000000 1.000000
vn 0.000000 0.000000 1.000000
vn 0.000000 0.000000 1.000000
vn 0.000000 0.000000 1.000000
vn 0.000000 0.000000 1.000000
vn 0.000000 0.000000 1.000000
vn 0.000000 0.000000 1.000000
vn 0.000000 0.000000 1.000000
vn 0.000000 0.000000 1.000000
vn 0.000000 0.000000 1.000000
vn 0.000000 0.000000 1.000000
vn 0.000000 0.000000 1.000000
vn 0.000000 0.000000 1.000000
vn 0.000000 0.000000 1.000000
vn 0.000000 0.000000 1.000000
vn 0.000000 0.000000 1.000000
vn 0.000000 0.000000 1.000000
vn 0.000000 0.000000 1.000000
vn 0.000000 0.000000 1.000000
vn 0.000000 0.000000 1.000000
vn 0.000000 0.000000 1.000000
vn 0.000000 0.000000 1.000000
s off
g EvoManPiece4:polySurface1 group3
usemtl initialShadingGroup
f 1/1/1 2/2/2 3/3/3
f 3/3/4 2/2/5 4/4/6
f 2/2/7 5/5/8 4/4/9
f 4/4/10 5/5/11 6/6/12
f 5/5/13 7/7/14 6/6/15
f 6/6/16 7/7/17 8/8/18
f 7/7/19 9/9/20 8/8/21
f 8/8/22 9/9/23 10/10/24
f 9/9/25 11/11/26 10/10/27
f 10/10/28 11/11/29 12/12/30
f 11/11/31 13/13/32 12/12/33
f 12/12/34 13/13/35 14/14/36
f 15/15/37 3/3/38 16/16/39
f 3/3/40 4/4/41 16/16/42
f 16/16/43 4/4/44 17/17/45
f 4/4/46 6/6/47 17/17/48
f 17/17/49 6/6/50 18/18/51
f 6/6/52 8/8/53 18/18/54
f 18/18/55 8/8/56 19/19/57
f 8/8/58 10/10/59 19/19/60
f 15/15/61 16/16/62 20/20/63
f 20/20/64 16/16/65 21/21/66
f 16/16/67 17/17/68 21/21/69
f 21/21/70 17/17/71 22/22/72
f 17/17/73 18/18/74 22/22/75
f 22/22/76 18/18/77 23/23/78
f 18/18/79 19/19/80 23/23/81
