# This file uses centimeters as units for non-parametric coordinates.

mtllib Framelong.mtl
g default
v 20.395968 0.732357 35.857563
v 20.395968 4.306040 38.142433
v 20.338144 4.273095 38.121372
v 20.338144 0.765301 35.878628
v 20.338144 4.172635 38.057140
v 20.338144 0.865760 35.942856
v 20.431143 4.102551 38.012329
v 20.431143 0.935844 35.987667
v 20.338144 0.865760 38.057140
v 20.431143 0.935844 38.012329
v 20.395968 0.732357 38.142433
v 20.338144 0.765301 38.121372
v 20.431143 4.102551 37.460148
v 20.338144 4.172635 37.480518
v 20.338144 4.273095 37.509712
v 20.395968 4.306040 37.519287
v 20.338144 0.865760 37.480518
v 20.431143 0.935844 37.460148
v 20.395968 0.732357 37.519287
v 20.338144 0.765301 37.509712
v 20.431143 4.102551 36.539848
v 20.338144 4.172635 36.519478
v 20.338144 4.273095 36.490284
v 20.395968 4.306040 36.480709
v 20.338144 0.865760 36.519478
v 20.431143 0.935844 36.539848
v 20.395968 0.732357 36.480709
v 20.338144 0.765301 36.490284
v 20.431143 4.102551 35.987667
v 20.338144 4.172635 35.942856
v 20.338144 4.273095 35.878628
v 20.395968 4.306040 35.857563
v 20.338144 3.571384 35.942856
v 20.338144 3.635314 35.878628
v 20.395968 3.656279 35.857563
v 20.395968 3.656279 38.142433
v 20.338144 3.635314 38.121372
v 20.338144 3.571384 38.057140
v 20.431143 3.526786 38.012329
v 20.431143 3.526786 37.460148
v 20.431143 3.526786 36.539848
v 20.431143 3.526786 35.987667
v 20.338144 1.767635 35.942856
v 20.338144 1.721972 35.878628
v 20.395968 1.706997 35.857563
v 20.395968 1.706997 38.142433
v 20.338144 1.721972 38.121372
v 20.338144 1.767635 38.057140
v 20.431143 1.799491 38.012329
v 20.431143 1.799491 37.460148
v 20.431143 1.799491 36.539848
v 20.431143 1.799491 35.987667
v 20.395968 1.057237 38.142433
v 20.338144 1.084191 38.121372
v 20.338144 1.166385 38.057140
v 20.431143 1.223727 38.012329
v 20.431143 1.223727 37.460148
v 20.431143 1.223727 36.539848
v 20.431143 1.223727 35.987667
v 20.338144 1.166385 35.942856
v 20.338144 1.084191 35.878628
v 20.395968 1.057237 35.857563
v 20.485201 1.706997 38.142433
v 20.485201 1.057237 38.142433
v 20.485201 0.732357 38.142433
v 20.485201 0.732357 37.519287
v 20.485201 0.732357 36.480709
v 20.485201 0.732357 35.857563
v 20.485201 1.057237 35.857563
v 20.485201 1.706997 35.857563
v 20.485201 3.656279 35.857563
v 20.485201 4.306040 35.857563
v 20.485201 4.306040 36.480709
v 20.485201 4.306040 37.519287
v 20.485201 4.306040 38.142433
v 20.485201 3.656279 38.142433
vt 0.375000 0.227273
vt 0.375000 0.250000
vt 0.375000 0.250000
vt 0.375000 0.227273
vt 0.125000 0.250000
vt 0.125000 0.227273
vt 0.125000 0.227273
vt 0.125000 0.250000
vt 0.375000 0.250000
vt 0.375000 0.227273
vt 0.125000 0.227273
vt 0.125000 0.250000
vt 0.375000 0.250000
vt 0.375000 0.227273
vt 0.125000 0.227273
vt 0.125000 0.250000
vt 0.193182 0.250000
vt 0.193182 0.250000
vt 0.193182 0.227273
vt 0.125000 0.000000
vt 0.193182 0.000000
vt 0.193182 0.000000
vt 0.125000 0.000000
vt 0.125000 0.000000
vt 0.193182 0.000000
vt 0.125000 0.000000
vt 0.193182 0.000000
vt 0.193182 0.250000
vt 0.193182 0.250000
vt 0.306818 0.250000
vt 0.306818 0.250000
vt 0.306818 0.227273
vt 0.306818 0.000000
vt 0.306818 0.000000
vt 0.306818 0.000000
vt 0.306818 0.000000
vt 0.306818 0.250000
vt 0.306818 0.250000
vt 0.375000 0.000000
vt 0.375000 0.000000
vt 0.375000 0.000000
vt 0.375000 0.000000
vt 0.125000 0.045455
vt 0.125000 0.045455
vt 0.125000 0.045455
vt 0.125000 0.045455
vt 0.193182 0.045455
vt 0.306818 0.045455
vt 0.375000 0.045455
vt 0.375000 0.045455
vt 0.375000 0.045455
vt 0.375000 0.045455
vt 0.125000 0.181818
vt 0.125000 0.181818
vt 0.125000 0.181818
vt 0.125000 0.181818
vt 0.193182 0.181818
vt 0.306818 0.181818
vt 0.375000 0.181818
vt 0.375000 0.181818
vt 0.375000 0.181818
vt 0.375000 0.181818
vt 0.375000 0.522727
vt 0.397727 0.522727
vt 0.397727 0.568182
vt 0.375000 0.568182
vt 0.375000 0.500000
vt 0.397727 0.500000
vt 0.375000 0.431818
vt 0.397727 0.431818
vt 0.375000 0.318182
vt 0.397727 0.318182
vt 0.397727 0.250000
vt 0.397727 0.227273
vt 0.397727 0.181818
vt 0.397727 0.045455
vt 0.397727 0.000000
vt 0.375000 0.931818
vt 0.397727 0.931818
vt 0.397727 1.000000
vt 0.375000 1.000000
vt 0.375000 0.818182
vt 0.397727 0.818182
vt 0.375000 0.750000
vt 0.397727 0.750000
vt 0.375000 0.704545
vt 0.397727 0.704545
vn -0.342292 0.000000 -0.939594
vn -0.342285 0.000000 -0.939596
vn -0.342263 0.000000 -0.939604
vn -0.342275 0.000000 -0.939600
vn -0.342239 0.000000 0.939613
vn -0.342169 0.000000 0.939638
vn -0.342238 0.000000 0.939613
vn -0.342152 0.000000 0.939645
vn -1.000000 0.000000 0.000000
vn -1.000000 0.000000 0.000000
vn -1.000000 0.000000 0.000000
vn -1.000000 0.000000 0.000000
vn -1.000000 0.000000 0.000000
vn -1.000000 0.000000 0.000000
vn -1.000000 0.000000 0.000000
vn -1.000000 0.000000 0.000000
vn -0.434091 0.000000 0.900869
vn -0.434082 0.000000 0.900873
vn -0.434073 0.000000 0.900878
vn -0.434080 0.000000 0.900874
vn -0.434054 0.000000 -0.900887
vn -0.434072 0.000000 -0.900878
vn -0.434064 0.000000 -0.900882
vn -0.434063 0.000000 -0.900882
vn -0.601844 0.798614 0.000000
vn -0.601843 0.798615 0.000000
vn -0.601838 0.798618 0.000000
vn -0.601837 0.798619 0.000000
vn -1.000000 0.000000 0.000000
vn -1.000000 0.000000 0.000000
vn -1.000000 0.000000 0.000000
vn -1.000000 0.000000 0.000000
vn -0.601842 -0.798615 0.000000
vn -0.601841 -0.798616 0.000000
vn -0.601841 -0.798616 0.000000
vn -0.601842 -0.798616 0.000000
vn -1.000000 -0.000008 0.000000
vn -1.000000 0.000006 0.000000
vn -1.000000 -0.000007 0.000000
vn -1.000000 0.000006 0.000000
vn -0.495043 0.868869 0.000000
vn -0.495043 0.868869 0.000000
vn -0.495042 0.868869 0.000000
vn -0.495043 0.868869 0.000000
vn -0.495036 -0.868872 0.000000
vn -0.495036 -0.868872 0.000000
vn -0.495042 -0.868869 0.000000
vn -0.495043 -0.868869 0.000000
vn -1.000000 -0.000006 0.000000
vn -1.000000 -0.000006 0.000000
vn -1.000000 0.000007 0.000000
vn -1.000000 0.000008 0.000000
vn -0.601844 0.798614 0.000000
vn -0.601845 0.798613 0.000000
vn -1.000000 0.000000 0.000000
vn -1.000000 0.000000 0.000000
vn -0.601840 -0.798616 0.000000
vn -0.601841 -0.798616 0.000000
vn -1.000000 -0.000014 0.000000
vn -1.000000 -0.000024 0.000000
vn -0.495031 0.868875 0.000000
vn -0.495029 0.868876 0.000000
vn -0.495024 -0.868879 0.000000
vn -0.495026 -0.868878 0.000000
vn -1.000000 0.000028 0.000000
vn -1.000000 0.000019 0.000000
vn -0.601833 0.798622 0.000000
vn -0.601833 0.798622 0.000000
vn -1.000000 0.000000 0.000000
vn -1.000000 0.000000 0.000000
vn -0.601835 -0.798621 0.000000
vn -0.601835 -0.798620 0.000000
vn -1.000000 0.000000 0.000000
vn -1.000000 0.000001 0.000000
vn -0.495043 0.868869 0.000000
vn -0.495042 0.868869 0.000000
vn -0.495034 -0.868874 0.000000
vn -0.495034 -0.868874 0.000000
vn -1.000000 0.000012 0.000000
vn -1.000000 0.000011 0.000000
vn -0.342208 0.000000 0.939624
vn -0.342210 0.000000 0.939624
vn -0.342203 0.000000 0.939626
vn -0.342195 0.000000 0.939629
vn -1.000000 0.000000 0.000000
vn -1.000000 0.000000 0.000000
vn -1.000000 0.000000 0.000000
vn -1.000000 0.000000 0.000000
vn -0.434089 0.000000 -0.900870
vn -0.434101 0.000000 -0.900864
vn -0.434057 0.000000 -0.900886
vn -0.434047 0.000000 -0.900890
vn -1.000000 0.000000 0.000000
vn -1.000000 0.000000 0.000000
vn -1.000000 0.000000 0.000000
vn -1.000000 0.000000 0.000000
vn -1.000000 0.000000 0.000000
vn -1.000000 0.000000 0.000000
vn -1.000000 0.000000 0.000000
vn -1.000000 0.000000 0.000000
vn -0.434072 0.000000 0.900878
vn -0.434109 0.000000 0.900860
vn -0.434075 0.000000 0.900877
vn -0.434110 0.000000 0.900860
vn -1.000000 0.000000 0.000000
vn -1.000000 0.000000 0.000000
vn -1.000000 0.000000 0.000000
vn -1.000000 0.000000 0.000000
vn -0.342266 0.000000 -0.939603
vn -0.342317 0.000000 -0.939585
vn -0.342268 0.000000 -0.939603
vn -0.342320 0.000000 -0.939584
vn -0.342337 0.000000 0.939577
vn -0.342350 0.000000 0.939573
vn -1.000000 0.000000 0.000000
vn -1.000000 0.000000 0.000000
vn -0.434110 0.000000 -0.900860
vn -0.434107 0.000000 -0.900861
vn -1.000000 0.000000 0.000000
vn -1.000000 0.000000 0.000000
vn -1.000000 0.000000 0.000000
vn -1.000000 0.000000 0.000000
vn -0.434075 0.000000 0.900877
vn -0.434074 0.000000 0.900877
vn -1.000000 0.000000 0.000000
vn -1.000000 0.000000 0.000000
vn -0.342256 0.000000 -0.939607
vn -0.342252 0.000000 -0.939608
vn 0.000000 0.000000 1.000000
vn 0.000000 0.000000 1.000000
vn 0.000000 0.000000 1.000000
vn 0.000000 0.000000 1.000000
vn 0.000000 0.000000 1.000000
vn 0.000000 0.000000 1.000000
vn 0.000000 -1.000000 0.000000
vn 0.000000 -1.000000 0.000000
vn 0.000000 -1.000000 0.000000
vn 0.000000 -1.000000 0.000000
vn 0.000000 -1.000000 0.000000
vn 0.000000 -1.000000 0.000000
vn 0.000000 -1.000000 0.000000
vn 0.000000 -1.000000 0.000000
vn 0.000000 0.000000 -1.000000
vn 0.000000 0.000000 -1.000000
vn 0.000000 0.000000 -1.000000
vn 0.000000 0.000000 -1.000000
vn 0.000000 0.000000 -1.000000
vn 0.000000 0.000000 -1.000000
vn 0.000000 0.000000 -1.000000
vn 0.000000 0.000000 -1.000000
vn 0.000000 0.000000 -1.000000
vn 0.000000 0.000000 -1.000000
vn 0.000000 1.000000 0.000000
vn 0.000000 1.000000 0.000000
vn 0.000000 1.000000 0.000000
vn 0.000000 1.000000 0.000000
vn 0.000000 1.000000 0.000000
vn 0.000000 1.000000 0.000000
vn 0.000000 1.000000 0.000000
vn 0.000000 1.000000 0.000000
vn 0.000000 0.000000 1.000000
vn 0.000000 0.000000 1.000000
vn 0.000000 0.000000 1.000000
vn 0.000000 0.000000 1.000000
s 1
g polySurface41 pCube6
usemtl initialShadingGroup
f 1/2/1 4/3/2 62/1/3
f 62/1/3 4/3/2 61/4/4
s 2
f 11/5/5 53/6/6 12/8/7
f 12/8/7 53/6/6 54/7/8
s 3
f 4/3/9 6/9/10 61/4/11
f 61/4/11 6/9/10 60/10/12
s 4
f 12/8/13 54/7/14 9/12/15
f 9/12/15 54/7/14 55/11/16
s 5
f 6/9/17 8/13/18 60/10/19
f 60/10/19 8/13/18 59/14/20
s 6
f 9/12/21 55/11/22 10/16/23
f 10/16/23 55/11/22 56/15/24
s 7
f 9/12/25 10/16/26 17/17/27
f 17/17/27 10/16/26 18/18/28
s 8
f 56/15/29 57/19/30 10/16/31
f 10/16/31 57/19/30 18/18/32
s 9
f 5/20/33 14/21/34 7/23/35
f 7/23/35 14/21/34 13/22/36
s 10
f 3/24/37 15/25/38 5/20/39
f 5/20/39 15/25/38 14/21/40
s 11
f 2/26/41 16/27/42 3/24/43
f 3/24/43 16/27/42 15/25/44
s 12
f 20/28/45 19/29/46 12/8/47
f 12/8/47 19/29/46 11/5/48
s 13
f 17/17/49 20/28/50 9/12/51
f 9/12/51 20/28/50 12/8/52
s 7
f 25/30/53 17/17/27 26/31/54
f 26/31/54 17/17/27 18/18/28
s 8
f 57/19/30 58/32/55 18/18/32
f 18/18/32 58/32/55 26/31/56
s 9
f 14/21/34 22/33/57 13/22/36
f 13/22/36 22/33/57 21/34/58
s 10
f 15/25/38 23/35/59 14/21/40
f 14/21/40 23/35/59 22/33/60
s 11
f 16/27/42 24/36/61 15/25/44
f 15/25/44 24/36/61 23/35/62
s 12
f 28/37/63 27/38/64 20/28/45
f 20/28/45 27/38/64 19/29/46
s 13
f 25/30/65 28/37/66 17/17/49
f 17/17/49 28/37/66 20/28/50
s 7
f 6/9/67 25/30/53 8/13/68
f 8/13/68 25/30/53 26/31/54
s 8
f 58/32/55 59/14/69 26/31/56
f 26/31/56 59/14/69 8/13/70
s 9
f 30/39/71 29/40/72 22/33/57
f 22/33/57 29/40/72 21/34/58
s 10
f 31/41/73 30/39/74 23/35/59
f 23/35/59 30/39/74 22/33/60
s 11
f 32/42/75 31/41/76 24/36/61
f 24/36/61 31/41/76 23/35/62
s 12
f 1/2/77 27/38/64 4/3/78
f 4/3/78 27/38/64 28/37/63
s 13
f 4/3/79 28/37/66 6/9/80
f 6/9/80 28/37/66 25/30/65
s 2
f 2/26/81 3/24/82 36/43/83
f 36/43/83 3/24/82 37/44/84
s 4
f 38/45/85 37/44/86 5/20/87
f 5/20/87 37/44/86 3/24/88
s 6
f 39/46/89 38/45/90 7/23/91
f 7/23/91 38/45/90 5/20/92
s 8
f 7/23/93 13/22/94 39/46/95
f 39/46/95 13/22/94 40/47/96
f 13/22/94 21/34/97 40/47/96
f 40/47/96 21/34/97 41/48/98
f 21/34/97 29/40/99 41/48/98
f 41/48/98 29/40/99 42/49/100
s 5
f 30/39/101 33/50/102 29/40/103
f 29/40/103 33/50/102 42/49/104
s 3
f 31/41/105 34/51/106 30/39/107
f 30/39/107 34/51/106 33/50/108
s 1
f 32/42/109 35/52/110 31/41/111
f 31/41/111 35/52/110 34/51/112
s 2
f 36/43/83 37/44/84 46/53/113
f 46/53/113 37/44/84 47/54/114
s 4
f 48/55/115 47/54/116 38/45/85
f 38/45/85 47/54/116 37/44/86
s 6
f 49/56/117 48/55/118 39/46/89
f 39/46/89 48/55/118 38/45/90
s 8
f 39/46/95 40/47/96 49/56/119
f 49/56/119 40/47/96 50/57/120
f 40/47/96 41/48/98 50/57/120
f 50/57/120 41/48/98 51/58/121
f 41/48/98 42/49/100 51/58/121
f 51/58/121 42/49/100 52/59/122
s 5
f 33/50/102 43/60/123 42/49/104
f 42/49/104 43/60/123 52/59/124
s 3
f 34/51/106 44/61/125 33/50/108
f 33/50/108 44/61/125 43/60/126
s 1
f 35/52/110 45/62/127 34/51/112
f 34/51/112 45/62/127 44/61/128
s 2
f 53/6/6 46/53/113 54/7/8
f 54/7/8 46/53/113 47/54/114
s 4
f 54/7/14 47/54/116 55/11/16
f 55/11/16 47/54/116 48/55/115
s 6
f 55/11/22 48/55/118 56/15/24
f 56/15/24 48/55/118 49/56/117
s 8
f 49/56/119 50/57/120 56/15/29
f 56/15/29 50/57/120 57/19/30
f 50/57/120 51/58/121 57/19/30
f 57/19/30 51/58/121 58/32/55
f 51/58/121 52/59/122 58/32/55
f 58/32/55 52/59/122 59/14/69
s 5
f 60/10/19 59/14/20 43/60/123
f 43/60/123 59/14/20 52/59/124
s 3
f 61/4/11 60/10/12 44/61/125
f 44/61/125 60/10/12 43/60/126
s 1
f 62/1/3 61/4/4 45/62/127
f 45/62/127 61/4/4 44/61/128
s 25
f 53/63/129 64/64/130 46/66/131
f 46/66/131 64/64/130 63/65/132
f 11/67/133 65/68/134 53/63/129
f 53/63/129 65/68/134 64/64/130
s 26
f 19/69/135 66/70/136 11/67/137
f 11/67/137 66/70/136 65/68/138
f 27/71/139 67/72/140 19/69/135
f 19/69/135 67/72/140 66/70/136
f 1/2/141 68/73/142 27/71/139
f 27/71/139 68/73/142 67/72/140
s 28
f 62/1/143 69/74/144 1/2/145
f 1/2/145 69/74/144 68/73/146
f 45/62/147 70/75/148 62/1/143
f 62/1/143 70/75/148 69/74/144
f 35/52/149 71/76/150 45/62/147
f 45/62/147 71/76/150 70/75/148
f 32/42/151 72/77/152 35/52/149
f 35/52/149 72/77/152 71/76/150
s 31
f 24/78/153 73/79/154 32/81/155
f 32/81/155 73/79/154 72/80/156
f 16/82/157 74/83/158 24/78/153
f 24/78/153 74/83/158 73/79/154
f 2/84/159 75/85/160 16/82/157
f 16/82/157 75/85/160 74/83/158
s 25
f 36/86/161 76/87/162 2/84/163
f 2/84/163 76/87/162 75/85/164
f 46/66/131 63/65/132 36/86/161
f 36/86/161 63/65/132 76/87/162
