# This file uses centimeters as units for non-parametric coordinates.

mtllib Giant_Plaque_Ancient.mtl
g default
v -12.500000 10.500250 0.500000
v -10.000250 13.000001 0.500000
v -12.500000 10.500250 -0.500000
v -10.000250 13.000001 -0.500000
v 10.000250 13.000001 0.500000
v 12.500000 10.500250 0.500000
v 12.500000 10.500250 -0.500000
v 10.000250 13.000001 -0.500000
v -10.000250 3.000000 0.500000
v -12.500000 5.499750 0.500000
v -12.500000 5.499750 -0.500000
v -10.000250 3.000000 -0.500000
v 12.500000 5.499750 0.500000
v 10.000250 3.000000 0.500000
v 10.000250 3.000000 -0.500000
v 12.500000 5.499750 -0.500000
v -8.938926 3.530649 0.500000
v -11.173379 5.765101 0.500000
v 8.938926 3.530649 0.500000
v 11.173379 5.765101 0.500000
v 11.173379 10.234899 0.500000
v 8.938926 12.469352 0.500000
v -8.938926 12.469352 0.500000
v -11.173379 10.234899 0.500000
v -8.439235 4.021185 0.500000
v -10.548782 6.010393 0.500000
v 8.439235 4.021185 0.500000
v 10.548782 6.010393 0.500000
v 10.548782 9.989607 0.500000
v 8.439235 11.978816 0.500000
v -8.439235 11.978816 0.500000
v -10.548782 9.989607 0.500000
v -8.938926 3.530649 0.826821
v -11.173379 5.765101 0.826821
v -8.439235 4.021185 0.826821
v -10.548782 6.010393 0.826821
v 8.938926 3.530649 0.826821
v 8.439235 4.021185 0.826821
v 11.173379 5.765101 0.826821
v 10.548782 6.010393 0.826821
v 11.173379 10.234899 0.826821
v 10.548782 9.989607 0.826821
v 8.938926 12.469352 0.826821
v 8.439235 11.978816 0.826821
v -8.938926 12.469352 0.826821
v -8.439235 11.978816 0.826821
v -11.173379 10.234899 0.826821
v -10.548782 9.989607 0.826821
vt 0.361114 0.981278
vt 0.360125 0.701570
vt 0.500982 0.980783
vt 0.291194 0.981525
vt 0.499993 0.701076
vt 0.290205 0.701818
vt 0.569913 0.700828
vt 0.570902 0.980536
vt 0.569181 0.624378
vt 0.289474 0.625368
vt 0.568686 0.484511
vt 0.569428 0.694298
vt 0.288979 0.485500
vt 0.289721 0.695288
vt 0.288732 0.415580
vt 0.568439 0.414591
vt 0.348305 0.408838
vt 0.285805 0.409059
vt 0.347981 0.317424
vt 0.285482 0.317645
vt 0.473005 0.316982
vt 0.473328 0.408396
vt 0.535504 0.316761
vt 0.535828 0.408175
vt 0.576323 0.602859
vt 0.631963 0.602662
vt 0.576647 0.694273
vt 0.632286 0.694076
vt 0.743264 0.602268
vt 0.743588 0.693682
vt 0.798904 0.602071
vt 0.799228 0.693486
vt 0.541360 0.316740
vt 0.603859 0.316519
vt 0.541683 0.408154
vt 0.604182 0.407933
vt 0.728883 0.316076
vt 0.729206 0.407491
vt 0.791382 0.315855
vt 0.791705 0.407270
vt 0.631832 0.595504
vt 0.576192 0.595701
vt 0.631508 0.504090
vt 0.575868 0.504287
vt 0.742810 0.503696
vt 0.743133 0.595110
vt 0.798450 0.503500
vt 0.798773 0.594914
vt 0.284867 0.981547
vt 0.005159 0.982537
vt 0.284075 0.757776
vt 0.004368 0.758765
vt 0.284049 0.750282
vt 0.004341 0.751271
vt 0.283257 0.526510
vt 0.003550 0.527499
vt 0.999085 0.495632
vt 0.799062 0.496339
vt 0.998761 0.404217
vt 0.798738 0.404925
vt 0.805936 0.602046
vt 0.994779 0.601378
vt 0.806260 0.693461
vt 0.995102 0.692793
vt 0.798765 0.306351
vt 0.998788 0.305644
vt 0.799088 0.397765
vt 0.999111 0.397058
vt 0.993863 0.594224
vt 0.805022 0.594892
vt 0.993540 0.502810
vt 0.804698 0.503477
vt 0.106952 0.023520
vt 0.887949 0.026796
vt 0.011104 0.078761
vt 0.987327 0.082856
vt 0.014633 0.190084
vt 0.990856 0.194178
vt 0.895007 0.249419
vt 0.114009 0.246143
vt 0.828588 0.979625
vt 0.816661 0.964824
vt 0.856309 0.909606
vt 0.604816 0.980416
vt 0.841439 0.902236
vt 0.616638 0.965531
vt 0.840997 0.777212
vt 0.576601 0.910595
vt 0.855814 0.769737
vt 0.591417 0.903120
vt 0.815777 0.714801
vt 0.576107 0.770727
vt 0.827599 0.699917
vt 0.590975 0.778096
vt 0.615754 0.715509
vt 0.603827 0.700708
vt 0.256683 0.521005
vt 0.251043 0.507304
vt 0.281461 0.458418
vt 0.056660 0.521713
vt 0.274449 0.451581
vt 0.062202 0.507973
vt 0.274055 0.340280
vt 0.031439 0.459302
vt 0.281019 0.333394
vt 0.038403 0.452416
vt 0.250256 0.284723
vt 0.030997 0.334278
vt 0.255798 0.270983
vt 0.038009 0.341115
vt 0.061414 0.285391
vt 0.055776 0.271691
vn 0.000000 1.000000 0.000000
vn 0.000000 1.000000 0.000000
vn 0.000000 1.000000 0.000000
vn 0.000000 1.000000 0.000000
vn 0.000000 -1.000000 0.000000
vn 0.000000 -1.000000 0.000000
vn 0.000000 -1.000000 0.000000
vn 0.000000 -1.000000 0.000000
vn 1.000000 0.000000 0.000000
vn 1.000000 0.000000 0.000000
vn 1.000000 0.000000 0.000000
vn 1.000000 0.000000 0.000000
vn -1.000000 0.000000 0.000000
vn -1.000000 0.000000 0.000000
vn -1.000000 0.000000 0.000000
vn -1.000000 0.000000 0.000000
vn 0.000000 0.000000 1.000000
vn 0.000000 0.000000 1.000000
vn 0.000000 0.000000 1.000000
vn 0.000000 0.000000 1.000000
vn 0.000000 0.000000 1.000000
vn 0.000000 0.000000 1.000000
vn 0.000000 0.000000 1.000000
vn 0.000000 0.000000 1.000000
vn -0.707107 0.707107 0.000000
vn -0.707107 0.707107 0.000000
vn -0.707107 0.707107 0.000000
vn -0.707107 0.707107 0.000000
vn 0.707107 0.707107 0.000000
vn 0.707107 0.707107 0.000000
vn 0.707107 0.707107 0.000000
vn 0.707107 0.707107 0.000000
vn -0.707107 -0.707107 0.000000
vn -0.707107 -0.707107 0.000000
vn -0.707107 -0.707107 0.000000
vn -0.707107 -0.707107 0.000000
vn 0.707107 -0.707107 0.000000
vn 0.707107 -0.707107 0.000000
vn 0.707107 -0.707107 0.000000
vn 0.707107 -0.707107 0.000000
vn 0.000000 0.000000 1.000000
vn 0.000000 0.000000 1.000000
vn 0.000000 0.000000 1.000000
vn 0.000000 0.000000 1.000000
vn 0.000000 0.000000 1.000000
vn 0.000000 0.000000 1.000000
vn 0.000000 0.000000 1.000000
vn 0.000000 0.000000 1.000000
vn 0.000000 0.000000 1.000000
vn 0.000000 0.000000 1.000000
vn 0.000000 0.000000 1.000000
vn 0.000000 0.000000 1.000000
vn 0.000000 0.000000 1.000000
vn 0.000000 0.000000 1.000000
vn 0.000000 0.000000 1.000000
vn 0.000000 0.000000 1.000000
vn 0.000000 0.000000 1.000000
vn 0.000000 0.000000 1.000000
vn 0.000000 0.000000 1.000000
vn 0.000000 0.000000 1.000000
vn 0.000000 0.000000 1.000000
vn 0.000000 0.000000 1.000000
vn 0.000000 0.000000 1.000000
vn 0.000000 0.000000 1.000000
vn 0.000000 0.000000 1.000000
vn 0.000000 0.000000 1.000000
vn 0.000000 0.000000 1.000000
vn 0.000000 0.000000 1.000000
vn 0.000000 0.000000 1.000000
vn 0.000000 0.000000 1.000000
vn 0.000000 0.000000 1.000000
vn 0.000000 0.000000 1.000000
vn 0.000000 0.000000 1.000000
vn 0.000000 0.000000 1.000000
vn 0.000000 0.000000 1.000000
vn 0.000000 0.000000 1.000000
vn 0.000000 0.000000 1.000000
vn 0.000000 0.000000 1.000000
vn 0.000000 0.000000 1.000000
vn 0.000000 0.000000 1.000000
vn 0.000000 0.000000 1.000000
vn -0.000000 0.000000 1.000000
vn -0.000000 0.000000 1.000000
vn -0.000000 0.000000 1.000000
vn 0.000000 0.000000 1.000000
vn 0.000000 0.000000 1.000000
vn 0.000000 0.000000 1.000000
vn 0.000000 0.000000 1.000000
vn 0.000000 0.000000 1.000000
vn 0.000000 0.000000 1.000000
vn 0.000000 0.000000 1.000000
vn 0.000000 0.000000 1.000000
vn 0.000000 0.000000 1.000000
vn 0.000000 0.000000 1.000000
vn 0.000000 0.000000 1.000000
vn 0.000000 0.000000 1.000000
vn -0.000000 0.000000 1.000000
vn -0.000000 0.000000 1.000000
vn -0.000000 0.000000 1.000000
vn 0.000000 0.000000 1.000000
vn 0.000000 0.000000 1.000000
vn 0.000000 0.000000 1.000000
vn 0.000000 0.000000 1.000000
vn 0.000000 0.000000 1.000000
vn -0.707106 -0.707107 0.000000
vn -0.707107 -0.707107 0.000000
vn -0.707107 -0.707107 0.000000
vn -0.707107 -0.707107 0.000000
vn 0.686051 0.727554 0.000000
vn 0.686051 0.727554 0.000000
vn 0.686051 0.727554 0.000000
vn 0.686051 0.727554 0.000000
vn 0.000000 -1.000000 0.000000
vn 0.000000 -1.000000 0.000000
vn 0.000000 -1.000000 0.000000
vn 0.000000 -1.000000 0.000000
vn 0.000000 1.000000 0.000000
vn 0.000000 1.000000 0.000000
vn 0.000000 1.000000 0.000000
vn 0.000000 1.000000 0.000000
vn 0.707107 -0.707107 0.000000
vn 0.707107 -0.707107 0.000000
vn 0.707107 -0.707107 0.000000
vn 0.707107 -0.707107 0.000000
vn -0.686051 0.727554 0.000000
vn -0.686051 0.727554 0.000000
vn -0.686051 0.727554 0.000000
vn -0.686050 0.727554 0.000000
vn 1.000000 0.000000 0.000000
vn 1.000000 0.000000 0.000000
vn 1.000000 0.000000 0.000000
vn 1.000000 0.000000 0.000000
vn -1.000000 0.000000 0.000000
vn -1.000000 0.000000 0.000000
vn -1.000000 0.000000 0.000000
vn -1.000000 0.000000 0.000000
vn 0.707107 0.707107 0.000000
vn 0.707107 0.707107 0.000000
vn 0.707107 0.707107 0.000000
vn 0.707107 0.707107 0.000000
vn -0.686051 -0.727554 0.000000
vn -0.686051 -0.727554 0.000000
vn -0.686051 -0.727554 0.000000
vn -0.686051 -0.727553 0.000000
vn 0.000000 1.000000 0.000000
vn 0.000000 1.000000 0.000000
vn 0.000000 1.000000 0.000000
vn 0.000000 1.000000 0.000000
vn 0.000000 -1.000000 0.000000
vn 0.000000 -1.000000 0.000000
vn 0.000000 -1.000000 0.000000
vn 0.000000 -1.000000 0.000000
vn -0.707107 0.707107 0.000000
vn -0.707107 0.707107 0.000000
vn -0.707107 0.707107 0.000000
vn -0.707106 0.707107 0.000000
vn 0.686051 -0.727554 0.000000
vn 0.686051 -0.727554 0.000000
vn 0.686051 -0.727554 0.000000
vn 0.686051 -0.727554 0.000000
vn -1.000000 0.000000 0.000000
vn -1.000000 0.000000 0.000000
vn -1.000000 0.000000 0.000000
vn -1.000000 0.000000 0.000000
vn 1.000000 0.000000 0.000000
vn 1.000000 0.000000 0.000000
vn 1.000000 0.000000 0.000000
vn 1.000000 0.000000 0.000000
s 1
g Giant_Plaque_Ancient
usemtl lambert3SG
f 4/49/1 2/50/2 8/51/3
f 8/51/3 2/50/2 5/52/4
s 2
f 9/53/5 12/54/6 14/55/7
f 14/55/7 12/54/6 15/56/8
s 3
f 13/1/9 16/2/10 6/3/11
f 6/3/11 16/2/10 7/5/12
s 4
f 11/9/13 10/10/14 3/11/15
f 3/11/15 10/10/14 1/13/16
s 5
f 25/73/17 27/74/18 26/75/19
f 27/74/18 28/76/20 26/75/19
f 26/75/19 28/76/20 32/77/21
f 28/76/20 29/78/22 32/77/21
f 29/78/22 30/79/23 32/77/21
f 30/79/23 31/80/24 32/77/21
s 6
f 1/13/25 2/15/26 3/11/27
f 3/11/27 2/15/26 4/16/28
s 7
f 5/8/29 6/3/30 8/7/31
f 8/7/31 6/3/30 7/5/32
s 8
f 9/14/33 10/10/34 12/12/35
f 12/12/35 10/10/34 11/9/36
s 9
f 13/1/37 14/4/38 16/2/39
f 16/2/39 14/4/38 15/6/40
s 10
f 9/81/41 17/82/42 10/83/43
f 10/83/43 17/82/42 18/85/44
s 11
f 9/81/45 14/84/46 17/82/47
f 17/82/47 14/84/46 19/86/48
s 12
f 14/84/49 13/88/50 19/86/51
f 19/86/51 13/88/50 20/90/52
s 13
f 13/88/53 6/92/54 20/90/55
f 20/90/55 6/92/54 21/94/56
s 14
f 5/96/57 22/95/58 6/92/59
f 6/92/59 22/95/58 21/94/60
s 15
f 5/96/61 2/93/62 22/95/63
f 22/95/63 2/93/62 23/91/64
s 16
f 2/93/65 1/89/66 23/91/67
f 23/91/67 1/89/66 24/87/68
s 17
f 1/89/69 10/83/70 24/87/71
f 24/87/71 10/83/70 18/85/72
s 18
f 33/97/73 35/98/74 34/99/75
f 34/99/75 35/98/74 36/101/76
s 19
f 33/97/77 37/100/78 35/98/79
f 35/98/79 37/100/78 38/102/80
s 20
f 37/100/81 39/104/82 38/102/83
f 38/102/83 39/104/82 40/106/84
s 21
f 39/104/85 41/108/86 40/106/87
f 40/106/87 41/108/86 42/110/88
s 22
f 43/112/89 44/111/90 41/108/91
f 41/108/91 44/111/90 42/110/92
s 23
f 43/112/93 45/109/94 44/111/95
f 44/111/95 45/109/94 46/107/96
s 24
f 45/109/97 47/105/98 46/107/99
f 46/107/99 47/105/98 48/103/100
s 25
f 47/105/101 34/99/102 48/103/103
f 48/103/103 34/99/102 36/101/104
s 26
f 18/17/105 17/18/106 34/19/107
f 34/19/107 17/18/106 33/20/108
s 27
f 25/25/109 26/26/110 35/27/111
f 35/27/111 26/26/110 36/28/112
s 28
f 17/57/113 19/58/114 33/59/115
f 33/59/115 19/58/114 37/60/116
s 29
f 27/61/117 25/62/118 38/63/119
f 38/63/119 25/62/118 35/64/120
s 30
f 19/33/121 20/34/122 37/35/123
f 37/35/123 20/34/122 39/36/124
s 31
f 28/41/125 27/42/126 40/43/127
f 40/43/127 27/42/126 38/44/128
s 32
f 20/34/129 21/37/130 39/36/131
f 39/36/131 21/37/130 41/38/132
s 33
f 29/46/133 28/41/134 42/45/135
f 42/45/135 28/41/134 40/43/136
s 34
f 21/37/137 22/39/138 41/38/139
f 41/38/139 22/39/138 43/40/140
s 35
f 30/48/141 29/46/142 44/47/143
f 44/47/143 29/46/142 42/45/144
s 36
f 22/65/145 23/66/146 43/67/147
f 43/67/147 23/66/146 45/68/148
s 37
f 31/69/149 30/70/150 46/71/151
f 46/71/151 30/70/150 44/72/152
s 38
f 23/24/153 24/22/154 45/23/155
f 45/23/155 24/22/154 47/21/156
s 39
f 32/29/157 31/31/158 48/30/159
f 48/30/159 31/31/158 46/32/160
s 40
f 24/22/161 18/17/162 47/21/163
f 47/21/163 18/17/162 34/19/164
s 41
f 26/26/165 32/29/166 36/28/167
f 36/28/167 32/29/166 48/30/168
