# This file uses centimeters as units for non-parametric coordinates.

mtllib Stand.mtl
g default
v -2.628474 0.058581 5.838233
v 2.564060 0.058581 5.838233
v -2.628474 1.281501 5.838233
v 2.564060 1.281501 5.838233
v -2.628474 1.281501 -5.880384
v 2.564060 1.281501 -5.880384
v -2.628474 0.058581 -5.880384
v 2.564060 0.058581 -5.880384
v -2.628474 1.102062 5.838233
v -2.628474 1.102062 -5.880384
v 2.564060 1.102062 -5.880384
v 2.564060 1.102062 5.838233
v -2.628474 0.238020 5.838233
v -2.628474 0.238020 -5.880384
v 2.564060 0.238020 -5.880384
v 2.564060 0.238020 5.838233
v -2.528474 0.238020 5.738234
v -2.528474 0.238020 -5.780386
v -2.528474 1.102062 5.738234
v -2.528474 1.102062 -5.780386
v 2.464060 1.102062 -5.780386
v 2.464060 0.238020 -5.780386
v 2.464060 0.238020 5.738234
v 2.464060 1.102062 5.738234
v -2.748473 0.058581 5.958233
v 2.684060 0.058581 5.958233
v 2.684060 0.238020 5.958233
v -2.748473 0.238020 5.958233
v -2.748473 0.238020 -6.000385
v 2.684060 0.238020 -6.000385
v 2.684060 0.058581 -6.000385
v -2.748473 0.058581 -6.000385
v -2.748473 1.102062 5.958233
v -2.748473 1.102062 -6.000385
v -2.748473 1.281501 5.958233
v -2.748473 1.281501 -6.000385
v 2.684060 1.281501 -6.000385
v 2.684060 1.102062 -6.000385
v 2.684060 1.102062 5.958233
v 2.684060 1.281501 5.958233
v -2.628474 1.481500 5.838233
v -2.628474 1.481500 -5.880386
v -2.748473 1.481500 -6.000385
v -2.748473 1.481500 5.958233
v 2.564060 1.481500 -5.880384
v 2.684060 1.481500 -6.000385
v 2.564060 1.481500 5.838234
v 2.684060 1.481500 5.958233
vt 0.601160 0.252060
vt 0.539280 0.436130
vt 0.532990 0.433750
vt 0.595490 0.249960
vt 0.531550 0.227800
vt 0.464570 0.403320
vt 0.078450 0.248870
vt 0.140620 0.077960
vt 0.073810 0.051270
vt 0.010470 0.229640
vt 0.004560 0.227300
vt 0.067640 0.049570
vt 0.998040 0.370000
vt 0.952310 0.546830
vt 0.544800 0.433790
vt 0.603640 0.257340
vt 0.433790 0.475110
vt 0.044280 0.317980
vt 0.046720 0.312090
vt 0.436710 0.469430
vt 0.163730 0.004470
vt 0.558320 0.154390
vt 0.556530 0.160530
vt 0.161470 0.010420
vt 0.145340 0.053480
vt 0.543030 0.205290
vt 0.541100 0.211440
vt 0.143140 0.059390
vt 0.124420 0.067740
vt 0.059700 0.247030
vt 0.053720 0.245010
vt 0.118340 0.065610
vt 0.457510 0.427640
vt 0.064850 0.269770
vt 0.067360 0.264000
vt 0.460320 0.421820
vt 0.554960 0.233510
vt 0.487180 0.416440
vt 0.480990 0.414060
vt 0.549320 0.231100
vt 0.165780 0.020400
vt 0.547240 0.165350
vt 0.538270 0.195020
vt 0.155120 0.048920
vt 0.108390 0.069950
vt 0.048890 0.235550
vt 0.020210 0.225450
vt 0.078870 0.060400
vt 0.433310 0.459660
vt 0.056680 0.307700
vt 0.068730 0.279640
vt 0.447020 0.431950
vt 0.586150 0.254530
vt 0.527730 0.423630
vt 0.497420 0.412200
vt 0.559240 0.243550
vt 0.163820 0.015860
vt 0.551470 0.163160
vt 0.540430 0.199690
vt 0.150680 0.050990
vt 0.112910 0.067980
vt 0.051090 0.239850
vt 0.015780 0.227380
vt 0.076580 0.056220
vt 0.434860 0.464100
vt 0.052150 0.309690
vt 0.066960 0.275160
vt 0.451790 0.430000
vt 0.590390 0.252450
vt 0.530120 0.428240
vt 0.492760 0.414130
vt 0.557300 0.238990
vt 0.001950 0.221920
vt 0.062170 0.052240
vt 0.428030 0.477380
vt 0.046440 0.323450
vt 0.169100 0.001950
vt 0.555670 0.148830
vt 0.533740 0.220930
vt 0.143080 0.071390
vt 0.140680 0.065970
vt 0.538940 0.218310
vt 0.133870 0.075440
vt 0.071770 0.246740
vt 0.066380 0.249250
vt 0.131190 0.070170
vt 0.075650 0.255260
vt 0.461470 0.409870
vt 0.463450 0.415310
vt 0.070160 0.257580
vt 0.471460 0.405940
vt 0.537800 0.230610
vt 0.543030 0.228370
vt 0.474120 0.411420
vn 0.000000 0.000000 1.000000
vn 0.000000 0.000000 1.000000
vn 0.000000 0.000000 1.000000
vn 0.000000 0.000000 1.000000
vn 0.000000 1.000000 0.000000
vn 0.000000 1.000000 0.000000
vn 0.000000 1.000000 0.000000
vn 0.000000 1.000000 0.000000
vn 0.000000 0.000000 -1.000000
vn 0.000000 0.000000 -1.000000
vn 0.000000 0.000000 -1.000000
vn 0.000000 0.000000 -1.000000
vn 0.000000 -1.000000 0.000000
vn 0.000000 -1.000000 0.000000
vn 0.000000 -1.000000 0.000000
vn 0.000000 -1.000000 0.000000
vn 1.000000 0.000000 0.000000
vn 1.000000 0.000000 0.000000
vn 1.000000 0.000000 0.000000
vn 1.000000 0.000000 0.000000
vn -1.000000 0.000000 0.000000
vn -1.000000 0.000000 0.000000
vn -1.000000 0.000000 0.000000
vn -1.000000 0.000000 0.000000
vn -1.000000 0.000000 0.000000
vn -1.000000 0.000000 0.000000
vn -1.000000 0.000000 0.000000
vn -1.000000 0.000000 0.000000
vn 0.000000 0.000000 -1.000000
vn 0.000000 0.000000 -1.000000
vn 0.000000 0.000000 -1.000000
vn 0.000000 0.000000 -1.000000
vn 1.000000 0.000000 0.000000
vn 1.000000 0.000000 0.000000
vn 1.000000 0.000000 0.000000
vn 1.000000 0.000000 0.000000
vn 0.000000 0.000000 1.000000
vn 0.000000 0.000000 1.000000
vn 0.000000 0.000000 1.000000
vn 0.000000 0.000000 1.000000
vn -1.000000 0.000000 0.000000
vn -1.000000 0.000000 0.000000
vn -1.000000 0.000000 0.000000
vn -1.000000 0.000000 0.000000
vn 0.000000 0.000000 -1.000000
vn 0.000000 0.000000 -1.000000
vn 0.000000 0.000000 -1.000000
vn 0.000000 0.000000 -1.000000
vn 1.000000 0.000000 0.000000
vn 1.000000 0.000000 0.000000
vn 1.000000 0.000000 0.000000
vn 1.000000 0.000000 0.000000
vn 0.000000 0.000000 1.000000
vn 0.000000 0.000000 1.000000
vn 0.000000 0.000000 1.000000
vn 0.000000 0.000000 1.000000
vn 0.000000 1.000000 0.000000
vn 0.000000 1.000000 0.000000
vn 0.000000 1.000000 0.000000
vn 0.000000 1.000000 0.000000
vn 0.000000 -1.000000 0.000000
vn 0.000000 -1.000000 0.000000
vn 0.000000 -1.000000 0.000000
vn 0.000000 -1.000000 0.000000
vn 0.000000 -1.000000 0.000004
vn 0.000000 -1.000000 -0.000002
vn 0.000000 -1.000000 0.000004
vn 0.000000 -1.000000 -0.000002
vn 0.000000 1.000000 -0.000000
vn 0.000000 1.000000 -0.000000
vn 0.000000 1.000000 -0.000000
vn 0.000000 1.000000 0.000000
vn 0.000000 1.000000 0.000000
vn 0.000000 1.000000 0.000000
vn 0.000000 1.000000 0.000000
vn 0.000000 1.000000 0.000000
vn 0.000000 -1.000000 0.000000
vn 0.000000 -1.000000 0.000000
vn 0.000000 -1.000000 0.000000
vn 0.000000 -1.000000 0.000000
vn 0.000000 1.000000 0.000001
vn 0.000000 1.000000 0.000000
vn 0.000000 1.000000 0.000001
vn 0.000000 1.000000 0.000000
vn 0.000000 -1.000000 -0.000001
vn 0.000000 -1.000000 -0.000000
vn 0.000000 -1.000000 -0.000001
vn 0.000000 -1.000000 0.000000
vn 0.000000 -1.000000 0.000000
vn 0.000000 -1.000000 0.000000
vn 0.000000 -1.000000 0.000000
vn 0.000000 -1.000000 0.000000
vn 0.000000 1.000000 -0.000000
vn 0.000000 1.000000 -0.000000
vn 0.000000 1.000000 -0.000000
vn 0.000000 1.000000 -0.000000
vn 0.000000 1.000000 0.000000
vn 0.000000 1.000000 0.000000
vn 0.000000 1.000000 0.000000
vn 0.000000 1.000000 0.000000
vn 0.000000 -1.000000 -0.000000
vn 0.000000 -1.000000 -0.000000
vn 0.000000 -1.000000 -0.000000
vn 0.000000 -1.000000 0.000000
vn 0.000000 -1.000000 0.000000
vn 0.000000 -1.000000 0.000000
vn 0.000000 -1.000000 0.000000
vn 0.000000 -1.000000 0.000000
vn 0.000000 1.000000 0.000000
vn 0.000000 1.000000 0.000000
vn 0.000000 1.000000 0.000000
vn 0.000000 1.000000 0.000000
vn 0.000000 -1.000000 0.000000
vn 0.000000 -1.000000 0.000000
vn 0.000000 -1.000000 0.000000
vn 0.000000 -1.000000 0.000000
vn 0.000000 1.000000 0.000000
vn 0.000000 1.000000 0.000000
vn 0.000000 1.000000 0.000000
vn 0.000000 1.000000 0.000000
vn 0.000000 -1.000000 0.000000
vn 0.000000 -1.000000 0.000000
vn 0.000000 -1.000000 0.000000
vn 0.000000 -1.000000 0.000000
vn 0.000000 1.000000 0.000000
vn 0.000000 1.000000 0.000000
vn 0.000000 1.000000 0.000000
vn 0.000000 1.000000 0.000000
vn 0.000000 1.000000 0.000001
vn 0.000000 1.000000 0.000003
vn 0.000000 1.000000 0.000001
vn 0.000000 1.000000 0.000003
vn 0.000000 -1.000000 -0.000001
vn 0.000000 -1.000000 -0.000001
vn 0.000000 -1.000000 -0.000001
vn 0.000000 -1.000000 -0.000001
vn 0.000000 -1.000000 0.000000
vn 0.000000 -1.000000 0.000000
vn 0.000000 -1.000000 0.000000
vn 0.000000 -1.000000 0.000000
vn 0.000000 1.000000 0.000000
vn 0.000000 1.000000 0.000000
vn 0.000000 1.000000 0.000000
vn 0.000000 1.000000 0.000000
vn 0.000000 -1.000000 0.000001
vn 0.000000 -1.000000 0.000001
vn 0.000000 -1.000000 0.000001
vn 0.000000 -1.000000 0.000001
vn 0.000000 1.000000 -0.000001
vn 0.000000 1.000000 -0.000003
vn 0.000000 1.000000 -0.000001
vn 0.000000 1.000000 -0.000003
vn 1.000000 0.000000 0.000000
vn 1.000000 -0.000002 0.000000
vn 1.000000 -0.000000 0.000000
vn 1.000000 -0.000002 0.000000
vn -1.000000 0.000000 0.000000
vn -1.000000 0.000000 0.000000
vn -1.000000 0.000000 0.000000
vn -1.000000 0.000000 0.000000
vn 0.000000 0.000007 1.000000
vn -0.000000 0.000000 1.000000
vn -0.000000 0.000007 1.000000
vn -0.000000 0.000000 1.000000
vn 0.000000 0.000000 -1.000000
vn 0.000000 0.000000 -1.000000
vn 0.000000 0.000000 -1.000000
vn 0.000000 0.000000 -1.000000
vn -1.000000 0.000000 0.000000
vn -1.000000 -0.000002 0.000000
vn -1.000000 -0.000000 0.000000
vn -1.000000 -0.000002 0.000000
vn 1.000000 0.000000 0.000000
vn 1.000000 0.000000 0.000000
vn 1.000000 0.000000 0.000000
vn 1.000000 0.000000 0.000000
vn 0.000000 0.000005 -1.000000
vn 0.000000 0.000000 -1.000000
vn 0.000000 0.000005 -1.000000
vn 0.000000 0.000000 -1.000000
vn 0.000000 0.000000 1.000000
vn 0.000000 0.000000 1.000000
vn 0.000000 0.000000 1.000000
vn 0.000000 0.000000 1.000000
s 1
g Stand:Group2
usemtl lambert9SG
f 25/1/1 26/2/2 28/4/3
f 28/4/3 26/2/2 27/3/4
s 2
f 3/5/5 4/6/6 5/8/7
f 5/8/7 4/6/6 6/7/8
s 3
f 29/9/9 30/10/10 32/12/11
f 32/12/11 30/10/10 31/11/12
s 4
f 7/13/13 8/14/14 1/16/15
f 1/16/15 8/14/14 2/15/16
s 5
f 26/17/17 31/18/18 27/20/19
f 27/20/19 31/18/18 30/19/20
s 6
f 32/21/21 25/22/22 29/24/23
f 29/24/23 25/22/22 28/23/24
s 7
f 34/25/25 33/26/26 36/28/27
f 36/28/27 33/26/26 35/27/28
s 8
f 36/29/29 37/30/30 34/32/31
f 34/32/31 37/30/30 38/31/32
s 9
f 39/33/33 38/34/34 40/36/35
f 40/36/35 38/34/34 37/35/36
s 10
f 33/37/37 39/38/38 35/40/39
f 35/40/39 39/38/38 40/39/40
s 11
f 18/41/41 17/42/42 20/44/43
f 20/44/43 17/42/42 19/43/44
s 12
f 20/45/45 21/46/46 18/48/47
f 18/48/47 21/46/46 22/47/48
s 13
f 23/49/49 22/50/50 24/52/51
f 24/52/51 22/50/50 21/51/52
s 14
f 17/53/53 23/54/54 19/56/55
f 19/56/55 23/54/54 24/55/56
s 15
f 14/57/57 13/58/58 18/41/59
f 18/41/59 13/58/58 17/42/60
s 16
f 9/59/61 10/60/62 19/43/63
f 19/43/63 10/60/62 20/44/64
s 17
f 10/61/65 11/62/66 20/45/67
f 20/45/67 11/62/66 21/46/68
s 18
f 15/63/69 14/64/70 22/47/71
f 22/47/71 14/64/70 18/48/72
s 19
f 16/65/73 15/66/74 23/49/75
f 23/49/75 15/66/74 22/50/76
s 20
f 11/67/77 12/68/78 21/51/79
f 21/51/79 12/68/78 24/52/80
s 21
f 13/69/81 16/70/82 17/53/83
f 17/53/83 16/70/82 23/54/84
s 22
f 12/71/85 9/72/86 24/55/87
f 24/55/87 9/72/86 19/56/88
s 23
f 1/16/89 2/15/90 25/1/91
f 25/1/91 2/15/90 26/2/92
s 24
f 16/70/93 13/69/94 27/3/95
f 27/3/95 13/69/94 28/4/96
s 25
f 14/64/97 15/63/98 29/9/99
f 29/9/99 15/63/98 30/10/100
s 26
f 8/73/101 7/74/102 31/11/103
f 31/11/103 7/74/102 32/12/104
s 27
f 2/75/105 8/76/106 26/17/107
f 26/17/107 8/76/106 31/18/108
s 28
f 15/66/109 16/65/110 30/19/111
f 30/19/111 16/65/110 27/20/112
s 29
f 7/77/113 1/78/114 32/21/115
f 32/21/115 1/78/114 25/22/116
s 30
f 13/58/117 14/57/118 28/23/119
f 28/23/119 14/57/118 29/24/120
s 31
f 10/60/121 9/59/122 34/25/123
f 34/25/123 9/59/122 33/26/124
s 32
f 41/79/125 42/80/126 44/82/127
f 44/82/127 42/80/126 43/81/128
s 33
f 42/83/129 45/84/130 43/86/131
f 43/86/131 45/84/130 46/85/132
s 34
f 11/62/133 10/61/134 38/31/135
f 38/31/135 10/61/134 34/32/136
s 35
f 12/68/137 11/67/138 39/33/139
f 39/33/139 11/67/138 38/34/140
s 36
f 45/87/141 47/88/142 46/90/143
f 46/90/143 47/88/142 48/89/144
s 37
f 9/72/145 12/71/146 33/37/147
f 33/37/147 12/71/146 39/38/148
s 38
f 47/91/149 41/92/150 48/94/151
f 48/94/151 41/92/150 44/93/152
s 39
f 3/5/153 5/8/154 41/79/155
f 41/79/155 5/8/154 42/80/156
s 40
f 36/28/157 35/27/158 43/81/159
f 43/81/159 35/27/158 44/82/160
s 41
f 5/8/161 6/7/162 42/83/163
f 42/83/163 6/7/162 45/84/164
s 42
f 37/30/165 36/29/166 46/85/167
f 46/85/167 36/29/166 43/86/168
s 43
f 6/7/169 4/6/170 45/87/171
f 45/87/171 4/6/170 47/88/172
s 44
f 40/36/173 37/35/174 48/89/175
f 48/89/175 37/35/174 46/90/176
s 45
f 4/6/177 3/5/178 47/91/179
f 47/91/179 3/5/178 41/92/180
s 46
f 35/40/181 40/39/182 44/93/183
f 44/93/183 40/39/182 48/94/184
g default
v -2.628474 0.058581 5.838233
v 2.564060 0.058581 5.838233
v -2.628474 1.281501 5.838233
v 2.564060 1.281501 5.838233
v -2.628474 1.281501 -5.880384
v 2.564060 1.281501 -5.880384
v -2.628474 0.058581 -5.880384
v 2.564060 0.058581 -5.880384
v -2.628474 1.102062 5.838233
v -2.628474 1.102062 -5.880384
v 2.564060 1.102062 -5.880384
v 2.564060 1.102062 5.838233
v -2.628474 0.238020 5.838233
v -2.628474 0.238020 -5.880384
v 2.564060 0.238020 -5.880384
v 2.564060 0.238020 5.838233
v -2.528474 0.238020 5.738234
v -2.528474 0.238020 -5.780386
v -2.528474 1.102062 5.738234
v -2.528474 1.102062 -5.780386
v 2.464060 1.102062 -5.780386
v 2.464060 0.238020 -5.780386
v 2.464060 0.238020 5.738234
v 2.464060 1.102062 5.738234
v -2.748473 0.058581 5.958233
v 2.684060 0.058581 5.958233
v 2.684060 0.238020 5.958233
v -2.748473 0.238020 5.958233
v -2.748473 0.238020 -6.000385
v 2.684060 0.238020 -6.000385
v 2.684060 0.058581 -6.000385
v -2.748473 0.058581 -6.000385
v -2.748473 1.102062 5.958233
v -2.748473 1.102062 -6.000385
v -2.748473 1.281501 5.958233
v -2.748473 1.281501 -6.000385
v 2.684060 1.281501 -6.000385
v 2.684060 1.102062 -6.000385
v 2.684060 1.102062 5.958233
v 2.684060 1.281501 5.958233
v -2.628474 1.481500 5.838233
v -2.628474 1.481500 -5.880386
v -2.748473 1.481500 -6.000385
v -2.748473 1.481500 5.958233
v 2.564060 1.481500 -5.880384
v 2.684060 1.481500 -6.000385
v 2.564060 1.481500 5.838234
v 2.684060 1.481500 5.958233
vt 0.601160 0.252060
vt 0.539280 0.436130
vt 0.532990 0.433750
vt 0.595490 0.249960
vt 0.531550 0.227800
vt 0.464570 0.403320
vt 0.078450 0.248870
vt 0.140620 0.077960
vt 0.073810 0.051270
vt 0.010470 0.229640
vt 0.004560 0.227300
vt 0.067640 0.049570
vt 0.998040 0.370000
vt 0.952310 0.546830
vt 0.544800 0.433790
vt 0.603640 0.257340
vt 0.433790 0.475110
vt 0.044280 0.317980
vt 0.046720 0.312090
vt 0.436710 0.469430
vt 0.163730 0.004470
vt 0.558320 0.154390
vt 0.556530 0.160530
vt 0.161470 0.010420
vt 0.145340 0.053480
vt 0.543030 0.205290
vt 0.541100 0.211440
vt 0.143140 0.059390
vt 0.124420 0.067740
vt 0.059700 0.247030
vt 0.053720 0.245010
vt 0.118340 0.065610
vt 0.457510 0.427640
vt 0.064850 0.269770
vt 0.067360 0.264000
vt 0.460320 0.421820
vt 0.554960 0.233510
vt 0.487180 0.416440
vt 0.480990 0.414060
vt 0.549320 0.231100
vt 0.165780 0.020400
vt 0.547240 0.165350
vt 0.538270 0.195020
vt 0.155120 0.048920
vt 0.108390 0.069950
vt 0.048890 0.235550
vt 0.020210 0.225450
vt 0.078870 0.060400
vt 0.433310 0.459660
vt 0.056680 0.307700
vt 0.068730 0.279640
vt 0.447020 0.431950
vt 0.586150 0.254530
vt 0.527730 0.423630
vt 0.497420 0.412200
vt 0.559240 0.243550
vt 0.163820 0.015860
vt 0.551470 0.163160
vt 0.540430 0.199690
vt 0.150680 0.050990
vt 0.112910 0.067980
vt 0.051090 0.239850
vt 0.015780 0.227380
vt 0.076580 0.056220
vt 0.434860 0.464100
vt 0.052150 0.309690
vt 0.066960 0.275160
vt 0.451790 0.430000
vt 0.590390 0.252450
vt 0.530120 0.428240
vt 0.492760 0.414130
vt 0.557300 0.238990
vt 0.001950 0.221920
vt 0.062170 0.052240
vt 0.428030 0.477380
vt 0.046440 0.323450
vt 0.169100 0.001950
vt 0.555670 0.148830
vt 0.533740 0.220930
vt 0.143080 0.071390
vt 0.140680 0.065970
vt 0.538940 0.218310
vt 0.133870 0.075440
vt 0.071770 0.246740
vt 0.066380 0.249250
vt 0.131190 0.070170
vt 0.075650 0.255260
vt 0.461470 0.409870
vt 0.463450 0.415310
vt 0.070160 0.257580
vt 0.471460 0.405940
vt 0.537800 0.230610
vt 0.543030 0.228370
vt 0.474120 0.411420
vn 0.000000 0.000000 1.000000
vn 0.000000 0.000000 1.000000
vn 0.000000 0.000000 1.000000
vn 0.000000 0.000000 1.000000
vn 0.000000 1.000000 0.000000
vn 0.000000 1.000000 0.000000
vn 0.000000 1.000000 0.000000
vn 0.000000 1.000000 0.000000
vn 0.000000 0.000000 -1.000000
vn 0.000000 0.000000 -1.000000
vn 0.000000 0.000000 -1.000000
vn 0.000000 0.000000 -1.000000
vn 0.000000 -1.000000 0.000000
vn 0.000000 -1.000000 0.000000
vn 0.000000 -1.000000 0.000000
vn 0.000000 -1.000000 0.000000
vn 1.000000 0.000000 0.000000
vn 1.000000 0.000000 0.000000
vn 1.000000 0.000000 0.000000
vn 1.000000 0.000000 0.000000
vn -1.000000 0.000000 0.000000
vn -1.000000 0.000000 0.000000
vn -1.000000 0.000000 0.000000
vn -1.000000 0.000000 0.000000
vn -1.000000 0.000000 0.000000
vn -1.000000 0.000000 0.000000
vn -1.000000 0.000000 0.000000
vn -1.000000 0.000000 0.000000
vn 0.000000 0.000000 -1.000000
vn 0.000000 0.000000 -1.000000
vn 0.000000 0.000000 -1.000000
vn 0.000000 0.000000 -1.000000
vn 1.000000 0.000000 0.000000
vn 1.000000 0.000000 0.000000
vn 1.000000 0.000000 0.000000
vn 1.000000 0.000000 0.000000
vn 0.000000 0.000000 1.000000
vn 0.000000 0.000000 1.000000
vn 0.000000 0.000000 1.000000
vn 0.000000 0.000000 1.000000
vn -1.000000 0.000000 0.000000
vn -1.000000 0.000000 0.000000
vn -1.000000 0.000000 0.000000
vn -1.000000 0.000000 0.000000
vn 0.000000 0.000000 -1.000000
vn 0.000000 0.000000 -1.000000
vn 0.000000 0.000000 -1.000000
vn 0.000000 0.000000 -1.000000
vn 1.000000 0.000000 0.000000
vn 1.000000 0.000000 0.000000
vn 1.000000 0.000000 0.000000
vn 1.000000 0.000000 0.000000
vn 0.000000 0.000000 1.000000
vn 0.000000 0.000000 1.000000
vn 0.000000 0.000000 1.000000
vn 0.000000 0.000000 1.000000
vn 0.000000 1.000000 0.000000
vn 0.000000 1.000000 0.000000
vn 0.000000 1.000000 0.000000
vn 0.000000 1.000000 0.000000
vn 0.000000 -1.000000 0.000000
vn 0.000000 -1.000000 0.000000
vn 0.000000 -1.000000 0.000000
vn 0.000000 -1.000000 0.000000
vn 0.000000 -1.000000 0.000004
vn 0.000000 -1.000000 -0.000002
vn 0.000000 -1.000000 0.000004
vn 0.000000 -1.000000 -0.000002
vn 0.000000 1.000000 -0.000000
vn 0.000000 1.000000 -0.000000
vn 0.000000 1.000000 -0.000000
vn 0.000000 1.000000 0.000000
vn 0.000000 1.000000 0.000000
vn 0.000000 1.000000 0.000000
vn 0.000000 1.000000 0.000000
vn 0.000000 1.000000 0.000000
vn 0.000000 -1.000000 0.000000
vn 0.000000 -1.000000 0.000000
vn 0.000000 -1.000000 0.000000
vn 0.000000 -1.000000 0.000000
vn 0.000000 1.000000 0.000001
vn 0.000000 1.000000 0.000000
vn 0.000000 1.000000 0.000001
vn 0.000000 1.000000 0.000000
vn 0.000000 -1.000000 -0.000001
vn 0.000000 -1.000000 -0.000000
vn 0.000000 -1.000000 -0.000001
vn 0.000000 -1.000000 0.000000
vn 0.000000 -1.000000 0.000000
vn 0.000000 -1.000000 0.000000
vn 0.000000 -1.000000 0.000000
vn 0.000000 -1.000000 0.000000
vn 0.000000 1.000000 -0.000000
vn 0.000000 1.000000 -0.000000
vn 0.000000 1.000000 -0.000000
vn 0.000000 1.000000 -0.000000
vn 0.000000 1.000000 0.000000
vn 0.000000 1.000000 0.000000
vn 0.000000 1.000000 0.000000
vn 0.000000 1.000000 0.000000
vn 0.000000 -1.000000 -0.000000
vn 0.000000 -1.000000 -0.000000
vn 0.000000 -1.000000 -0.000000
vn 0.000000 -1.000000 0.000000
vn 0.000000 -1.000000 0.000000
vn 0.000000 -1.000000 0.000000
vn 0.000000 -1.000000 0.000000
vn 0.000000 -1.000000 0.000000
vn 0.000000 1.000000 0.000000
vn 0.000000 1.000000 0.000000
vn 0.000000 1.000000 0.000000
vn 0.000000 1.000000 0.000000
vn 0.000000 -1.000000 0.000000
vn 0.000000 -1.000000 0.000000
vn 0.000000 -1.000000 0.000000
vn 0.000000 -1.000000 0.000000
vn 0.000000 1.000000 0.000000
vn 0.000000 1.000000 0.000000
vn 0.000000 1.000000 0.000000
vn 0.000000 1.000000 0.000000
vn 0.000000 -1.000000 0.000000
vn 0.000000 -1.000000 0.000000
vn 0.000000 -1.000000 0.000000
vn 0.000000 -1.000000 0.000000
vn 0.000000 1.000000 0.000000
vn 0.000000 1.000000 0.000000
vn 0.000000 1.000000 0.000000
vn 0.000000 1.000000 0.000000
vn 0.000000 1.000000 0.000001
vn 0.000000 1.000000 0.000003
vn 0.000000 1.000000 0.000001
vn 0.000000 1.000000 0.000003
vn 0.000000 -1.000000 -0.000001
vn 0.000000 -1.000000 -0.000001
vn 0.000000 -1.000000 -0.000001
vn 0.000000 -1.000000 -0.000001
vn 0.000000 -1.000000 0.000000
vn 0.000000 -1.000000 0.000000
vn 0.000000 -1.000000 0.000000
vn 0.000000 -1.000000 0.000000
vn 0.000000 1.000000 0.000000
vn 0.000000 1.000000 0.000000
vn 0.000000 1.000000 0.000000
vn 0.000000 1.000000 0.000000
vn 0.000000 -1.000000 0.000001
vn 0.000000 -1.000000 0.000001
vn 0.000000 -1.000000 0.000001
vn 0.000000 -1.000000 0.000001
vn 0.000000 1.000000 -0.000001
vn 0.000000 1.000000 -0.000003
vn 0.000000 1.000000 -0.000001
vn 0.000000 1.000000 -0.000003
vn 1.000000 0.000000 0.000000
vn 1.000000 -0.000002 0.000000
vn 1.000000 -0.000000 0.000000
vn 1.000000 -0.000002 0.000000
vn -1.000000 0.000000 0.000000
vn -1.000000 0.000000 0.000000
vn -1.000000 0.000000 0.000000
vn -1.000000 0.000000 0.000000
vn 0.000000 0.000007 1.000000
vn -0.000000 0.000000 1.000000
vn -0.000000 0.000007 1.000000
vn -0.000000 0.000000 1.000000
vn 0.000000 0.000000 -1.000000
vn 0.000000 0.000000 -1.000000
vn 0.000000 0.000000 -1.000000
vn 0.000000 0.000000 -1.000000
vn -1.000000 0.000000 0.000000
vn -1.000000 -0.000002 0.000000
vn -1.000000 -0.000000 0.000000
vn -1.000000 -0.000002 0.000000
vn 1.000000 0.000000 0.000000
vn 1.000000 0.000000 0.000000
vn 1.000000 0.000000 0.000000
vn 1.000000 0.000000 0.000000
vn 0.000000 0.000005 -1.000000
vn 0.000000 0.000000 -1.000000
vn 0.000000 0.000005 -1.000000
vn 0.000000 0.000000 -1.000000
vn 0.000000 0.000000 1.000000
vn 0.000000 0.000000 1.000000
vn 0.000000 0.000000 1.000000
vn 0.000000 0.000000 1.000000
s 1
g Stand:Group2
f 73/95/185 74/96/186 76/98/187
f 76/98/187 74/96/186 75/97/188
s 2
f 51/99/189 52/100/190 53/102/191
f 53/102/191 52/100/190 54/101/192
s 3
f 77/103/193 78/104/194 80/106/195
f 80/106/195 78/104/194 79/105/196
s 4
f 55/107/197 56/108/198 49/110/199
f 49/110/199 56/108/198 50/109/200
s 5
f 74/111/201 79/112/202 75/114/203
f 75/114/203 79/112/202 78/113/204
s 6
f 80/115/205 73/116/206 77/118/207
f 77/118/207 73/116/206 76/117/208
s 7
f 82/119/209 81/120/210 84/122/211
f 84/122/211 81/120/210 83/121/212
s 8
f 84/123/213 85/124/214 82/126/215
f 82/126/215 85/124/214 86/125/216
s 9
f 87/127/217 86/128/218 88/130/219
f 88/130/219 86/128/218 85/129/220
s 10
f 81/131/221 87/132/222 83/134/223
f 83/134/223 87/132/222 88/133/224
s 11
f 66/135/225 65/136/226 68/138/227
f 68/138/227 65/136/226 67/137/228
s 12
f 68/139/229 69/140/230 66/142/231
f 66/142/231 69/140/230 70/141/232
s 13
f 71/143/233 70/144/234 72/146/235
f 72/146/235 70/144/234 69/145/236
s 14
f 65/147/237 71/148/238 67/150/239
f 67/150/239 71/148/238 72/149/240
s 15
f 62/151/241 61/152/242 66/135/243
f 66/135/243 61/152/242 65/136/244
s 16
f 57/153/245 58/154/246 67/137/247
f 67/137/247 58/154/246 68/138/248
s 17
f 58/155/249 59/156/250 68/139/251
f 68/139/251 59/156/250 69/140/252
s 18
f 63/157/253 62/158/254 70/141/255
f 70/141/255 62/158/254 66/142/256
s 19
f 64/159/257 63/160/258 71/143/259
f 71/143/259 63/160/258 70/144/260
s 20
f 59/161/261 60/162/262 69/145/263
f 69/145/263 60/162/262 72/146/264
s 21
f 61/163/265 64/164/266 65/147/267
f 65/147/267 64/164/266 71/148/268
s 22
f 60/165/269 57/166/270 72/149/271
f 72/149/271 57/166/270 67/150/272
s 23
f 49/110/273 50/109/274 73/95/275
f 73/95/275 50/109/274 74/96/276
s 24
f 64/164/277 61/163/278 75/97/279
f 75/97/279 61/163/278 76/98/280
s 25
f 62/158/281 63/157/282 77/103/283
f 77/103/283 63/157/282 78/104/284
s 26
f 56/167/285 55/168/286 79/105/287
f 79/105/287 55/168/286 80/106/288
s 27
f 50/169/289 56/170/290 74/111/291
f 74/111/291 56/170/290 79/112/292
s 28
f 63/160/293 64/159/294 78/113/295
f 78/113/295 64/159/294 75/114/296
s 29
f 55/171/297 49/172/298 80/115/299
f 80/115/299 49/172/298 73/116/300
s 30
f 61/152/301 62/151/302 76/117/303
f 76/117/303 62/151/302 77/118/304
s 31
f 58/154/305 57/153/306 82/119/307
f 82/119/307 57/153/306 81/120/308
s 32
f 89/173/309 90/174/310 92/176/311
f 92/176/311 90/174/310 91/175/312
s 33
f 90/177/313 93/178/314 91/180/315
f 91/180/315 93/178/314 94/179/316
s 34
f 59/156/317 58/155/318 86/125/319
f 86/125/319 58/155/318 82/126/320
s 35
f 60/162/321 59/161/322 87/127/323
f 87/127/323 59/161/322 86/128/324
s 36
f 93/181/325 95/182/326 94/184/327
f 94/184/327 95/182/326 96/183/328
s 37
f 57/166/329 60/165/330 81/131/331
f 81/131/331 60/165/330 87/132/332
s 38
f 95/185/333 89/186/334 96/188/335
f 96/188/335 89/186/334 92/187/336
s 39
f 51/99/337 53/102/338 89/173/339
f 89/173/339 53/102/338 90/174/340
s 40
f 84/122/341 83/121/342 91/175/343
f 91/175/343 83/121/342 92/176/344
s 41
f 53/102/345 54/101/346 90/177/347
f 90/177/347 54/101/346 93/178/348
s 42
f 85/124/349 84/123/350 94/179/351
f 94/179/351 84/123/350 91/180/352
s 43
f 54/101/353 52/100/354 93/181/355
f 93/181/355 52/100/354 95/182/356
s 44
f 88/130/357 85/129/358 96/183/359
f 96/183/359 85/129/358 94/184/360
s 45
f 52/100/361 51/99/362 95/185/363
f 95/185/363 51/99/362 89/186/364
s 46
f 83/134/365 88/133/366 92/187/367
f 92/187/367 88/133/366 96/188/368
