# This file uses meters as units for non-parametric coordinates.

mtllib Ice Age Piece 4.mtl
g default
v -240.000015 174.407516 0.000000
v -159.999985 174.407516 0.000000
v -240.000015 214.407516 0.000000
v -159.999985 214.407516 0.000000
v -79.999992 174.407516 0.000000
v -79.999992 214.407516 0.000000
v 0.000000 174.407516 0.000000
v 0.000000 214.407516 0.000000
v 80.000015 174.407516 0.000000
v 80.000015 214.407516 0.000000
v 159.999985 174.407516 0.000000
v 159.999985 214.407516 0.000000
v 240.000015 174.407516 0.000000
v 240.000015 214.407516 0.000000
v -320.000000 254.407516 0.000000
v -240.000015 254.407516 0.000000
v -159.999985 254.407516 0.000000
v -79.999992 254.407516 0.000000
v 0.000000 254.407516 0.000000
v -320.000000 294.407501 0.000000
v -240.000015 294.407501 0.000000
v -159.999985 294.407501 0.000000
v -79.999992 294.407501 0.000000
vt 0.200000 0.197398
vt 0.300000 0.197398
vt 0.200000 0.257918
vt 0.300000 0.257918
vt 0.400000 0.197398
vt 0.400000 0.257918
vt 0.500000 0.197398
vt 0.500000 0.257918
vt 0.600000 0.197398
vt 0.600000 0.257918
vt 0.700000 0.197398
vt 0.700000 0.257918
vt 0.800000 0.197398
vt 0.800000 0.257918
vt 0.100000 0.318439
vt 0.200000 0.318439
vt 0.300000 0.318439
vt 0.400000 0.318439
vt 0.500000 0.318439
vt 0.100000 0.378959
vt 0.200000 0.378959
vt 0.300000 0.378959
vt 0.400000 0.378959
vn 0.000000 0.000000 1.000000
vn 0.000000 0.000000 1.000000
vn 0.000000 0.000000 1.000000
vn 0.000000 0.000000 1.000000
vn 0.000000 0.000000 1.000000
vn 0.000000 0.000000 1.000000
vn 0.000000 0.000000 1.000000
vn 0.000000 0.000000 1.000000
vn 0.000000 0.000000 1.000000
vn 0.000000 0.000000 1.000000
vn 0.000000 0.000000 1.000000
vn 0.000000 0.000000 1.000000
vn 0.000000 0.000000 1.000000
vn 0.000000 0.000000 1.000000
vn 0.000000 0.000000 1.000000
vn 0.000000 0.000000 1.000000
vn 0.000000 0.000000 1.000000
vn 0.000000 0.000000 1.000000
vn 0.000000 0.000000 1.000000
vn 0.000000 0.000000 1.000000
vn 0.000000 0.000000 1.000000
vn 0.000000 0.000000 1.000000
vn 0.000000 0.000000 1.000000
s 1
g Ice_Age_Piece_4 Ice_Age_Piece
usemtl lambert2SG
f 1/1/1 2/2/2 3/3/3
f 3/3/3 2/2/2 4/4/4
f 2/2/2 5/5/5 4/4/4
f 4/4/4 5/5/5 6/6/6
f 5/5/5 7/7/7 6/6/6
f 6/6/6 7/7/7 8/8/8
f 7/7/7 9/9/9 8/8/8
f 8/8/8 9/9/9 10/10/10
f 9/9/9 11/11/11 10/10/10
f 10/10/10 11/11/11 12/12/12
f 11/11/11 13/13/13 12/12/12
f 12/12/12 13/13/13 14/14/14
f 15/15/15 3/3/3 16/16/16
f 3/3/3 4/4/4 16/16/16
f 16/16/16 4/4/4 17/17/17
f 4/4/4 6/6/6 17/17/17
f 17/17/17 6/6/6 18/18/18
f 6/6/6 8/8/8 18/18/18
f 18/18/18 8/8/8 19/19/19
f 8/8/8 10/10/10 19/19/19
f 15/15/15 16/16/16 20/20/20
f 20/20/20 16/16/16 21/21/21
f 16/16/16 17/17/17 21/21/21
f 21/21/21 17/17/17 22/22/22
f 17/17/17 18/18/18 22/22/22
f 22/22/22 18/18/18 23/23/23
f 18/18/18 19/19/19 23/23/23
