# This file uses meters as units for non-parametric coordinates.

mtllib Ice Age Piece 7.mtl
g default
v -400.000000 174.407516 0.000000
v -320.000000 174.407516 0.000000
v -400.000000 214.407516 0.000000
v -320.000000 214.407516 0.000000
v -240.000015 174.407516 0.000000
v -240.000015 214.407516 0.000000
v -400.000000 254.407516 0.000000
v -320.000000 254.407516 0.000000
v -400.000000 294.407501 0.000000
v -320.000000 294.407501 0.000000
v -400.000000 334.407501 0.000000
v -320.000000 334.407501 0.000000
v -240.000015 294.407501 0.000000
v -240.000015 334.407501 0.000000
v -159.999985 294.407501 0.000000
v -159.999985 334.407501 0.000000
v -79.999992 294.407501 0.000000
v -79.999992 334.407501 0.000000
v -400.000000 374.407501 0.000000
v -320.000000 374.407501 0.000000
v -240.000015 374.407501 0.000000
v -159.999985 374.407501 0.000000
v -400.000000 414.407501 0.000000
v -320.000000 414.407501 0.000000
v -400.000000 454.407501 0.000000
v -320.000000 454.407501 0.000000
v -400.000000 494.407501 0.000000
vt 0.000000 0.197398
vt 0.100000 0.197398
vt 0.000000 0.257918
vt 0.100000 0.257918
vt 0.200000 0.197398
vt 0.200000 0.257918
vt 0.000000 0.318439
vt 0.100000 0.318439
vt 0.000000 0.378959
vt 0.100000 0.378959
vt 0.000000 0.439480
vt 0.100000 0.439480
vt 0.200000 0.378959
vt 0.200000 0.439480
vt 0.300000 0.378959
vt 0.300000 0.439480
vt 0.400000 0.378959
vt 0.400000 0.439480
vt 0.000000 0.500000
vt 0.100000 0.500000
vt 0.200000 0.500000
vt 0.300000 0.500000
vt 0.000000 0.560520
vt 0.100000 0.560520
vt 0.000000 0.621041
vt 0.100000 0.621041
vt 0.000000 0.681561
vn 0.000000 0.000000 1.000000
vn 0.000000 0.000000 1.000000
vn 0.000000 0.000000 1.000000
vn 0.000000 0.000000 1.000000
vn 0.000000 0.000000 1.000000
vn 0.000000 0.000000 1.000000
vn 0.000000 0.000000 1.000000
vn 0.000000 0.000000 1.000000
vn 0.000000 0.000000 1.000000
vn 0.000000 0.000000 1.000000
vn 0.000000 0.000000 1.000000
vn 0.000000 0.000000 1.000000
vn 0.000000 0.000000 1.000000
vn 0.000000 0.000000 1.000000
vn 0.000000 0.000000 1.000000
vn 0.000000 0.000000 1.000000
vn 0.000000 0.000000 1.000000
vn 0.000000 0.000000 1.000000
vn 0.000000 0.000000 1.000000
vn 0.000000 0.000000 1.000000
vn 0.000000 0.000000 1.000000
vn 0.000000 0.000000 1.000000
vn 0.000000 0.000000 1.000000
vn 0.000000 0.000000 1.000000
vn 0.000000 0.000000 1.000000
vn 0.000000 0.000000 1.000000
vn 0.000000 0.000000 1.000000
s 1
g Ice_Age_Piece_7 Ice_Age_Piece
usemtl lambert2SG
f 1/1/1 2/2/2 3/3/3
f 3/3/3 2/2/2 4/4/4
f 2/2/2 5/5/5 4/4/4
f 4/4/4 5/5/5 6/6/6
f 3/3/3 4/4/4 7/7/7
f 7/7/7 4/4/4 8/8/8
f 4/4/4 6/6/6 8/8/8
f 7/7/7 8/8/8 9/9/9
f 9/9/9 8/8/8 10/10/10
f 9/9/9 10/10/10 11/11/11
f 11/11/11 10/10/10 12/12/12
f 10/10/10 13/13/13 12/12/12
f 12/12/12 13/13/13 14/14/14
f 13/13/13 15/15/15 14/14/14
f 14/14/14 15/15/15 16/16/16
f 15/15/15 17/17/17 16/16/16
f 16/16/16 17/17/17 18/18/18
f 11/11/11 12/12/12 19/19/19
f 19/19/19 12/12/12 20/20/20
f 12/12/12 14/14/14 20/20/20
f 20/20/20 14/14/14 21/21/21
f 14/14/14 16/16/16 21/21/21
f 21/21/21 16/16/16 22/22/22
f 16/16/16 18/18/18 22/22/22
f 19/19/19 20/20/20 23/23/23
f 23/23/23 20/20/20 24/24/24
f 20/20/20 21/21/21 24/24/24
f 23/23/23 24/24/24 25/25/25
f 25/25/25 24/24/24 26/26/26
f 25/25/25 26/26/26 27/27/27
