# This file uses meters as units for non-parametric coordinates.

mtllib Last_Supper_6.mtl
g default
v 39.999969 -60.000000 0.000000
v 120.000000 -99.999985 0.000000
v 120.000000 -60.000000 0.000000
v 200.000015 -99.999985 0.000000
v 200.000015 -60.000000 0.000000
v 39.999969 -20.000000 0.000000
v 120.000000 -20.000000 0.000000
v 200.000015 -20.000000 0.000000
v -40.000000 20.000000 0.000000
v 39.999969 20.000000 0.000000
v 120.000000 20.000000 0.000000
v -120.000015 60.000000 0.000000
v -40.000000 60.000000 0.000000
v 39.999969 60.000000 0.000000
v -200.000000 100.000000 0.000000
v -120.000015 100.000000 0.000000
v -40.000000 100.000000 0.000000
vt 0.700000 0.378959
vt 0.800000 0.318439
vt 0.800000 0.378959
vt 0.900000 0.318439
vt 0.900000 0.378959
vt 0.700000 0.439480
vt 0.800000 0.439480
vt 0.900000 0.439480
vt 0.600000 0.500000
vt 0.700000 0.500000
vt 0.800000 0.500000
vt 0.500000 0.560520
vt 0.600000 0.560520
vt 0.700000 0.560520
vt 0.400000 0.621041
vt 0.500000 0.621041
vt 0.600000 0.621041
vn 0.000000 0.000000 1.000000
vn 0.000000 0.000000 1.000000
vn 0.000000 0.000000 1.000000
vn 0.000000 0.000000 1.000000
vn 0.000000 0.000000 1.000000
vn 0.000000 0.000000 1.000000
vn 0.000000 0.000000 1.000000
vn 0.000000 0.000000 1.000000
vn 0.000000 0.000000 1.000000
vn 0.000000 0.000000 1.000000
vn 0.000000 0.000000 1.000000
vn 0.000000 0.000000 1.000000
vn 0.000000 0.000000 1.000000
vn 0.000000 0.000000 1.000000
vn 0.000000 0.000000 1.000000
vn 0.000000 0.000000 1.000000
vn 0.000000 0.000000 1.000000
s 1
g L_Supper_Piece_6
usemtl lambert23SG
f 1/1/1 2/2/2 3/3/3
f 2/2/2 4/4/4 3/3/3
f 3/3/3 4/4/4 5/5/5
f 1/1/1 3/3/3 6/6/6
f 6/6/6 3/3/3 7/7/7
f 3/3/3 5/5/5 7/7/7
f 7/7/7 5/5/5 8/8/8
f 9/9/9 6/6/6 10/10/10
f 6/6/6 7/7/7 10/10/10
f 10/10/10 7/7/7 11/11/11
f 7/7/7 8/8/8 11/11/11
f 12/12/12 9/9/9 13/13/13
f 9/9/9 10/10/10 13/13/13
f 13/13/13 10/10/10 14/14/14
f 10/10/10 11/11/11 14/14/14
f 15/15/15 12/12/12 16/16/16
f 12/12/12 13/13/13 16/16/16
f 16/16/16 13/13/13 17/17/17
f 13/13/13 14/14/14 17/17/17
