# This file uses meters as units for non-parametric coordinates.

mtllib Last_Supper_8.mtl
g default
v -80.000000 -20.000031 0.000000
v -0.000015 -60.000031 0.000000
v -0.000015 -20.000031 0.000000
v 80.000015 -60.000031 0.000000
v 80.000015 -20.000031 0.000000
v 160.000000 -60.000031 0.000000
v 160.000000 -20.000031 0.000000
v -160.000000 20.000000 0.000000
v -80.000000 20.000000 0.000000
v -0.000015 20.000000 0.000000
v 80.000015 20.000000 0.000000
v -160.000000 60.000000 0.000000
v -80.000000 60.000000 0.000000
v -0.000015 60.000000 0.000000
vt 0.100000 0.681561
vt 0.200000 0.621041
vt 0.200000 0.681561
vt 0.300000 0.621041
vt 0.300000 0.681561
vt 0.400000 0.621041
vt 0.400000 0.681561
vt 0.000000 0.742082
vt 0.100000 0.742082
vt 0.200000 0.742082
vt 0.300000 0.742082
vt 0.000000 0.802602
vt 0.100000 0.802602
vt 0.200000 0.802602
vn 0.000000 0.000000 1.000000
vn 0.000000 0.000000 1.000000
vn 0.000000 0.000000 1.000000
vn 0.000000 0.000000 1.000000
vn 0.000000 0.000000 1.000000
vn 0.000000 0.000000 1.000000
vn 0.000000 0.000000 1.000000
vn 0.000000 0.000000 1.000000
vn 0.000000 0.000000 1.000000
vn 0.000000 0.000000 1.000000
vn 0.000000 0.000000 1.000000
vn 0.000000 0.000000 1.000000
vn 0.000000 0.000000 1.000000
vn 0.000000 0.000000 1.000000
s 1
g L_Supper_Piece_8
usemtl lambert23SG
f 1/1/1 2/2/2 3/3/3
f 2/2/2 4/4/4 3/3/3
f 3/3/3 4/4/4 5/5/5
f 4/4/4 6/6/6 5/5/5
f 5/5/5 6/6/6 7/7/7
f 8/8/8 1/1/1 9/9/9
f 1/1/1 3/3/3 9/9/9
f 9/9/9 3/3/3 10/10/10
f 3/3/3 5/5/5 10/10/10
f 10/10/10 5/5/5 11/11/11
f 5/5/5 7/7/7 11/11/11
f 8/8/8 9/9/9 12/12/12
f 12/12/12 9/9/9 13/13/13
f 9/9/9 10/10/10 13/13/13
f 13/13/13 10/10/10 14/14/14
f 10/10/10 11/11/11 14/14/14
