# This file uses meters as units for non-parametric coordinates.

mtllib Last_Supper_5.mtl
g default
v -0.000015 -40.000000 0.000000
v 80.000015 -79.999985 0.000000
v 80.000015 -40.000000 0.000000
v 160.000000 -79.999985 0.000000
v 160.000000 -40.000000 0.000000
v -160.000000 0.000000 0.000000
v -80.000000 -40.000000 0.000000
v -80.000000 0.000000 0.000000
v -0.000015 0.000000 0.000000
v 80.000015 0.000000 0.000000
v -160.000000 40.000000 0.000000
v -80.000000 40.000000 0.000000
v -0.000015 40.000000 0.000000
v -160.000000 80.000000 0.000000
vt 0.200000 0.378959
vt 0.300000 0.318439
vt 0.300000 0.378959
vt 0.400000 0.318439
vt 0.400000 0.378959
vt 0.000000 0.439480
vt 0.100000 0.378959
vt 0.100000 0.439480
vt 0.200000 0.439480
vt 0.300000 0.439480
vt 0.000000 0.500000
vt 0.100000 0.500000
vt 0.200000 0.500000
vt 0.000000 0.560520
vn 0.000000 0.000000 1.000000
vn 0.000000 0.000000 1.000000
vn 0.000000 0.000000 1.000000
vn 0.000000 0.000000 1.000000
vn 0.000000 0.000000 1.000000
vn 0.000000 0.000000 1.000000
vn 0.000000 0.000000 1.000000
vn 0.000000 0.000000 1.000000
vn 0.000000 0.000000 1.000000
vn 0.000000 0.000000 1.000000
vn 0.000000 0.000000 1.000000
vn 0.000000 0.000000 1.000000
vn 0.000000 0.000000 1.000000
vn 0.000000 0.000000 1.000000
s 1
g L_Supper_Piece_5
usemtl lambert23SG
f 1/1/1 2/2/2 3/3/3
f 2/2/2 4/4/4 3/3/3
f 3/3/3 4/4/4 5/5/5
f 6/6/6 7/7/7 8/8/8
f 7/7/7 1/1/1 8/8/8
f 8/8/8 1/1/1 9/9/9
f 1/1/1 3/3/3 9/9/9
f 9/9/9 3/3/3 10/10/10
f 3/3/3 5/5/5 10/10/10
f 6/6/6 8/8/8 11/11/11
f 11/11/11 8/8/8 12/12/12
f 8/8/8 9/9/9 12/12/12
f 12/12/12 9/9/9 13/13/13
f 9/9/9 10/10/10 13/13/13
f 11/11/11 12/12/12 14/14/14
