# This file uses centimeters as units for non-parametric coordinates.

mtllib Plaque Evolution of Man.mtl
g default
v 2.000050 0.193080 0.050000
v 2.500000 0.693030 0.050000
v 2.000050 0.193080 -0.050000
v 2.500000 0.693030 -0.050000
v 2.000050 2.193079 0.050000
v 2.500000 1.693130 0.050000
v 2.000050 2.193079 -0.050000
v 2.500000 1.693130 -0.050000
v -2.500000 1.693130 0.050000
v -2.000050 2.193079 0.050000
v -2.500000 1.693130 -0.050000
v -2.000050 2.193079 -0.050000
v -2.000050 0.193080 0.050000
v -2.500000 0.693030 0.050000
v -2.000050 0.193080 -0.050000
v -2.500000 0.693030 -0.050000
v -1.917389 0.285604 0.050000
v -2.396676 0.739296 0.050000
v 1.917389 0.285604 0.050000
v 2.396676 0.739296 0.050000
v 2.396676 1.646863 0.050000
v 1.917389 2.100555 0.050000
v -1.917389 2.100555 0.050000
v -2.396676 1.646863 0.050000
v -1.886837 0.351733 0.050000
v -2.358488 0.772364 0.050000
v 1.886837 0.351733 0.050000
v 2.358488 0.772364 0.050000
v 2.358488 1.613795 0.050000
v 1.886837 2.034426 0.050000
v -1.886837 2.034426 0.050000
v -2.358488 1.613795 0.050000
v -1.917389 0.285604 0.083534
v -2.396676 0.739296 0.083534
v -1.886837 0.351733 0.083534
v -2.358488 0.772364 0.083534
v 1.917389 0.285604 0.083534
v 1.886837 0.351733 0.083534
v 2.396676 0.739296 0.083534
v 2.358488 0.772364 0.083534
v 2.396676 1.646863 0.083534
v 2.358488 1.613795 0.083534
v 1.917389 2.100555 0.083534
v 1.886837 2.034426 0.083534
v -1.917389 2.100555 0.083534
v -1.886837 2.034426 0.083534
v -2.396676 1.646863 0.083534
v -2.358488 1.613795 0.083534
vt 0.225869 0.523675
vt 0.225869 0.306364
vt 0.293770 0.550836
vt 0.293770 0.279203
vt 0.429600 0.550836
vt 0.429600 0.279203
vt 0.497501 0.306364
vt 0.497501 0.523675
vt 0.894432 0.261494
vt 0.124508 0.260797
vt 0.990642 0.198278
vt 0.028261 0.197406
vt 0.990604 0.071647
vt 0.028223 0.070775
vt 0.124433 0.007559
vt 0.894356 0.008256
vt 0.748990 0.552823
vt 0.744499 0.540257
vt 0.776151 0.484921
vt 0.531679 0.552823
vt 0.770537 0.478638
vt 0.536169 0.540257
vt 0.770537 0.355375
vt 0.504518 0.484921
vt 0.776151 0.349092
vt 0.510131 0.478638
vt 0.744499 0.293757
vt 0.504518 0.349092
vt 0.748990 0.281190
vt 0.510131 0.355375
vt 0.536169 0.293757
vt 0.531679 0.281190
vt 0.169410 0.789321
vt 0.178392 0.787661
vt 0.231029 0.815359
vt 0.169410 0.580991
vt 0.235520 0.813284
vt 0.178392 0.582651
vt 0.349800 0.813284
vt 0.231029 0.554953
vt 0.354291 0.815359
vt 0.235520 0.557028
vt 0.406929 0.787661
vt 0.354291 0.554953
vt 0.415910 0.789321
vt 0.349800 0.557028
vt 0.406929 0.582651
vt 0.415910 0.580991
vt 0.824762 0.485498
vt 0.824762 0.312727
vt 0.962982 0.485498
vt 0.962982 0.312727
vt 0.001856 0.551388
vt 0.001856 0.279756
vt 0.219167 0.551388
vt 0.219167 0.279756
vt 0.621103 0.559832
vt 0.621103 0.768162
vt 0.530015 0.559832
vt 0.530015 0.768162
vt 0.513650 0.790447
vt 0.513650 0.995458
vt 0.422562 0.790447
vt 0.422562 0.995458
vt 0.621103 0.774895
vt 0.621103 0.983225
vt 0.530015 0.774895
vt 0.530015 0.983225
vt 0.092944 0.792998
vt 0.092944 0.998008
vt 0.001856 0.792998
vt 0.001856 0.998008
vt 0.846535 0.717438
vt 0.846535 0.538964
vt 0.935781 0.717438
vt 0.801921 0.717438
vt 0.935781 0.538964
vt 0.801921 0.538964
vt 0.980395 0.538964
vt 0.980395 0.717438
vt 0.965032 0.912342
vt 0.752336 0.912342
vt 0.965032 0.805984
vt 0.965032 0.965511
vt 0.752336 0.805984
vt 0.752336 0.965511
vt 0.752336 0.752815
vt 0.965032 0.752815
vt 0.290786 0.901932
vt 0.352404 0.901946
vt 0.290765 0.993020
vt 0.352384 0.993034
vt 0.167503 0.992992
vt 0.167524 0.901904
vt 0.105884 0.992978
vt 0.105905 0.901889
vt 0.522757 0.556324
vt 0.522757 0.613452
vt 0.431668 0.556324
vt 0.431668 0.613452
vt 0.522757 0.727732
vt 0.431668 0.727732
vt 0.522757 0.784861
vt 0.431668 0.784861
vt 0.722253 0.730176
vt 0.722253 0.791795
vt 0.631164 0.730176
vt 0.631164 0.791795
vt 0.722253 0.915057
vt 0.631164 0.915057
vt 0.722253 0.976676
vt 0.631164 0.976676
vt 0.092944 0.729724
vt 0.092944 0.786853
vt 0.001856 0.729724
vt 0.001856 0.786853
vt 0.001856 0.615444
vt 0.092944 0.615444
vt 0.001856 0.558316
vt 0.092944 0.558316
vn 1.000000 0.000000 0.000000
vn 1.000000 0.000000 0.000000
vn 1.000000 0.000000 0.000000
vn 1.000000 0.000000 0.000000
vn 0.000000 1.000000 0.000000
vn 0.000000 1.000000 0.000000
vn 0.000000 1.000000 0.000000
vn 0.000000 1.000000 0.000000
vn -1.000000 0.000000 0.000000
vn -1.000000 0.000000 0.000000
vn -1.000000 0.000000 0.000000
vn -1.000000 0.000000 0.000000
vn 0.000000 -1.000000 0.000000
vn 0.000000 -1.000000 0.000000
vn 0.000000 -1.000000 0.000000
vn 0.000000 -1.000000 0.000000
vn 0.000000 0.000000 -1.000000
vn 0.000000 0.000000 -1.000000
vn 0.000000 0.000000 -1.000000
vn 0.000000 0.000000 -1.000000
vn 0.000000 0.000000 -1.000000
vn 0.000000 0.000000 -1.000000
vn 0.000000 0.000000 -1.000000
vn 0.000000 0.000000 -1.000000
vn 0.000000 0.000000 1.000000
vn 0.000000 0.000000 1.000000
vn 0.000000 0.000000 1.000000
vn 0.000000 0.000000 1.000000
vn 0.000000 0.000000 1.000000
vn 0.000000 0.000000 1.000000
vn 0.000000 0.000000 1.000000
vn 0.000000 0.000000 1.000000
vn 0.707107 -0.707107 0.000000
vn 0.707107 -0.707107 0.000000
vn 0.707107 -0.707107 0.000000
vn 0.707107 -0.707107 0.000000
vn 0.707107 0.707107 0.000000
vn 0.707107 0.707107 0.000000
vn 0.707107 0.707107 0.000000
vn 0.707107 0.707107 0.000000
vn -0.707107 0.707107 0.000000
vn -0.707107 0.707107 0.000000
vn -0.707107 0.707107 0.000000
vn -0.707107 0.707107 0.000000
vn -0.707107 -0.707107 0.000000
vn -0.707107 -0.707107 0.000000
vn -0.707107 -0.707107 0.000000
vn -0.707107 -0.707107 0.000000
vn 0.000000 0.000000 1.000000
vn 0.000000 0.000000 1.000000
vn 0.000000 0.000000 1.000000
vn 0.000000 0.000000 1.000000
vn 0.000000 0.000000 1.000000
vn 0.000000 0.000000 1.000000
vn 0.000000 0.000000 1.000000
vn 0.000000 0.000000 1.000000
vn 0.000000 0.000000 1.000000
vn 0.000000 0.000000 1.000000
vn 0.000000 0.000000 1.000000
vn 0.000000 0.000000 1.000000
vn -0.000000 0.000000 1.000000
vn -0.000000 0.000000 1.000000
vn -0.000000 0.000000 1.000000
vn 0.000000 0.000000 1.000000
vn 0.000000 0.000000 1.000000
vn 0.000000 0.000000 1.000000
vn 0.000000 0.000000 1.000000
vn 0.000000 0.000000 1.000000
vn 0.000000 0.000000 1.000000
vn 0.000000 0.000000 1.000000
vn 0.000000 0.000000 1.000000
vn 0.000000 0.000000 1.000000
vn -0.000000 0.000000 1.000000
vn 0.000000 -0.000000 1.000000
vn 0.000000 -0.000000 1.000000
vn 0.000000 -0.000000 1.000000
vn 0.000000 0.000000 1.000000
vn 0.000000 0.000000 1.000000
vn 0.000000 0.000000 1.000000
vn 0.000000 0.000000 1.000000
vn 0.000000 -0.000000 1.000000
vn 0.000000 -0.000000 1.000000
vn 0.000001 0.000000 1.000000
vn 0.000001 0.000000 1.000000
vn 0.000000 0.000000 1.000000
vn 0.000000 0.000000 1.000000
vn 0.000000 0.000000 1.000000
vn 0.000000 0.000000 1.000000
vn 0.000000 0.000000 1.000000
vn 0.000000 0.000000 1.000000
vn 0.000000 0.000000 1.000000
vn 0.000000 0.000000 1.000000
vn 0.000000 0.000000 1.000000
vn 0.000000 0.000000 1.000000
vn 0.000000 0.000000 1.000000
vn 0.000000 0.000000 1.000000
vn -0.000000 0.000000 1.000000
vn -0.000000 0.000000 1.000000
vn 0.000000 0.000000 1.000000
vn 0.000000 0.000000 1.000000
vn 0.000000 0.000000 1.000000
vn 0.000000 0.000000 1.000000
vn 0.000000 0.000000 1.000000
vn 0.000000 0.000000 1.000000
vn 0.000000 0.000000 1.000000
vn 0.000000 -0.000000 1.000000
vn 0.000000 0.000000 1.000000
vn 0.000000 -0.000000 1.000000
vn 0.000001 0.000000 1.000000
vn 0.000001 0.000000 1.000000
vn 0.000001 0.000000 1.000000
vn 0.000001 0.000000 1.000000
vn -0.687450 -0.726232 0.000000
vn -0.687450 -0.726232 0.000000
vn -0.687450 -0.726232 0.000000
vn -0.687450 -0.726232 0.000000
vn 0.665588 0.746319 0.000000
vn 0.665588 0.746319 0.000000
vn 0.665588 0.746319 0.000000
vn 0.665588 0.746319 0.000000
vn 0.000000 -1.000000 0.000000
vn 0.000000 -1.000000 0.000000
vn 0.000000 -1.000000 0.000000
vn 0.000000 -1.000000 0.000000
vn 0.000000 1.000000 0.000000
vn 0.000000 1.000000 0.000000
vn 0.000000 1.000000 0.000000
vn 0.000000 1.000000 0.000000
vn 0.687450 -0.726232 0.000000
vn 0.687450 -0.726232 0.000000
vn 0.687450 -0.726232 0.000000
vn 0.687450 -0.726232 0.000000
vn -0.665588 0.746319 0.000000
vn -0.665588 0.746319 0.000000
vn -0.665588 0.746319 0.000000
vn -0.665588 0.746319 0.000000
vn 1.000000 0.000000 0.000000
vn 1.000000 0.000000 0.000000
vn 1.000000 0.000000 0.000000
vn 1.000000 0.000000 0.000000
vn -1.000000 0.000000 0.000000
vn -1.000000 0.000000 0.000000
vn -1.000000 0.000000 0.000000
vn -1.000000 0.000000 0.000000
vn 0.687450 0.726232 0.000000
vn 0.687450 0.726232 0.000000
vn 0.687450 0.726232 0.000000
vn 0.687450 0.726232 0.000000
vn -0.665588 -0.746319 0.000000
vn -0.665588 -0.746319 0.000000
vn -0.665588 -0.746319 0.000000
vn -0.665588 -0.746319 0.000000
vn 0.000000 1.000000 0.000000
vn 0.000000 1.000000 0.000000
vn 0.000000 1.000000 0.000000
vn 0.000000 1.000000 0.000000
vn 0.000000 -1.000000 0.000000
vn 0.000000 -1.000000 0.000000
vn 0.000000 -1.000000 0.000000
vn 0.000000 -1.000000 0.000000
vn -0.687450 0.726232 0.000000
vn -0.687450 0.726232 0.000000
vn -0.687450 0.726232 0.000000
vn -0.687450 0.726232 0.000000
vn 0.665588 -0.746319 0.000000
vn 0.665588 -0.746319 0.000000
vn 0.665588 -0.746319 0.000000
vn 0.665588 -0.746319 0.000000
vn -1.000000 0.000000 0.000000
vn -1.000000 0.000000 0.000000
vn -1.000000 0.000000 0.000000
vn -1.000000 0.000000 0.000000
vn 1.000000 0.000000 0.000000
vn 1.000000 0.000000 0.000000
vn 1.000000 0.000000 0.000000
vn 1.000000 0.000000 0.000000
s 1
g textureBakeSet2 pCube1
usemtl Plaque_lambert30SG_pCube1SG
f 2/73/1 4/74/2 6/75/3
f 6/75/3 4/74/2 8/77/4
s 2
f 5/49/5 7/50/6 10/51/7
f 10/51/7 7/50/6 12/52/8
s 3
f 9/81/9 11/82/10 14/83/11
f 14/83/11 11/82/10 16/85/12
s 4
f 13/53/13 15/54/14 1/55/15
f 1/55/15 15/54/14 3/56/16
s 5
f 3/1/17 15/2/18 4/3/19
f 15/2/18 16/4/20 4/3/19
f 4/3/19 16/4/20 8/5/21
f 16/4/20 11/6/22 8/5/21
f 11/6/22 12/7/23 8/5/21
f 12/7/23 7/8/24 8/5/21
s 6
f 25/9/25 27/10/26 26/11/27
f 27/10/26 28/12/28 26/11/27
f 26/11/27 28/12/28 32/13/29
f 28/12/28 29/14/30 32/13/29
f 29/14/30 30/15/31 32/13/29
f 30/15/31 31/16/32 32/13/29
s 7
f 2/73/33 1/76/34 4/74/35
f 4/74/35 1/76/34 3/78/36
s 8
f 5/80/37 6/75/38 7/79/39
f 7/79/39 6/75/38 8/77/40
s 9
f 9/81/41 10/84/42 11/82/43
f 11/82/43 10/84/42 12/86/44
s 10
f 13/88/45 14/83/46 15/87/47
f 15/87/47 14/83/46 16/85/48
s 11
f 13/17/49 17/18/50 14/19/51
f 14/19/51 17/18/50 18/21/52
s 12
f 13/17/53 1/20/54 17/18/55
f 17/18/55 1/20/54 19/22/56
s 13
f 1/20/57 2/24/58 19/22/59
f 19/22/59 2/24/58 20/26/60
s 14
f 2/24/61 6/28/62 20/26/63
f 20/26/63 6/28/62 21/30/64
s 15
f 5/32/65 22/31/66 6/28/67
f 6/28/67 22/31/66 21/30/68
s 16
f 5/32/69 10/29/70 22/31/71
f 22/31/71 10/29/70 23/27/72
s 17
f 10/29/73 9/25/74 23/27/75
f 23/27/75 9/25/74 24/23/76
s 18
f 9/25/77 14/19/78 24/23/79
f 24/23/79 14/19/78 18/21/80
s 19
f 33/33/81 35/34/82 34/35/83
f 34/35/83 35/34/82 36/37/84
s 20
f 33/33/85 37/36/86 35/34/87
f 35/34/87 37/36/86 38/38/88
s 21
f 37/36/89 39/40/90 38/38/91
f 38/38/91 39/40/90 40/42/92
s 22
f 39/40/93 41/44/94 40/42/95
f 40/42/95 41/44/94 42/46/96
s 23
f 43/48/97 44/47/98 41/44/99
f 41/44/99 44/47/98 42/46/100
s 24
f 43/48/101 45/45/102 44/47/103
f 44/47/103 45/45/102 46/43/104
s 25
f 45/45/105 47/41/106 46/43/107
f 46/43/107 47/41/106 48/39/108
s 26
f 47/41/109 34/35/110 48/39/111
f 48/39/111 34/35/110 36/37/112
s 27
f 18/89/113 17/90/114 34/91/115
f 34/91/115 17/90/114 33/92/116
s 28
f 25/97/117 26/98/118 35/99/119
f 35/99/119 26/98/118 36/100/120
s 29
f 17/57/121 19/58/122 33/59/123
f 33/59/123 19/58/122 37/60/124
s 30
f 27/61/125 25/62/126 38/63/127
f 38/63/127 25/62/126 35/64/128
s 31
f 19/105/129 20/106/130 37/107/131
f 37/107/131 20/106/130 39/108/132
s 32
f 28/113/133 27/114/134 40/115/135
f 40/115/135 27/114/134 38/116/136
s 33
f 20/106/137 21/109/138 39/108/139
f 39/108/139 21/109/138 41/110/140
s 34
f 29/118/141 28/113/142 42/117/143
f 42/117/143 28/113/142 40/115/144
s 35
f 21/109/145 22/111/146 41/110/147
f 41/110/147 22/111/146 43/112/148
s 36
f 30/120/149 29/118/150 44/119/151
f 44/119/151 29/118/150 42/117/152
s 37
f 22/65/153 23/66/154 43/67/155
f 43/67/155 23/66/154 45/68/156
s 38
f 31/69/157 30/70/158 46/71/159
f 46/71/159 30/70/158 44/72/160
s 39
f 23/96/161 24/94/162 45/95/163
f 45/95/163 24/94/162 47/93/164
s 40
f 32/101/165 31/103/166 48/102/167
f 48/102/167 31/103/166 46/104/168
s 41
f 24/94/169 18/89/170 47/93/171
f 47/93/171 18/89/170 34/91/172
s 42
f 26/98/173 32/101/174 36/100/175
f 36/100/175 32/101/174 48/102/176
