# This file uses meters as units for non-parametric coordinates.

mtllib Tapestry_Second_3.mtl
g default
v 39.999977 -40.000031 0.000000
v 120.000008 -80.000031 0.000000
v 120.000008 -40.000031 0.000000
v 200.000031 -80.000031 0.000000
v 200.000031 -40.000031 0.000000
v 280.000000 -80.000031 0.000000
v 280.000000 -40.000031 0.000000
v -39.999992 -0.000031 0.000000
v 39.999977 -0.000031 0.000000
v 120.000008 -0.000031 0.000000
v 200.000031 -0.000031 0.000000
v 280.000000 -0.000031 0.000000
v -200.000000 40.000000 0.000000
v -120.000008 -0.000031 0.000000
v -120.000008 40.000000 0.000000
v -39.999992 40.000000 0.000000
v 39.999977 40.000000 0.000000
v 120.000008 40.000000 0.000000
v 200.000031 40.000000 0.000000
v 280.000000 40.000000 0.000000
v -280.000000 80.000000 0.000000
v -200.000000 80.000000 0.000000
v -120.000008 80.000000 0.000000
v -39.999992 80.000000 0.000000
v 39.999977 80.000000 0.000000
v 120.000008 80.000000 0.000000
v 200.000031 80.000000 0.000000
v 280.000000 80.000000 0.000000
vt 0.700000 0.621041
vt 0.800000 0.560520
vt 0.800000 0.621041
vt 0.900000 0.560520
vt 0.900000 0.621041
vt 1.000000 0.560520
vt 1.000000 0.621041
vt 0.600000 0.681561
vt 0.700000 0.681561
vt 0.800000 0.681561
vt 0.900000 0.681561
vt 1.000000 0.681561
vt 0.400000 0.742082
vt 0.500000 0.681561
vt 0.500000 0.742082
vt 0.600000 0.742082
vt 0.700000 0.742082
vt 0.800000 0.742082
vt 0.900000 0.742082
vt 1.000000 0.742082
vt 0.300000 0.802602
vt 0.400000 0.802602
vt 0.500000 0.802602
vt 0.600000 0.802602
vt 0.700000 0.802602
vt 0.800000 0.802602
vt 0.900000 0.802602
vt 1.000000 0.802602
vn 0.000000 0.000000 1.000000
vn 0.000000 0.000000 1.000000
vn 0.000000 0.000000 1.000000
vn 0.000000 0.000000 1.000000
vn 0.000000 0.000000 1.000000
vn 0.000000 0.000000 1.000000
vn 0.000000 0.000000 1.000000
vn 0.000000 0.000000 1.000000
vn 0.000000 0.000000 1.000000
vn 0.000000 0.000000 1.000000
vn 0.000000 0.000000 1.000000
vn 0.000000 0.000000 1.000000
vn 0.000000 0.000000 1.000000
vn 0.000000 0.000000 1.000000
vn 0.000000 0.000000 1.000000
vn 0.000000 0.000000 1.000000
vn 0.000000 0.000000 1.000000
vn 0.000000 0.000000 1.000000
vn 0.000000 0.000000 1.000000
vn 0.000000 0.000000 1.000000
vn 0.000000 0.000000 1.000000
vn 0.000000 0.000000 1.000000
vn 0.000000 0.000000 1.000000
vn 0.000000 0.000000 1.000000
vn 0.000000 0.000000 1.000000
vn 0.000000 0.000000 1.000000
vn 0.000000 0.000000 1.000000
vn 0.000000 0.000000 1.000000
s 1
g Tapestry_Second_Piece_3
usemtl lambert13SG
f 1/1/1 2/2/2 3/3/3
f 2/2/2 4/4/4 3/3/3
f 3/3/3 4/4/4 5/5/5
f 4/4/4 6/6/6 5/5/5
f 5/5/5 6/6/6 7/7/7
f 8/8/8 1/1/1 9/9/9
f 1/1/1 3/3/3 9/9/9
f 9/9/9 3/3/3 10/10/10
f 3/3/3 5/5/5 10/10/10
f 10/10/10 5/5/5 11/11/11
f 5/5/5 7/7/7 11/11/11
f 11/11/11 7/7/7 12/12/12
f 13/13/13 14/14/14 15/15/15
f 14/14/14 8/8/8 15/15/15
f 15/15/15 8/8/8 16/16/16
f 8/8/8 9/9/9 16/16/16
f 16/16/16 9/9/9 17/17/17
f 9/9/9 10/10/10 17/17/17
f 17/17/17 10/10/10 18/18/18
f 10/10/10 11/11/11 18/18/18
f 18/18/18 11/11/11 19/19/19
f 11/11/11 12/12/12 19/19/19
f 19/19/19 12/12/12 20/20/20
f 21/21/21 13/13/13 22/22/22
f 13/13/13 15/15/15 22/22/22
f 22/22/22 15/15/15 23/23/23
f 15/15/15 16/16/16 23/23/23
f 23/23/23 16/16/16 24/24/24
f 16/16/16 17/17/17 24/24/24
f 24/24/24 17/17/17 25/25/25
f 17/17/17 18/18/18 25/25/25
f 25/25/25 18/18/18 26/26/26
f 18/18/18 19/19/19 26/26/26
f 26/26/26 19/19/19 27/27/27
f 19/19/19 20/20/20 27/27/27
f 27/27/27 20/20/20 28/28/28
