# This file uses meters as units for non-parametric coordinates.

mtllib Tapestry_Second_7.mtl
g default
v -159.999985 0.000000 0.000000
v -80.000015 -40.000000 0.000000
v -80.000015 0.000000 0.000000
v 0.000015 -40.000000 0.000000
v 0.000015 0.000000 0.000000
v 80.000031 -40.000000 0.000000
v 80.000031 0.000000 0.000000
v 160.000000 -40.000000 0.000000
v 160.000000 0.000000 0.000000
v -159.999985 40.000000 0.000000
v -80.000015 40.000000 0.000000
v 0.000015 40.000000 0.000000
v 80.000031 40.000000 0.000000
vt 0.600000 0.257918
vt 0.700000 0.197398
vt 0.700000 0.257918
vt 0.800000 0.197398
vt 0.800000 0.257918
vt 0.900000 0.197398
vt 0.900000 0.257918
vt 1.000000 0.197398
vt 1.000000 0.257918
vt 0.600000 0.318439
vt 0.700000 0.318439
vt 0.800000 0.318439
vt 0.900000 0.318439
vn 0.000000 0.000000 1.000000
vn 0.000000 0.000000 1.000000
vn 0.000000 0.000000 1.000000
vn 0.000000 0.000000 1.000000
vn 0.000000 0.000000 1.000000
vn 0.000000 0.000000 1.000000
vn 0.000000 0.000000 1.000000
vn 0.000000 0.000000 1.000000
vn 0.000000 0.000000 1.000000
vn 0.000000 0.000000 1.000000
vn 0.000000 0.000000 1.000000
vn 0.000000 0.000000 1.000000
vn 0.000000 0.000000 1.000000
s 1
g Tapestry_Second_Piece_7
usemtl lambert13SG
f 1/1/1 2/2/2 3/3/3
f 2/2/2 4/4/4 3/3/3
f 3/3/3 4/4/4 5/5/5
f 4/4/4 6/6/6 5/5/5
f 5/5/5 6/6/6 7/7/7
f 6/6/6 8/8/8 7/7/7
f 7/7/7 8/8/8 9/9/9
f 1/1/1 3/3/3 10/10/10
f 10/10/10 3/3/3 11/11/11
f 3/3/3 5/5/5 11/11/11
f 11/11/11 5/5/5 12/12/12
f 5/5/5 7/7/7 12/12/12
f 12/12/12 7/7/7 13/13/13
f 7/7/7 9/9/9 13/13/13
