# This file uses meters as units for non-parametric coordinates.

mtllib Tapestry_Second_2.mtl
g default
v -280.000000 -80.000031 0.000000
v -200.000031 -80.000031 0.000000
v -280.000000 -40.000031 0.000000
v -200.000031 -40.000031 0.000000
v -119.999992 -80.000031 0.000000
v -119.999992 -40.000031 0.000000
v -280.000000 -0.000031 0.000000
v -200.000031 -0.000031 0.000000
v -119.999992 -0.000031 0.000000
v -40.000000 -40.000031 0.000000
v -40.000000 -0.000031 0.000000
v 39.999992 -40.000031 0.000000
v 39.999992 -0.000031 0.000000
v 120.000008 -40.000031 0.000000
v 120.000008 -0.000031 0.000000
v 199.999969 -40.000031 0.000000
v 199.999969 -0.000031 0.000000
v 280.000000 -40.000031 0.000000
v -200.000031 39.999969 0.000000
v -119.999992 39.999969 0.000000
v -40.000000 39.999969 0.000000
v 39.999992 39.999969 0.000000
v 120.000008 39.999969 0.000000
v -40.000000 80.000000 0.000000
vt 0.100000 0.500000
vt 0.200000 0.500000
vt 0.100000 0.560520
vt 0.200000 0.560520
vt 0.300000 0.500000
vt 0.300000 0.560520
vt 0.100000 0.621041
vt 0.200000 0.621041
vt 0.300000 0.621041
vt 0.400000 0.560520
vt 0.400000 0.621041
vt 0.500000 0.560520
vt 0.500000 0.621041
vt 0.600000 0.560520
vt 0.600000 0.621041
vt 0.700000 0.560520
vt 0.700000 0.621041
vt 0.800000 0.560520
vt 0.200000 0.681561
vt 0.300000 0.681561
vt 0.400000 0.681561
vt 0.500000 0.681561
vt 0.600000 0.681561
vt 0.400000 0.742082
vn 0.000000 0.000000 1.000000
vn 0.000000 0.000000 1.000000
vn 0.000000 0.000000 1.000000
vn 0.000000 0.000000 1.000000
vn 0.000000 0.000000 1.000000
vn 0.000000 0.000000 1.000000
vn 0.000000 0.000000 1.000000
vn 0.000000 0.000000 1.000000
vn 0.000000 0.000000 1.000000
vn 0.000000 0.000000 1.000000
vn 0.000000 0.000000 1.000000
vn 0.000000 0.000000 1.000000
vn 0.000000 0.000000 1.000000
vn 0.000000 0.000000 1.000000
vn 0.000000 0.000000 1.000000
vn 0.000000 0.000000 1.000000
vn 0.000000 0.000000 1.000000
vn 0.000000 0.000000 1.000000
vn 0.000000 0.000000 1.000000
vn 0.000000 0.000000 1.000000
vn 0.000000 0.000000 1.000000
vn 0.000000 0.000000 1.000000
vn 0.000000 0.000000 1.000000
vn 0.000000 0.000000 1.000000
s 1
g Tapestry_Second_Piece_2
usemtl lambert13SG
f 1/1/1 2/2/2 3/3/3
f 3/3/3 2/2/2 4/4/4
f 2/2/2 5/5/5 4/4/4
f 4/4/4 5/5/5 6/6/6
f 3/3/3 4/4/4 7/7/7
f 7/7/7 4/4/4 8/8/8
f 4/4/4 6/6/6 8/8/8
f 8/8/8 6/6/6 9/9/9
f 6/6/6 10/10/10 9/9/9
f 9/9/9 10/10/10 11/11/11
f 10/10/10 12/12/12 11/11/11
f 11/11/11 12/12/12 13/13/13
f 12/12/12 14/14/14 13/13/13
f 13/13/13 14/14/14 15/15/15
f 14/14/14 16/16/16 15/15/15
f 15/15/15 16/16/16 17/17/17
f 16/16/16 18/18/18 17/17/17
f 8/8/8 9/9/9 19/19/19
f 19/19/19 9/9/9 20/20/20
f 9/9/9 11/11/11 20/20/20
f 20/20/20 11/11/11 21/21/21
f 11/11/11 13/13/13 21/21/21
f 21/21/21 13/13/13 22/22/22
f 13/13/13 15/15/15 22/22/22
f 22/22/22 15/15/15 23/23/23
f 15/15/15 17/17/17 23/23/23
f 21/21/21 22/22/22 24/24/24
