# This file uses meters as units for non-parametric coordinates.

mtllib Tapestry_Second_4.mtl
g default
v 40.000031 -59.999985 0.000000
v 120.000000 -99.999985 0.000000
v 120.000000 -59.999985 0.000000
v -120.000015 -20.000000 0.000000
v -39.999985 -59.999985 0.000000
v -39.999985 -20.000000 0.000000
v 40.000031 -20.000000 0.000000
v 120.000000 -20.000000 0.000000
v -120.000015 20.000000 0.000000
v -39.999985 20.000000 0.000000
v 40.000031 20.000000 0.000000
v 120.000000 20.000000 0.000000
v -120.000015 60.000000 0.000000
v -39.999985 60.000000 0.000000
v 40.000031 60.000000 0.000000
v 120.000000 60.000000 0.000000
v -120.000015 100.000000 0.000000
v -39.999985 100.000000 0.000000
v 40.000031 100.000000 0.000000
v 120.000000 100.000000 0.000000
vt 0.900000 0.318439
vt 1.000000 0.257918
vt 1.000000 0.318439
vt 0.700000 0.378959
vt 0.800000 0.318439
vt 0.800000 0.378959
vt 0.900000 0.378959
vt 1.000000 0.378959
vt 0.700000 0.439480
vt 0.800000 0.439480
vt 0.900000 0.439480
vt 1.000000 0.439480
vt 0.700000 0.500000
vt 0.800000 0.500000
vt 0.900000 0.500000
vt 1.000000 0.500000
vt 0.700000 0.560520
vt 0.800000 0.560520
vt 0.900000 0.560520
vt 1.000000 0.560520
vn 0.000000 0.000000 1.000000
vn 0.000000 0.000000 1.000000
vn 0.000000 0.000000 1.000000
vn 0.000000 0.000000 1.000000
vn 0.000000 0.000000 1.000000
vn 0.000000 0.000000 1.000000
vn 0.000000 0.000000 1.000000
vn 0.000000 0.000000 1.000000
vn 0.000000 0.000000 1.000000
vn 0.000000 0.000000 1.000000
vn 0.000000 0.000000 1.000000
vn 0.000000 0.000000 1.000000
vn 0.000000 0.000000 1.000000
vn 0.000000 0.000000 1.000000
vn 0.000000 0.000000 1.000000
vn 0.000000 0.000000 1.000000
vn 0.000000 0.000000 1.000000
vn 0.000000 0.000000 1.000000
vn 0.000000 0.000000 1.000000
vn 0.000000 0.000000 1.000000
s 1
g Tapestry_Second_Piece_4
usemtl lambert13SG
f 1/1/1 2/2/2 3/3/3
f 4/4/4 5/5/5 6/6/6
f 5/5/5 1/1/1 6/6/6
f 6/6/6 1/1/1 7/7/7
f 1/1/1 3/3/3 7/7/7
f 7/7/7 3/3/3 8/8/8
f 4/4/4 6/6/6 9/9/9
f 9/9/9 6/6/6 10/10/10
f 6/6/6 7/7/7 10/10/10
f 10/10/10 7/7/7 11/11/11
f 7/7/7 8/8/8 11/11/11
f 11/11/11 8/8/8 12/12/12
f 9/9/9 10/10/10 13/13/13
f 13/13/13 10/10/10 14/14/14
f 10/10/10 11/11/11 14/14/14
f 14/14/14 11/11/11 15/15/15
f 11/11/11 12/12/12 15/15/15
f 15/15/15 12/12/12 16/16/16
f 13/13/13 14/14/14 17/17/17
f 17/17/17 14/14/14 18/18/18
f 14/14/14 15/15/15 18/18/18
f 18/18/18 15/15/15 19/19/19
f 15/15/15 16/16/16 19/19/19
f 19/19/19 16/16/16 20/20/20
