# This file uses centimeters as units for non-parametric coordinates.

mtllib trexsocket.mtl
g default
v -10.722366 2.875986 16.420996
v 10.722363 2.875986 16.420996
v -10.722355 2.875986 -16.420996
v 10.722363 2.875986 -16.420996
v 0.000000 0.000003 21.164364
v 11.453175 0.000003 17.540216
v 0.000000 3.234156 17.938765
v -11.453175 0.000003 17.540216
v 0.000000 3.418389 0.000000
v 11.713413 3.234156 0.000000
v 0.000000 3.234156 -17.938763
v -11.713413 3.234156 0.000000
v 0.000000 0.000003 -21.164364
v 11.453175 0.000003 -17.540216
v -11.453175 0.000003 -17.540215
v 13.819620 0.000003 0.000000
v -13.819626 0.000003 0.000000
v -6.335091 0.000003 20.390942
v -7.407112 3.418389 11.343775
v -11.500404 3.170464 9.718859
v -6.346092 3.170464 17.612543
v 0.000000 3.418389 11.343775
v -7.407112 3.418389 0.000000
v -6.318394 1.337584 -19.733757
v -11.272236 1.273890 -17.263111
v -6.346092 3.170464 -17.612545
v 0.000000 1.351104 -20.456760
v -6.335091 0.000003 -20.390942
v 13.314602 0.000003 9.702007
v -13.314602 0.000003 -9.702008
v 6.335087 0.000003 20.390942
v 6.318394 1.337583 19.733753
v 11.272234 1.273890 17.263111
v 6.346092 3.170464 17.612543
v 0.000000 1.351104 20.456757
v -6.318394 1.337583 19.733755
v -11.272236 1.273890 17.263111
v 7.407101 3.418389 11.343775
v 11.500404 3.170464 9.718859
v 7.407101 3.418389 0.000000
v 7.407101 3.418389 -11.343775
v 11.500404 3.170463 -9.718861
v 6.346092 3.170463 -17.612545
v 0.000000 3.418389 -11.343775
v -7.407112 3.418389 -11.343775
v -11.500404 3.170464 -9.718861
v 6.318394 1.337583 -19.733757
v 11.272234 1.273890 -17.263111
v 6.335087 0.000003 -20.390942
v 13.314602 0.000003 -9.702008
v 12.885483 1.337584 -9.676441
v 13.357578 1.351104 0.000000
v 12.885483 1.337583 9.676441
v -13.314602 0.000003 9.702007
v -12.885483 1.337584 9.676441
v -13.357582 1.351104 0.000000
v -12.885483 1.337583 -9.676441
v 12.928263 1.565156 7.222385
v 13.025372 2.029887 7.197231
v 12.037018 2.686476 7.289436
v 12.134125 3.151208 7.264280
v 11.864300 2.638627 -8.265827
v 11.961405 3.103358 -8.290983
v 12.755547 1.517306 -8.332880
v 12.852652 1.982038 -8.358034
vt 0.618743 0.523153
vt 0.590492 0.736420
vt 0.522296 0.514605
vt 0.495243 0.760261
vt 0.549045 0.035143
vt 0.665854 0.118869
vt 0.539000 0.066423
vt 0.643071 0.136873
vt 0.163685 0.964851
vt 0.046883 0.881121
vt 0.173732 0.933572
vt 0.069667 0.863118
vt 0.315360 0.964713
vt 0.321485 0.895360
vt 0.460264 0.958769
vt 0.458754 0.896915
vt 0.186005 0.872933
vt 0.334478 0.747911
vt 0.174021 0.731995
vt 0.094006 0.476851
vt 0.122248 0.263590
vt 0.190453 0.485397
vt 0.217497 0.239744
vt 0.391248 0.104641
vt 0.526732 0.127063
vt 0.378264 0.252090
vt 0.538723 0.268003
vt 0.397368 0.035288
vt 0.252464 0.041237
vt 0.253978 0.103091
vt 0.118558 0.070651
vt 0.137781 0.092412
vt 0.041258 0.245430
vt 0.071445 0.254042
vt 0.038645 0.471952
vt 0.032760 0.692277
vt 0.084436 0.691797
vt 0.594171 0.929362
vt 0.574949 0.907600
vt 0.671480 0.754585
vt 0.641293 0.745971
vt 0.674103 0.528056
vt 0.679988 0.307718
vt 0.628311 0.308199
vt 0.551141 0.874170
vt 0.356375 0.500000
vt 0.613731 0.165599
vt 0.400255 0.001992
vt 0.099009 0.834394
vt 0.312471 0.998008
vt 0.464750 0.991306
vt 0.161591 0.125840
vt 0.247976 0.008701
vt 0.007298 0.469195
vt 0.001533 0.695418
vt 0.705450 0.530816
vt 0.711215 0.304577
vt 0.716037 0.369028
vt 0.726088 0.362655
vt 0.768010 0.366775
vt 0.760351 0.358919
vt 0.766700 0.008812
vt 0.759913 0.017338
vt 0.726952 0.008789
vt 0.716266 0.004118
vn -0.042742 0.999058 0.007484
vn -0.056977 0.998374 0.001471
vn -0.047607 0.998851 0.005430
vn -0.060458 0.998171 0.000000
vn -0.446162 0.399130 -0.801021
vn -0.437757 0.278609 -0.854837
vn -0.445448 0.382540 -0.809468
vn -0.434712 0.249946 -0.865189
vn 0.446161 0.399131 0.801021
vn 0.437756 0.278611 0.854837
vn 0.445448 0.382541 0.809468
vn 0.434712 0.249948 0.865189
vn -0.070071 0.798862 0.597420
vn -0.063128 0.788872 0.611306
vn -0.050138 0.769550 0.636615
vn -0.041182 0.755752 0.653562
vn 0.011467 0.999544 0.027923
vn 0.005028 0.999394 0.034436
vn 0.005477 0.999408 0.033981
vn 0.000000 0.999219 0.039518
vn 0.042742 0.999058 -0.007484
vn 0.056977 0.998375 -0.001471
vn 0.047607 0.998851 -0.005430
vn 0.060458 0.998171 0.000000
vn -0.011467 0.999544 -0.027923
vn -0.005028 0.999394 -0.034436
vn -0.005477 0.999408 -0.033981
vn 0.000000 0.999219 -0.039518
vn 0.070071 0.798862 -0.597419
vn 0.063128 0.788873 -0.611306
vn 0.050137 0.769550 -0.636615
vn 0.041181 0.755752 -0.653562
vn 0.956110 0.185196 -0.227058
vn 0.954226 0.197681 -0.224446
vn 0.934906 0.290717 -0.203553
vn 0.931709 0.302743 -0.200663
vn 0.752737 0.657244 0.037643
vn 0.759196 0.649898 0.035421
vn 0.790576 0.611887 0.024170
vn 0.797873 0.602444 0.021435
vn -0.956111 0.185195 0.227058
vn -0.954226 0.197680 0.224446
vn -0.934907 0.290716 0.203552
vn -0.931709 0.302743 0.200662
vn -0.752737 0.657245 -0.037643
vn -0.759195 0.649898 -0.035421
vn -0.790576 0.611887 -0.024170
vn -0.797873 0.602444 -0.021435
vn -0.081392 0.995263 0.053178
vn -0.081423 0.995261 0.053158
vn -0.081409 0.995262 0.053167
vn -0.081441 0.995260 0.053146
vn -0.011467 0.999544 0.027923
vn -0.005477 0.999408 0.033981
vn -0.005028 0.999394 0.034436
vn 0.000000 0.999219 0.039518
vn 0.000000 1.000000 0.000000
vn 0.000000 1.000000 0.000000
vn 0.000000 1.000000 0.000000
vn 0.000000 1.000000 0.000000
vn -0.257064 0.517298 -0.816285
vn -0.312813 0.692779 -0.649773
vn -0.289743 0.617907 -0.730917
vn -0.319380 0.714964 -0.621951
vn -0.041181 0.755752 -0.653562
vn -0.063128 0.788873 -0.611306
vn -0.050137 0.769550 -0.636615
vn -0.070071 0.798862 -0.597419
vn -0.107524 0.461258 -0.880727
vn -0.103716 0.442926 -0.890539
vn -0.106900 0.458253 -0.882370
vn -0.103038 0.439661 -0.892234
vn 0.257064 0.517296 0.816286
vn 0.312812 0.692779 0.649774
vn 0.289743 0.617906 0.730918
vn 0.319379 0.714964 0.621952
vn 0.041182 0.755751 0.653562
vn 0.063128 0.788872 0.611306
vn 0.050138 0.769550 0.636616
vn 0.070072 0.798862 0.597420
vn 0.107524 0.461259 0.880726
vn 0.103716 0.442928 0.890538
vn 0.106900 0.458255 0.882369
vn 0.103037 0.439663 0.892233
vn -0.257064 0.517296 0.816286
vn -0.289742 0.617906 0.730918
vn -0.312812 0.692779 0.649774
vn -0.319379 0.714964 0.621951
vn -0.434711 0.249948 0.865189
vn -0.437756 0.278611 0.854837
vn -0.445448 0.382540 0.809468
vn -0.446161 0.399131 0.801021
vn -0.107524 0.461260 0.880726
vn -0.106900 0.458255 0.882369
vn -0.103716 0.442927 0.890538
vn -0.103038 0.439663 0.892233
vn 0.081441 0.995260 0.053146
vn 0.081423 0.995261 0.053157
vn 0.081409 0.995262 0.053167
vn 0.081392 0.995263 0.053178
vn 0.042742 0.999058 0.007484
vn 0.047607 0.998851 0.005430
vn 0.056977 0.998375 0.001471
vn 0.060458 0.998171 0.000000
vn 0.000000 1.000000 0.000000
vn 0.000000 1.000000 0.000000
vn 0.000000 1.000000 0.000000
vn 0.000000 1.000000 0.000000
vn 0.081392 0.995263 -0.053178
vn 0.081423 0.995261 -0.053158
vn 0.081409 0.995262 -0.053167
vn 0.081441 0.995260 -0.053146
vn 0.011467 0.999544 -0.027922
vn 0.005477 0.999408 -0.033981
vn 0.005028 0.999394 -0.034436
vn 0.000000 0.999219 -0.039519
vn 0.000000 1.000000 0.000000
vn 0.000000 1.000000 0.000000
vn 0.000000 1.000000 0.000000
vn 0.000000 1.000000 0.000000
vn -0.081441 0.995260 -0.053146
vn -0.081424 0.995261 -0.053158
vn -0.081409 0.995262 -0.053167
vn -0.081392 0.995263 -0.053178
vn -0.042742 0.999058 -0.007484
vn -0.047607 0.998851 -0.005430
vn -0.056977 0.998374 -0.001471
vn -0.060458 0.998171 0.000000
vn 0.000000 1.000000 0.000000
vn 0.000000 1.000000 0.000000
vn 0.000000 1.000000 0.000000
vn 0.000000 1.000000 0.000000
vn 0.257063 0.517296 -0.816286
vn 0.289743 0.617906 -0.730918
vn 0.312813 0.692779 -0.649773
vn 0.319380 0.714964 -0.621951
vn 0.434712 0.249948 -0.865189
vn 0.437756 0.278611 -0.854837
vn 0.445448 0.382539 -0.809469
vn 0.446162 0.399129 -0.801022
vn 0.107524 0.461258 -0.880727
vn 0.106900 0.458253 -0.882370
vn 0.103717 0.442926 -0.890539
vn 0.103038 0.439662 -0.892234
vn 0.892387 0.407830 -0.193183
vn 0.878219 0.442825 -0.180657
vn 0.811152 0.570182 -0.130098
vn 0.793527 0.596917 -0.118347
vn 0.797873 0.602444 -0.021435
vn 0.759196 0.649898 -0.035421
vn 0.790576 0.611887 -0.024170
vn 0.752737 0.657244 -0.037643
vn 0.945057 0.323185 -0.049193
vn 0.950353 0.307596 -0.047046
vn 0.945590 0.321652 -0.048982
vn 0.950893 0.305958 -0.046820
vn 0.793527 0.596916 0.118347
vn 0.878219 0.442825 0.180657
vn 0.811152 0.570181 0.130098
vn 0.892387 0.407830 0.193183
vn 0.956111 0.185195 0.227058
vn 0.934906 0.290717 0.203553
vn 0.954226 0.197680 0.224446
vn 0.931709 0.302744 0.200662
vn 0.945056 0.323185 0.049193
vn 0.945590 0.321652 0.048982
vn 0.950353 0.307596 0.047046
vn 0.950893 0.305958 0.046820
vn -0.892388 0.407829 0.193183
vn -0.878220 0.442825 0.180657
vn -0.811152 0.570182 0.130097
vn -0.793527 0.596917 0.118346
vn -0.797873 0.602444 0.021435
vn -0.759195 0.649899 0.035421
vn -0.790576 0.611887 0.024170
vn -0.752737 0.657245 0.037643
vn -0.945056 0.323187 0.049194
vn -0.950353 0.307597 0.047046
vn -0.945590 0.321653 0.048982
vn -0.950893 0.305958 0.046820
vn -0.793527 0.596916 -0.118348
vn -0.878218 0.442828 -0.180657
vn -0.811152 0.570182 -0.130098
vn -0.892386 0.407833 -0.193183
vn -0.956111 0.185194 -0.227058
vn -0.934907 0.290717 -0.203552
vn -0.954226 0.197680 -0.224446
vn -0.931709 0.302744 -0.200662
vn -0.945056 0.323187 -0.049194
vn -0.945590 0.321654 -0.048982
vn -0.950353 0.307597 -0.047046
vn -0.950893 0.305958 -0.046820
vn 0.112718 0.030203 0.993168
vn 0.112719 0.030204 0.993168
vn 0.112721 0.030206 0.993167
vn 0.112722 0.030207 0.993167
vn -0.978696 0.205058 0.010236
vn -0.978696 0.205058 0.010236
vn -0.978698 0.205052 0.010236
vn -0.978698 0.205051 0.010236
vn -0.112723 -0.030207 -0.993167
vn -0.112723 -0.030204 -0.993167
vn -0.112723 -0.030207 -0.993167
vn -0.112723 -0.030203 -0.993167
vn 0.978697 -0.205053 -0.010236
vn 0.978696 -0.205059 -0.010236
vn 0.978697 -0.205053 -0.010236
vn 0.978696 -0.205059 -0.010236
vn 0.782491 0.622572 -0.010604
vn 0.782491 0.622572 -0.010604
vn 0.782491 0.622572 -0.010604
vn 0.782491 0.622572 -0.010604
s 1
g pCube4
usemtl blinn1SG
f 12/1/1 20/2/2 23/3/3
f 23/3/3 20/2/2 19/4/4
s 2
f 28/5/5 15/6/6 24/7/7
f 24/7/7 15/6/6 25/8/8
s 3
f 31/9/9 6/10/10 32/11/11
f 32/11/11 6/10/10 33/12/12
s 4
f 35/13/13 7/14/14 36/15/15
f 36/15/15 7/14/14 21/16/16
s 5
f 7/14/17 34/17/18 22/18/19
f 22/18/19 34/17/18 38/19/20
s 6
f 10/20/21 42/21/22 40/22/23
f 40/22/23 42/21/22 41/23/24
s 7
f 11/24/25 26/25/26 44/26/27
f 44/26/27 26/25/26 45/27/28
s 8
f 27/28/29 11/24/30 47/29/31
f 47/29/31 11/24/30 43/30/32
s 9
f 14/31/33 48/32/34 50/33/35
f 50/33/35 48/32/34 51/34/36
s 10
f 52/35/37 10/20/38 53/36/39
f 53/36/39 10/20/38 39/37/40
s 11
f 8/38/41 37/39/42 54/40/43
f 54/40/43 37/39/42 55/41/44
s 12
f 56/42/45 12/1/46 57/43/47
f 57/43/47 12/1/46 46/44/48
s 13
f 20/2/49 1/45/50 19/4/51
f 19/4/51 1/45/50 21/16/52
s 14
f 7/14/53 22/18/54 21/16/55
f 21/16/55 22/18/54 19/4/56
s 15
f 22/18/57 9/46/58 19/4/59
f 19/4/59 9/46/58 23/3/60
s 16
f 3/47/61 26/25/62 25/8/63
f 25/8/63 26/25/62 24/7/64
s 17
f 26/25/65 11/24/66 24/7/67
f 24/7/67 11/24/66 27/28/68
s 18
f 13/48/69 28/5/70 27/28/71
f 27/28/71 28/5/70 24/7/72
s 19
f 2/49/73 34/17/74 33/12/75
f 33/12/75 34/17/74 32/11/76
s 20
f 34/17/77 7/14/78 32/11/79
f 32/11/79 7/14/78 35/13/80
s 21
f 5/50/81 31/9/82 35/13/83
f 35/13/83 31/9/82 32/11/84
s 22
f 1/45/85 37/39/86 21/16/87
f 21/16/87 37/39/86 36/15/88
s 23
f 37/39/89 8/38/90 36/15/91
f 36/15/91 8/38/90 18/51/92
s 24
f 5/50/93 35/13/94 18/51/95
f 18/51/95 35/13/94 36/15/96
s 25
f 34/17/97 2/49/98 38/19/99
f 38/19/99 2/49/98 39/37/100
s 26
f 10/20/101 40/22/102 39/37/103
f 39/37/103 40/22/102 38/19/104
s 27
f 40/22/105 9/46/106 38/19/107
f 38/19/107 9/46/106 22/18/108
s 28
f 42/21/109 4/52/110 41/23/111
f 41/23/111 4/52/110 43/30/112
s 29
f 11/24/113 44/26/114 43/30/115
f 43/30/115 44/26/114 41/23/116
s 30
f 44/26/117 9/46/118 41/23/119
f 41/23/119 9/46/118 40/22/120
s 31
f 26/25/121 3/47/122 45/27/123
f 45/27/123 3/47/122 46/44/124
s 32
f 12/1/125 23/3/126 46/44/127
f 46/44/127 23/3/126 45/27/128
s 33
f 23/3/129 9/46/130 45/27/131
f 45/27/131 9/46/130 44/26/132
s 34
f 4/52/133 48/32/134 43/30/135
f 43/30/135 48/32/134 47/29/136
s 35
f 48/32/137 14/31/138 47/29/139
f 47/29/139 14/31/138 49/53/140
s 36
f 13/48/141 27/28/142 49/53/143
f 49/53/143 27/28/142 47/29/144
s 37
f 48/32/145 4/52/146 51/34/147
f 51/34/147 4/52/146 42/21/148
s 38
f 42/21/149 10/20/150 51/34/151
f 51/34/151 10/20/150 52/35/152
s 39
f 16/54/153 50/33/154 52/35/155
f 52/35/155 50/33/154 51/34/156
s 40
f 39/37/157 2/49/158 53/36/159
f 53/36/159 2/49/158 33/12/160
s 41
f 6/10/161 29/55/162 33/12/163
f 33/12/163 29/55/162 53/36/164
s 42
f 16/54/165 52/35/166 29/55/167
f 29/55/167 52/35/166 53/36/168
s 43
f 37/39/169 1/45/170 55/41/171
f 55/41/171 1/45/170 20/2/172
s 44
f 20/2/173 12/1/174 55/41/175
f 55/41/175 12/1/174 56/42/176
s 45
f 17/56/177 54/40/178 56/42/179
f 56/42/179 54/40/178 55/41/180
s 46
f 46/44/181 3/47/182 57/43/183
f 57/43/183 3/47/182 25/8/184
s 47
f 15/6/185 30/57/186 25/8/187
f 25/8/187 30/57/186 57/43/188
s 48
f 17/56/189 56/42/190 30/57/191
f 30/57/191 56/42/190 57/43/192
s 49
f 58/58/193 59/59/194 60/60/195
f 60/60/195 59/59/194 61/61/196
s 50
f 60/60/197 61/61/198 62/62/199
f 62/62/199 61/61/198 63/63/200
s 51
f 63/63/201 65/64/202 62/62/203
f 62/62/203 65/64/202 64/65/204
s 52
f 65/64/205 59/59/206 64/65/207
f 64/65/207 59/59/206 58/58/208
s 53
f 65/64/209 63/63/210 59/59/211
f 59/59/211 63/63/210 61/61/212
