# This file uses centimeters as units for non-parametric coordinates.

mtllib Vitrine2.mtl
g default
v -0.510053 -0.811995 0.615697
v 0.704549 -0.811995 0.615697
v -0.510053 0.499605 0.615697
v 0.704549 0.499605 0.615697
v -0.510053 0.499605 -0.615697
v 0.704549 0.499605 -0.615697
v -0.510053 -0.811995 -0.615697
v 0.704549 -0.811995 -0.615697
v -0.510053 0.560249 0.615697
v 0.704549 0.560249 0.615697
v 0.704549 0.560249 -0.615697
v -0.510053 0.560249 -0.615697
v -0.388803 0.560249 0.492771
v 0.583299 0.560249 0.492771
v 0.583299 0.560249 -0.492771
v -0.388803 0.560249 -0.492771
v -0.388803 0.617192 0.492771
v 0.583299 0.617192 0.492771
v 0.583299 0.617192 -0.492771
v -0.388803 0.617192 -0.492771
v -0.519875 0.617192 0.625655
v 0.714370 0.617192 0.625655
v 0.714370 0.617192 -0.625655
v -0.519875 0.617192 -0.625655
v -0.519875 0.712099 0.625655
v 0.714370 0.712099 0.625655
v 0.714370 0.712099 -0.625655
v -0.519875 0.712099 -0.625655
v -0.149929 0.712099 0.250594
v 0.344425 0.712099 0.250594
v 0.344425 0.712099 -0.250594
v -0.149929 0.712099 -0.250594
v -0.149929 0.785707 0.250594
v 0.344425 0.785707 0.250594
v 0.344425 0.785707 -0.250594
v -0.149929 0.785707 -0.250594
v -0.061317 0.811995 0.160757
v 0.255813 0.811995 0.160757
v 0.255813 0.811995 -0.160757
v -0.061317 0.811995 -0.160757
v -0.727353 -0.811995 -0.492954
v -0.727353 -0.811995 0.492954
v -0.727353 0.352509 0.512025
v -0.727353 0.352509 -0.512025
vt 0.761949 0.684473
vt 0.307137 0.471054
vt 0.546565 0.520215
vt 0.769696 0.979271
vt 0.668307 0.336490
vt 0.588392 0.345562
vt 0.630251 0.297080
vt 0.676250 0.255012
vt 0.482360 0.985760
vt 0.523571 0.208855
vt 0.309624 0.291944
vt 0.488109 0.678767
vt 0.532467 0.708105
vt 0.721283 0.715163
vt 0.725375 0.937467
vt 0.522037 0.937159
vt 0.081178 0.227219
vt 0.069215 0.005640
vt 0.078808 0.397828
vt 0.079973 0.564887
vt 0.054380 0.224717
vt 0.043029 0.032673
vt 0.054065 0.396340
vt 0.055675 0.565996
vt 0.040972 0.225035
vt 0.030881 0.033247
vt 0.041068 0.396705
vt 0.042305 0.566390
vt 0.834616 0.222364
vt 0.981144 0.036278
vt 0.686062 0.411022
vt 0.539534 0.597107
vt 0.837632 0.347198
vt 0.634167 0.488906
vt 0.981137 0.553331
vt 0.777845 0.695038
vt 0.819752 0.448511
vt 0.735785 0.508586
vt 0.879655 0.533659
vt 0.795630 0.593665
vt 0.553459 0.362084
vt 0.693149 0.363127
vt 0.629011 0.295245
vt 0.691735 0.219554
vt 0.748245 0.509859
vt 0.695013 0.361351
vt 0.796963 0.581176
vt 0.867181 0.532353
vt 0.818422 0.461002
vt 0.966835 0.025011
vt 0.376672 0.774498
vt 0.525225 0.585840
vt 0.671753 0.399755
vt 0.820307 0.211097
vt 0.001958 0.013727
vt 0.024076 0.788102
vt 0.390980 0.785765
vt 0.013391 0.562655
vt 0.014143 0.395671
vt 0.014739 0.224807
vt 0.052653 0.761209
vt 0.064902 0.760686
vt 0.376952 0.765505
vt 0.769760 0.991535
vt 0.091556 0.779716
vt 0.482609 0.998008
vt 0.535731 0.204767
vt 0.559121 0.522592
vt 0.365114 0.759624
vt 0.096117 0.535216
vt 0.371206 0.008914
vt 0.382276 0.001992
vt 0.130074 0.187972
vn 0.000000 0.000000 1.000000
vn 0.000000 0.000000 1.000000
vn 0.000000 0.000000 1.000000
vn 0.000000 0.000000 1.000000
vn 0.000000 1.000000 0.000000
vn 0.000000 1.000000 0.000000
vn 0.000000 1.000000 0.000000
vn 0.000000 1.000000 0.000000
vn 0.000000 0.000000 -1.000000
vn 0.000000 0.000000 -1.000000
vn 0.000000 0.000000 -1.000000
vn 0.000000 0.000000 -1.000000
vn 0.000000 -1.000000 0.000000
vn 0.000000 -1.000000 0.000000
vn 0.000000 -1.000000 0.000000
vn 0.000000 -1.000000 0.000000
vn 1.000000 0.000000 0.000000
vn 1.000000 0.000000 0.000000
vn 1.000000 0.000000 0.000000
vn 1.000000 0.000000 0.000000
vn -1.000000 0.000000 0.000000
vn -1.000000 0.000000 0.000000
vn -1.000000 -0.000000 0.000000
vn -1.000000 -0.000000 0.000000
vn 0.000000 0.000000 1.000000
vn 0.000000 0.000000 1.000000
vn 0.000000 0.000000 1.000000
vn 0.000000 0.000000 1.000000
vn 1.000000 0.000000 0.000000
vn 1.000000 0.000000 0.000000
vn 1.000000 0.000000 0.000000
vn 1.000000 0.000000 0.000000
vn 0.000000 0.000000 -1.000000
vn 0.000000 0.000000 -1.000000
vn 0.000000 0.000000 -1.000000
vn 0.000000 0.000000 -1.000000
vn -1.000000 0.000000 0.000000
vn -1.000000 0.000000 0.000000
vn -1.000000 0.000000 0.000000
vn -1.000000 0.000000 0.000000
vn 0.000000 1.000000 -0.000000
vn 0.000000 1.000000 -0.000001
vn 0.000000 1.000000 -0.000000
vn 0.000000 1.000000 -0.000001
vn 0.000000 1.000000 0.000000
vn 0.000000 1.000000 0.000000
vn 0.000000 1.000000 0.000000
vn 0.000000 1.000000 0.000000
vn 0.000000 1.000000 0.000000
vn 0.000000 1.000000 0.000000
vn 0.000000 1.000000 0.000000
vn 0.000000 1.000000 0.000000
vn 0.000000 1.000000 0.000000
vn 0.000000 1.000000 0.000000
vn 0.000000 1.000000 0.000000
vn 0.000000 1.000000 0.000000
vn 0.000000 -0.000001 1.000000
vn 0.000000 -0.000001 1.000000
vn 0.000000 -0.000001 1.000000
vn 0.000000 -0.000001 1.000000
vn 1.000000 0.000003 0.000000
vn 1.000000 0.000006 0.000000
vn 1.000000 0.000003 0.000000
vn 1.000000 0.000006 0.000000
vn 0.000000 -0.000001 -1.000000
vn 0.000000 -0.000001 -1.000000
vn 0.000000 -0.000001 -1.000000
vn 0.000000 -0.000001 -1.000000
vn -1.000000 0.000003 0.000000
vn -1.000000 0.000004 0.000000
vn -1.000000 0.000003 0.000000
vn -1.000000 0.000004 0.000000
vn 0.000000 -1.000000 -0.000000
vn 0.000000 -1.000000 -0.000000
vn 0.000000 -1.000000 -0.000000
vn 0.000000 -1.000000 0.000000
vn 0.000000 -1.000000 0.000000
vn 0.000000 -1.000000 0.000000
vn 0.000000 -1.000000 0.000000
vn 0.000000 -1.000000 0.000000
vn 0.000000 -1.000000 0.000001
vn 0.000000 -1.000000 -0.000001
vn 0.000000 -1.000000 0.000000
vn 0.000000 -1.000000 -0.000001
vn 0.000000 -1.000000 0.000000
vn 0.000000 -1.000000 0.000000
vn 0.000000 -1.000000 0.000000
vn 0.000000 -1.000000 0.000000
vn 0.000000 0.000000 1.000000
vn 0.000000 0.000000 1.000000
vn 0.000000 0.000000 1.000000
vn 0.000000 0.000000 1.000000
vn 1.000000 0.000000 0.000000
vn 1.000000 0.000000 0.000000
vn 1.000000 0.000000 0.000000
vn 1.000000 0.000000 0.000000
vn 0.000000 0.000000 -1.000000
vn 0.000000 0.000000 -1.000000
vn 0.000000 0.000000 -1.000000
vn 0.000000 0.000000 -1.000000
vn -1.000000 0.000000 0.000000
vn -1.000000 0.000000 0.000000
vn -1.000000 0.000000 0.000000
vn -1.000000 0.000000 0.000000
vn 0.000000 1.000000 -0.000000
vn 0.000000 1.000000 -0.000000
vn 0.000000 1.000000 -0.000000
vn 0.000000 1.000000 0.000000
vn 0.000000 1.000000 0.000000
vn 0.000000 1.000000 0.000000
vn 0.000000 1.000000 0.000000
vn 0.000000 1.000000 0.000000
vn 0.000000 1.000000 0.000000
vn 0.000000 1.000000 0.000000
vn 0.000000 1.000000 0.000000
vn 0.000000 1.000000 0.000000
vn 0.000000 1.000000 0.000000
vn 0.000000 1.000000 0.000000
vn 0.000000 1.000000 0.000000
vn 0.000000 1.000000 0.000000
vn 0.000000 0.000000 1.000000
vn 0.000000 0.000000 1.000000
vn 0.000000 0.000000 1.000000
vn 0.000000 0.000000 1.000000
vn 1.000000 0.000000 0.000000
vn 1.000000 0.000000 0.000000
vn 1.000000 0.000000 0.000000
vn 1.000000 0.000000 0.000000
vn 0.000000 0.000000 -1.000000
vn 0.000000 0.000000 -1.000000
vn 0.000000 0.000000 -1.000000
vn 0.000000 0.000000 -1.000000
vn -1.000000 0.000000 0.000000
vn -1.000000 0.000000 0.000000
vn -1.000000 0.000000 0.000000
vn -1.000000 0.000000 0.000000
vn 0.000000 0.959753 0.280847
vn 0.000000 0.959753 0.280847
vn 0.000000 0.959753 0.280847
vn 0.000000 0.959753 0.280847
vn 0.284418 0.958700 0.000000
vn 0.284418 0.958700 0.000000
vn 0.284418 0.958701 0.000000
vn 0.284418 0.958700 0.000000
vn 0.000000 0.959753 -0.280847
vn 0.000000 0.959753 -0.280847
vn 0.000000 0.959753 -0.280847
vn 0.000000 0.959753 -0.280847
vn -0.284418 0.958700 0.000000
vn -0.284418 0.958700 0.000000
vn -0.284418 0.958701 0.000000
vn -0.284418 0.958700 0.000000
vn 0.000000 -1.000000 0.000000
vn 0.000000 -1.000000 0.000000
vn 0.000000 -1.000000 0.000000
vn 0.000000 -1.000000 0.000000
vn -0.430596 0.000000 0.902545
vn -0.436329 -0.001315 0.899786
vn -0.483385 -0.012274 0.875322
vn -0.491769 -0.014258 0.870609
vn -0.560566 0.828110 0.000000
vn -0.560566 0.828110 0.000000
vn -0.560566 0.828110 0.000000
vn -0.560566 0.828110 0.000000
vn -0.430596 0.000000 -0.902545
vn -0.483385 -0.012274 -0.875322
vn -0.436329 -0.001315 -0.899786
vn -0.491769 -0.014258 -0.870609
s 1
g Vitrine_2
usemtl lambert4SG
f 1/70/1 2/2/2 3/69/3
f 3/69/3 2/2/2 4/3/4
s 2
f 37/5/5 38/6/6 40/8/7
f 40/8/7 38/6/6 39/7/8
s 3
f 5/71/9 6/10/10 7/73/11
f 7/73/11 6/10/10 8/11/12
s 4
f 7/73/13 8/11/14 1/70/15
f 1/70/15 8/11/14 2/2/16
s 5
f 2/2/17 8/11/18 4/3/19
f 4/3/19 8/11/18 6/10/20
s 6
f 41/13/21 42/14/22 44/16/23
f 44/16/23 42/14/22 43/15/24
s 7
f 3/69/25 4/3/26 9/63/27
f 9/63/27 4/3/26 10/68/28
s 8
f 4/3/29 6/10/30 10/68/31
f 10/68/31 6/10/30 11/67/32
s 9
f 6/10/33 5/71/34 11/67/35
f 11/67/35 5/71/34 12/72/36
s 10
f 5/9/37 3/4/38 12/66/39
f 12/66/39 3/4/38 9/64/40
s 11
f 9/18/41 10/17/42 13/22/43
f 13/22/43 10/17/42 14/21/44
s 12
f 10/17/45 11/19/46 14/21/47
f 14/21/47 11/19/46 15/23/48
s 13
f 11/19/49 12/20/50 15/23/51
f 15/23/51 12/20/50 16/24/52
s 14
f 12/20/53 9/65/54 16/24/55
f 16/24/55 9/65/54 13/62/56
s 15
f 13/22/57 14/21/58 17/26/59
f 17/26/59 14/21/58 18/25/60
s 16
f 14/21/61 15/23/62 18/25/63
f 18/25/63 15/23/62 19/27/64
s 17
f 15/23/65 16/24/66 19/27/67
f 19/27/67 16/24/66 20/28/68
s 18
f 16/24/69 13/62/70 20/28/71
f 20/28/71 13/62/70 17/61/72
s 19
f 17/26/73 18/25/74 21/55/75
f 21/55/75 18/25/74 22/60/76
s 20
f 18/25/77 19/27/78 22/60/79
f 22/60/79 19/27/78 23/59/80
s 21
f 19/27/81 20/28/82 23/59/83
f 23/59/83 20/28/82 24/58/84
s 22
f 20/28/85 17/61/86 24/58/87
f 24/58/87 17/61/86 21/56/88
s 23
f 21/30/89 22/29/90 25/50/91
f 25/50/91 22/29/90 26/54/92
s 24
f 22/29/93 23/31/94 26/54/95
f 26/54/95 23/31/94 27/53/96
s 25
f 23/31/97 24/32/98 27/53/99
f 27/53/99 24/32/98 28/52/100
s 26
f 24/32/101 21/57/102 28/52/103
f 28/52/103 21/57/102 25/51/104
s 27
f 25/34/105 26/33/106 29/38/107
f 29/38/107 26/33/106 30/37/108
s 28
f 26/33/109 27/35/110 30/37/111
f 30/37/111 27/35/110 31/39/112
s 29
f 27/35/113 28/36/114 31/39/115
f 31/39/115 28/36/114 32/40/116
s 30
f 28/36/117 25/34/118 32/40/119
f 32/40/119 25/34/118 29/38/120
s 31
f 29/38/121 30/37/122 33/45/123
f 33/45/123 30/37/122 34/49/124
s 32
f 30/37/125 31/39/126 34/49/127
f 34/49/127 31/39/126 35/48/128
s 33
f 31/39/129 32/40/130 35/48/131
f 35/48/131 32/40/130 36/47/132
s 34
f 32/40/133 29/38/134 36/47/135
f 36/47/135 29/38/134 33/45/136
s 35
f 33/42/137 34/41/138 37/5/139
f 37/5/139 34/41/138 38/6/140
s 36
f 34/41/141 35/43/142 38/6/143
f 38/6/143 35/43/142 39/7/144
s 37
f 35/43/145 36/44/146 39/7/147
f 39/7/147 36/44/146 40/8/148
s 38
f 36/44/149 33/46/150 40/8/151
f 40/8/151 33/46/150 37/5/152
s 39
f 7/12/153 1/1/154 41/13/155
f 41/13/155 1/1/154 42/14/156
s 40
f 3/4/157 43/15/158 1/1/159
f 1/1/159 43/15/158 42/14/160
s 41
f 3/4/161 5/9/162 43/15/163
f 43/15/163 5/9/162 44/16/164
s 42
f 5/9/165 7/12/166 44/16/167
f 44/16/167 7/12/166 41/13/168
