# This file uses centimeters as units for non-parametric coordinates.

mtllib Vitrine3.mtl
g default
v -0.510053 -0.811995 0.975550
v 0.704549 -0.811995 0.975550
v -0.510053 0.499605 0.975550
v 0.704549 0.499605 0.975550
v -0.510053 0.499605 -0.975550
v 0.704549 0.499605 -0.975550
v -0.510053 -0.811995 -0.975550
v 0.704549 -0.811995 -0.975550
v -0.510053 0.560249 0.975550
v 0.704549 0.560249 0.975550
v 0.704549 0.560249 -0.975550
v -0.510053 0.560249 -0.975550
v -0.388803 0.560249 0.780777
v 0.583299 0.560249 0.780777
v 0.583299 0.560249 -0.780777
v -0.388803 0.560249 -0.780777
v -0.388803 0.617192 0.780777
v 0.583299 0.617192 0.780777
v 0.583299 0.617192 -0.780777
v -0.388803 0.617192 -0.780777
v -0.519875 0.617192 0.991328
v 0.714371 0.617192 0.991328
v 0.714371 0.617192 -0.991328
v -0.519875 0.617192 -0.991328
v -0.519875 0.712099 0.991328
v 0.714371 0.712099 0.991328
v 0.714371 0.712099 -0.991328
v -0.519875 0.712099 -0.991328
v -0.149929 0.712099 0.200372
v 0.344425 0.712099 0.200372
v 0.344425 0.712099 -0.300815
v -0.149929 0.712099 -0.300815
v -0.149929 0.785707 0.200372
v 0.344425 0.785707 0.200372
v 0.344425 0.785707 -0.300815
v -0.149929 0.785707 -0.300815
v -0.061317 0.811995 0.110535
v 0.255813 0.811995 0.110535
v 0.255813 0.811995 -0.210978
v -0.061317 0.811995 -0.210978
v -0.727353 -0.811995 -0.811987
v -0.727353 -0.811995 0.781068
v -0.727353 0.352509 0.780366
v -0.727353 0.352509 -0.811285
vt 0.516016 0.800797
vt 0.268695 0.322245
vt 0.371452 0.162193
vt 0.412907 0.990482
vt 0.622858 0.378264
vt 0.577335 0.378212
vt 0.577384 0.332056
vt 0.622907 0.332108
vt 0.149807 0.829393
vt 0.006796 0.726790
vt 0.030630 0.169440
vt 0.263756 0.654167
vt 0.282929 0.690897
vt 0.472285 0.803836
vt 0.393513 0.941881
vt 0.196139 0.819936
vt 0.589485 0.540859
vt 0.621750 0.708934
vt 0.661278 0.329834
vt 0.698075 0.228557
vt 0.577087 0.588628
vt 0.576113 0.727403
vt 0.547844 0.366253
vt 0.529178 0.227586
vt 0.933997 0.691337
vt 0.959545 0.844678
vt 0.900904 0.525668
vt 0.895482 0.382139
vt 0.866852 0.379395
vt 0.665355 0.408848
vt 0.913154 0.684569
vt 0.713086 0.716299
vt 0.858467 0.390077
vt 0.677007 0.415727
vt 0.901467 0.677761
vt 0.721275 0.705485
vt 0.953937 0.419847
vt 0.983071 0.484513
vt 0.924400 0.354287
vt 0.895265 0.289621
vt 0.564227 0.391570
vt 0.636047 0.391538
vt 0.564195 0.318782
vt 0.636015 0.318750
vt 0.992700 0.480175
vt 0.875357 0.219723
vt 0.904894 0.285283
vt 0.934028 0.349949
vt 0.963565 0.415509
vt 0.748279 0.521863
vt 0.865728 0.224061
vt 0.760271 0.596446
vt 0.832228 0.586420
vt 0.820704 0.512180
vt 0.992698 0.848089
vt 0.754316 0.152112
vt 0.932644 0.390303
vt 0.922112 0.513013
vt 0.961510 0.697663
vt 0.584307 0.727952
vt 0.540776 0.003733
vt 0.752897 0.188009
vt 0.537315 0.226896
vt 0.555954 0.365157
vt 0.585215 0.587817
vt 0.652509 0.688209
vt 0.790262 0.024909
vt 0.532601 0.003036
vt 0.723766 0.222631
vt 0.678847 0.350863
vt 0.617388 0.534514
vt 0.524497 0.249907
vt 0.408364 0.998008
vt 0.778206 0.002731
vt 0.145163 0.836851
vt 0.001981 0.734175
vt 0.376202 0.154793
vt 0.519748 0.257307
vt 0.417137 0.417342
vt 0.133357 0.009392
vt 0.138106 0.001992
vt 0.114732 0.560457
vn 0.000000 0.000000 1.000000
vn 0.000000 0.000000 1.000000
vn 0.000000 0.000000 1.000000
vn 0.000000 0.000000 1.000000
vn 0.000000 1.000000 0.000000
vn 0.000000 1.000000 0.000000
vn 0.000000 1.000000 0.000000
vn 0.000000 1.000000 0.000000
vn 0.000000 0.000000 -1.000000
vn 0.000000 0.000000 -1.000000
vn 0.000000 0.000000 -1.000000
vn 0.000000 0.000000 -1.000000
vn 0.000000 -1.000000 0.000000
vn 0.000000 -1.000000 0.000000
vn 0.000000 -1.000000 0.000000
vn 0.000000 -1.000000 0.000000
vn 1.000000 0.000000 0.000000
vn 1.000000 0.000000 0.000000
vn 1.000000 0.000000 0.000000
vn 1.000000 0.000000 0.000000
vn -1.000000 -0.000000 0.000000
vn -1.000000 -0.000000 0.000000
vn -1.000000 -0.000000 0.000000
vn -1.000000 0.000000 0.000000
vn 0.000000 0.000000 1.000000
vn 0.000000 0.000000 1.000000
vn 0.000000 0.000000 1.000000
vn 0.000000 0.000000 1.000000
vn 1.000000 0.000000 0.000000
vn 1.000000 0.000000 0.000000
vn 1.000000 0.000000 0.000000
vn 1.000000 0.000000 0.000000
vn 0.000000 0.000000 -1.000000
vn 0.000000 0.000000 -1.000000
vn 0.000000 0.000000 -1.000000
vn 0.000000 0.000000 -1.000000
vn -1.000000 0.000000 0.000000
vn -1.000000 0.000000 0.000000
vn -1.000000 0.000000 0.000000
vn -1.000000 0.000000 0.000000
vn 0.000000 1.000000 -0.000000
vn 0.000000 1.000000 -0.000001
vn 0.000000 1.000000 -0.000000
vn 0.000000 1.000000 -0.000001
vn 0.000000 1.000000 0.000000
vn 0.000000 1.000000 0.000000
vn 0.000000 1.000000 0.000000
vn 0.000000 1.000000 0.000000
vn 0.000000 1.000000 0.000000
vn 0.000000 1.000000 0.000000
vn 0.000000 1.000000 0.000000
vn 0.000000 1.000000 0.000000
vn 0.000000 1.000000 0.000000
vn 0.000000 1.000000 0.000000
vn 0.000000 1.000000 0.000000
vn 0.000000 1.000000 0.000000
vn 0.000000 -0.000004 1.000000
vn 0.000000 -0.000004 1.000000
vn 0.000000 -0.000004 1.000000
vn 0.000000 -0.000004 1.000000
vn 1.000000 0.000004 0.000000
vn 1.000000 0.000004 0.000000
vn 1.000000 0.000004 0.000000
vn 1.000000 0.000004 0.000000
vn 0.000000 0.000000 -1.000000
vn 0.000000 0.000000 -1.000000
vn 0.000000 0.000000 -1.000000
vn 0.000000 0.000000 -1.000000
vn -1.000000 0.000003 0.000000
vn -1.000000 0.000004 0.000000
vn -1.000000 0.000003 0.000000
vn -1.000000 0.000004 0.000000
vn 0.000000 -1.000000 -0.000000
vn 0.000000 -1.000000 -0.000000
vn 0.000000 -1.000000 -0.000000
vn 0.000000 -1.000000 0.000000
vn 0.000000 -1.000000 0.000000
vn 0.000000 -1.000000 0.000000
vn 0.000000 -1.000000 0.000000
vn 0.000000 -1.000000 0.000000
vn 0.000000 -1.000000 0.000001
vn 0.000000 -1.000000 -0.000000
vn 0.000000 -1.000000 0.000000
vn 0.000000 -1.000000 -0.000000
vn 0.000000 -1.000000 0.000000
vn 0.000000 -1.000000 0.000000
vn 0.000000 -1.000000 0.000000
vn 0.000000 -1.000000 0.000000
vn 0.000000 0.000000 1.000000
vn 0.000000 0.000000 1.000000
vn 0.000000 0.000000 1.000000
vn 0.000000 0.000000 1.000000
vn 1.000000 0.000000 0.000000
vn 1.000000 0.000000 0.000000
vn 1.000000 0.000000 0.000000
vn 1.000000 0.000000 0.000000
vn 0.000000 0.000000 -1.000000
vn 0.000000 0.000000 -1.000000
vn 0.000000 0.000000 -1.000000
vn 0.000000 0.000000 -1.000000
vn -1.000000 0.000000 0.000000
vn -1.000000 0.000000 0.000000
vn -1.000000 0.000000 0.000000
vn -1.000000 0.000000 0.000000
vn 0.000000 1.000000 0.000000
vn 0.000000 1.000000 0.000000
vn 0.000000 1.000000 0.000000
vn 0.000000 1.000000 0.000000
vn 0.000000 1.000000 0.000000
vn 0.000000 1.000000 0.000000
vn 0.000000 1.000000 0.000000
vn 0.000000 1.000000 0.000000
vn 0.000000 1.000000 -0.000000
vn 0.000000 1.000000 -0.000000
vn 0.000000 1.000000 -0.000000
vn 0.000000 1.000000 0.000000
vn 0.000000 1.000000 0.000000
vn 0.000000 1.000000 0.000000
vn 0.000000 1.000000 0.000000
vn 0.000000 1.000000 0.000000
vn 0.000000 0.000000 1.000000
vn 0.000000 0.000000 1.000000
vn 0.000000 0.000000 1.000000
vn 0.000000 0.000000 1.000000
vn 1.000000 0.000000 0.000000
vn 1.000000 0.000000 0.000000
vn 1.000000 0.000000 0.000000
vn 1.000000 0.000000 0.000000
vn 0.000000 0.000000 -1.000000
vn 0.000000 0.000000 -1.000000
vn 0.000000 0.000000 -1.000000
vn 0.000000 0.000000 -1.000000
vn -1.000000 0.000000 0.000000
vn -1.000000 0.000000 0.000000
vn -1.000000 0.000000 0.000000
vn -1.000000 0.000000 0.000000
vn 0.000000 0.959753 0.280847
vn 0.000000 0.959753 0.280847
vn 0.000000 0.959753 0.280847
vn 0.000000 0.959753 0.280846
vn 0.284418 0.958701 0.000000
vn 0.284418 0.958701 0.000000
vn 0.284418 0.958701 0.000000
vn 0.284418 0.958700 0.000000
vn 0.000000 0.959753 -0.280847
vn 0.000000 0.959753 -0.280847
vn 0.000000 0.959753 -0.280847
vn 0.000000 0.959753 -0.280846
vn -0.284418 0.958701 0.000000
vn -0.284418 0.958700 0.000000
vn -0.284418 0.958701 0.000000
vn -0.284418 0.958701 0.000000
vn 0.000000 -1.000000 0.000000
vn 0.000000 -1.000000 0.000000
vn 0.000000 -1.000000 0.000000
vn 0.000000 -1.000000 0.000000
vn -0.668234 0.000000 0.743952
vn -0.668089 0.000049 0.744081
vn -0.667132 0.000371 0.744939
vn -0.666901 0.000449 0.745146
vn -0.560566 0.828110 0.000000
vn -0.560566 0.828110 0.000000
vn -0.560566 0.828110 0.000000
vn -0.560566 0.828110 0.000000
vn -0.603025 0.000000 -0.797722
vn -0.601648 0.000403 -0.798761
vn -0.602861 0.000048 -0.797846
vn -0.601382 0.000481 -0.798961
s 1
g Vitrine_3
usemtl lambert5SG
f 1/79/1 2/2/2 3/78/3
f 3/78/3 2/2/2 4/3/4
s 2
f 37/5/5 38/6/6 40/8/7
f 40/8/7 38/6/6 39/7/8
s 3
f 5/9/9 6/10/10 7/12/11
f 7/12/11 6/10/10 8/82/12
s 4
f 7/12/13 8/82/14 1/79/15
f 1/79/15 8/82/14 2/2/16
s 5
f 2/2/17 8/11/18 4/3/19
f 4/3/19 8/11/18 6/80/20
s 6
f 41/13/21 42/14/22 44/16/23
f 44/16/23 42/14/22 43/15/24
s 7
f 3/78/25 4/3/26 9/72/27
f 9/72/27 4/3/26 10/77/28
s 8
f 4/3/29 6/80/30 10/77/31
f 10/77/31 6/80/30 11/81/32
s 9
f 6/10/33 5/9/34 11/76/35
f 11/76/35 5/9/34 12/75/36
s 10
f 5/9/37 3/4/38 12/75/39
f 12/75/39 3/4/38 9/73/40
s 11
f 9/18/41 10/17/42 13/66/43
f 13/66/43 10/17/42 14/71/44
s 12
f 10/17/45 11/19/46 14/71/47
f 14/71/47 11/19/46 15/70/48
s 13
f 11/19/49 12/20/50 15/70/51
f 15/70/51 12/20/50 16/69/52
s 14
f 12/20/53 9/74/54 16/69/55
f 16/69/55 9/74/54 13/67/56
s 15
f 13/22/57 14/21/58 17/60/59
f 17/60/59 14/21/58 18/65/60
s 16
f 14/21/61 15/23/62 18/65/63
f 18/65/63 15/23/62 19/64/64
s 17
f 15/23/65 16/24/66 19/64/67
f 19/64/67 16/24/66 20/63/68
s 18
f 16/24/69 13/68/70 20/63/71
f 20/63/71 13/68/70 17/61/72
s 19
f 17/26/73 18/25/74 21/55/75
f 21/55/75 18/25/74 22/59/76
s 20
f 18/25/77 19/27/78 22/59/79
f 22/59/79 19/27/78 23/58/80
s 21
f 19/27/81 20/28/82 23/58/83
f 23/58/83 20/28/82 24/57/84
s 22
f 20/28/85 17/62/86 24/57/87
f 24/57/87 17/62/86 21/56/88
s 23
f 21/30/89 22/29/90 25/34/91
f 25/34/91 22/29/90 26/33/92
s 24
f 22/29/93 23/31/94 26/33/95
f 26/33/95 23/31/94 27/35/96
s 25
f 23/31/97 24/32/98 27/35/99
f 27/35/99 24/32/98 28/36/100
s 26
f 24/32/101 21/30/102 28/36/103
f 28/36/103 21/30/102 25/34/104
s 27
f 25/34/105 26/33/106 29/50/107
f 29/50/107 26/33/106 30/54/108
s 28
f 26/33/109 27/35/110 30/54/111
f 30/54/111 27/35/110 31/53/112
s 29
f 27/35/113 28/36/114 31/53/115
f 31/53/115 28/36/114 32/52/116
s 30
f 25/34/117 29/50/118 28/36/119
f 28/36/119 29/50/118 32/52/120
s 31
f 29/38/121 30/37/122 33/45/123
f 33/45/123 30/37/122 34/49/124
s 32
f 30/37/125 31/39/126 34/49/127
f 34/49/127 31/39/126 35/48/128
s 33
f 31/39/129 32/40/130 35/48/131
f 35/48/131 32/40/130 36/47/132
s 34
f 32/40/133 29/51/134 36/47/135
f 36/47/135 29/51/134 33/46/136
s 35
f 33/42/137 34/41/138 37/5/139
f 37/5/139 34/41/138 38/6/140
s 36
f 34/41/141 35/43/142 38/6/143
f 38/6/143 35/43/142 39/7/144
s 37
f 35/43/145 36/44/146 39/7/147
f 39/7/147 36/44/146 40/8/148
s 38
f 36/44/149 33/42/150 40/8/151
f 40/8/151 33/42/150 37/5/152
s 39
f 1/1/153 42/14/154 7/12/155
f 7/12/155 42/14/154 41/13/156
s 40
f 3/4/157 43/15/158 1/1/159
f 1/1/159 43/15/158 42/14/160
s 41
f 3/4/161 5/9/162 43/15/163
f 43/15/163 5/9/162 44/16/164
s 42
f 5/9/165 7/12/166 44/16/167
f 44/16/167 7/12/166 41/13/168
