# This file uses centimeters as units for non-parametric coordinates.

mtllib Vitrine4_UV.mtl
g default
v -0.510053 -0.811995 0.966107
v 0.704549 -0.811995 0.966107
v -0.510053 0.499605 0.966107
v 0.704549 0.499605 0.966107
v -0.510053 0.499605 -0.966108
v 0.704549 0.499605 -0.966108
v -0.510053 -0.811995 -0.966108
v 0.704549 -0.811995 -0.966108
v -0.510053 0.560249 0.966107
v 0.704549 0.560249 0.966107
v 0.704549 0.560249 -0.966108
v -0.510053 0.560249 -0.966108
v -0.388803 0.560249 0.773221
v 0.583299 0.560249 0.773221
v 0.583299 0.560249 -0.773221
v -0.388803 0.560249 -0.773221
v -0.388803 0.617192 0.773221
v 0.583299 0.617192 0.773221
v 0.583299 0.617192 -0.773221
v -0.388803 0.617192 -0.773221
v -0.519875 0.617192 0.981732
v 0.714371 0.617192 0.981732
v 0.714371 0.617192 -0.981733
v -0.519875 0.617192 -0.981733
v -0.519875 0.712099 0.981732
v 0.714371 0.712099 0.981732
v 0.714371 0.712099 -0.981733
v -0.519875 0.712099 -0.981733
v -0.149929 0.712099 0.393213
v 0.344425 0.712099 0.393213
v 0.344425 0.712099 -0.393214
v -0.149929 0.712099 -0.393214
v -0.149929 0.785707 0.393213
v 0.344425 0.785707 0.393213
v 0.344425 0.785707 -0.393214
v -0.149929 0.785707 -0.393214
v -0.061317 0.811995 0.252247
v 0.255813 0.811995 0.252247
v 0.255813 0.811995 -0.252248
v -0.061317 0.811995 -0.252248
vt 0.203927 0.991663
vt 0.204105 0.795007
vt 0.410564 0.988263
vt 0.410948 0.796111
vt 0.772340 0.590834
vt 0.692368 0.601436
vt 0.773578 0.459111
vt 0.693606 0.469713
vt 0.416499 0.259484
vt 0.413485 0.478789
vt 0.206768 0.259795
vt 0.206300 0.478328
vt 0.014198 0.478065
vt 0.013439 0.793704
vt 0.430833 0.988394
vt 0.430664 0.796499
vt 0.433693 0.478875
vt 0.434628 0.259206
vt 0.417724 0.018920
vt 0.434954 0.018364
vt 0.996395 0.795877
vt 0.511429 0.860942
vt 0.469551 0.264670
vt 0.954517 0.199605
vt 0.980132 0.786094
vt 0.524999 0.848206
vt 0.485814 0.274453
vt 0.940947 0.212342
vt 0.933307 0.792479
vt 0.529622 0.845707
vt 0.532639 0.268068
vt 0.936324 0.214840
vt 0.911267 0.781043
vt 0.550089 0.828290
vt 0.554679 0.279505
vt 0.915857 0.232257
vt 0.810824 0.632941
vt 0.655239 0.655324
vt 0.655123 0.427606
vt 0.810707 0.405223
vt 0.795213 0.624756
vt 0.668877 0.641700
vt 0.670733 0.435792
vt 0.797069 0.418847
vt 0.208257 0.019561
vt 0.477222 0.964662
vt 0.462994 0.253108
vt 0.463128 0.496298
vt 0.460148 0.777239
vt 0.462439 0.042509
vn 0.000000 0.000000 1.000000
vn 0.000000 0.000000 1.000000
vn 0.000000 0.000000 1.000000
vn 0.000000 0.000000 1.000000
vn 0.000000 0.000000 1.000000
vn 0.000000 0.000000 1.000000
vn 0.000000 1.000000 0.000000
vn 0.000000 1.000000 0.000000
vn 0.000000 1.000000 0.000000
vn 0.000000 1.000000 0.000000
vn 0.000000 1.000000 0.000000
vn 0.000000 1.000000 0.000000
vn 0.000000 0.000000 -1.000000
vn 0.000000 0.000000 -1.000000
vn 0.000000 0.000000 -1.000000
vn 0.000000 0.000000 -1.000000
vn 0.000000 0.000000 -1.000000
vn 0.000000 0.000000 -1.000000
vn 0.000000 -1.000000 0.000000
vn 0.000000 -1.000000 0.000000
vn 0.000000 -1.000000 0.000000
vn 0.000000 -1.000000 0.000000
vn 0.000000 -1.000000 0.000000
vn 0.000000 -1.000000 0.000000
vn 1.000000 0.000000 0.000000
vn 1.000000 0.000000 0.000000
vn 1.000000 0.000000 0.000000
vn 1.000000 0.000000 0.000000
vn 1.000000 0.000000 0.000000
vn 1.000000 0.000000 0.000000
vn 0.000000 0.000000 1.000000
vn 0.000000 0.000000 1.000000
vn 0.000000 0.000000 1.000000
vn 0.000000 0.000000 1.000000
vn 0.000000 0.000000 1.000000
vn 0.000000 0.000000 1.000000
vn 1.000000 0.000000 0.000000
vn 1.000000 0.000000 0.000000
vn 1.000000 0.000000 0.000000
vn 1.000000 0.000000 0.000000
vn 1.000000 0.000000 0.000000
vn 1.000000 0.000000 0.000000
vn 0.000000 0.000000 -1.000000
vn 0.000000 0.000000 -1.000000
vn 0.000000 0.000000 -1.000000
vn 0.000000 0.000000 -1.000000
vn 0.000000 0.000000 -1.000000
vn 0.000000 0.000000 -1.000000
vn -1.000000 0.000000 0.000000
vn -1.000000 0.000000 0.000000
vn -1.000000 0.000000 0.000000
vn -1.000000 0.000000 0.000000
vn -1.000000 0.000000 0.000000
vn -1.000000 0.000000 0.000000
vn 0.000000 1.000000 0.000000
vn 0.000000 1.000000 -0.000001
vn 0.000000 1.000000 0.000000
vn 0.000000 1.000000 0.000000
vn 0.000000 1.000000 -0.000001
vn 0.000000 1.000000 -0.000001
vn 0.000000 1.000000 0.000000
vn 0.000000 1.000000 0.000000
vn 0.000000 1.000000 0.000000
vn 0.000000 1.000000 0.000000
vn 0.000000 1.000000 0.000000
vn 0.000000 1.000000 0.000000
vn 0.000000 1.000000 0.000000
vn 0.000000 1.000000 0.000000
vn 0.000000 1.000000 0.000000
vn 0.000000 1.000000 0.000000
vn 0.000000 1.000000 0.000000
vn 0.000000 1.000000 0.000000
vn 0.000000 1.000000 0.000000
vn 0.000000 1.000000 0.000000
vn 0.000000 1.000000 0.000000
vn 0.000000 1.000000 0.000000
vn 0.000000 1.000000 0.000000
vn 0.000000 1.000000 0.000000
vn 0.000000 0.000000 1.000000
vn 0.000000 0.000000 1.000000
vn 0.000000 0.000000 1.000000
vn 0.000000 0.000000 1.000000
vn 0.000000 0.000000 1.000000
vn 0.000000 0.000000 1.000000
vn 1.000000 0.000004 0.000000
vn 1.000000 0.000004 0.000000
vn 1.000000 0.000004 0.000000
vn 1.000000 0.000004 0.000000
vn 1.000000 0.000004 0.000000
vn 1.000000 0.000004 0.000000
vn 0.000000 0.000000 -1.000000
vn 0.000000 0.000000 -1.000000
vn 0.000000 0.000000 -1.000000
vn 0.000000 0.000000 -1.000000
vn 0.000000 0.000000 -1.000000
vn 0.000000 0.000000 -1.000000
vn -1.000000 0.000003 0.000000
vn -1.000000 0.000003 0.000000
vn -1.000000 0.000003 0.000000
vn -1.000000 0.000003 0.000000
vn -1.000000 0.000003 0.000000
vn -1.000000 0.000003 0.000000
vn 0.000000 -1.000000 0.000000
vn 0.000000 -1.000000 0.000000
vn 0.000000 -1.000000 0.000000
vn 0.000000 -1.000000 0.000000
vn 0.000000 -1.000000 0.000000
vn 0.000000 -1.000000 0.000000
vn 0.000000 -1.000000 0.000000
vn 0.000000 -1.000000 0.000000
vn 0.000000 -1.000000 0.000000
vn 0.000000 -1.000000 0.000000
vn 0.000000 -1.000000 0.000000
vn 0.000000 -1.000000 0.000000
vn 0.000000 -1.000000 0.000001
vn 0.000000 -1.000000 0.000000
vn 0.000000 -1.000000 0.000000
vn 0.000000 -1.000000 0.000000
vn 0.000000 -1.000000 0.000000
vn 0.000000 -1.000000 0.000000
vn 0.000000 -1.000000 0.000000
vn 0.000000 -1.000000 0.000000
vn 0.000000 -1.000000 0.000000
vn 0.000000 -1.000000 0.000000
vn 0.000000 -1.000000 0.000000
vn 0.000000 -1.000000 0.000000
vn 0.000000 0.000000 1.000000
vn 0.000000 0.000000 1.000000
vn 0.000000 0.000000 1.000000
vn 0.000000 0.000000 1.000000
vn 0.000000 0.000000 1.000000
vn 0.000000 0.000000 1.000000
vn 1.000000 0.000000 0.000000
vn 1.000000 0.000000 0.000000
vn 1.000000 0.000000 0.000000
vn 1.000000 0.000000 0.000000
vn 1.000000 0.000000 0.000000
vn 1.000000 0.000000 0.000000
vn 0.000000 0.000000 -1.000000
vn 0.000000 0.000000 -1.000000
vn 0.000000 0.000000 -1.000000
vn 0.000000 0.000000 -1.000000
vn 0.000000 0.000000 -1.000000
vn 0.000000 0.000000 -1.000000
vn -1.000000 0.000000 0.000000
vn -1.000000 0.000000 0.000000
vn -1.000000 0.000000 0.000000
vn -1.000000 0.000000 0.000000
vn -1.000000 0.000000 0.000000
vn -1.000000 0.000000 0.000000
vn 0.000000 1.000000 0.000000
vn 0.000000 1.000000 0.000000
vn 0.000000 1.000000 0.000000
vn 0.000000 1.000000 0.000000
vn 0.000000 1.000000 0.000000
vn 0.000000 1.000000 0.000000
vn 0.000000 1.000000 0.000000
vn 0.000000 1.000000 0.000000
vn 0.000000 1.000000 0.000000
vn 0.000000 1.000000 0.000000
vn 0.000000 1.000000 0.000000
vn 0.000000 1.000000 0.000000
vn 0.000000 1.000000 0.000000
vn 0.000000 1.000000 0.000000
vn 0.000000 1.000000 0.000000
vn 0.000000 1.000000 0.000000
vn 0.000000 1.000000 0.000000
vn 0.000000 1.000000 0.000000
vn 0.000000 1.000000 0.000000
vn 0.000000 1.000000 0.000000
vn 0.000000 1.000000 0.000000
vn 0.000000 1.000000 0.000000
vn 0.000000 1.000000 0.000000
vn 0.000000 1.000000 0.000000
vn 0.000000 0.000000 1.000000
vn 0.000000 0.000000 1.000000
vn 0.000000 0.000000 1.000000
vn 0.000000 0.000000 1.000000
vn 0.000000 0.000000 1.000000
vn 0.000000 0.000000 1.000000
vn 1.000000 0.000000 0.000000
vn 1.000000 0.000000 0.000000
vn 1.000000 0.000000 0.000000
vn 1.000000 0.000000 0.000000
vn 1.000000 0.000000 0.000000
vn 1.000000 0.000000 0.000000
vn 0.000000 0.000000 -1.000000
vn 0.000000 0.000000 -1.000000
vn 0.000000 0.000000 -1.000000
vn 0.000000 0.000000 -1.000000
vn 0.000000 0.000000 -1.000000
vn 0.000000 0.000000 -1.000000
vn -1.000000 0.000000 0.000000
vn -1.000000 0.000000 0.000000
vn -1.000000 0.000000 0.000000
vn -1.000000 0.000000 0.000000
vn -1.000000 0.000000 0.000000
vn -1.000000 0.000000 0.000000
vn 0.000000 0.983052 0.183328
vn 0.000000 0.983052 0.183327
vn 0.000000 0.983052 0.183328
vn 0.000000 0.983052 0.183328
vn 0.000000 0.983052 0.183327
vn 0.000000 0.983052 0.183327
vn 0.284418 0.958700 0.000000
vn 0.284418 0.958700 0.000000
vn 0.284418 0.958700 0.000000
vn 0.284418 0.958700 0.000000
vn 0.284418 0.958700 0.000000
vn 0.284418 0.958700 0.000000
vn 0.000000 0.983052 -0.183328
vn 0.000000 0.983052 -0.183327
vn 0.000000 0.983052 -0.183328
vn 0.000000 0.983052 -0.183328
vn 0.000000 0.983052 -0.183327
vn 0.000000 0.983052 -0.183327
vn -0.284418 0.958700 0.000000
vn -0.284418 0.958700 0.000000
vn -0.284418 0.958700 0.000000
vn -0.284418 0.958700 0.000000
vn -0.284418 0.958700 0.000000
vn -0.284418 0.958700 0.000000
vn -1.000000 0.000000 0.000000
vn -1.000000 0.000000 0.000000
vn -1.000000 0.000000 0.000000
vn -1.000000 0.000000 0.000000
vn -1.000000 0.000000 0.000000
vn -1.000000 0.000000 0.000000
s off
g Vitrine4:Vitrine_4
usemtl lambert2SG
f 1/1/1 2/2/2 3/3/3
f 3/3/4 2/2/5 4/4/6
f 37/5/7 38/6/8 40/7/9
f 40/7/10 38/6/11 39/8/12
f 5/9/13 6/10/14 7/11/15
f 7/11/16 6/10/17 8/12/18
f 7/13/19 8/12/20 1/14/21
f 1/14/22 8/12/23 2/2/24
f 2/2/25 8/12/26 4/4/27
f 4/4/28 8/12/29 6/10/30
f 3/3/31 4/4/32 9/15/33
f 9/15/34 4/4/35 10/16/36
f 4/4/37 6/10/38 10/16/39
f 10/16/40 6/10/41 11/17/42
f 6/10/43 5/9/44 11/17/45
f 11/17/46 5/9/47 12/18/48
f 5/9/49 3/19/50 12/18/51
f 12/18/52 3/19/53 9/20/54
f 9/15/55 10/16/56 13/46/57
f 13/46/58 10/16/59 14/49/60
f 10/16/61 11/17/62 14/49/63
f 14/49/64 11/17/65 15/48/66
f 11/17/67 12/18/68 15/48/69
f 15/48/70 12/18/71 16/47/72
f 12/18/73 9/20/74 16/47/75
f 16/47/76 9/20/77 13/50/78
f 13/21/79 14/22/80 17/25/81
f 17/25/82 14/22/83 18/26/84
f 14/22/85 15/23/86 18/26/87
f 18/26/88 15/23/89 19/27/90
f 15/23/91 16/24/92 19/27/93
f 19/27/94 16/24/95 20/28/96
f 16/24/97 13/21/98 20/28/99
f 20/28/100 13/21/101 17/25/102
f 17/25/103 18/26/104 21/29/105
f 21/29/106 18/26/107 22/30/108
f 18/26/109 19/27/110 22/30/111
f 22/30/112 19/27/113 23/31/114
f 19/27/115 20/28/116 23/31/117
f 23/31/118 20/28/119 24/32/120
f 20/28/121 17/25/122 24/32/123
f 24/32/124 17/25/125 21/29/126
f 21/29/127 22/30/128 25/33/129
f 25/33/130 22/30/131 26/34/132
f 22/30/133 23/31/134 26/34/135
f 26/34/136 23/31/137 27/35/138
f 23/31/139 24/32/140 27/35/141
f 27/35/142 24/32/143 28/36/144
f 24/32/145 21/29/146 28/36/147
f 28/36/148 21/29/149 25/33/150
f 25/33/151 26/34/152 29/37/153
f 29/37/154 26/34/155 30/38/156
f 26/34/157 27/35/158 30/38/159
f 30/38/160 27/35/161 31/39/162
f 27/35/163 28/36/164 31/39/165
f 31/39/166 28/36/167 32/40/168
f 28/36/169 25/33/170 32/40/171
f 32/40/172 25/33/173 29/37/174
f 29/37/175 30/38/176 33/41/177
f 33/41/178 30/38/179 34/42/180
f 30/38/181 31/39/182 34/42/183
f 34/42/184 31/39/185 35/43/186
f 31/39/187 32/40/188 35/43/189
f 35/43/190 32/40/191 36/44/192
f 32/40/193 29/37/194 36/44/195
f 36/44/196 29/37/197 33/41/198
f 33/41/199 34/42/200 37/5/201
f 37/5/202 34/42/203 38/6/204
f 34/42/205 35/43/206 38/6/207
f 38/6/208 35/43/209 39/8/210
f 35/43/211 36/44/212 39/8/213
f 39/8/214 36/44/215 40/7/216
f 36/44/217 33/41/218 40/7/219
f 40/7/220 33/41/221 37/5/222
f 1/45/223 3/19/224 7/11/225
f 7/11/226 3/19/227 5/9/228
