# This file uses centimeters as units for non-parametric coordinates.

mtllib Vitrine1_UV.mtl
g default
v -0.510053 -0.811995 0.615697
v 0.704549 -0.811995 0.615697
v -0.510053 0.499605 0.615697
v 0.704549 0.499605 0.615697
v -0.510053 0.499605 -0.615697
v 0.704549 0.499605 -0.615697
v -0.510053 -0.811995 -0.615697
v 0.704549 -0.811995 -0.615697
v -0.510053 0.560249 0.615697
v 0.704549 0.560249 0.615697
v 0.704549 0.560249 -0.615697
v -0.510053 0.560249 -0.615697
v -0.388803 0.560249 0.492771
v 0.583299 0.560249 0.492771
v 0.583299 0.560249 -0.492771
v -0.388803 0.560249 -0.492771
v -0.388803 0.617192 0.492771
v 0.583299 0.617192 0.492771
v 0.583299 0.617192 -0.492771
v -0.388803 0.617192 -0.492771
v -0.519875 0.617192 0.625655
v 0.714371 0.617192 0.625655
v 0.714371 0.617192 -0.625655
v -0.519875 0.617192 -0.625655
v -0.519875 0.712099 0.625655
v 0.714371 0.712099 0.625655
v 0.714371 0.712099 -0.625655
v -0.519875 0.712099 -0.625655
v -0.149929 0.712099 0.250594
v 0.344425 0.712099 0.250594
v 0.344425 0.712099 -0.250594
v -0.149929 0.712099 -0.250594
v -0.149929 0.785707 0.250594
v 0.344425 0.785707 0.250594
v 0.344425 0.785707 -0.250594
v -0.149929 0.785707 -0.250594
v -0.061317 0.811995 0.160757
v 0.255813 0.811995 0.160757
v 0.255813 0.811995 -0.160757
v -0.061317 0.811995 -0.160757
vt 0.992016 0.310247
vt 0.741138 0.308051
vt 0.993340 0.030781
vt 0.742726 0.042544
vt 0.569813 0.718950
vt 0.570137 0.591720
vt 0.699064 0.719153
vt 0.699388 0.591923
vt 0.254829 0.054101
vt 0.496627 0.042847
vt 0.254024 0.312619
vt 0.496904 0.309894
vt 0.254058 0.553226
vt 0.009044 0.312922
vt 0.009859 0.553787
vt 0.992874 0.018009
vt 0.742024 0.031643
vt 0.497705 0.031644
vt 0.253898 0.034767
vt 0.009045 0.054759
vt 0.008797 0.028690
vt 0.992923 0.007939
vt 0.742614 0.008116
vt 0.498354 0.008544
vt 0.254278 0.009124
vt 0.009012 0.010787
vt 0.297249 0.994147
vt 0.294507 0.319869
vt 0.313548 0.977110
vt 0.311414 0.336312
vt 0.971952 0.316726
vt 0.955653 0.333764
vt 0.974694 0.991005
vt 0.957787 0.974561
vt 0.320214 0.968694
vt 0.318201 0.344740
vt 0.948987 0.342180
vt 0.951000 0.966134
vt 0.347539 0.939267
vt 0.347330 0.372365
vt 0.921663 0.371606
vt 0.921871 0.938509
vt 0.514313 0.777175
vt 0.511540 0.536625
vt 0.754888 0.533699
vt 0.757661 0.774249
vt 0.532674 0.755655
vt 0.532927 0.555145
vt 0.736527 0.555219
vt 0.736274 0.755728
vn 0.000000 0.000000 1.000000
vn 0.000000 0.000000 1.000000
vn 0.000000 0.000000 1.000000
vn 0.000000 0.000000 1.000000
vn 0.000000 0.000000 1.000000
vn 0.000000 0.000000 1.000000
vn 0.000000 1.000000 0.000000
vn 0.000000 1.000000 0.000000
vn 0.000000 1.000000 0.000000
vn 0.000000 1.000000 0.000000
vn 0.000000 1.000000 0.000000
vn 0.000000 1.000000 0.000000
vn 0.000000 0.000000 -1.000000
vn 0.000000 0.000000 -1.000000
vn 0.000000 0.000000 -1.000000
vn 0.000000 0.000000 -1.000000
vn 0.000000 0.000000 -1.000000
vn 0.000000 0.000000 -1.000000
vn 0.000000 -1.000000 0.000000
vn 0.000000 -1.000000 0.000000
vn 0.000000 -1.000000 0.000000
vn 0.000000 -1.000000 0.000000
vn 0.000000 -1.000000 0.000000
vn 0.000000 -1.000000 0.000000
vn 1.000000 0.000000 0.000000
vn 1.000000 0.000000 0.000000
vn 1.000000 0.000000 0.000000
vn 1.000000 0.000000 0.000000
vn 1.000000 0.000000 0.000000
vn 1.000000 0.000000 0.000000
vn 0.000000 0.000000 1.000000
vn 0.000000 0.000000 1.000000
vn 0.000000 0.000000 1.000000
vn 0.000000 0.000000 1.000000
vn 0.000000 0.000000 1.000000
vn 0.000000 0.000000 1.000000
vn 1.000000 0.000000 0.000000
vn 1.000000 0.000000 0.000000
vn 1.000000 0.000000 0.000000
vn 1.000000 0.000000 0.000000
vn 1.000000 0.000000 0.000000
vn 1.000000 0.000000 0.000000
vn 0.000000 0.000000 -1.000000
vn 0.000000 0.000000 -1.000000
vn 0.000000 0.000000 -1.000000
vn 0.000000 0.000000 -1.000000
vn 0.000000 0.000000 -1.000000
vn 0.000000 0.000000 -1.000000
vn -1.000000 0.000000 0.000000
vn -1.000000 0.000000 0.000000
vn -1.000000 0.000000 0.000000
vn -1.000000 0.000000 0.000000
vn -1.000000 0.000000 0.000000
vn -1.000000 0.000000 0.000000
vn 0.000000 1.000000 0.000000
vn 0.000000 1.000000 -0.000001
vn 0.000000 1.000000 0.000000
vn 0.000000 1.000000 0.000000
vn 0.000000 1.000000 -0.000001
vn 0.000000 1.000000 -0.000001
vn 0.000000 1.000000 0.000000
vn 0.000000 1.000000 0.000000
vn 0.000000 1.000000 0.000000
vn 0.000000 1.000000 0.000000
vn 0.000000 1.000000 0.000000
vn 0.000000 1.000000 0.000000
vn 0.000000 1.000000 0.000000
vn 0.000000 1.000000 0.000000
vn 0.000000 1.000000 0.000000
vn 0.000000 1.000000 0.000000
vn 0.000000 1.000000 0.000000
vn 0.000000 1.000000 0.000000
vn 0.000000 1.000000 0.000000
vn 0.000000 1.000000 0.000000
vn 0.000000 1.000000 0.000000
vn 0.000000 1.000000 0.000000
vn 0.000000 1.000000 0.000000
vn 0.000000 1.000000 0.000000
vn 0.000000 0.000000 1.000000
vn 0.000000 0.000000 1.000000
vn 0.000000 0.000000 1.000000
vn 0.000000 0.000000 1.000000
vn 0.000000 0.000000 1.000000
vn 0.000000 0.000000 1.000000
vn 1.000000 0.000004 0.000000
vn 1.000000 0.000004 0.000000
vn 1.000000 0.000004 0.000000
vn 1.000000 0.000004 0.000000
vn 1.000000 0.000004 0.000000
vn 1.000000 0.000004 0.000000
vn 0.000000 0.000000 -1.000000
vn 0.000000 0.000000 -1.000000
vn 0.000000 0.000000 -1.000000
vn 0.000000 0.000000 -1.000000
vn 0.000000 0.000000 -1.000000
vn 0.000000 0.000000 -1.000000
vn -1.000000 0.000003 0.000000
vn -1.000000 0.000003 0.000000
vn -1.000000 0.000003 0.000000
vn -1.000000 0.000003 0.000000
vn -1.000000 0.000003 0.000000
vn -1.000000 0.000003 0.000000
vn 0.000000 -1.000000 0.000000
vn 0.000000 -1.000000 0.000000
vn 0.000000 -1.000000 0.000000
vn 0.000000 -1.000000 0.000000
vn 0.000000 -1.000000 0.000000
vn 0.000000 -1.000000 0.000000
vn 0.000000 -1.000000 0.000000
vn 0.000000 -1.000000 0.000000
vn 0.000000 -1.000000 0.000000
vn 0.000000 -1.000000 0.000000
vn 0.000000 -1.000000 0.000000
vn 0.000000 -1.000000 0.000000
vn 0.000000 -1.000000 0.000001
vn 0.000000 -1.000000 -0.000001
vn 0.000000 -1.000000 0.000001
vn 0.000000 -1.000000 0.000001
vn 0.000000 -1.000000 -0.000001
vn 0.000000 -1.000000 -0.000001
vn 0.000000 -1.000000 0.000000
vn 0.000000 -1.000000 0.000000
vn 0.000000 -1.000000 0.000000
vn 0.000000 -1.000000 0.000000
vn 0.000000 -1.000000 0.000000
vn 0.000000 -1.000000 0.000000
vn 0.000000 0.000000 1.000000
vn 0.000000 0.000000 1.000000
vn 0.000000 0.000000 1.000000
vn 0.000000 0.000000 1.000000
vn 0.000000 0.000000 1.000000
vn 0.000000 0.000000 1.000000
vn 1.000000 0.000000 0.000000
vn 1.000000 0.000000 0.000000
vn 1.000000 0.000000 0.000000
vn 1.000000 0.000000 0.000000
vn 1.000000 0.000000 0.000000
vn 1.000000 0.000000 0.000000
vn 0.000000 0.000000 -1.000000
vn 0.000000 0.000000 -1.000000
vn 0.000000 0.000000 -1.000000
vn 0.000000 0.000000 -1.000000
vn 0.000000 0.000000 -1.000000
vn 0.000000 0.000000 -1.000000
vn -1.000000 0.000000 0.000000
vn -1.000000 0.000000 0.000000
vn -1.000000 0.000000 0.000000
vn -1.000000 0.000000 0.000000
vn -1.000000 0.000000 0.000000
vn -1.000000 0.000000 0.000000
vn 0.000000 1.000000 0.000000
vn 0.000000 1.000000 0.000000
vn 0.000000 1.000000 0.000000
vn 0.000000 1.000000 0.000000
vn 0.000000 1.000000 0.000000
vn 0.000000 1.000000 0.000000
vn 0.000000 1.000000 0.000000
vn 0.000000 1.000000 0.000000
vn 0.000000 1.000000 0.000000
vn 0.000000 1.000000 0.000000
vn 0.000000 1.000000 0.000000
vn 0.000000 1.000000 0.000000
vn 0.000000 1.000000 0.000000
vn 0.000000 1.000000 0.000000
vn 0.000000 1.000000 0.000000
vn 0.000000 1.000000 0.000000
vn 0.000000 1.000000 0.000000
vn 0.000000 1.000000 0.000000
vn 0.000000 1.000000 0.000000
vn 0.000000 1.000000 0.000000
vn 0.000000 1.000000 0.000000
vn 0.000000 1.000000 0.000000
vn 0.000000 1.000000 0.000000
vn 0.000000 1.000000 0.000000
vn 0.000000 0.000000 1.000000
vn 0.000000 0.000000 1.000000
vn 0.000000 0.000000 1.000000
vn 0.000000 0.000000 1.000000
vn 0.000000 0.000000 1.000000
vn 0.000000 0.000000 1.000000
vn 1.000000 0.000000 0.000000
vn 1.000000 0.000000 0.000000
vn 1.000000 0.000000 0.000000
vn 1.000000 0.000000 0.000000
vn 1.000000 0.000000 0.000000
vn 1.000000 0.000000 0.000000
vn 0.000000 0.000000 -1.000000
vn 0.000000 0.000000 -1.000000
vn 0.000000 0.000000 -1.000000
vn 0.000000 0.000000 -1.000000
vn 0.000000 0.000000 -1.000000
vn 0.000000 0.000000 -1.000000
vn -1.000000 0.000000 0.000000
vn -1.000000 0.000000 0.000000
vn -1.000000 0.000000 0.000000
vn -1.000000 0.000000 0.000000
vn -1.000000 0.000000 0.000000
vn -1.000000 0.000000 0.000000
vn 0.000000 0.959753 0.280847
vn 0.000000 0.959753 0.280847
vn 0.000000 0.959753 0.280847
vn 0.000000 0.959753 0.280847
vn 0.000000 0.959753 0.280847
vn 0.000000 0.959753 0.280846
vn 0.284418 0.958700 0.000000
vn 0.284418 0.958700 0.000000
vn 0.284418 0.958700 0.000000
vn 0.284418 0.958700 0.000000
vn 0.284418 0.958700 0.000000
vn 0.284418 0.958700 0.000000
vn 0.000000 0.959753 -0.280847
vn 0.000000 0.959753 -0.280847
vn 0.000000 0.959753 -0.280847
vn 0.000000 0.959753 -0.280847
vn 0.000000 0.959753 -0.280847
vn 0.000000 0.959753 -0.280846
vn -0.284418 0.958700 0.000000
vn -0.284418 0.958700 0.000000
vn -0.284418 0.958700 0.000000
vn -0.284418 0.958700 0.000000
vn -0.284418 0.958700 0.000000
vn -0.284418 0.958700 0.000000
vn -1.000000 0.000000 0.000000
vn -1.000000 0.000000 0.000000
vn -1.000000 0.000000 0.000000
vn -1.000000 0.000000 0.000000
vn -1.000000 0.000000 0.000000
vn -1.000000 0.000000 0.000000
s off
g Vitrine1:Vitrine_1
usemtl lambert2SG
f 1/1/1 2/2/2 3/3/3
f 3/3/4 2/2/5 4/4/6
f 37/5/7 38/6/8 40/7/9
f 40/7/10 38/6/11 39/8/12
f 5/9/13 6/10/14 7/11/15
f 7/11/16 6/10/17 8/12/18
f 7/11/19 8/13/20 1/14/21
f 1/14/22 8/13/23 2/15/24
f 2/2/25 8/12/26 4/4/27
f 4/4/28 8/12/29 6/10/30
f 3/3/31 4/4/32 9/16/33
f 9/16/34 4/4/35 10/17/36
f 4/4/37 6/10/38 10/17/39
f 10/17/40 6/10/41 11/18/42
f 6/10/43 5/9/44 11/18/45
f 11/18/46 5/9/47 12/19/48
f 5/9/49 3/20/50 12/19/51
f 12/19/52 3/20/53 9/21/54
f 9/16/55 10/17/56 13/22/57
f 13/22/58 10/17/59 14/23/60
f 10/17/61 11/18/62 14/23/63
f 14/23/64 11/18/65 15/24/66
f 11/18/67 12/19/68 15/24/69
f 15/24/70 12/19/71 16/25/72
f 12/19/73 9/21/74 16/25/75
f 16/25/76 9/21/77 13/26/78
f 13/27/79 14/28/80 17/29/81
f 17/29/82 14/28/83 18/30/84
f 14/28/85 15/31/86 18/30/87
f 18/30/88 15/31/89 19/32/90
f 15/31/91 16/33/92 19/32/93
f 19/32/94 16/33/95 20/34/96
f 16/33/97 13/27/98 20/34/99
f 20/34/100 13/27/101 17/29/102
f 17/29/103 18/30/104 21/35/105
f 21/35/106 18/30/107 22/36/108
f 18/30/109 19/32/110 22/36/111
f 22/36/112 19/32/113 23/37/114
f 19/32/115 20/34/116 23/37/117
f 23/37/118 20/34/119 24/38/120
f 20/34/121 17/29/122 24/38/123
f 24/38/124 17/29/125 21/35/126
f 21/35/127 22/36/128 25/39/129
f 25/39/130 22/36/131 26/40/132
f 22/36/133 23/37/134 26/40/135
f 26/40/136 23/37/137 27/41/138
f 23/37/139 24/38/140 27/41/141
f 27/41/142 24/38/143 28/42/144
f 24/38/145 21/35/146 28/42/147
f 28/42/148 21/35/149 25/39/150
f 25/39/151 26/40/152 29/43/153
f 29/43/154 26/40/155 30/44/156
f 26/40/157 27/41/158 30/44/159
f 30/44/160 27/41/161 31/45/162
f 27/41/163 28/42/164 31/45/165
f 31/45/166 28/42/167 32/46/168
f 28/42/169 25/39/170 32/46/171
f 32/46/172 25/39/173 29/43/174
f 29/43/175 30/44/176 33/47/177
f 33/47/178 30/44/179 34/48/180
f 30/44/181 31/45/182 34/48/183
f 34/48/184 31/45/185 35/49/186
f 31/45/187 32/46/188 35/49/189
f 35/49/190 32/46/191 36/50/192
f 32/46/193 29/43/194 36/50/195
f 36/50/196 29/43/197 33/47/198
f 33/47/199 34/48/200 37/5/201
f 37/5/202 34/48/203 38/6/204
f 34/48/205 35/49/206 38/6/207
f 38/6/208 35/49/209 39/8/210
f 35/49/211 36/50/212 39/8/213
f 39/8/214 36/50/215 40/7/216
f 36/50/217 33/47/218 40/7/219
f 40/7/220 33/47/221 37/5/222
f 1/14/223 3/20/224 7/11/225
f 7/11/226 3/20/227 5/9/228
