# This file uses meters as units for non-parametric coordinates.

mtllib WorldWonder_8.mtl
g default
v 120.000008 -100.000031 0.000000
v 200.000000 -140.000015 0.000000
v 200.000000 -100.000031 0.000000
v 40.000015 -60.000031 0.000000
v 120.000008 -60.000031 0.000000
v 40.000015 -20.000031 0.000000
v 120.000008 -20.000031 0.000000
v -40.000015 19.999969 0.000000
v 40.000015 19.999969 0.000000
v 120.000008 19.999969 0.000000
v -200.000000 59.999969 0.000000
v -120.000000 19.999969 0.000000
v -120.000000 59.999969 0.000000
v -40.000015 59.999969 0.000000
v 40.000015 59.999969 0.000000
v -200.000000 99.999969 0.000000
v -120.000000 99.999969 0.000000
v -40.000015 99.999969 0.000000
v 40.000015 99.999969 0.000000
v -200.000000 140.000000 0.000000
v -120.000000 140.000000 0.000000
v -40.000015 140.000000 0.000000
vt 0.400000 0.378959
vt 0.500000 0.318439
vt 0.500000 0.378959
vt 0.300000 0.439480
vt 0.400000 0.439480
vt 0.300000 0.500000
vt 0.400000 0.500000
vt 0.200000 0.560520
vt 0.300000 0.560520
vt 0.400000 0.560520
vt 0.000000 0.621041
vt 0.100000 0.560520
vt 0.100000 0.621041
vt 0.200000 0.621041
vt 0.300000 0.621041
vt 0.000000 0.681561
vt 0.100000 0.681561
vt 0.200000 0.681561
vt 0.300000 0.681561
vt 0.000000 0.742082
vt 0.100000 0.742082
vt 0.200000 0.742082
vn 0.000000 0.000000 1.000000
vn 0.000000 0.000000 1.000000
vn 0.000000 0.000000 1.000000
vn 0.000000 0.000000 1.000000
vn 0.000000 0.000000 1.000000
vn 0.000000 0.000000 1.000000
vn 0.000000 0.000000 1.000000
vn 0.000000 0.000000 1.000000
vn 0.000000 0.000000 1.000000
vn 0.000000 0.000000 1.000000
vn 0.000000 0.000000 1.000000
vn 0.000000 0.000000 1.000000
vn 0.000000 0.000000 1.000000
vn 0.000000 0.000000 1.000000
vn 0.000000 0.000000 1.000000
vn 0.000000 0.000000 1.000000
vn 0.000000 0.000000 1.000000
vn 0.000000 0.000000 1.000000
vn 0.000000 0.000000 1.000000
vn 0.000000 0.000000 1.000000
vn 0.000000 0.000000 1.000000
vn 0.000000 0.000000 1.000000
s 1
g WonderPiece_8
usemtl lambert11SG
f 1/1/1 2/2/2 3/3/3
f 4/4/4 1/1/1 5/5/5
f 1/1/1 3/3/3 5/5/5
f 4/4/4 5/5/5 6/6/6
f 6/6/6 5/5/5 7/7/7
f 8/8/8 6/6/6 9/9/9
f 6/6/6 7/7/7 9/9/9
f 9/9/9 7/7/7 10/10/10
f 11/11/11 12/12/12 13/13/13
f 12/12/12 8/8/8 13/13/13
f 13/13/13 8/8/8 14/14/14
f 8/8/8 9/9/9 14/14/14
f 14/14/14 9/9/9 15/15/15
f 9/9/9 10/10/10 15/15/15
f 11/11/11 13/13/13 16/16/16
f 16/16/16 13/13/13 17/17/17
f 13/13/13 14/14/14 17/17/17
f 17/17/17 14/14/14 18/18/18
f 14/14/14 15/15/15 18/18/18
f 18/18/18 15/15/15 19/19/19
f 16/16/16 17/17/17 20/20/20
f 20/20/20 17/17/17 21/21/21
f 17/17/17 18/18/18 21/21/21
f 21/21/21 18/18/18 22/22/22
f 18/18/18 19/19/19 22/22/22
