# This file uses meters as units for non-parametric coordinates.

mtllib WorldWonder_9.mtl
g default
v -120.000015 -40.000000 0.000000
v -39.999985 -40.000000 0.000000
v -120.000015 0.000000 0.000000
v -39.999985 0.000000 0.000000
v 40.000031 -40.000000 0.000000
v 40.000031 0.000000 0.000000
v 120.000000 -40.000000 0.000000
v 120.000000 0.000000 0.000000
v -39.999985 40.000000 0.000000
v 40.000031 40.000000 0.000000
vt 0.700000 0.197398
vt 0.800000 0.197398
vt 0.700000 0.257918
vt 0.800000 0.257918
vt 0.900000 0.197398
vt 0.900000 0.257918
vt 1.000000 0.197398
vt 1.000000 0.257918
vt 0.800000 0.318439
vt 0.900000 0.318439
vn 0.000000 0.000000 1.000000
vn 0.000000 0.000000 1.000000
vn 0.000000 0.000000 1.000000
vn 0.000000 0.000000 1.000000
vn 0.000000 0.000000 1.000000
vn 0.000000 0.000000 1.000000
vn 0.000000 0.000000 1.000000
vn 0.000000 0.000000 1.000000
vn 0.000000 0.000000 1.000000
vn 0.000000 0.000000 1.000000
s 1
g WonderPiece_9
usemtl lambert11SG
f 1/1/1 2/2/2 3/3/3
f 3/3/3 2/2/2 4/4/4
f 2/2/2 5/5/5 4/4/4
f 4/4/4 5/5/5 6/6/6
f 5/5/5 7/7/7 6/6/6
f 6/6/6 7/7/7 8/8/8
f 4/4/4 6/6/6 9/9/9
f 9/9/9 6/6/6 10/10/10
f 6/6/6 8/8/8 10/10/10
