# This file uses meters as units for non-parametric coordinates.

mtllib WorldWonder_4.mtl
g default
v -159.999985 -59.999985 0.000000
v -80.000015 -99.999985 0.000000
v -80.000015 -59.999985 0.000000
v 0.000015 -99.999985 0.000000
v 0.000015 -59.999985 0.000000
v 80.000031 -59.999985 0.000000
v 160.000000 -99.999985 0.000000
v 160.000000 -59.999985 0.000000
v -159.999985 -20.000000 0.000000
v -80.000015 -20.000000 0.000000
v 0.000015 -20.000000 0.000000
v 80.000031 -20.000000 0.000000
v 160.000000 -20.000000 0.000000
v -80.000015 20.000000 0.000000
v 0.000015 20.000000 0.000000
v 80.000031 20.000000 0.000000
v 160.000000 20.000000 0.000000
v -80.000015 60.000000 0.000000
v 0.000015 60.000000 0.000000
v 80.000031 60.000000 0.000000
v 160.000000 60.000000 0.000000
v 0.000015 100.000000 0.000000
vt 0.600000 0.318439
vt 0.700000 0.257918
vt 0.700000 0.318439
vt 0.800000 0.257918
vt 0.800000 0.318439
vt 0.900000 0.318439
vt 1.000000 0.257918
vt 1.000000 0.318439
vt 0.600000 0.378959
vt 0.700000 0.378959
vt 0.800000 0.378959
vt 0.900000 0.378959
vt 1.000000 0.378959
vt 0.700000 0.439480
vt 0.800000 0.439480
vt 0.900000 0.439480
vt 1.000000 0.439480
vt 0.700000 0.500000
vt 0.800000 0.500000
vt 0.900000 0.500000
vt 1.000000 0.500000
vt 0.800000 0.560520
vn 0.000000 0.000000 1.000000
vn 0.000000 0.000000 1.000000
vn 0.000000 0.000000 1.000000
vn 0.000000 0.000000 1.000000
vn 0.000000 0.000000 1.000000
vn 0.000000 0.000000 1.000000
vn 0.000000 0.000000 1.000000
vn 0.000000 0.000000 1.000000
vn 0.000000 0.000000 1.000000
vn 0.000000 0.000000 1.000000
vn 0.000000 0.000000 1.000000
vn 0.000000 0.000000 1.000000
vn 0.000000 0.000000 1.000000
vn 0.000000 0.000000 1.000000
vn 0.000000 0.000000 1.000000
vn 0.000000 0.000000 1.000000
vn 0.000000 0.000000 1.000000
vn 0.000000 0.000000 1.000000
vn 0.000000 0.000000 1.000000
vn 0.000000 0.000000 1.000000
vn 0.000000 0.000000 1.000000
vn 0.000000 0.000000 1.000000
s 1
g WonderPiece_4
usemtl lambert11SG
f 1/1/1 2/2/2 3/3/3
f 2/2/2 4/4/4 3/3/3
f 3/3/3 4/4/4 5/5/5
f 6/6/6 7/7/7 8/8/8
f 1/1/1 3/3/3 9/9/9
f 9/9/9 3/3/3 10/10/10
f 3/3/3 5/5/5 10/10/10
f 10/10/10 5/5/5 11/11/11
f 5/5/5 6/6/6 11/11/11
f 11/11/11 6/6/6 12/12/12
f 6/6/6 8/8/8 12/12/12
f 12/12/12 8/8/8 13/13/13
f 10/10/10 11/11/11 14/14/14
f 14/14/14 11/11/11 15/15/15
f 11/11/11 12/12/12 15/15/15
f 15/15/15 12/12/12 16/16/16
f 12/12/12 13/13/13 16/16/16
f 16/16/16 13/13/13 17/17/17
f 14/14/14 15/15/15 18/18/18
f 18/18/18 15/15/15 19/19/19
f 15/15/15 16/16/16 19/19/19
f 19/19/19 16/16/16 20/20/20
f 16/16/16 17/17/17 20/20/20
f 20/20/20 17/17/17 21/21/21
f 19/19/19 20/20/20 22/22/22
